mtllib material.mtl
usemtl ISSWhiteMetal
v -7.53026700 6.69330500 -0.60660800
v -7.81829500 6.69330500 -0.00049400
v -7.94352500 7.41463100 -0.90716000
v -8.70993200 8.55422400 -0.00049400
v -8.25660100 8.55422400 -1.18266600
v -8.33173900 7.41463100 -0.00049400
v -5.07826100 6.69330600 -0.60660800
v -5.83715700 6.69330500 -1.15511500
v -4.66500300 7.41463100 -0.90716000
v -5.55664000 8.55422400 -2.05176300
v -4.35443200 8.55422400 -1.18266600
v -5.67936500 7.41463100 -1.64351300
v -7.05188700 8.55422400 -2.05176300
v -5.55664000 8.55422400 -2.05176300
v -6.93166700 7.41463100 -1.64351300
v -8.25660100 8.55422400 -1.18266600
v -7.05188700 8.55422400 -2.05176300
v -7.94352500 7.41463100 -0.90716000
v -7.53026700 6.69330500 -0.60660800
v -6.77137300 6.69330500 -1.15511500
v -4.79023300 6.69330600 -0.00049400
v -5.07826100 6.69330600 -0.60660800
v -4.27929300 7.41463100 -0.00049400
v -4.35443200 8.55422400 -1.18266600
v -3.89859500 8.55422400 -0.00049400
v -4.66500300 7.41463100 -0.90716000
v -8.70993200 8.55422400 -0.00049400
v -8.33173900 7.41463100 -0.00049400
v -8.25660100 8.55422400 1.18167800
v -7.94352500 7.41463100 0.90617100
v -7.81829500 6.69330500 -0.00049400
v -7.53026700 6.69330500 0.60561900
v -8.25660100 8.55422400 1.18167800
v -7.94352500 7.41463100 0.90617100
v -7.05188800 8.55422400 2.05077400
v -6.93166800 7.41463100 1.64252400
v -7.53026700 6.69330500 0.60561900
v -6.77137400 6.69330500 1.15663200
v -7.05188800 8.55422400 2.05077400
v -5.55664100 8.55422400 2.05077400
v -5.67936600 7.41463100 1.64252400
v -5.83715700 6.69330500 1.15663200
v -5.55664100 8.55422400 2.05077400
v -4.35443200 8.55422400 1.18167800
v -4.66500300 7.41463100 0.90617200
v -5.07826100 6.69330600 0.60561900
v -4.35443200 8.55422400 1.18167800
v -4.66500300 7.41463100 0.90617200
v -3.89859500 8.55422400 -0.00049400
v -4.27929300 7.41463100 -0.00049400
v -5.07826100 6.69330600 0.60561900
v -4.79023300 6.69330600 -0.00049400
v -4.35443200 8.55422400 1.18167800
v -6.30551800 8.55422400 -0.00049400
v -5.55664100 8.55422400 2.05077400
v -7.05188800 8.55422400 2.05077400
v -8.25660100 8.55422400 1.18167800
v -8.70993200 8.55422400 -0.00049400
v -8.25660100 8.55422400 -1.18266600
v -7.05188700 8.55422400 -2.05176300
v -5.55664000 8.55422400 -2.05176300
v -4.35443200 8.55422400 -1.18266600
v -3.89859500 8.55422400 -0.00049400
v -43.07055700 -1.22624600 -0.60661000
v -43.07055700 -1.51427500 -0.00049600
v -43.79439200 -1.63950500 -0.90716200
v -44.93148000 -2.40591300 -0.00049600
v -44.93148000 -1.95007600 -1.18266800
v -43.79439200 -2.02521300 -0.00049600
v -43.07055700 1.22575900 -0.60661000
v -43.07055700 0.46686500 -1.15511800
v -43.79439200 1.63901800 -0.90716200
v -44.93148000 0.74738000 -2.05176500
v -44.93148000 1.95209300 -1.18266800
v -43.79439200 0.62715900 -1.64351500
v -44.93148000 -0.74786700 -2.05176500
v -44.93148000 0.74738000 -2.05176500
v -43.79439200 -0.62514100 -1.64351500
v -44.93148000 -1.95007600 -1.18266800
v -44.93148000 -0.74786700 -2.05176500
v -43.79439200 -1.63950500 -0.90716200
v -43.07055700 -1.22624600 -0.60661000
v -43.07055700 -0.46735100 -1.15511800
v -43.07055700 1.51378800 -0.00049600
v -43.07055700 1.22575900 -0.60661000
v -43.79439200 2.02723100 -0.00049700
v -44.93148000 1.95209300 -1.18266800
v -44.93148000 2.40542600 -0.00049700
v -43.79439200 1.63901800 -0.90716200
v -44.93148000 -2.40591300 -0.00049600
v -43.79439200 -2.02521300 -0.00049600
v -44.93148000 -1.95007500 1.18167600
v -43.79439200 -1.63950500 0.90616900
v -43.07055700 -1.51427500 -0.00049600
v -43.07055700 -1.22624600 0.60561700
v -44.93148000 -1.95007500 1.18167600
v -43.79439200 -1.63950500 0.90616900
v -44.93148000 -0.74786700 2.05077200
v -43.79439200 -0.62514100 1.64252200
v -43.07055700 -1.22624600 0.60561700
v -43.07055700 -0.46735100 1.15663000
v -44.93148000 -0.74786700 2.05077200
v -44.93148000 0.74738000 2.05077200
v -43.79439200 0.62716000 1.64252200
v -43.07055700 0.46686500 1.15663000
v -44.93148000 0.74738000 2.05077200
v -44.93148000 1.95209400 1.18167500
v -43.79439200 1.63901900 0.90616900
v -43.07055700 1.22575900 0.60561700
v -44.93148000 1.95209400 1.18167500
v -43.79439200 1.63901900 0.90616900
v -44.93148000 2.40542600 -0.00049700
v -43.79439200 2.02723100 -0.00049700
v -43.07055700 1.22575900 0.60561700
v -43.07055700 1.51378800 -0.00049600
v -44.93148000 1.95209400 1.18167500
v -44.93148000 0.00100900 -0.00049600
v -44.93148000 0.74738000 2.05077200
v -44.93148000 -0.74786700 2.05077200
v -44.93148000 -1.95007500 1.18167600
v -44.93148000 -2.40591300 -0.00049600
v -44.93148000 -1.95007600 -1.18266800
v -44.93148000 -0.74786700 -2.05176500
v -44.93148000 0.74738000 -2.05176500
v -44.93148000 1.95209300 -1.18266800
v -44.93148000 2.40542600 -0.00049700
vn -0.75770000 -0.55700000 -0.34000000
vn -0.75780000 -0.55700000 -0.34000000
vn -0.82850000 -0.43640000 -0.35100000
vn -0.88150000 -0.31200000 -0.35440000
vn -0.88150000 -0.31200000 -0.35440000
vn -0.82850000 -0.43640000 -0.35100000
vn 0.48720000 -0.55780000 -0.67200000
vn 0.25140000 -0.57820000 -0.77620000
vn 0.52460000 -0.44820000 -0.72380000
vn 0.55260000 -0.33610000 -0.76260000
vn 0.55260000 -0.33610000 -0.76270000
vn 0.27250000 -0.47070000 -0.83920000
vn -0.00000000 -0.33800000 -0.94120000
vn -0.00000000 -0.33790000 -0.94120000
vn -0.27250000 -0.47060000 -0.83920000
vn -0.55260000 -0.33610000 -0.76270000
vn -0.55260000 -0.33610000 -0.76270000
vn -0.52460000 -0.44820000 -0.72380000
vn -0.48720000 -0.55770000 -0.67200000
vn -0.25140000 -0.57820000 -0.77620000
vn 0.75770000 -0.55700000 -0.34000000
vn 0.75780000 -0.55690000 -0.34000000
vn 0.82850000 -0.43640000 -0.35100000
vn 0.88150000 -0.31200000 -0.35440000
vn 0.88150000 -0.31200000 -0.35440000
vn 0.82850000 -0.43640000 -0.35100000
vn -0.88150000 -0.31200000 0.35440000
vn -0.82850000 -0.43640000 0.35100000
vn -0.88150000 -0.31200000 0.35440000
vn -0.82850000 -0.43640000 0.35100000
vn -0.75780000 -0.55700000 0.34000000
vn -0.75770000 -0.55700000 0.34000000
vn -0.55250000 -0.33610000 0.76270000
vn -0.52460000 -0.44820000 0.72380000
vn -0.55260000 -0.33610000 0.76270000
vn -0.27250000 -0.47070000 0.83920000
vn -0.48720000 -0.55770000 0.67200000
vn -0.25140000 -0.57850000 0.77590000
vn -0.00000000 -0.33800000 0.94120000
vn -0.00000000 -0.33790000 0.94120000
vn 0.27250000 -0.47070000 0.83920000
vn 0.25160000 -0.57810000 0.77620000
vn 0.55260000 -0.33610000 0.76260000
vn 0.55260000 -0.33610000 0.76270000
vn 0.52460000 -0.44820000 0.72380000
vn 0.48720000 -0.55780000 0.67200000
vn 0.88150000 -0.31200000 0.35440000
vn 0.82850000 -0.43640000 0.35100000
vn 0.88150000 -0.31200000 0.35440000
vn 0.82850000 -0.43640000 0.35100000
vn 0.75770000 -0.55700000 0.34000000
vn 0.75770000 -0.55700000 0.34000000
vn -0.00000000 1.00000000 -0.00000000
vn -0.00000000 1.00000000 -0.00000000
vn -0.00000000 1.00000000 -0.00000000
vn -0.00000000 1.00000000 -0.00000000
vn -0.00000000 1.00000000 -0.00000000
vn -0.00000000 1.00000000 -0.00000000
vn -0.00000000 1.00000000 -0.00000000
vn -0.00000000 1.00000000 -0.00000000
vn -0.00000000 1.00000000 -0.00000000
vn -0.00000000 1.00000000 -0.00000000
vn -0.00000000 1.00000000 -0.00000000
vn 0.55700000 -0.75770000 -0.34000000
vn 0.55680000 -0.75800000 -0.33980000
vn 0.43640000 -0.82850000 -0.35100000
vn 0.31200000 -0.88150000 -0.35440000
vn 0.31200000 -0.88150000 -0.35440000
vn 0.43640000 -0.82850000 -0.35100000
vn 0.55770000 0.48720000 -0.67200000
vn 0.57840000 0.25160000 -0.77600000
vn 0.45170000 0.52140000 -0.72400000
vn 0.33610000 0.55260000 -0.76270000
vn 0.33610000 0.55260000 -0.76270000
vn 0.47070000 0.27250000 -0.83920000
vn 0.33790000 -0.00000000 -0.94120000
vn 0.33790000 -0.00000000 -0.94120000
vn 0.47070000 -0.27250000 -0.83920000
vn 0.33610000 -0.55260000 -0.76260000
vn 0.33610000 -0.55260000 -0.76270000
vn 0.45170000 -0.52140000 -0.72400000
vn 0.55770000 -0.48720000 -0.67200000
vn 0.57840000 -0.25120000 -0.77610000
vn 0.55700000 0.75770000 -0.34000000
vn 0.55700000 0.75770000 -0.34000000
vn 0.43640000 0.82850000 -0.35100000
vn 0.31200000 0.88150000 -0.35440000
vn 0.31200000 0.88150000 -0.35440000
vn 0.43640000 0.82850000 -0.35100000
vn 0.31200000 -0.88150000 0.35440000
vn 0.43640000 -0.82850000 0.35100000
vn 0.31200000 -0.88150000 0.35440000
vn 0.43640000 -0.82850000 0.35100000
vn 0.55680000 -0.75800000 0.33980000
vn 0.55700000 -0.75770000 0.34000000
vn 0.33610000 -0.55260000 0.76270000
vn 0.45170000 -0.52140000 0.72400000
vn 0.33610000 -0.55260000 0.76270000
vn 0.47070000 -0.27250000 0.83920000
vn 0.55760000 -0.48740000 0.67190000
vn 0.57820000 -0.25140000 0.77620000
vn 0.33790000 -0.00000000 0.94120000
vn 0.33790000 -0.00000000 0.94120000
vn 0.47070000 0.27250000 0.83920000
vn 0.57810000 0.25140000 0.77620000
vn 0.33610000 0.55260000 0.76270000
vn 0.33610000 0.55260000 0.76270000
vn 0.45160000 0.52140000 0.72400000
vn 0.55770000 0.48720000 0.67200000
vn 0.31200000 0.88150000 0.35440000
vn 0.43640000 0.82850000 0.35100000
vn 0.31190000 0.88150000 0.35450000
vn 0.43640000 0.82850000 0.35100000
vn 0.55700000 0.75770000 0.34000000
vn 0.55700000 0.75770000 0.34000000
vn -1.00000000 -0.00000000 -0.00000000
vn -1.00000000 -0.00000000 -0.00000000
vn -1.00000000 -0.00000000 -0.00000000
vn -1.00000000 -0.00000000 -0.00000000
vn -1.00000000 -0.00000000 -0.00000000
vn -1.00000000 -0.00000000 -0.00000000
vn -1.00000000 -0.00000000 -0.00000000
vn -1.00000000 -0.00000000 -0.00000000
vn -1.00000000 -0.00000000 -0.00000000
vn -1.00000000 -0.00000000 -0.00000000
vn -1.00000000 -0.00000000 -0.00000000
vt 0.62641200 0.24807600
vt 0.65625000 0.15627200
vt 0.62641200 0.24807600
vt 0.65625000 0.15627200
vt 0.62641200 0.24807600
vt 0.65625000 0.15627200
vt 0.37358800 0.24807600
vt 0.45173200 0.30485300
vt 0.37358800 0.24807600
vt 0.45173200 0.30485300
vt 0.37358800 0.24807600
vt 0.45173200 0.30485300
vt 0.54826800 0.30485300
vt 0.45173200 0.30485300
vt 0.54826800 0.30485300
vt 0.62641200 0.24807600
vt 0.54826800 0.30485300
vt 0.62641200 0.24807600
vt 0.62641200 0.24807600
vt 0.54826800 0.30485300
vt 0.34375000 0.15627200
vt 0.37358800 0.24807600
vt 0.34375000 0.15627200
vt 0.37358800 0.24807600
vt 0.34375000 0.15627200
vt 0.37358800 0.24807600
vt 0.65625000 0.15627200
vt 0.65625000 0.15627200
vt 0.62641200 0.24807600
vt 0.62641200 0.24807600
vt 0.65625000 0.15627200
vt 0.62641200 0.24807600
vt 0.62641200 0.24807600
vt 0.62641200 0.24807600
vt 0.54826800 0.30485300
vt 0.54826800 0.30485300
vt 0.62641200 0.24807600
vt 0.54826800 0.30485300
vt 0.54826800 0.30485300
vt 0.45173200 0.30485300
vt 0.45173200 0.30485300
vt 0.45173200 0.30485300
vt 0.45173200 0.30485300
vt 0.37358800 0.24807600
vt 0.37358800 0.24807600
vt 0.37358800 0.24807600
vt 0.37358800 0.24807600
vt 0.37358800 0.24807600
vt 0.34375000 0.15627200
vt 0.34375000 0.15627200
vt 0.37358800 0.24807600
vt 0.34375000 0.15627200
vt 0.37358800 0.24807600
vt 0.50003800 0.15001400
vt 0.45173200 0.30485300
vt 0.54826800 0.30485300
vt 0.62641200 0.24807600
vt 0.65625000 0.15627200
vt 0.62641200 0.24807600
vt 0.54826800 0.30485300
vt 0.45173200 0.30485300
vt 0.37358800 0.24807600
vt 0.34375000 0.15627200
vt 0.62641200 0.24807600
vt 0.65625000 0.15627200
vt 0.62641200 0.24807600
vt 0.65625000 0.15627200
vt 0.62641200 0.24807600
vt 0.65625000 0.15627200
vt 0.37358800 0.24807600
vt 0.45173200 0.30485300
vt 0.37358800 0.24807600
vt 0.45173200 0.30485300
vt 0.37358800 0.24807600
vt 0.45173200 0.30485300
vt 0.54826800 0.30485300
vt 0.45173200 0.30485300
vt 0.54826800 0.30485300
vt 0.62641200 0.24807600
vt 0.54826800 0.30485300
vt 0.62641200 0.24807600
vt 0.62641200 0.24807600
vt 0.54826800 0.30485300
vt 0.34375000 0.15627200
vt 0.37358800 0.24807600
vt 0.34375000 0.15627200
vt 0.37358800 0.24807600
vt 0.34375000 0.15627200
vt 0.37358800 0.24807600
vt 0.65625000 0.15627200
vt 0.65625000 0.15627200
vt 0.62641200 0.24807600
vt 0.62641200 0.24807600
vt 0.65625000 0.15627200
vt 0.62641200 0.24807600
vt 0.62641200 0.24807600
vt 0.62641200 0.24807600
vt 0.54826800 0.30485300
vt 0.54826800 0.30485300
vt 0.62641200 0.24807600
vt 0.54826800 0.30485300
vt 0.54826800 0.30485300
vt 0.45173200 0.30485300
vt 0.45173200 0.30485300
vt 0.45173200 0.30485300
vt 0.45173200 0.30485300
vt 0.37358800 0.24807600
vt 0.37358800 0.24807600
vt 0.37358800 0.24807600
vt 0.37358800 0.24807600
vt 0.37358800 0.24807600
vt 0.34375000 0.15627200
vt 0.34375000 0.15627200
vt 0.37358800 0.24807600
vt 0.34375000 0.15627200
vt 0.37358800 0.24807600
vt 0.50003800 0.15001400
vt 0.45173200 0.30485300
vt 0.54826800 0.30485300
vt 0.62641200 0.24807600
vt 0.65625000 0.15627200
vt 0.62641200 0.24807600
vt 0.54826800 0.30485300
vt 0.45173200 0.30485300
vt 0.37358800 0.24807600
vt 0.34375000 0.15627200
f 1/1/1 2/2/2 3/3/3
f 4/4/4 5/5/5 6/6/6
f 5/5/5 3/3/3 6/6/6
f 3/3/3 2/2/2 6/6/6
f 7/7/7 8/8/8 9/9/9
f 10/10/10 11/11/11 12/12/12
f 11/11/11 9/9/9 12/12/12
f 9/9/9 8/8/8 12/12/12
f 13/13/13 14/14/14 15/15/15
f 14/14/14 12/12/12 15/15/15
f 16/16/16 17/17/17 18/18/18
f 17/17/17 15/15/15 18/18/18
f 18/18/18 15/15/15 19/19/19
f 19/19/19 15/15/15 20/20/20
f 15/15/15 12/12/12 20/20/20
f 12/12/12 8/8/8 20/20/20
f 21/21/21 22/22/22 23/23/23
f 24/24/24 25/25/25 26/26/26
f 25/25/25 23/23/23 26/26/26
f 23/23/23 22/22/22 26/26/26
f 27/27/27 28/28/28 29/29/29
f 29/29/29 28/28/28 30/30/30
f 28/28/28 31/31/31 30/30/30
f 31/31/31 32/32/32 30/30/30
f 33/33/33 34/34/34 35/35/35
f 35/35/35 34/34/34 36/36/36
f 34/34/34 37/37/37 36/36/36
f 37/37/37 38/38/38 36/36/36
f 39/39/39 36/36/36 40/40/40
f 40/40/40 36/36/36 41/41/41
f 36/36/36 38/38/38 41/41/41
f 38/38/38 42/42/42 41/41/41
f 43/43/43 41/41/41 44/44/44
f 44/44/44 41/41/41 45/45/45
f 41/41/41 42/42/42 45/45/45
f 42/42/42 46/46/46 45/45/45
f 47/47/47 48/48/48 49/49/49
f 49/49/49 48/48/48 50/50/50
f 48/48/48 51/51/51 50/50/50
f 51/51/51 52/52/52 50/50/50
f 53/53/53 54/54/54 55/55/55
f 55/55/55 54/54/54 56/56/56
f 56/56/56 54/54/54 57/57/57
f 57/57/57 54/54/54 58/58/58
f 58/58/58 54/54/54 59/59/59
f 59/59/59 54/54/54 60/60/60
f 60/60/60 54/54/54 61/61/61
f 61/61/61 54/54/54 62/62/62
f 62/62/62 54/54/54 63/63/63
f 54/54/54 53/53/53 63/63/63
f 64/64/64 65/65/65 66/66/66
f 67/67/67 68/68/68 69/69/69
f 68/68/68 66/66/66 69/69/69
f 66/66/66 65/65/65 69/69/69
f 70/70/70 71/71/71 72/72/72
f 73/73/73 74/74/74 75/75/75
f 74/74/74 72/72/72 75/75/75
f 72/72/72 71/71/71 75/75/75
f 76/76/76 77/77/77 78/78/78
f 77/77/77 75/75/75 78/78/78
f 79/79/79 80/80/80 81/81/81
f 80/80/80 78/78/78 81/81/81
f 81/81/81 78/78/78 82/82/82
f 82/82/82 78/78/78 83/83/83
f 78/78/78 75/75/75 83/83/83
f 75/75/75 71/71/71 83/83/83
f 84/84/84 85/85/85 86/86/86
f 87/87/87 88/88/88 89/89/89
f 88/88/88 86/86/86 89/89/89
f 86/86/86 85/85/85 89/89/89
f 90/90/90 91/91/91 92/92/92
f 92/92/92 91/91/91 93/93/93
f 91/91/91 94/94/94 93/93/93
f 94/94/94 95/95/95 93/93/93
f 96/96/96 97/97/97 98/98/98
f 98/98/98 97/97/97 99/99/99
f 97/97/97 100/100/100 99/99/99
f 100/100/100 101/101/101 99/99/99
f 102/102/102 99/99/99 103/103/103
f 103/103/103 99/99/99 104/104/104
f 99/99/99 101/101/101 104/104/104
f 101/101/101 105/105/105 104/104/104
f 106/106/106 104/104/104 107/107/107
f 107/107/107 104/104/104 108/108/108
f 104/104/104 105/105/105 108/108/108
f 105/105/105 109/109/109 108/108/108
f 110/110/110 111/111/111 112/112/112
f 112/112/112 111/111/111 113/113/113
f 111/111/111 114/114/114 113/113/113
f 114/114/114 115/115/115 113/113/113
f 116/116/116 117/117/117 118/118/118
f 118/118/118 117/117/117 119/119/119
f 119/119/119 117/117/117 120/120/120
f 120/120/120 117/117/117 121/121/121
f 121/121/121 117/117/117 122/122/122
f 122/122/122 117/117/117 123/123/123
f 123/123/123 117/117/117 124/124/124
f 124/124/124 117/117/117 125/125/125
f 125/125/125 117/117/117 126/126/126
f 117/117/117 116/116/116 126/126/126

