mtllib material.mtl
usemtl ISSGray2
v 2.01149200 -5.77975500 29.12299500
v 2.01149200 -5.77975500 32.15715800
v 5.23254600 -6.62624400 29.12299500
v 14.79127200 -5.77975400 32.15715800
v 14.79127200 -5.77975500 29.12299700
v 11.79008600 -6.45584500 32.15715800
v 11.79008600 -6.45584600 29.12299500
v 8.63499100 -5.77975400 32.15715800
v 8.63499100 -5.77975500 29.12299500
v 5.23254600 -6.62624300 32.15715800
v 2.01149200 -5.77975500 32.15715800
v 2.01149200 -6.11505200 32.15715800
v 5.23254600 -6.62624300 32.15715800
v 14.79127200 -6.11505200 32.15715800
v 14.79127200 -5.77975400 32.15715800
v 11.79008600 -6.79114300 32.15715800
v 11.79008600 -6.45584500 32.15715800
v 8.63499100 -6.11505200 32.15715800
v 8.63499100 -5.77975400 32.15715800
v 5.23254600 -6.96154100 32.15715800
v 2.01149200 -6.11505200 32.15715800
v 2.01149200 -6.11505300 29.12299500
v 5.23254600 -6.96154100 32.15715800
v 14.79127200 -6.11505200 29.12299700
v 14.79127200 -6.11505200 32.15715800
v 11.79008600 -6.79114300 29.12299500
v 11.79008600 -6.79114300 32.15715800
v 8.63499100 -6.11505200 29.12299500
v 8.63499100 -6.11505200 32.15715800
v 5.23254600 -6.96154200 29.12299500
v 2.01149200 -6.11505300 29.12299500
v 2.01149200 -5.77975500 29.12299500
v 5.23254600 -6.96154200 29.12299500
v 14.79127200 -5.77975500 29.12299700
v 14.79127200 -6.11505200 29.12299700
v 11.79008600 -6.45584600 29.12299500
v 11.79008600 -6.79114300 29.12299500
v 8.63499100 -5.77975500 29.12299500
v 8.63499100 -6.11505200 29.12299500
v 5.23254600 -6.62624400 29.12299500
v 2.01149100 -5.77975400 41.85880300
v 2.01149100 -5.77975400 45.03038400
v 5.14459800 -6.62624200 41.85880300
v 14.79127100 -5.77975300 45.03038400
v 14.79127100 -5.77975300 41.85880300
v 11.83405800 -6.45584400 45.03038400
v 11.83405800 -6.45584400 41.85880300
v 8.47008900 -5.77975300 45.03038400
v 8.47008900 -5.77975300 41.85880300
v 5.14459800 -6.62624200 45.03038400
v 2.01149100 -5.77975400 45.03038400
v 2.01149100 -6.11505100 45.03038400
v 5.14459800 -6.62624200 45.03038400
v 14.79127100 -6.11505100 45.03038400
v 14.79127100 -5.77975300 45.03038400
v 11.83405800 -6.79114200 45.03038400
v 11.83405800 -6.45584400 45.03038400
v 8.47008900 -6.11505100 45.03038400
v 8.47008900 -5.77975300 45.03038400
v 5.14459800 -6.96154000 45.03038400
v 2.01149100 -6.11505100 45.03038400
v 2.01149100 -6.11505100 41.85880300
v 5.14459800 -6.96154000 45.03038400
v 14.79127100 -6.11505100 41.85880300
v 14.79127100 -6.11505100 45.03038400
v 11.83405800 -6.79114200 41.85880300
v 11.83405800 -6.79114200 45.03038400
v 8.47008900 -6.11505100 41.85880300
v 8.47008900 -6.11505100 45.03038400
v 5.14459800 -6.96154000 41.85880300
v 2.01149100 -6.11505100 41.85880300
v 2.01149100 -5.77975400 41.85880300
v 5.14459800 -6.96154000 41.85880300
v 14.79127100 -5.77975300 41.85880300
v 14.79127100 -6.11505100 41.85880300
v 11.83405800 -6.45584400 41.85880300
v 11.83405800 -6.79114200 41.85880300
v 8.47008900 -5.77975300 41.85880300
v 8.47008900 -6.11505100 41.85880300
v 5.14459800 -6.62624200 41.85880300
v 14.79127200 -6.11505200 29.12299700
v 14.79127200 -5.77975500 29.12299700
v 14.79127200 -6.11505200 32.15715800
v 14.79127200 -5.77975400 32.15715800
v 14.79127100 -6.11505100 41.85880300
v 14.79127100 -5.77975300 41.85880300
v 14.79127100 -6.11505100 45.03038400
v 14.79127100 -5.77975300 45.03038400
v -3.27631300 -19.27960200 13.66632900
v -3.27631300 -13.26623500 13.59487300
v -3.27631300 -19.27960200 13.59487400
v -3.27631300 -19.27960200 13.51792100
v -3.27631300 -13.26623500 13.51792000
v -3.27631300 -7.20339700 13.51792000
v -3.27631300 -7.20339700 13.60037000
v -3.27631300 -7.20339700 13.66632800
v -3.27631300 -13.26623500 13.66632800
v -1.16558800 -19.27960200 13.66632900
v -1.16558800 -19.27960200 13.59487400
v -1.16558800 -13.26623500 13.66632800
v -1.16558800 -13.26623500 13.59487300
v -1.16558800 -7.20339700 13.66632800
v -1.16009100 -7.20339700 13.60037000
v -1.16558800 -7.20339700 13.51792000
v -1.16558800 -13.26623500 13.51792000
v -1.16558800 -19.27960200 13.51792100
v -3.27631300 -19.27960200 13.66632900
v -2.22095000 -19.27960200 13.59487400
v -2.22095000 -19.27960200 13.66632900
v -1.16558800 -19.27960200 13.66632900
v -1.16558800 -19.27960200 13.59487400
v -1.16558800 -19.27960200 13.51792100
v -2.22095000 -19.27960200 13.51792100
v -3.27631300 -19.27960200 13.51792100
v -3.27631300 -19.27960200 13.59487400
v -3.27631300 -7.20339700 13.66632800
v -2.22095000 -13.26623500 13.66632800
v -2.22095100 -7.20339700 13.66632800
v -1.16558800 -7.20339700 13.66632800
v -1.16558800 -13.26623500 13.66632800
v -1.16558800 -19.27960200 13.66632900
v -2.22095000 -19.27960200 13.66632900
v -3.27631300 -19.27960200 13.66632900
v -3.27631300 -13.26623500 13.66632800
v -3.27631300 -19.27960200 13.51792100
v -2.22095000 -13.26623500 13.51792000
v -2.22095000 -19.27960200 13.51792100
v -1.16558800 -19.27960200 13.51792100
v -1.16558800 -13.26623500 13.51792000
v -1.16558800 -7.20339700 13.51792000
v -2.22095100 -7.20339700 13.51792000
v -3.27631300 -7.20339700 13.51792000
v -3.27631300 -13.26623500 13.51792000
v -0.37406600 -19.27960200 13.66632900
v -0.37406600 -13.26623500 13.59487300
v -0.37406600 -19.27960200 13.59487400
v -0.37406600 -19.27960200 13.51792100
v -0.37406600 -13.26623500 13.51792000
v -0.37406600 -7.20339700 13.51792000
v -0.37406600 -7.20339700 13.60037000
v -0.37406600 -7.20339700 13.66632800
v -0.37406600 -13.26623500 13.66632800
v 1.76414300 -19.27960200 13.66632900
v 1.76414300 -19.27960200 13.59487400
v 1.76414300 -13.26623500 13.66632800
v 1.76414300 -13.26623500 13.59487300
v 1.75314900 -7.20339700 13.66632800
v 1.75314900 -7.20339700 13.60037000
v 1.75314900 -7.20339700 13.51792000
v 1.76414300 -13.26623500 13.51792000
v 1.76414300 -19.27960200 13.51792100
v -0.37406600 -19.27960200 13.66632900
v 0.69778700 -19.27960200 13.59487400
v 0.69778700 -19.27960200 13.66632900
v 1.76414300 -19.27960200 13.66632900
v 1.76414300 -19.27960200 13.59487400
v 1.76414300 -19.27960200 13.51792100
v 0.69778700 -19.27960200 13.51792100
v -0.37406600 -19.27960200 13.51792100
v -0.37406600 -19.27960200 13.59487400
v -0.37406600 -7.20339700 13.66632800
v 0.69778700 -13.26623500 13.66632800
v 0.69778600 -7.20339700 13.66632800
v 1.75314900 -7.20339700 13.66632800
v 1.76414300 -13.26623500 13.66632800
v 1.76414300 -19.27960200 13.66632900
v 0.69778700 -19.27960200 13.66632900
v -0.37406600 -19.27960200 13.66632900
v -0.37406600 -13.26623500 13.66632800
v -0.37406600 -19.27960200 13.51792100
v 0.69778700 -13.26623500 13.51792000
v 0.69778700 -19.27960200 13.51792100
v 1.76414300 -19.27960200 13.51792100
v 1.76414300 -13.26623500 13.51792000
v 1.75314900 -7.20339700 13.51792000
v 0.69778600 -7.20339700 13.51792000
v -0.37406600 -7.20339700 13.51792000
v -0.37406600 -13.26623500 13.51792000
v 2.55566500 -19.27960200 13.66632900
v 2.55566500 -13.26623500 13.59487300
v 2.55566500 -19.27960200 13.59487400
v 2.55566500 -19.27960200 13.51792100
v 2.55566500 -13.26623500 13.51792000
v 2.55566400 -7.20339700 13.60037000
v 2.55566500 -13.26623500 13.66632800
v 4.66639000 -19.27960200 13.66632900
v 4.66639000 -19.27960200 13.59487400
v 4.66638900 -13.26623500 13.66632800
v 4.66638900 -13.26623500 13.59487300
v 4.66638900 -7.20339700 13.71580100
v 4.66638900 -7.20339700 13.41898000
v 4.66638900 -13.26623500 13.51792000
v 4.66639000 -19.27960200 13.51792100
v 2.55566500 -19.27960200 13.66632900
v 3.62751700 -19.27960200 13.59487400
v 3.62751700 -19.27960200 13.66632900
v 4.66639000 -19.27960200 13.66632900
v 4.66639000 -19.27960200 13.59487400
v 4.66639000 -19.27960200 13.51792100
v 3.62751700 -19.27960200 13.51792100
v 2.55566500 -19.27960200 13.51792100
v 2.55566500 -19.27960200 13.59487400
v 2.55566400 -7.20339700 13.60037000
v 3.62751700 -13.26623500 13.66632800
v 3.62751700 -7.20339700 13.78176000
v 4.66638900 -7.20339700 13.71580100
v 4.66638900 -13.26623500 13.66632800
v 4.66639000 -19.27960200 13.66632900
v 3.62751700 -19.27960200 13.66632900
v 2.55566500 -19.27960200 13.66632900
v 2.55566500 -13.26623500 13.66632800
v 2.55566500 -19.27960200 13.51792100
v 3.62751700 -13.26623500 13.51792000
v 3.62751700 -19.27960200 13.51792100
v 4.66639000 -19.27960200 13.51792100
v 4.66638900 -13.26623500 13.51792000
v 4.66638900 -7.20339700 13.41898000
v 3.62751700 -7.20339700 13.41898000
v 2.55566400 -7.20339700 13.60037000
v 2.55566500 -13.26623500 13.51792000
v 14.79127700 -5.77976000 -32.14849500
v 11.79009100 -6.45585100 -32.14849500
v 14.79127700 -5.77975900 -29.11432800
v 11.79009100 -6.45585100 -29.11433000
v 8.63499500 -5.77976000 -32.14849500
v 8.63499500 -5.77975900 -29.11433000
v 5.23255100 -6.62624900 -32.14849500
v 5.23255100 -6.62624800 -29.11433000
v 2.01149600 -5.77976000 -32.14849500
v 2.01149600 -5.77976000 -29.11433000
v 14.79127700 -6.11505700 -32.14849500
v 11.79009100 -6.79114900 -32.14849500
v 14.79127700 -5.77976000 -32.14849500
v 11.79009100 -6.45585100 -32.14849500
v 8.63499500 -6.11505700 -32.14849500
v 8.63499500 -5.77976000 -32.14849500
v 5.23255100 -6.96154700 -32.14849500
v 5.23255100 -6.62624900 -32.14849500
v 2.01149600 -6.11505800 -32.14849500
v 2.01149600 -5.77976000 -32.14849500
v 14.79127700 -6.11505700 -29.11432800
v 11.79009100 -6.79114800 -29.11433000
v 14.79127700 -6.11505700 -32.14849500
v 11.79009100 -6.79114900 -32.14849500
v 8.63499500 -6.11505700 -29.11433000
v 8.63499500 -6.11505700 -32.14849500
v 5.23255100 -6.96154600 -29.11433000
v 5.23255100 -6.96154700 -32.14849500
v 2.01149600 -6.11505700 -29.11433000
v 2.01149600 -6.11505800 -32.14849500
v 14.79127700 -5.77975900 -29.11432800
v 11.79009100 -6.45585100 -29.11433000
v 14.79127700 -6.11505700 -29.11432800
v 11.79009100 -6.79114800 -29.11433000
v 8.63499500 -5.77975900 -29.11433000
v 8.63499500 -6.11505700 -29.11433000
v 5.23255100 -6.62624800 -29.11433000
v 5.23255100 -6.96154600 -29.11433000
v 2.01149600 -5.77976000 -29.11433000
v 2.01149600 -6.11505700 -29.11433000
v 14.79127800 -5.77976100 -45.02172100
v 11.83406400 -6.45585200 -45.02172100
v 14.79127800 -5.77976100 -41.85013600
v 11.83406400 -6.45585200 -41.85013600
v 8.47009600 -5.77976100 -45.02172100
v 8.47009600 -5.77976100 -41.85013600
v 5.14460500 -6.62625000 -45.02172100
v 5.14460400 -6.62625000 -41.85013600
v 2.01149700 -5.77976100 -45.02172100
v 2.01149700 -5.77976100 -41.85013600
v 14.79127800 -6.11505800 -45.02172100
v 11.83406400 -6.79115000 -45.02172100
v 14.79127800 -5.77976100 -45.02172100
v 11.83406400 -6.45585200 -45.02172100
v 8.47009600 -6.11505800 -45.02172100
v 8.47009600 -5.77976100 -45.02172100
v 5.14460500 -6.96154800 -45.02172100
v 5.14460500 -6.62625000 -45.02172100
v 2.01149700 -6.11505900 -45.02172100
v 2.01149700 -5.77976100 -45.02172100
v 14.79127800 -6.11505800 -41.85013600
v 11.83406400 -6.79115000 -41.85013600
v 14.79127800 -6.11505800 -45.02172100
v 11.83406400 -6.79115000 -45.02172100
v 8.47009600 -6.11505800 -41.85013600
v 8.47009600 -6.11505800 -45.02172100
v 5.14460400 -6.96154800 -41.85013600
v 5.14460500 -6.96154800 -45.02172100
v 2.01149700 -6.11505900 -41.85013600
v 2.01149700 -6.11505900 -45.02172100
v 14.79127800 -5.77976100 -41.85013600
v 11.83406400 -6.45585200 -41.85013600
v 14.79127800 -6.11505800 -41.85013600
v 11.83406400 -6.79115000 -41.85013600
v 8.47009600 -5.77976100 -41.85013600
v 8.47009600 -6.11505800 -41.85013600
v 5.14460400 -6.62625000 -41.85013600
v 5.14460400 -6.96154800 -41.85013600
v 2.01149700 -5.77976100 -41.85013600
v 2.01149700 -6.11505900 -41.85013600
v 14.79127700 -5.77976000 -32.14849500
v 14.79127700 -5.77975900 -29.11432800
v 14.79127700 -6.11505700 -32.14849500
v 14.79127700 -6.11505700 -29.11432800
v 14.79127800 -5.77976100 -45.02172100
v 14.79127800 -5.77976100 -41.85013600
v 14.79127800 -6.11505800 -45.02172100
v 14.79127800 -6.11505800 -41.85013600
v -3.27631000 -19.27960600 -13.65766300
v -3.27631100 -13.26623700 -13.58620800
v -3.27631100 -13.26623700 -13.65766400
v -3.27631100 -7.20340000 -13.65766400
v -3.27631100 -7.20339900 -13.59170500
v -3.27631100 -7.20339900 -13.50925600
v -3.27631100 -13.26623700 -13.50925600
v -3.27631000 -19.27960600 -13.50925500
v -3.27631000 -19.27960600 -13.58620700
v -1.16558600 -19.27960600 -13.58620700
v -1.16558600 -13.26623700 -13.58620800
v -1.16558600 -19.27960600 -13.50925500
v -1.16558600 -13.26623700 -13.50925600
v -1.16558600 -7.20339900 -13.50925600
v -1.16008900 -7.20339900 -13.59170500
v -1.16558600 -7.20340000 -13.65766400
v -1.16558600 -13.26623700 -13.65766400
v -1.16558600 -19.27960600 -13.65766300
v -3.27631000 -19.27960600 -13.65766300
v -2.22094800 -19.27960600 -13.58620700
v -3.27631000 -19.27960600 -13.58620700
v -3.27631000 -19.27960600 -13.50925500
v -2.22094800 -19.27960600 -13.50925500
v -1.16558600 -19.27960600 -13.50925500
v -1.16558600 -19.27960600 -13.58620700
v -1.16558600 -19.27960600 -13.65766300
v -2.22094800 -19.27960600 -13.65766300
v -3.27631100 -7.20340000 -13.65766400
v -2.22094800 -13.26623700 -13.65766400
v -3.27631100 -13.26623700 -13.65766400
v -3.27631000 -19.27960600 -13.65766300
v -2.22094800 -19.27960600 -13.65766300
v -1.16558600 -19.27960600 -13.65766300
v -1.16558600 -13.26623700 -13.65766400
v -1.16558600 -7.20340000 -13.65766400
v -2.22094800 -7.20340000 -13.65766400
v -3.27631000 -19.27960600 -13.50925500
v -2.22094800 -13.26623700 -13.50925600
v -3.27631100 -13.26623700 -13.50925600
v -3.27631100 -7.20339900 -13.50925600
v -2.22094800 -7.20339900 -13.50925600
v -1.16558600 -7.20339900 -13.50925600
v -1.16558600 -13.26623700 -13.50925600
v -1.16558600 -19.27960600 -13.50925500
v -2.22094800 -19.27960600 -13.50925500
v -0.37406400 -19.27960600 -13.65766300
v -0.37406400 -13.26623700 -13.58620800
v -0.37406400 -13.26623700 -13.65766400
v -0.37406400 -7.20340000 -13.65766400
v -0.37406400 -7.20339900 -13.59170500
v -0.37406400 -7.20339900 -13.50925600
v -0.37406400 -13.26623700 -13.50925600
v -0.37406400 -19.27960600 -13.50925500
v -0.37406400 -19.27960600 -13.58620700
v 1.76414500 -19.27960600 -13.58620700
v 1.76414500 -13.26623700 -13.58620800
v 1.76414500 -19.27960600 -13.50925500
v 1.76414500 -13.26623700 -13.50925600
v 1.75315100 -7.20339900 -13.50925600
v 1.75315100 -7.20339900 -13.59170500
v 1.75315100 -7.20340000 -13.65766400
v 1.76414500 -13.26623700 -13.65766400
v 1.76414500 -19.27960600 -13.65766300
v -0.37406400 -19.27960600 -13.65766300
v 0.69778900 -19.27960600 -13.58620700
v -0.37406400 -19.27960600 -13.58620700
v -0.37406400 -19.27960600 -13.50925500
v 0.69778900 -19.27960600 -13.50925500
v 1.76414500 -19.27960600 -13.50925500
v 1.76414500 -19.27960600 -13.58620700
v 1.76414500 -19.27960600 -13.65766300
v 0.69778900 -19.27960600 -13.65766300
v -0.37406400 -7.20340000 -13.65766400
v 0.69778900 -13.26623700 -13.65766400
v -0.37406400 -13.26623700 -13.65766400
v -0.37406400 -19.27960600 -13.65766300
v 0.69778900 -19.27960600 -13.65766300
v 1.76414500 -19.27960600 -13.65766300
v 1.76414500 -13.26623700 -13.65766400
v 1.75315100 -7.20340000 -13.65766400
v 0.69778800 -7.20340000 -13.65766400
v -0.37406400 -19.27960600 -13.50925500
v 0.69778900 -13.26623700 -13.50925600
v -0.37406400 -13.26623700 -13.50925600
v -0.37406400 -7.20339900 -13.50925600
v 0.69778800 -7.20339900 -13.50925600
v 1.75315100 -7.20339900 -13.50925600
v 1.76414500 -13.26623700 -13.50925600
v 1.76414500 -19.27960600 -13.50925500
v 0.69778900 -19.27960600 -13.50925500
v 2.55566600 -7.20339900 -13.59170500
v 2.55566700 -13.26623700 -13.65766400
v 2.55566700 -13.26623700 -13.58620800
v 2.55566700 -19.27960600 -13.65766300
v 2.55566600 -7.20339900 -13.59170500
v 2.55566700 -13.26623700 -13.50925600
v 2.55566700 -19.27960600 -13.50925500
v 2.55566700 -19.27960600 -13.58620700
v 4.66639200 -19.27960600 -13.58620700
v 4.66639100 -13.26623700 -13.58620800
v 4.66639200 -19.27960600 -13.50925500
v 4.66639100 -13.26623700 -13.50925600
v 4.66639100 -7.20339900 -13.41031600
v 4.66639100 -7.20340000 -13.70713400
v 4.66639100 -13.26623700 -13.65766400
v 4.66639200 -19.27960600 -13.65766300
v 2.55566700 -19.27960600 -13.65766300
v 3.62751900 -19.27960600 -13.58620700
v 2.55566700 -19.27960600 -13.58620700
v 2.55566700 -19.27960600 -13.50925500
v 3.62751900 -19.27960600 -13.50925500
v 4.66639200 -19.27960600 -13.50925500
v 4.66639200 -19.27960600 -13.58620700
v 4.66639200 -19.27960600 -13.65766300
v 3.62751900 -19.27960600 -13.65766300
v 2.55566600 -7.20339900 -13.59170500
v 3.62751900 -13.26623700 -13.65766400
v 2.55566700 -13.26623700 -13.65766400
v 2.55566700 -19.27960600 -13.65766300
v 3.62751900 -19.27960600 -13.65766300
v 4.66639200 -19.27960600 -13.65766300
v 4.66639100 -13.26623700 -13.65766400
v 4.66639100 -7.20340000 -13.70713400
v 3.62751900 -7.20340000 -13.77309600
v 2.55566700 -19.27960600 -13.50925500
v 3.62751900 -13.26623700 -13.50925600
v 2.55566700 -13.26623700 -13.50925600
v 2.55566600 -7.20339900 -13.59170500
v 3.62751900 -7.20339900 -13.41031600
v 4.66639100 -7.20339900 -13.41031600
v 4.66639100 -13.26623700 -13.50925600
v 4.66639200 -19.27960600 -13.50925500
v 3.62751900 -19.27960600 -13.50925500
vn 0.25320000 0.96740000 -0.00000000
vn 0.25320000 0.96740000 -0.00000000
vn 0.00600000 1.00000000 -0.00000000
vn -0.21980000 0.97560000 -0.00000000
vn -0.21980000 0.97560000 -0.00000000
vn -0.00590000 1.00000000 -0.00000000
vn -0.00590000 1.00000000 -0.00000000
vn -0.01590000 0.99990000 -0.00000000
vn -0.01600000 0.99990000 -0.00000000
vn 0.00610000 1.00000000 -0.00000000
vn -0.00000000 -0.00000000 1.00000000
vn -0.00000000 -0.00000000 1.00000000
vn -0.00000000 -0.00000000 1.00000000
vn -0.00000000 -0.00000000 1.00000000
vn -0.00000000 -0.00000000 1.00000000
vn -0.00000000 -0.00000000 1.00000000
vn -0.00000000 -0.00000000 1.00000000
vn -0.00000000 -0.00000000 1.00000000
vn -0.00000000 -0.00000000 1.00000000
vn -0.00000000 -0.00000000 1.00000000
vn -0.25310000 -0.96740000 -0.00000000
vn -0.25320000 -0.96740000 -0.00000000
vn -0.00600000 -1.00000000 -0.00000000
vn 0.21980000 -0.97560000 -0.00000000
vn 0.21980000 -0.97560000 -0.00000000
vn 0.00580000 -1.00000000 -0.00000000
vn 0.00570000 -1.00000000 -0.00000000
vn 0.01590000 -0.99990000 -0.00000000
vn 0.01590000 -0.99990000 -0.00000000
vn -0.00610000 -1.00000000 -0.00000000
vn -0.00000000 -0.00000000 -1.00000000
vn -0.00000000 -0.00000000 -1.00000000
vn -0.00000000 -0.00000000 -1.00000000
vn -0.00000000 -0.00000000 -1.00000000
vn -0.00000000 -0.00000000 -1.00000000
vn -0.00000000 -0.00000000 -1.00000000
vn -0.00000000 -0.00000000 -1.00000000
vn -0.00000000 -0.00000000 -1.00000000
vn -0.00000000 -0.00000000 -1.00000000
vn -0.00000000 -0.00000000 -1.00000000
vn 0.26170000 0.96520000 -0.00000000
vn 0.26160000 0.96520000 -0.00000000
vn 0.00790000 1.00000000 -0.00000000
vn -0.22250000 0.97490000 -0.00000000
vn -0.22290000 0.97480000 -0.00000000
vn -0.01380000 0.99990000 -0.00000000
vn -0.01380000 0.99990000 -0.00000000
vn -0.02410000 0.99970000 -0.00000000
vn -0.02410000 0.99970000 -0.00000000
vn 0.00800000 1.00000000 -0.00000000
vn -0.00000000 -0.00000000 1.00000000
vn -0.00000000 -0.00000000 1.00000000
vn -0.00000000 -0.00000000 1.00000000
vn -0.00000000 -0.00000000 1.00000000
vn -0.00000000 -0.00000000 1.00000000
vn -0.00000000 -0.00000000 1.00000000
vn -0.00000000 -0.00000000 1.00000000
vn -0.00000000 -0.00000000 1.00000000
vn -0.00000000 -0.00000000 1.00000000
vn -0.00000000 -0.00000000 1.00000000
vn -0.26170000 -0.96520000 -0.00000000
vn -0.26160000 -0.96520000 -0.00000000
vn -0.00780000 -1.00000000 -0.00000000
vn 0.22290000 -0.97480000 -0.00000000
vn 0.22250000 -0.97490000 -0.00000000
vn 0.01380000 -0.99990000 -0.00000000
vn 0.01380000 -0.99990000 -0.00000000
vn 0.02410000 -0.99970000 -0.00000000
vn 0.02410000 -0.99970000 -0.00000000
vn -0.00800000 -1.00000000 -0.00000000
vn -0.00000000 -0.00000000 -1.00000000
vn -0.00000000 -0.00000000 -1.00000000
vn -0.00000000 -0.00000000 -1.00000000
vn -0.00000000 -0.00000000 -1.00000000
vn -0.00000000 -0.00000000 -1.00000000
vn -0.00000000 -0.00000000 -1.00000000
vn -0.00000000 -0.00000000 -1.00000000
vn -0.00000000 -0.00000000 -1.00000000
vn -0.00000000 -0.00000000 -1.00000000
vn -0.00000000 -0.00000000 -1.00000000
vn 1.00000000 -0.00000000 -0.00000000
vn 1.00000000 -0.00000000 -0.00000000
vn 1.00000000 -0.00000000 -0.00000000
vn 1.00000000 -0.00000000 -0.00000000
vn 1.00000000 -0.00000000 -0.00000000
vn 1.00000000 -0.00000000 -0.00000000
vn 1.00000000 -0.00000000 -0.00000000
vn 1.00000000 -0.00000000 -0.00000000
vn -1.00000000 -0.00000000 -0.00000000
vn -1.00000000 -0.00000000 -0.00000000
vn -1.00000000 -0.00000000 -0.00000000
vn -1.00000000 -0.00000000 -0.00000000
vn -1.00000000 -0.00000000 -0.00000000
vn -1.00000000 -0.00000000 -0.00000000
vn -1.00000000 -0.00000000 -0.00000000
vn -1.00000000 -0.00000000 -0.00000000
vn -1.00000000 -0.00000000 -0.00000000
vn 1.00000000 -0.00000000 -0.00000000
vn 1.00000000 -0.00000000 -0.00000000
vn 0.99980000 -0.00000000 0.01790000
vn 1.00000000 -0.00190000 -0.00000000
vn 0.99930000 -0.00200000 0.03660000
vn 1.00000000 -0.00000000 0.00200000
vn 0.99940000 -0.00000000 -0.03440000
vn 0.99990000 -0.00200000 -0.01590000
vn 1.00000000 -0.00000000 -0.00000000
vn -0.00000000 -1.00000000 -0.00000000
vn -0.00000000 -1.00000000 -0.00000000
vn -0.00000000 -1.00000000 -0.00000000
vn -0.00000000 -1.00000000 -0.00000000
vn -0.00000000 -1.00000000 -0.00000000
vn -0.00000000 -1.00000000 -0.00000000
vn -0.00000000 -1.00000000 -0.00000000
vn -0.00000000 -1.00000000 -0.00000000
vn -0.00000000 -1.00000000 -0.00000000
vn -0.00000000 -0.00000000 1.00000000
vn -0.00000000 -0.00000000 1.00000000
vn -0.00000000 -0.00000000 1.00000000
vn -0.00000000 -0.00000000 1.00000000
vn -0.00000000 -0.00000000 1.00000000
vn -0.00000000 -0.00000000 1.00000000
vn -0.00000000 -0.00000000 1.00000000
vn -0.00000000 -0.00000000 1.00000000
vn -0.00000000 -0.00000000 1.00000000
vn -0.00000000 -0.00000000 -1.00000000
vn -0.00000000 -0.00000000 -1.00000000
vn -0.00000000 -0.00000000 -1.00000000
vn -0.00000000 -0.00000000 -1.00000000
vn -0.00000000 -0.00000000 -1.00000000
vn -0.00000000 -0.00000000 -1.00000000
vn -0.00000000 -0.00000000 -1.00000000
vn -0.00000000 -0.00000000 -1.00000000
vn -0.00000000 -0.00000000 -1.00000000
vn -1.00000000 -0.00000000 -0.00000000
vn -1.00000000 -0.00000000 -0.00000000
vn -1.00000000 -0.00000000 -0.00000000
vn -1.00000000 -0.00000000 -0.00000000
vn -1.00000000 -0.00000000 -0.00000000
vn -1.00000000 -0.00000000 -0.00000000
vn -1.00000000 -0.00000000 -0.00000000
vn -1.00000000 -0.00000000 -0.00000000
vn -1.00000000 -0.00000000 -0.00000000
vn 1.00000000 -0.00000000 -0.00000000
vn 1.00000000 -0.00000000 -0.00000000
vn 1.00000000 -0.00000000 -0.00000000
vn 1.00000000 -0.00000000 -0.00000000
vn 1.00000000 0.00180000 -0.00000000
vn 1.00000000 0.00180000 -0.00000000
vn 1.00000000 0.00180000 -0.00000000
vn 1.00000000 -0.00000000 -0.00000000
vn 1.00000000 -0.00000000 -0.00000000
vn -0.00000000 -1.00000000 -0.00000000
vn -0.00000000 -1.00000000 -0.00000000
vn -0.00000000 -1.00000000 -0.00000000
vn -0.00000000 -1.00000000 -0.00000000
vn -0.00000000 -1.00000000 -0.00000000
vn -0.00000000 -1.00000000 -0.00000000
vn -0.00000000 -1.00000000 -0.00000000
vn -0.00000000 -1.00000000 -0.00000000
vn -0.00000000 -1.00000000 -0.00000000
vn -0.00000000 -0.00000000 1.00000000
vn -0.00000000 -0.00000000 1.00000000
vn -0.00000000 -0.00000000 1.00000000
vn -0.00000000 -0.00000000 1.00000000
vn -0.00000000 -0.00000000 1.00000000
vn -0.00000000 -0.00000000 1.00000000
vn -0.00000000 -0.00000000 1.00000000
vn -0.00000000 -0.00000000 1.00000000
vn -0.00000000 -0.00000000 1.00000000
vn -0.00000000 -0.00000000 -1.00000000
vn -0.00000000 -0.00000000 -1.00000000
vn -0.00000000 -0.00000000 -1.00000000
vn -0.00000000 -0.00000000 -1.00000000
vn -0.00000000 -0.00000000 -1.00000000
vn -0.00000000 -0.00000000 -1.00000000
vn -0.00000000 -0.00000000 -1.00000000
vn -0.00000000 -0.00000000 -1.00000000
vn -0.00000000 -0.00000000 -1.00000000
vn -1.00000000 -0.00000000 -0.00000000
vn -1.00000000 -0.00000000 -0.00000000
vn -1.00000000 -0.00000000 -0.00000000
vn -1.00000000 -0.00000000 -0.00000000
vn -1.00000000 -0.00000000 -0.00000000
vn -1.00000000 -0.00000000 -0.00000000
vn -1.00000000 -0.00000000 -0.00000000
vn 1.00000000 -0.00000000 -0.00000000
vn 1.00000000 -0.00000000 -0.00000000
vn 1.00000000 -0.00000000 -0.00000000
vn 1.00000000 -0.00000000 -0.00000000
vn 1.00000000 -0.00000000 -0.00000000
vn 1.00000000 -0.00000000 -0.00000000
vn 1.00000000 -0.00000000 -0.00000000
vn 1.00000000 -0.00000000 -0.00000000
vn -0.00000000 -1.00000000 -0.00000000
vn -0.00000000 -1.00000000 -0.00000000
vn -0.00000000 -1.00000000 -0.00000000
vn -0.00000000 -1.00000000 -0.00000000
vn -0.00000000 -1.00000000 -0.00000000
vn -0.00000000 -1.00000000 -0.00000000
vn -0.00000000 -1.00000000 -0.00000000
vn -0.00000000 -1.00000000 -0.00000000
vn -0.00000000 -1.00000000 -0.00000000
vn -0.08480000 -0.00210000 0.99640000
vn -0.01390000 -0.00400000 0.99990000
vn -0.02640000 -0.01010000 0.99960000
vn 0.03060000 -0.01220000 0.99950000
vn 0.01600000 -0.00600000 0.99990000
vn -0.00000000 -0.00000000 1.00000000
vn -0.00000000 -0.00000000 1.00000000
vn -0.00000000 -0.00000000 1.00000000
vn -0.04290000 -0.00200000 0.99910000
vn -0.00000000 -0.00000000 -1.00000000
vn -0.02010000 -0.00600000 -0.99980000
vn -0.00000000 -0.00000000 -1.00000000
vn -0.00000000 -0.00000000 -1.00000000
vn -0.00000000 -0.00820000 -1.00000000
vn -0.00000000 -0.01600000 -0.99990000
vn -0.04110000 -0.01030000 -0.99910000
vn -0.08460000 -0.00000000 -0.99640000
vn -0.04280000 -0.00000000 -0.99910000
vn -0.21980000 0.97560000 -0.00000000
vn -0.00590000 1.00000000 -0.00000000
vn -0.21980000 0.97560000 -0.00000000
vn -0.00570000 1.00000000 -0.00000000
vn -0.01590000 0.99990000 -0.00000000
vn -0.01590000 0.99990000 -0.00000000
vn 0.00610000 1.00000000 -0.00000000
vn 0.00600000 1.00000000 -0.00000000
vn 0.25310000 0.96740000 -0.00000000
vn 0.25310000 0.96740000 -0.00000000
vn -0.00000000 -0.00000000 -1.00000000
vn -0.00000000 -0.00000000 -1.00000000
vn -0.00000000 -0.00000000 -1.00000000
vn -0.00000000 -0.00000000 -1.00000000
vn -0.00000000 -0.00000000 -1.00000000
vn -0.00000000 -0.00000000 -1.00000000
vn -0.00000000 -0.00000000 -1.00000000
vn -0.00000000 -0.00000000 -1.00000000
vn -0.00000000 -0.00000000 -1.00000000
vn -0.00000000 -0.00000000 -1.00000000
vn 0.21980000 -0.97560000 -0.00000000
vn 0.00580000 -1.00000000 -0.00000000
vn 0.21980000 -0.97560000 -0.00000000
vn 0.00570000 -1.00000000 -0.00000000
vn 0.01590000 -0.99990000 -0.00000000
vn 0.01600000 -0.99990000 -0.00000000
vn -0.00610000 -1.00000000 -0.00000000
vn -0.00600000 -1.00000000 -0.00000000
vn -0.25320000 -0.96740000 -0.00000000
vn -0.25310000 -0.96740000 -0.00000000
vn -0.00000000 -0.00000000 1.00000000
vn -0.00000000 -0.00000000 1.00000000
vn -0.00000000 -0.00000000 1.00000000
vn -0.00000000 -0.00000000 1.00000000
vn -0.00000000 -0.00000000 1.00000000
vn -0.00000000 -0.00000000 1.00000000
vn -0.00000000 -0.00000000 1.00000000
vn -0.00000000 -0.00000000 1.00000000
vn -0.00000000 -0.00000000 1.00000000
vn -0.00000000 -0.00000000 1.00000000
vn -0.22290000 0.97480000 -0.00000000
vn -0.01380000 0.99990000 -0.00000000
vn -0.22290000 0.97480000 -0.00000000
vn -0.01380000 0.99990000 -0.00000000
vn -0.02410000 0.99970000 -0.00000000
vn -0.02410000 0.99970000 -0.00000000
vn 0.00790000 1.00000000 -0.00000000
vn 0.00780000 1.00000000 -0.00000000
vn 0.26170000 0.96520000 -0.00000000
vn 0.26170000 0.96520000 -0.00000000
vn -0.00000000 -0.00000000 -1.00000000
vn -0.00000000 -0.00000000 -1.00000000
vn -0.00000000 -0.00000000 -1.00000000
vn -0.00000000 -0.00000000 -1.00000000
vn -0.00000000 -0.00000000 -1.00000000
vn -0.00000000 -0.00000000 -1.00000000
vn -0.00000000 -0.00000000 -1.00000000
vn -0.00000000 -0.00000000 -1.00000000
vn -0.00000000 -0.00000000 -1.00000000
vn -0.00000000 -0.00000000 -1.00000000
vn 0.22290000 -0.97480000 -0.00000000
vn 0.01380000 -0.99990000 -0.00000000
vn 0.22290000 -0.97480000 -0.00000000
vn 0.01380000 -0.99990000 -0.00000000
vn 0.02410000 -0.99970000 -0.00000000
vn 0.02410000 -0.99970000 -0.00000000
vn -0.00800000 -1.00000000 -0.00000000
vn -0.00780000 -1.00000000 -0.00000000
vn -0.26160000 -0.96520000 -0.00000000
vn -0.26170000 -0.96520000 -0.00000000
vn -0.00000000 -0.00000000 1.00000000
vn -0.00000000 -0.00000000 1.00000000
vn -0.00000000 -0.00000000 1.00000000
vn -0.00000000 -0.00000000 1.00000000
vn -0.00000000 -0.00000000 1.00000000
vn -0.00000000 -0.00000000 1.00000000
vn -0.00000000 -0.00000000 1.00000000
vn -0.00000000 -0.00000000 1.00000000
vn -0.00000000 -0.00000000 1.00000000
vn -0.00000000 -0.00000000 1.00000000
vn 1.00000000 -0.00000000 -0.00000000
vn 1.00000000 -0.00000000 -0.00000000
vn 1.00000000 -0.00000000 -0.00000000
vn 1.00000000 -0.00000000 -0.00000000
vn 1.00000000 -0.00000000 -0.00000000
vn 1.00000000 -0.00000000 -0.00000000
vn 1.00000000 -0.00000000 -0.00000000
vn 1.00000000 -0.00000000 -0.00000000
vn -1.00000000 -0.00000000 -0.00000000
vn -1.00000000 -0.00000000 -0.00000000
vn -1.00000000 -0.00000000 -0.00000000
vn -1.00000000 -0.00000000 -0.00000000
vn -1.00000000 -0.00000000 -0.00000000
vn -1.00000000 -0.00000000 -0.00000000
vn -1.00000000 -0.00000000 -0.00000000
vn -1.00000000 -0.00000000 -0.00000000
vn -1.00000000 -0.00000000 -0.00000000
vn 1.00000000 -0.00000000 -0.00000000
vn 1.00000000 -0.00190000 -0.00000000
vn 1.00000000 -0.00000000 -0.00000000
vn 0.99990000 -0.00200000 0.01590000
vn 0.99940000 -0.00000000 0.03440000
vn 1.00000000 -0.00000000 -0.00200000
vn 0.99930000 -0.00200000 -0.03660000
vn 0.99980000 -0.00000000 -0.01790000
vn 1.00000000 -0.00000000 -0.00000000
vn -0.00000000 -1.00000000 -0.00000000
vn -0.00000000 -1.00000000 -0.00000000
vn -0.00000000 -1.00000000 -0.00000000
vn -0.00000000 -1.00000000 -0.00000000
vn -0.00000000 -1.00000000 -0.00000000
vn -0.00000000 -1.00000000 -0.00000000
vn -0.00000000 -1.00000000 -0.00000000
vn -0.00000000 -1.00000000 -0.00000000
vn -0.00000000 -1.00000000 -0.00000000
vn -0.00000000 -0.00000000 -1.00000000
vn -0.00000000 -0.00000000 -1.00000000
vn -0.00000000 -0.00000000 -1.00000000
vn -0.00000000 -0.00000000 -1.00000000
vn -0.00000000 -0.00000000 -1.00000000
vn -0.00000000 -0.00000000 -1.00000000
vn -0.00000000 -0.00000000 -1.00000000
vn -0.00000000 -0.00000000 -1.00000000
vn -0.00000000 -0.00000000 -1.00000000
vn -0.00000000 -0.00000000 1.00000000
vn -0.00000000 -0.00000000 1.00000000
vn -0.00000000 -0.00000000 1.00000000
vn -0.00000000 -0.00000000 1.00000000
vn -0.00000000 -0.00000000 1.00000000
vn -0.00000000 -0.00000000 1.00000000
vn -0.00000000 -0.00000000 1.00000000
vn -0.00000000 -0.00000000 1.00000000
vn -0.00000000 -0.00000000 1.00000000
vn -1.00000000 -0.00000000 -0.00000000
vn -1.00000000 -0.00000000 -0.00000000
vn -1.00000000 -0.00000000 -0.00000000
vn -1.00000000 -0.00000000 -0.00000000
vn -1.00000000 -0.00000000 -0.00000000
vn -1.00000000 -0.00000000 -0.00000000
vn -1.00000000 -0.00000000 -0.00000000
vn -1.00000000 -0.00000000 -0.00000000
vn -1.00000000 -0.00000000 -0.00000000
vn 1.00000000 -0.00000000 -0.00000000
vn 1.00000000 -0.00000000 -0.00000000
vn 1.00000000 -0.00000000 -0.00000000
vn 1.00000000 -0.00000000 -0.00000000
vn 1.00000000 0.00180000 -0.00000000
vn 1.00000000 0.00180000 -0.00000000
vn 1.00000000 0.00180000 -0.00000000
vn 1.00000000 -0.00000000 -0.00000000
vn 1.00000000 -0.00000000 -0.00000000
vn -0.00000000 -1.00000000 -0.00000000
vn -0.00000000 -1.00000000 -0.00000000
vn -0.00000000 -1.00000000 -0.00000000
vn -0.00000000 -1.00000000 -0.00000000
vn -0.00000000 -1.00000000 -0.00000000
vn -0.00000000 -1.00000000 -0.00000000
vn -0.00000000 -1.00000000 -0.00000000
vn -0.00000000 -1.00000000 -0.00000000
vn -0.00000000 -1.00000000 -0.00000000
vn -0.00000000 -0.00000000 -1.00000000
vn -0.00000000 -0.00000000 -1.00000000
vn -0.00000000 -0.00000000 -1.00000000
vn -0.00000000 -0.00000000 -1.00000000
vn -0.00000000 -0.00000000 -1.00000000
vn -0.00000000 -0.00000000 -1.00000000
vn -0.00000000 -0.00000000 -1.00000000
vn -0.00000000 -0.00000000 -1.00000000
vn -0.00000000 -0.00000000 -1.00000000
vn -0.00000000 -0.00000000 1.00000000
vn -0.00000000 -0.00000000 1.00000000
vn -0.00000000 -0.00000000 1.00000000
vn -0.00000000 -0.00000000 1.00000000
vn -0.00000000 -0.00000000 1.00000000
vn -0.00000000 -0.00000000 1.00000000
vn -0.00000000 -0.00000000 1.00000000
vn -0.00000000 -0.00000000 1.00000000
vn -0.00000000 -0.00000000 1.00000000
vn -1.00000000 -0.00000000 -0.00000000
vn -1.00000000 -0.00000000 -0.00000000
vn -1.00000000 -0.00000000 -0.00000000
vn -1.00000000 -0.00000000 -0.00000000
vn -1.00000000 -0.00000000 -0.00000000
vn -1.00000000 -0.00000000 -0.00000000
vn -1.00000000 -0.00000000 -0.00000000
vn -1.00000000 -0.00000000 -0.00000000
vn 1.00000000 -0.00000000 -0.00000000
vn 1.00000000 -0.00000000 -0.00000000
vn 1.00000000 -0.00000000 -0.00000000
vn 1.00000000 -0.00000000 -0.00000000
vn 1.00000000 -0.00000000 -0.00000000
vn 1.00000000 -0.00000000 -0.00000000
vn 1.00000000 -0.00000000 -0.00000000
vn 1.00000000 -0.00000000 -0.00000000
vn -0.00000000 -1.00000000 -0.00000000
vn -0.00000000 -1.00000000 -0.00000000
vn -0.00000000 -1.00000000 -0.00000000
vn -0.00000000 -1.00000000 -0.00000000
vn -0.00000000 -1.00000000 -0.00000000
vn -0.00000000 -1.00000000 -0.00000000
vn -0.00000000 -1.00000000 -0.00000000
vn -0.00000000 -1.00000000 -0.00000000
vn -0.00000000 -1.00000000 -0.00000000
vn -0.08480000 -0.00210000 -0.99640000
vn -0.01390000 -0.00400000 -0.99990000
vn -0.04290000 -0.00200000 -0.99910000
vn -0.00000000 -0.00000000 -1.00000000
vn -0.00000000 -0.00000000 -1.00000000
vn -0.00000000 -0.00000000 -1.00000000
vn 0.01600000 -0.00600000 -0.99990000
vn 0.03060000 -0.01220000 -0.99950000
vn -0.02640000 -0.01010000 -0.99960000
vn -0.00000000 -0.00000000 1.00000000
vn -0.02010000 -0.00600000 0.99980000
vn -0.04280000 -0.00000000 0.99910000
vn -0.08460000 -0.00000000 0.99640000
vn -0.04110000 -0.01030000 0.99910000
vn -0.00000000 -0.01600000 0.99990000
vn -0.00000000 -0.00820000 1.00000000
vn -0.00000000 -0.00000000 1.00000000
vn -0.00000000 -0.00000000 1.00000000
vt 0.80509800 0.12503000
vt 0.81242400 0.12503000
vt 0.80509800 0.12503000
vt 0.81242400 0.12503000
vt 0.80509800 0.12503000
vt 0.81242400 0.12503000
vt 0.80509800 0.12503000
vt 0.81242400 0.12503000
vt 0.80509800 0.12503000
vt 0.81242400 0.12503000
vt 0.81242400 0.12503000
vt 0.81242400 0.09328400
vt 0.81242400 0.12503000
vt 0.81242400 0.09328400
vt 0.81242400 0.12503000
vt 0.81242400 0.09328400
vt 0.81242400 0.12503000
vt 0.81242400 0.09328400
vt 0.81242400 0.12503000
vt 0.81242400 0.09328400
vt 0.81242400 0.09328400
vt 0.80509800 0.09328400
vt 0.81242400 0.09328400
vt 0.80509800 0.09328400
vt 0.81242400 0.09328400
vt 0.80509800 0.09328400
vt 0.81242400 0.09328400
vt 0.80509800 0.09328400
vt 0.81242400 0.09328400
vt 0.80509800 0.09328400
vt 0.80509800 0.09328400
vt 0.80509800 0.12503000
vt 0.80509800 0.09328400
vt 0.80509800 0.12503000
vt 0.80509800 0.09328400
vt 0.80509800 0.12503000
vt 0.80509800 0.09328400
vt 0.80509800 0.12503000
vt 0.80509800 0.09328400
vt 0.80509800 0.12503000
vt 0.86346200 0.12503000
vt 0.87323000 0.12503000
vt 0.86346200 0.12503000
vt 0.87323000 0.12503000
vt 0.86346200 0.12503000
vt 0.87323000 0.12503000
vt 0.86346200 0.12503000
vt 0.87323000 0.12503000
vt 0.86346200 0.12503000
vt 0.87323000 0.12503000
vt 0.87323000 0.12503000
vt 0.87323000 0.09328400
vt 0.87323000 0.12503000
vt 0.87323000 0.09328400
vt 0.87323000 0.12503000
vt 0.87323000 0.09328400
vt 0.87323000 0.12503000
vt 0.87323000 0.09328400
vt 0.87323000 0.12503000
vt 0.87323000 0.09328400
vt 0.87323000 0.09328400
vt 0.86346200 0.09328400
vt 0.87323000 0.09328400
vt 0.86346200 0.09328400
vt 0.87323000 0.09328400
vt 0.86346200 0.09328400
vt 0.87323000 0.09328400
vt 0.86346200 0.09328400
vt 0.87323000 0.09328400
vt 0.86346200 0.09328400
vt 0.86346200 0.09328400
vt 0.86346200 0.12503000
vt 0.86346200 0.09328400
vt 0.86346200 0.12503000
vt 0.86346200 0.09328400
vt 0.86346200 0.12503000
vt 0.86346200 0.09328400
vt 0.86346200 0.12503000
vt 0.86346200 0.09328400
vt 0.86346200 0.12503000
vt 0.80509800 0.09328400
vt 0.80509800 0.12503000
vt 0.81242400 0.09328400
vt 0.81242400 0.12503000
vt 0.86346200 0.09328400
vt 0.86346200 0.12503000
vt 0.87323000 0.09328400
vt 0.87323000 0.12503000
vt 0.12500000 0.00000000
vt 0.25003100 0.12503000
vt 0.25003100 0.00000000
vt 0.37506100 0.00000000
vt 0.37506100 0.12503000
vt 0.37506100 0.25006100
vt 0.25003100 0.25006100
vt 0.12500000 0.25006100
vt 0.12500000 0.12503000
vt 0.87493900 0.00000000
vt 0.74990800 0.00000000
vt 0.87493900 0.12503000
vt 0.74990800 0.12503000
vt 0.87493900 0.25006100
vt 0.74990800 0.25006100
vt 0.62512200 0.25006100
vt 0.62512200 0.12503000
vt 0.62512200 0.00000000
vt 0.37506100 0.74993900
vt 0.50009200 0.87496900
vt 0.50009200 0.74993900
vt 0.62512200 0.74993900
vt 0.62512200 0.87496900
vt 0.62512200 1.00000000
vt 0.50009200 1.00000000
vt 0.37506100 1.00000000
vt 0.37506100 0.87496900
vt 0.37506100 0.49987800
vt 0.50009200 0.62490800
vt 0.50009200 0.49987800
vt 0.62512200 0.49987800
vt 0.62512200 0.62490800
vt 0.62512200 0.74993900
vt 0.50009200 0.74993900
vt 0.37506100 0.74993900
vt 0.37506100 0.62490800
vt 0.37506100 0.00000000
vt 0.50009200 0.12503000
vt 0.50009200 0.00000000
vt 0.62512200 0.00000000
vt 0.62512200 0.12503000
vt 0.62512200 0.25006100
vt 0.50009200 0.25006100
vt 0.37506100 0.25006100
vt 0.37506100 0.12503000
vt 0.12500000 0.00000000
vt 0.25003100 0.12503000
vt 0.25003100 0.00000000
vt 0.37506100 0.00000000
vt 0.37506100 0.12503000
vt 0.37506100 0.25006100
vt 0.25003100 0.25006100
vt 0.12500000 0.25006100
vt 0.12500000 0.12503000
vt 0.87493900 0.00000000
vt 0.74990800 0.00000000
vt 0.87493900 0.12503000
vt 0.74990800 0.12503000
vt 0.87493900 0.25006100
vt 0.74990800 0.25006100
vt 0.62512200 0.25006100
vt 0.62512200 0.12503000
vt 0.62512200 0.00000000
vt 0.37506100 0.74993900
vt 0.50009200 0.87496900
vt 0.50009200 0.74993900
vt 0.62512200 0.74993900
vt 0.62512200 0.87496900
vt 0.62512200 1.00000000
vt 0.50009200 1.00000000
vt 0.37506100 1.00000000
vt 0.37506100 0.87496900
vt 0.37506100 0.49987800
vt 0.50009200 0.62490800
vt 0.50009200 0.49987800
vt 0.62512200 0.49987800
vt 0.62512200 0.62490800
vt 0.62512200 0.74993900
vt 0.50009200 0.74993900
vt 0.37506100 0.74993900
vt 0.37506100 0.62490800
vt 0.37506100 0.00000000
vt 0.50009200 0.12503000
vt 0.50009200 0.00000000
vt 0.62512200 0.00000000
vt 0.62512200 0.12503000
vt 0.62512200 0.25006100
vt 0.50009200 0.25006100
vt 0.37506100 0.25006100
vt 0.37506100 0.12503000
vt 0.12500000 0.00000000
vt 0.25003100 0.12503000
vt 0.25003100 0.00000000
vt 0.37506100 0.00000000
vt 0.37506100 0.12503000
vt 0.25003100 0.25006100
vt 0.12500000 0.12503000
vt 0.87493900 0.00000000
vt 0.74990800 0.00000000
vt 0.87493900 0.12503000
vt 0.74990800 0.12503000
vt 0.81242400 0.25006100
vt 0.62512200 0.25006100
vt 0.62512200 0.12503000
vt 0.62512200 0.00000000
vt 0.37506100 0.74993900
vt 0.50009200 0.87496900
vt 0.50009200 0.74993900
vt 0.62512200 0.74993900
vt 0.62512200 0.87496900
vt 0.62512200 1.00000000
vt 0.50009200 1.00000000
vt 0.37506100 1.00000000
vt 0.37506100 0.87496900
vt 0.37506100 0.49987800
vt 0.50009200 0.62490800
vt 0.50009200 0.49987800
vt 0.62512200 0.49987800
vt 0.62512200 0.62490800
vt 0.62512200 0.74993900
vt 0.50009200 0.74993900
vt 0.37506100 0.74993900
vt 0.37506100 0.62490800
vt 0.37506100 0.00000000
vt 0.50009200 0.12503000
vt 0.50009200 0.00000000
vt 0.62512200 0.00000000
vt 0.62512200 0.12503000
vt 0.62512200 0.25006100
vt 0.50009200 0.25006100
vt 0.25003100 0.25006100
vt 0.37506100 0.12503000
vt 0.81242400 0.12503000
vt 0.81242400 0.12503000
vt 0.80509800 0.12503000
vt 0.80509800 0.12503000
vt 0.81242400 0.12503000
vt 0.80509800 0.12503000
vt 0.81242400 0.12503000
vt 0.80509800 0.12503000
vt 0.81242400 0.12503000
vt 0.80509800 0.12503000
vt 0.81242400 0.09328400
vt 0.81242400 0.09328400
vt 0.81242400 0.12503000
vt 0.81242400 0.12503000
vt 0.81242400 0.09328400
vt 0.81242400 0.12503000
vt 0.81242400 0.09328400
vt 0.81242400 0.12503000
vt 0.81242400 0.09328400
vt 0.81242400 0.12503000
vt 0.80509800 0.09328400
vt 0.80509800 0.09328400
vt 0.81242400 0.09328400
vt 0.81242400 0.09328400
vt 0.80509800 0.09328400
vt 0.81242400 0.09328400
vt 0.80509800 0.09328400
vt 0.81242400 0.09328400
vt 0.80509800 0.09328400
vt 0.81242400 0.09328400
vt 0.80509800 0.12503000
vt 0.80509800 0.12503000
vt 0.80509800 0.09328400
vt 0.80509800 0.09328400
vt 0.80509800 0.12503000
vt 0.80509800 0.09328400
vt 0.80509800 0.12503000
vt 0.80509800 0.09328400
vt 0.80509800 0.12503000
vt 0.80509800 0.09328400
vt 0.87323000 0.12503000
vt 0.87323000 0.12503000
vt 0.86346200 0.12503000
vt 0.86346200 0.12503000
vt 0.87323000 0.12503000
vt 0.86346200 0.12503000
vt 0.87323000 0.12503000
vt 0.86346200 0.12503000
vt 0.87323000 0.12503000
vt 0.86346200 0.12503000
vt 0.87323000 0.09328400
vt 0.87323000 0.09328400
vt 0.87323000 0.12503000
vt 0.87323000 0.12503000
vt 0.87323000 0.09328400
vt 0.87323000 0.12503000
vt 0.87323000 0.09328400
vt 0.87323000 0.12503000
vt 0.87323000 0.09328400
vt 0.87323000 0.12503000
vt 0.86346200 0.09328400
vt 0.86346200 0.09328400
vt 0.87323000 0.09328400
vt 0.87323000 0.09328400
vt 0.86346200 0.09328400
vt 0.87323000 0.09328400
vt 0.86346200 0.09328400
vt 0.87323000 0.09328400
vt 0.86346200 0.09328400
vt 0.87323000 0.09328400
vt 0.86346200 0.12503000
vt 0.86346200 0.12503000
vt 0.86346200 0.09328400
vt 0.86346200 0.09328400
vt 0.86346200 0.12503000
vt 0.86346200 0.09328400
vt 0.86346200 0.12503000
vt 0.86346200 0.09328400
vt 0.86346200 0.12503000
vt 0.86346200 0.09328400
vt 0.81242400 0.12503000
vt 0.80509800 0.12503000
vt 0.81242400 0.09328400
vt 0.80509800 0.09328400
vt 0.87323000 0.12503000
vt 0.86346200 0.12503000
vt 0.87323000 0.09328400
vt 0.86346200 0.09328400
vt 0.12500000 0.00000000
vt 0.25003100 0.12503000
vt 0.12500000 0.12503000
vt 0.12500000 0.25006100
vt 0.25003100 0.25006100
vt 0.37506100 0.25006100
vt 0.37506100 0.12503000
vt 0.37506100 0.00000000
vt 0.25003100 0.00000000
vt 0.74990800 0.00000000
vt 0.74990800 0.12503000
vt 0.62512200 0.00000000
vt 0.62512200 0.12503000
vt 0.62512200 0.25006100
vt 0.74990800 0.25006100
vt 0.87493900 0.25006100
vt 0.87493900 0.12503000
vt 0.87493900 0.00000000
vt 0.37506100 0.74993900
vt 0.50009200 0.87496900
vt 0.37506100 0.87496900
vt 0.37506100 1.00000000
vt 0.50009200 1.00000000
vt 0.62512200 1.00000000
vt 0.62512200 0.87496900
vt 0.62512200 0.74993900
vt 0.50009200 0.74993900
vt 0.37506100 0.49987800
vt 0.50009200 0.62490800
vt 0.37506100 0.62490800
vt 0.37506100 0.74993900
vt 0.50009200 0.74993900
vt 0.62512200 0.74993900
vt 0.62512200 0.62490800
vt 0.62512200 0.49987800
vt 0.50009200 0.49987800
vt 0.37506100 0.00000000
vt 0.50009200 0.12503000
vt 0.37506100 0.12503000
vt 0.37506100 0.25006100
vt 0.50009200 0.25006100
vt 0.62512200 0.25006100
vt 0.62512200 0.12503000
vt 0.62512200 0.00000000
vt 0.50009200 0.00000000
vt 0.12500000 0.00000000
vt 0.25003100 0.12503000
vt 0.12500000 0.12503000
vt 0.12500000 0.25006100
vt 0.25003100 0.25006100
vt 0.37506100 0.25006100
vt 0.37506100 0.12503000
vt 0.37506100 0.00000000
vt 0.25003100 0.00000000
vt 0.74990800 0.00000000
vt 0.74990800 0.12503000
vt 0.62512200 0.00000000
vt 0.62512200 0.12503000
vt 0.62512200 0.25006100
vt 0.74990800 0.25006100
vt 0.87493900 0.25006100
vt 0.87493900 0.12503000
vt 0.87493900 0.00000000
vt 0.37506100 0.74993900
vt 0.50009200 0.87496900
vt 0.37506100 0.87496900
vt 0.37506100 1.00000000
vt 0.50009200 1.00000000
vt 0.62512200 1.00000000
vt 0.62512200 0.87496900
vt 0.62512200 0.74993900
vt 0.50009200 0.74993900
vt 0.37506100 0.49987800
vt 0.50009200 0.62490800
vt 0.37506100 0.62490800
vt 0.37506100 0.74993900
vt 0.50009200 0.74993900
vt 0.62512200 0.74993900
vt 0.62512200 0.62490800
vt 0.62512200 0.49987800
vt 0.50009200 0.49987800
vt 0.37506100 0.00000000
vt 0.50009200 0.12503000
vt 0.37506100 0.12503000
vt 0.37506100 0.25006100
vt 0.50009200 0.25006100
vt 0.62512200 0.25006100
vt 0.62512200 0.12503000
vt 0.62512200 0.00000000
vt 0.50009200 0.00000000
vt 0.18751500 0.25006100
vt 0.12500000 0.12503000
vt 0.25003100 0.12503000
vt 0.12500000 0.00000000
vt 0.37506100 0.25006100
vt 0.37506100 0.12503000
vt 0.37506100 0.00000000
vt 0.25003100 0.00000000
vt 0.74990800 0.00000000
vt 0.74990800 0.12503000
vt 0.62512200 0.00000000
vt 0.62512200 0.12503000
vt 0.62512200 0.25006100
vt 0.81242400 0.25006100
vt 0.87493900 0.12503000
vt 0.87493900 0.00000000
vt 0.37506100 0.74993900
vt 0.50009200 0.87496900
vt 0.37506100 0.87496900
vt 0.37506100 1.00000000
vt 0.50009200 1.00000000
vt 0.62512200 1.00000000
vt 0.62512200 0.87496900
vt 0.62512200 0.74993900
vt 0.50009200 0.74993900
vt 0.37506100 0.49987800
vt 0.50009200 0.62490800
vt 0.37506100 0.62490800
vt 0.37506100 0.74993900
vt 0.50009200 0.74993900
vt 0.62512200 0.74993900
vt 0.62512200 0.62490800
vt 0.62512200 0.49987800
vt 0.50009200 0.49987800
vt 0.37506100 0.00000000
vt 0.50009200 0.12503000
vt 0.37506100 0.12503000
vt 0.37506100 0.25006100
vt 0.50009200 0.25006100
vt 0.62512200 0.25006100
vt 0.62512200 0.12503000
vt 0.62512200 0.00000000
vt 0.50009200 0.00000000
f 1/1/1 2/2/2 3/3/3
f 4/4/4 5/5/5 6/6/6
f 5/5/5 7/7/7 6/6/6
f 6/6/6 7/7/7 8/8/8
f 7/7/7 9/9/9 8/8/8
f 8/8/8 9/9/9 10/10/10
f 9/9/9 3/3/3 10/10/10
f 3/3/3 2/2/2 10/10/10
f 11/11/11 12/12/12 13/13/13
f 14/14/14 15/15/15 16/16/16
f 15/15/15 17/17/17 16/16/16
f 16/16/16 17/17/17 18/18/18
f 17/17/17 19/19/19 18/18/18
f 18/18/18 19/19/19 20/20/20
f 19/19/19 13/13/13 20/20/20
f 13/13/13 12/12/12 20/20/20
f 21/21/21 22/22/22 23/23/23
f 24/24/24 25/25/25 26/26/26
f 25/25/25 27/27/27 26/26/26
f 26/26/26 27/27/27 28/28/28
f 27/27/27 29/29/29 28/28/28
f 28/28/28 29/29/29 30/30/30
f 29/29/29 23/23/23 30/30/30
f 23/23/23 22/22/22 30/30/30
f 31/31/31 32/32/32 33/33/33
f 34/34/34 35/35/35 36/36/36
f 35/35/35 37/37/37 36/36/36
f 36/36/36 37/37/37 38/38/38
f 37/37/37 39/39/39 38/38/38
f 38/38/38 39/39/39 40/40/40
f 39/39/39 33/33/33 40/40/40
f 33/33/33 32/32/32 40/40/40
f 41/41/41 42/42/42 43/43/43
f 44/44/44 45/45/45 46/46/46
f 45/45/45 47/47/47 46/46/46
f 46/46/46 47/47/47 48/48/48
f 47/47/47 49/49/49 48/48/48
f 48/48/48 49/49/49 50/50/50
f 49/49/49 43/43/43 50/50/50
f 43/43/43 42/42/42 50/50/50
f 51/51/51 52/52/52 53/53/53
f 54/54/54 55/55/55 56/56/56
f 55/55/55 57/57/57 56/56/56
f 56/56/56 57/57/57 58/58/58
f 57/57/57 59/59/59 58/58/58
f 58/58/58 59/59/59 60/60/60
f 59/59/59 53/53/53 60/60/60
f 53/53/53 52/52/52 60/60/60
f 61/61/61 62/62/62 63/63/63
f 64/64/64 65/65/65 66/66/66
f 65/65/65 67/67/67 66/66/66
f 66/66/66 67/67/67 68/68/68
f 67/67/67 69/69/69 68/68/68
f 68/68/68 69/69/69 70/70/70
f 69/69/69 63/63/63 70/70/70
f 63/63/63 62/62/62 70/70/70
f 71/71/71 72/72/72 73/73/73
f 74/74/74 75/75/75 76/76/76
f 75/75/75 77/77/77 76/76/76
f 76/76/76 77/77/77 78/78/78
f 77/77/77 79/79/79 78/78/78
f 78/78/78 79/79/79 80/80/80
f 79/79/79 73/73/73 80/80/80
f 73/73/73 72/72/72 80/80/80
f 81/81/81 82/82/82 83/83/83
f 82/82/82 84/84/84 83/83/83
f 85/85/85 86/86/86 87/87/87
f 86/86/86 88/88/88 87/87/87
f 89/89/89 90/90/90 91/91/91
f 92/92/92 91/91/91 93/93/93
f 91/91/91 90/90/90 93/93/93
f 93/93/93 90/90/90 94/94/94
f 94/94/94 90/90/90 95/95/95
f 96/96/96 95/95/95 97/97/97
f 95/95/95 90/90/90 97/97/97
f 90/90/90 89/89/89 97/97/97
f 98/98/98 99/99/99 100/100/100
f 99/99/99 101/101/101 100/100/100
f 100/100/100 101/101/101 102/102/102
f 102/102/102 101/101/101 103/103/103
f 104/104/104 103/103/103 105/105/105
f 103/103/103 101/101/101 105/105/105
f 105/105/105 101/101/101 106/106/106
f 101/101/101 99/99/99 106/106/106
f 107/107/107 108/108/108 109/109/109
f 110/110/110 109/109/109 111/111/111
f 109/109/109 108/108/108 111/111/111
f 111/111/111 108/108/108 112/112/112
f 112/112/112 108/108/108 113/113/113
f 114/114/114 113/113/113 115/115/115
f 113/113/113 108/108/108 115/115/115
f 108/108/108 107/107/107 115/115/115
f 116/116/116 117/117/117 118/118/118
f 119/119/119 118/118/118 120/120/120
f 118/118/118 117/117/117 120/120/120
f 120/120/120 117/117/117 121/121/121
f 121/121/121 117/117/117 122/122/122
f 123/123/123 122/122/122 124/124/124
f 122/122/122 117/117/117 124/124/124
f 117/117/117 116/116/116 124/124/124
f 125/125/125 126/126/126 127/127/127
f 128/128/128 127/127/127 129/129/129
f 127/127/127 126/126/126 129/129/129
f 129/129/129 126/126/126 130/130/130
f 130/130/130 126/126/126 131/131/131
f 132/132/132 131/131/131 133/133/133
f 131/131/131 126/126/126 133/133/133
f 126/126/126 125/125/125 133/133/133
f 134/134/134 135/135/135 136/136/136
f 137/137/137 136/136/136 138/138/138
f 136/136/136 135/135/135 138/138/138
f 138/138/138 135/135/135 139/139/139
f 139/139/139 135/135/135 140/140/140
f 141/141/141 140/140/140 142/142/142
f 140/140/140 135/135/135 142/142/142
f 135/135/135 134/134/134 142/142/142
f 143/143/143 144/144/144 145/145/145
f 144/144/144 146/146/146 145/145/145
f 145/145/145 146/146/146 147/147/147
f 147/147/147 146/146/146 148/148/148
f 149/149/149 148/148/148 150/150/150
f 148/148/148 146/146/146 150/150/150
f 150/150/150 146/146/146 151/151/151
f 146/146/146 144/144/144 151/151/151
f 152/152/152 153/153/153 154/154/154
f 155/155/155 154/154/154 156/156/156
f 154/154/154 153/153/153 156/156/156
f 156/156/156 153/153/153 157/157/157
f 157/157/157 153/153/153 158/158/158
f 159/159/159 158/158/158 160/160/160
f 158/158/158 153/153/153 160/160/160
f 153/153/153 152/152/152 160/160/160
f 161/161/161 162/162/162 163/163/163
f 164/164/164 163/163/163 165/165/165
f 163/163/163 162/162/162 165/165/165
f 165/165/165 162/162/162 166/166/166
f 166/166/166 162/162/162 167/167/167
f 168/168/168 167/167/167 169/169/169
f 167/167/167 162/162/162 169/169/169
f 162/162/162 161/161/161 169/169/169
f 170/170/170 171/171/171 172/172/172
f 173/173/173 172/172/172 174/174/174
f 172/172/172 171/171/171 174/174/174
f 174/174/174 171/171/171 175/175/175
f 175/175/175 171/171/171 176/176/176
f 177/177/177 176/176/176 178/178/178
f 176/176/176 171/171/171 178/178/178
f 171/171/171 170/170/170 178/178/178
f 179/179/179 180/180/180 181/181/181
f 182/182/182 181/181/181 183/183/183
f 181/181/181 180/180/180 183/183/183
f 183/183/183 180/180/180 184/184/184
f 184/184/184 180/180/180 185/185/185
f 180/180/180 179/179/179 185/185/185
f 186/186/186 187/187/187 188/188/188
f 187/187/187 189/189/189 188/188/188
f 188/188/188 189/189/189 190/190/190
f 191/191/191 190/190/190 192/192/192
f 190/190/190 189/189/189 192/192/192
f 192/192/192 189/189/189 193/193/193
f 189/189/189 187/187/187 193/193/193
f 194/194/194 195/195/195 196/196/196
f 197/197/197 196/196/196 198/198/198
f 196/196/196 195/195/195 198/198/198
f 198/198/198 195/195/195 199/199/199
f 199/199/199 195/195/195 200/200/200
f 201/201/201 200/200/200 202/202/202
f 200/200/200 195/195/195 202/202/202
f 195/195/195 194/194/194 202/202/202
f 203/203/203 204/204/204 205/205/205
f 206/206/206 205/205/205 207/207/207
f 205/205/205 204/204/204 207/207/207
f 207/207/207 204/204/204 208/208/208
f 208/208/208 204/204/204 209/209/209
f 210/210/210 209/209/209 211/211/211
f 209/209/209 204/204/204 211/211/211
f 204/204/204 203/203/203 211/211/211
f 212/212/212 213/213/213 214/214/214
f 215/215/215 214/214/214 216/216/216
f 214/214/214 213/213/213 216/216/216
f 216/216/216 213/213/213 217/217/217
f 217/217/217 213/213/213 218/218/218
f 219/219/219 218/218/218 220/220/220
f 218/218/218 213/213/213 220/220/220
f 213/213/213 212/212/212 220/220/220
f 221/221/221 222/222/222 223/223/223
f 223/223/223 222/222/222 224/224/224
f 222/222/222 225/225/225 224/224/224
f 224/224/224 225/225/225 226/226/226
f 225/225/225 227/227/227 226/226/226
f 226/226/226 227/227/227 228/228/228
f 227/227/227 229/229/229 228/228/228
f 229/229/229 230/230/230 228/228/228
f 231/231/231 232/232/232 233/233/233
f 233/233/233 232/232/232 234/234/234
f 232/232/232 235/235/235 234/234/234
f 234/234/234 235/235/235 236/236/236
f 235/235/235 237/237/237 236/236/236
f 236/236/236 237/237/237 238/238/238
f 237/237/237 239/239/239 238/238/238
f 239/239/239 240/240/240 238/238/238
f 241/241/241 242/242/242 243/243/243
f 243/243/243 242/242/242 244/244/244
f 242/242/242 245/245/245 244/244/244
f 244/244/244 245/245/245 246/246/246
f 245/245/245 247/247/247 246/246/246
f 246/246/246 247/247/247 248/248/248
f 247/247/247 249/249/249 248/248/248
f 249/249/249 250/250/250 248/248/248
f 251/251/251 252/252/252 253/253/253
f 253/253/253 252/252/252 254/254/254
f 252/252/252 255/255/255 254/254/254
f 254/254/254 255/255/255 256/256/256
f 255/255/255 257/257/257 256/256/256
f 256/256/256 257/257/257 258/258/258
f 257/257/257 259/259/259 258/258/258
f 259/259/259 260/260/260 258/258/258
f 261/261/261 262/262/262 263/263/263
f 263/263/263 262/262/262 264/264/264
f 262/262/262 265/265/265 264/264/264
f 264/264/264 265/265/265 266/266/266
f 265/265/265 267/267/267 266/266/266
f 266/266/266 267/267/267 268/268/268
f 267/267/267 269/269/269 268/268/268
f 269/269/269 270/270/270 268/268/268
f 271/271/271 272/272/272 273/273/273
f 273/273/273 272/272/272 274/274/274
f 272/272/272 275/275/275 274/274/274
f 274/274/274 275/275/275 276/276/276
f 275/275/275 277/277/277 276/276/276
f 276/276/276 277/277/277 278/278/278
f 277/277/277 279/279/279 278/278/278
f 279/279/279 280/280/280 278/278/278
f 281/281/281 282/282/282 283/283/283
f 283/283/283 282/282/282 284/284/284
f 282/282/282 285/285/285 284/284/284
f 284/284/284 285/285/285 286/286/286
f 285/285/285 287/287/287 286/286/286
f 286/286/286 287/287/287 288/288/288
f 287/287/287 289/289/289 288/288/288
f 289/289/289 290/290/290 288/288/288
f 291/291/291 292/292/292 293/293/293
f 293/293/293 292/292/292 294/294/294
f 292/292/292 295/295/295 294/294/294
f 294/294/294 295/295/295 296/296/296
f 295/295/295 297/297/297 296/296/296
f 296/296/296 297/297/297 298/298/298
f 297/297/297 299/299/299 298/298/298
f 299/299/299 300/300/300 298/298/298
f 301/301/301 302/302/302 303/303/303
f 302/302/302 304/304/304 303/303/303
f 305/305/305 306/306/306 307/307/307
f 306/306/306 308/308/308 307/307/307
f 309/309/309 310/310/310 311/311/311
f 312/312/312 311/311/311 313/313/313
f 311/311/311 310/310/310 313/313/313
f 313/313/313 310/310/310 314/314/314
f 314/314/314 310/310/310 315/315/315
f 316/316/316 315/315/315 317/317/317
f 315/315/315 310/310/310 317/317/317
f 310/310/310 309/309/309 317/317/317
f 318/318/318 319/319/319 320/320/320
f 320/320/320 319/319/319 321/321/321
f 322/322/322 321/321/321 323/323/323
f 321/321/321 319/319/319 323/323/323
f 323/323/323 319/319/319 324/324/324
f 324/324/324 319/319/319 325/325/325
f 319/319/319 318/318/318 325/325/325
f 318/318/318 326/326/326 325/325/325
f 327/327/327 328/328/328 329/329/329
f 330/330/330 329/329/329 331/331/331
f 329/329/329 328/328/328 331/331/331
f 331/331/331 328/328/328 332/332/332
f 332/332/332 328/328/328 333/333/333
f 334/334/334 333/333/333 335/335/335
f 333/333/333 328/328/328 335/335/335
f 328/328/328 327/327/327 335/335/335
f 336/336/336 337/337/337 338/338/338
f 339/339/339 338/338/338 340/340/340
f 338/338/338 337/337/337 340/340/340
f 340/340/340 337/337/337 341/341/341
f 341/341/341 337/337/337 342/342/342
f 343/343/343 342/342/342 344/344/344
f 342/342/342 337/337/337 344/344/344
f 337/337/337 336/336/336 344/344/344
f 345/345/345 346/346/346 347/347/347
f 348/348/348 347/347/347 349/349/349
f 347/347/347 346/346/346 349/349/349
f 349/349/349 346/346/346 350/350/350
f 350/350/350 346/346/346 351/351/351
f 352/352/352 351/351/351 353/353/353
f 351/351/351 346/346/346 353/353/353
f 346/346/346 345/345/345 353/353/353
f 354/354/354 355/355/355 356/356/356
f 357/357/357 356/356/356 358/358/358
f 356/356/356 355/355/355 358/358/358
f 358/358/358 355/355/355 359/359/359
f 359/359/359 355/355/355 360/360/360
f 361/361/361 360/360/360 362/362/362
f 360/360/360 355/355/355 362/362/362
f 355/355/355 354/354/354 362/362/362
f 363/363/363 364/364/364 365/365/365
f 365/365/365 364/364/364 366/366/366
f 367/367/367 366/366/366 368/368/368
f 366/366/366 364/364/364 368/368/368
f 368/368/368 364/364/364 369/369/369
f 369/369/369 364/364/364 370/370/370
f 364/364/364 363/363/363 370/370/370
f 363/363/363 371/371/371 370/370/370
f 372/372/372 373/373/373 374/374/374
f 375/375/375 374/374/374 376/376/376
f 374/374/374 373/373/373 376/376/376
f 376/376/376 373/373/373 377/377/377
f 377/377/377 373/373/373 378/378/378
f 379/379/379 378/378/378 380/380/380
f 378/378/378 373/373/373 380/380/380
f 373/373/373 372/372/372 380/380/380
f 381/381/381 382/382/382 383/383/383
f 384/384/384 383/383/383 385/385/385
f 383/383/383 382/382/382 385/385/385
f 385/385/385 382/382/382 386/386/386
f 386/386/386 382/382/382 387/387/387
f 388/388/388 387/387/387 389/389/389
f 387/387/387 382/382/382 389/389/389
f 382/382/382 381/381/381 389/389/389
f 390/390/390 391/391/391 392/392/392
f 393/393/393 392/392/392 394/394/394
f 392/392/392 391/391/391 394/394/394
f 394/394/394 391/391/391 395/395/395
f 395/395/395 391/391/391 396/396/396
f 397/397/397 396/396/396 398/398/398
f 396/396/396 391/391/391 398/398/398
f 391/391/391 390/390/390 398/398/398
f 399/399/399 400/400/400 401/401/401
f 400/400/400 402/402/402 401/401/401
f 403/403/403 401/401/401 404/404/404
f 405/405/405 404/404/404 406/406/406
f 404/404/404 401/401/401 406/406/406
f 401/401/401 402/402/402 406/406/406
f 407/407/407 408/408/408 409/409/409
f 409/409/409 408/408/408 410/410/410
f 411/411/411 410/410/410 412/412/412
f 410/410/410 408/408/408 412/412/412
f 412/412/412 408/408/408 413/413/413
f 408/408/408 407/407/407 413/413/413
f 407/407/407 414/414/414 413/413/413
f 415/415/415 416/416/416 417/417/417
f 418/418/418 417/417/417 419/419/419
f 417/417/417 416/416/416 419/419/419
f 419/419/419 416/416/416 420/420/420
f 420/420/420 416/416/416 421/421/421
f 422/422/422 421/421/421 423/423/423
f 421/421/421 416/416/416 423/423/423
f 416/416/416 415/415/415 423/423/423
f 424/424/424 425/425/425 426/426/426
f 427/427/427 426/426/426 428/428/428
f 426/426/426 425/425/425 428/428/428
f 428/428/428 425/425/425 429/429/429
f 429/429/429 425/425/425 430/430/430
f 431/431/431 430/430/430 432/432/432
f 430/430/430 425/425/425 432/432/432
f 425/425/425 424/424/424 432/432/432
f 433/433/433 434/434/434 435/435/435
f 436/436/436 435/435/435 437/437/437
f 435/435/435 434/434/434 437/437/437
f 437/437/437 434/434/434 438/438/438
f 438/438/438 434/434/434 439/439/439
f 440/440/440 439/439/439 441/441/441
f 439/439/439 434/434/434 441/441/441
f 434/434/434 433/433/433 441/441/441

