mtllib material.mtl
usemtl ISSDarkMetal
v 12.82229600 -0.58880400 0.59530100
v 11.82608800 -0.58880400 0.59530100
v 12.82229600 -0.81397300 -0.00174200
v 11.82608800 -0.81397300 -0.00174200
v 10.82646800 -0.76621200 0.77953200
v 10.82646800 -0.89585500 -0.00174200
v 12.82229600 -0.81397300 -0.00174200
v 12.82229600 -0.58880400 -0.60219600
v 11.82608800 -0.58880400 -0.60219600
v 10.82646800 -0.76621200 -0.78301500
v 12.82229600 0.58822400 0.59530100
v 11.82608800 0.58822400 0.59530100
v 12.82229600 0.00141800 0.82729500
v 11.82608800 0.00141800 0.82729500
v 10.82646800 0.76904400 0.77612000
v 12.82229600 0.00141800 0.82729500
v 12.82229600 -0.58880400 0.59530100
v 11.82608800 -0.58880400 0.59530100
v 10.82646800 -0.76621200 0.77953200
v 10.82646800 0.00141800 0.90917500
v 12.82229600 -0.58880400 -0.60219600
v 11.82608800 -0.58880400 -0.60219600
v 12.82229600 -0.00199400 -0.83077800
v 11.82608800 -0.00199400 -0.83077900
v 10.82646800 -0.76621200 -0.78301500
v 10.82646800 -0.00199400 -0.91607000
v 12.82229600 -0.00199400 -0.83077800
v 12.82229600 0.58822400 -0.60219600
v 11.82608800 0.58822400 -0.60219600
v 10.82646800 0.76563200 -0.78642700
v 12.82229600 0.58822400 -0.60219600
v 11.82608800 0.58822400 -0.60219600
v 12.82229600 0.81339400 -0.00515300
v 11.82608800 0.81339400 -0.00515300
v 10.82646800 0.76563200 -0.78642700
v 12.82229600 0.81339400 -0.00515300
v 12.82229600 0.58822400 0.59530100
v 11.82608800 0.58822400 0.59530100
v 10.82646800 0.76904400 0.77612000
v 10.82646800 0.89868800 -0.00515300
v 12.82229600 0.58822400 -0.60219600
v 12.82229600 0.00141800 0.00167000
v 12.82229600 -0.00199400 -0.83077800
v 12.82229600 -0.58880400 -0.60219600
v 12.82229600 -0.81397300 -0.00174200
v 12.82229600 -0.58880400 0.59530100
v 12.82229600 0.00141800 0.82729500
v 12.82229600 0.58822400 0.59530100
v 12.82229600 0.81339400 -0.00515300
v -6.46730900 6.69171000 -1.15488900
v -6.14320100 6.69171000 -1.15488900
v -6.37860600 6.07419400 -1.17535900
v -6.23190400 6.07419400 -1.17535900
v -6.14320100 4.43659200 -1.18900600
v -6.46730900 4.43659200 -1.18900600
v -6.23190400 5.06092700 -1.18900600
v -6.37860600 5.06092700 -1.18900600
v -6.77094800 4.43659200 -1.18900600
v -6.77094800 6.69171000 -1.15488900
v -6.46730900 4.43659200 -1.18900600
v -6.46730900 6.69171000 -1.15488900
v -5.83614900 6.69171000 -1.15488900
v -5.83614900 4.43659200 -1.18900600
v -6.14320100 6.69171000 -1.15488900
v -6.14320100 4.43659200 -1.18900600
v -5.83614900 2.10983000 -1.21971100
v -5.07875800 4.43659200 -0.63631500
v -5.07875800 2.10983000 -0.67043100
v -4.78876500 4.43659200 0.00166800
v -4.78876500 6.69171000 0.00166800
v -5.07875800 6.69171000 -0.60561000
v -5.83614900 6.69171000 -1.15488900
v -5.83614900 4.43659200 -1.18900600
v -6.77094800 2.10983000 -1.21971100
v -6.77094800 4.43659200 -1.18900600
v -7.52834000 2.10983000 -0.67043100
v -7.52834000 4.43659200 -0.63631500
v -6.77094800 6.69171000 -1.15488900
v -7.52834000 6.69171000 -0.60561000
v -7.81833300 6.69171000 0.00166800
v -7.81833300 4.43659200 0.00166800
v -7.81833300 2.10983000 0.00166800
v -6.78459500 0.84068700 0.17225200
v -6.77094800 0.84068700 -0.20644400
v -6.54236700 0.84751100 -0.51008300
v -5.93167500 0.85092300 -0.51008300
v -5.71332900 0.84068700 -0.20644400
v -5.69968200 0.84068700 0.17225200
v -4.79217700 2.10983000 0.00166900
v -6.37860600 6.07419400 1.17528400
v -6.46730900 6.69171000 1.15481400
v -6.37860600 5.06092700 1.18893100
v -6.46730900 4.43659200 1.18893100
v -6.23190400 6.07419400 1.17528400
v -6.14320100 6.69171000 1.15481400
v -6.37860600 6.07419400 1.17528400
v -6.46730900 6.69171000 1.15481400
v -6.37860600 5.06092700 1.18893100
v -6.46730900 4.43659200 1.18893100
v -6.23190400 5.06092700 1.18893100
v -6.14320100 4.43659200 1.18893100
v -6.46730900 6.69171000 1.15481400
v -6.77094900 6.69171000 1.15481400
v -6.46730900 4.43659200 1.18893100
v -6.77094900 4.43659200 1.18893100
v -6.14320100 4.43659200 1.18893100
v -5.83615000 4.43659200 1.18893100
v -6.14320100 6.69171000 1.15481400
v -5.83615000 6.69171000 1.15481400
v -5.07875800 4.43659200 0.63624000
v -5.83614900 2.10983000 1.21963600
v -5.07875800 2.10983000 0.67035700
v -5.69968200 0.84068700 0.17225200
v -4.79217700 2.10983000 0.00166900
v -5.71332900 0.85092300 0.48271500
v -5.93167500 0.85092300 0.51000800
v -6.54236700 0.85092300 0.51000800
v -6.77094800 2.10983000 1.21963600
v -6.77094800 0.85092300 0.48271500
v -7.52834000 2.10983000 0.67035700
v -6.78459500 0.84068700 0.17225200
v -7.81833300 2.10983000 0.00166800
v -7.52834000 4.43659200 0.63623900
v -7.81833300 4.43659200 0.00166800
v -7.81833300 6.69171000 0.00166800
v -7.52834000 6.69171000 0.60553400
v -6.77094900 6.69171000 1.15481400
v -6.77094900 4.43659200 1.18893100
v -5.83615000 4.43659200 1.18893100
v -5.83615000 6.69171000 1.15481400
v -5.07875800 6.69171000 0.60553400
v -4.78876500 6.69171000 0.00166800
v -4.78876500 4.43659200 0.00166800
v -40.81263400 1.22620500 -0.63631700
v -38.48587000 1.22620500 -0.67043400
v -38.48587000 0.46881400 -1.21971300
v -38.48587000 -1.22337700 -0.67043300
v -38.48587000 -0.46939800 -1.21971300
v -37.19284800 -0.65021500 -0.67384500
v -37.19284800 -0.24763900 -0.96724900
v -37.19284800 0.24705600 -0.96724900
v -37.19284800 0.64963100 -0.67384500
v -35.94758600 1.51278600 0.00166600
v -35.94758600 1.22279300 -0.89901600
v -37.19284800 0.80315700 0.00166600
v -38.48587000 1.51278600 0.00166600
v -40.81263400 1.51278600 0.00166600
v -43.07115900 1.51278600 0.00166600
v -43.07115900 1.22620500 -0.60561200
v -43.07115900 0.46881300 -1.15489200
v -40.81263400 0.46881400 -1.18900800
v -40.81263400 -0.46939800 -1.18900800
v -40.81263400 -1.22337700 -0.63631700
v -43.07115900 -0.46939800 -1.15489200
v -43.07115900 -1.22678900 -0.60561200
v -43.07115900 -1.51337000 0.00166600
v -40.81263400 -1.51337000 0.00166600
v -38.48587000 -1.51337000 0.00166600
v -37.19284800 -0.80374000 0.00166600
v -35.94758600 -1.51337000 0.00166700
v -35.94758600 -1.22337700 -0.89901500
v -35.94758600 -0.46598600 -1.44829500
v -35.94758600 0.46881400 -1.44829500
v -38.48587000 -1.22337700 0.67035400
v -37.19284800 -0.65021400 0.67376600
v -38.48587000 -0.46939700 1.21963400
v -37.19284800 -0.24763900 0.96717000
v -38.48587000 0.46881400 1.21963400
v -37.19284800 0.24705600 0.96717000
v -40.81263400 1.22620500 0.63623700
v -38.48587000 1.22620500 0.67035400
v -37.19284800 0.64963100 0.67376600
v -35.94758600 1.22279400 0.89893600
v -35.94758600 0.46881400 1.44821600
v -35.94758600 -0.46598500 1.44821600
v -35.94758600 -1.22337700 0.89893700
v -35.94758600 -1.51337000 0.00166700
v -37.19284800 -0.80374000 0.00166600
v -38.48587000 -1.51337000 0.00166600
v -40.81263400 -1.22337700 0.63623800
v -40.81263400 -1.51337000 0.00166600
v -43.07115900 -1.51337000 0.00166600
v -43.07115900 -1.22678900 0.60553200
v -43.07115900 -0.46939800 1.15481200
v -40.81263400 -0.46939700 1.18892900
v -40.81263400 0.46881400 1.18892900
v -43.07115900 0.46881400 1.15481200
v -43.07115900 1.22620500 0.60553200
v -43.07115900 1.51278600 0.00166600
v -40.81263400 1.51278600 0.00166600
v -38.48587000 1.51278600 0.00166600
v -37.19284800 0.80315700 0.00166600
v -35.94758600 1.51278600 0.00166600
v -20.79633900 -27.29197900 0.82729500
v -20.79633900 -28.35641900 0.00167000
v -20.79633900 -28.35641900 0.82729500
v -20.79633900 -28.90911100 0.82729500
v -20.79633900 -28.90911100 0.00167000
v -20.79633900 -28.90911100 -0.82736700
v -20.79633900 -28.35641900 -0.82736700
v -20.79633900 -27.29197900 -0.82736700
v -20.79633900 -27.29197900 0.00167000
v -20.04577100 -27.29197900 -0.82736700
v -20.04577100 -27.29197900 0.00167000
v -20.04577100 -28.35641900 -0.82736700
v -20.04577100 -28.35641900 0.00167000
v -20.04577100 -28.90911100 -0.82736700
v -20.04577100 -28.90911100 0.00167000
v -20.04577100 -28.90911100 0.82729500
v -20.04577100 -28.35641900 0.82729500
v -20.04577100 -27.29197900 0.82729500
v -20.04577100 -28.90911100 -0.82736700
v -20.04577100 -28.90911100 0.00167000
v -20.42105500 -28.90911100 -0.82736700
v -20.42105500 -28.90911100 0.00167000
v -20.79633900 -28.90911100 -0.82736700
v -20.79633900 -28.90911100 0.00167000
v -20.79633900 -28.90911100 0.82729500
v -20.42105500 -28.90911100 0.82729500
v -20.04577100 -28.90911100 0.82729500
vn -0.00000000 -0.93570000 0.35290000
vn 0.07530000 -0.95060000 0.30130000
vn -0.00000000 -0.93570000 0.35290000
vn 0.07780000 -0.99700000 -0.00000000
vn 0.14820000 -0.95790000 0.24610000
vn 0.15170000 -0.98840000 -0.00000000
vn -0.00000000 -0.93440000 -0.35610000
vn -0.00000000 -0.93440000 -0.35610000
vn 0.07530000 -0.95060000 -0.30130000
vn 0.14850000 -0.95700000 -0.24920000
vn -0.00000000 0.36530000 0.93090000
vn 0.07570000 0.31060000 0.94750000
vn -0.00000000 0.36530000 0.93090000
vn 0.08010000 -0.00000000 0.99680000
vn 0.14900000 0.25540000 0.95530000
vn -0.00000000 -0.36220000 0.93210000
vn -0.00000000 -0.36220000 0.93210000
vn 0.07570000 -0.31060000 0.94750000
vn 0.14900000 -0.25540000 0.95530000
vn 0.15460000 0.00220000 0.98800000
vn -0.00000000 -0.36520000 -0.93090000
vn 0.07580000 -0.31380000 -0.94650000
vn -0.00000000 -0.36520000 -0.93090000
vn 0.08010000 -0.00000000 -0.99680000
vn 0.14930000 -0.25860000 -0.95440000
vn 0.15460000 -0.00220000 -0.98800000
vn -0.00000000 0.36530000 -0.93090000
vn -0.00000000 0.36520000 -0.93090000
vn 0.07570000 0.31060000 -0.94750000
vn 0.14900000 0.25540000 -0.95530000
vn -0.00000000 0.93440000 -0.35610000
vn 0.07550000 0.94950000 -0.30440000
vn -0.00000000 0.93440000 -0.35610000
vn 0.07800000 0.99700000 -0.00210000
vn 0.14840000 0.95700000 -0.24920000
vn -0.00000000 0.93560000 0.35310000
vn -0.00000000 0.93560000 0.35310000
vn 0.07530000 0.95060000 0.30130000
vn 0.14820000 0.95790000 0.24610000
vn 0.15200000 0.98840000 -0.00220000
vn 1.00000000 -0.00000000 -0.00000000
vn 1.00000000 -0.00000000 -0.00000000
vn 1.00000000 -0.00000000 -0.00000000
vn 1.00000000 -0.00000000 -0.00000000
vn 1.00000000 -0.00000000 -0.00000000
vn 1.00000000 -0.00000000 -0.00000000
vn 1.00000000 -0.00000000 -0.00000000
vn 1.00000000 -0.00000000 -0.00000000
vn 1.00000000 -0.00000000 -0.00000000
vn -0.00000000 0.03020000 -0.99950000
vn -0.00000000 0.03020000 -0.99950000
vn -0.00000000 0.96590000 -0.25890000
vn -0.00000000 0.96590000 -0.25890000
vn -0.00000000 0.00790000 -1.00000000
vn -0.00000000 0.00790000 -1.00000000
vn -0.00000000 -0.95860000 -0.28470000
vn -0.00000000 -0.95860000 -0.28470000
vn -0.24700000 0.00960000 -0.96900000
vn -0.00000000 0.00790000 -1.00000000
vn -0.00000000 0.00790000 -1.00000000
vn -0.00000000 0.00790000 -1.00000000
vn -0.00000000 0.00790000 -1.00000000
vn 0.24700000 0.00960000 -0.96900000
vn -0.00000000 0.00790000 -1.00000000
vn -0.00000000 0.00790000 -1.00000000
vn 0.31700000 -0.25590000 -0.91320000
vn 0.77540000 0.00830000 -0.63140000
vn 0.77740000 -0.26860000 -0.56880000
vn 0.91090000 0.00260000 -0.41250000
vn 0.90660000 0.00260000 -0.42200000
vn 0.77160000 0.00550000 -0.63610000
vn 0.58670000 0.01100000 -0.80980000
vn 0.24710000 0.00960000 -0.96890000
vn -0.31250000 -0.26870000 -0.91110000
vn -0.24710000 0.00960000 -0.96890000
vn -0.76760000 -0.30060000 -0.56610000
vn -0.77540000 0.00830000 -0.63140000
vn -0.58670000 0.01100000 -0.80970000
vn -0.77160000 0.00550000 -0.63610000
vn -0.90660000 0.00260000 -0.42200000
vn -0.91090000 0.00260000 -0.41270000
vn -0.88950000 -0.31550000 -0.33060000
vn -0.88390000 0.40770000 -0.22910000
vn -0.76680000 0.44890000 -0.45880000
vn -0.32090000 0.49560000 -0.80710000
vn 0.32210000 0.51030000 -0.79740000
vn 0.75660000 0.47700000 -0.44730000
vn 0.86890000 0.43900000 -0.22850000
vn 0.89910000 -0.28490000 -0.33230000
vn -0.81300000 0.00820000 0.58220000
vn -0.10450000 0.01310000 0.99440000
vn -0.81300000 0.00830000 0.58220000
vn -0.10450000 0.01310000 0.99440000
vn -0.00000000 0.96590000 0.25890000
vn -0.00000000 0.03020000 0.99950000
vn -0.00000000 0.96590000 0.25890000
vn -0.00000000 0.03020000 0.99950000
vn -0.00000000 -0.95860000 0.28470000
vn -0.00000000 -0.00000000 1.00000000
vn -0.00000000 -0.95860000 0.28470000
vn -0.00000000 -0.00000000 1.00000000
vn -0.00000000 0.66010000 0.75120000
vn -0.00000000 0.66010000 0.75120000
vn -0.00000000 0.66010000 0.75120000
vn -0.28960000 0.25230000 0.92330000
vn -0.00000000 0.66010000 0.75120000
vn 0.28680000 0.25520000 0.92340000
vn -0.00000000 0.66010000 0.75120000
vn -0.00000000 0.66010000 0.75120000
vn 0.77540000 0.00830000 0.63140000
vn 0.28340000 -0.23530000 0.92970000
vn 0.75460000 -0.24210000 0.60990000
vn 0.86350000 0.45870000 0.20980000
vn 0.90210000 -0.25940000 0.34490000
vn 0.67580000 0.52110000 0.52120000
vn 0.21980000 0.50690000 0.83350000
vn -0.21590000 0.49880000 0.83940000
vn -0.27890000 -0.24760000 0.92780000
vn -0.68460000 0.49660000 0.53360000
vn -0.74710000 -0.27020000 0.60720000
vn -0.87960000 0.42490000 0.21390000
vn -0.89330000 -0.28980000 0.34360000
vn -0.77540000 0.00820000 0.63150000
vn -0.91090000 0.00260000 0.41270000
vn -0.90660000 0.00260000 0.42210000
vn -0.77160000 0.00550000 0.63610000
vn -0.58670000 0.01100000 0.80970000
vn -0.28960000 0.25230000 0.92330000
vn 0.28680000 0.25520000 0.92340000
vn 0.58670000 0.01100000 0.80980000
vn 0.77160000 0.00550000 0.63610000
vn 0.90660000 0.00260000 0.42200000
vn 0.91090000 0.00260000 0.41270000
vn -0.00830000 0.77540000 -0.63140000
vn 0.17680000 0.77740000 -0.60360000
vn 0.10920000 0.30640000 -0.94560000
vn 0.17680000 -0.77740000 -0.60360000
vn 0.10920000 -0.30630000 -0.94560000
vn -0.04800000 -0.80780000 -0.58750000
vn -0.08380000 -0.30650000 -0.94820000
vn -0.08380000 0.30650000 -0.94820000
vn -0.04800000 0.80780000 -0.58750000
vn -0.70680000 0.67900000 -0.19850000
vn -0.71460000 0.56900000 -0.40690000
vn -0.01990000 0.95590000 -0.29300000
vn 0.21730000 0.90980000 -0.35350000
vn -0.00260000 0.91090000 -0.41260000
vn -0.00260000 0.90660000 -0.42200000
vn -0.00840000 0.77050000 -0.63740000
vn -0.01100000 0.58670000 -0.80980000
vn -0.01240000 0.30870000 -0.95110000
vn -0.01340000 -0.30870000 -0.95100000
vn -0.00830000 -0.77540000 -0.63140000
vn -0.01100000 -0.58670000 -0.80970000
vn -0.00830000 -0.77050000 -0.63740000
vn -0.00260000 -0.90660000 -0.42200000
vn -0.00260000 -0.91090000 -0.41260000
vn 0.21730000 -0.90980000 -0.35350000
vn -0.01990000 -0.95590000 -0.29300000
vn -0.70680000 -0.67900000 -0.19840000
vn -0.71450000 -0.56900000 -0.40700000
vn -0.69250000 -0.22250000 -0.68630000
vn -0.69250000 0.22250000 -0.68630000
vn 0.17680000 -0.77740000 0.60360000
vn -0.04800000 -0.80780000 0.58750000
vn 0.10920000 -0.30640000 0.94560000
vn -0.08380000 -0.30650000 0.94820000
vn 0.10920000 0.30640000 0.94560000
vn -0.08380000 0.30650000 0.94820000
vn -0.00820000 0.77540000 0.63140000
vn 0.17680000 0.77740000 0.60360000
vn -0.04800000 0.80780000 0.58750000
vn -0.71460000 0.56900000 0.40690000
vn -0.69250000 0.22250000 0.68630000
vn -0.69250000 -0.22250000 0.68630000
vn -0.71450000 -0.56910000 0.40690000
vn -0.70680000 -0.67900000 0.19840000
vn -0.01990000 -0.95590000 0.29300000
vn 0.21730000 -0.90980000 0.35350000
vn -0.00810000 -0.77550000 0.63130000
vn -0.00260000 -0.91090000 0.41260000
vn -0.00260000 -0.90660000 0.42200000
vn -0.00830000 -0.77050000 0.63740000
vn -0.01100000 -0.58670000 0.80970000
vn -0.00960000 -0.24710000 0.96890000
vn -0.00960000 0.24710000 0.96890000
vn -0.01100000 0.58670000 0.80980000
vn -0.00830000 0.77050000 0.63740000
vn -0.00260000 0.90660000 0.42200000
vn -0.00260000 0.91090000 0.41260000
vn 0.21730000 0.90980000 0.35350000
vn -0.01990000 0.95590000 0.29300000
vn -0.70680000 0.67900000 0.19840000
vn -1.00000000 -0.00000000 -0.00000000
vn -1.00000000 -0.00000000 -0.00000000
vn -1.00000000 -0.00000000 -0.00000000
vn -1.00000000 -0.00000000 -0.00000000
vn -1.00000000 -0.00000000 -0.00000000
vn -1.00000000 -0.00000000 -0.00000000
vn -1.00000000 -0.00000000 -0.00000000
vn -1.00000000 -0.00000000 -0.00000000
vn -1.00000000 -0.00000000 -0.00000000
vn 1.00000000 -0.00000000 -0.00000000
vn 1.00000000 -0.00000000 -0.00000000
vn 1.00000000 -0.00000000 -0.00000000
vn 1.00000000 -0.00000000 -0.00000000
vn 1.00000000 -0.00000000 -0.00000000
vn 1.00000000 -0.00000000 -0.00000000
vn 1.00000000 -0.00000000 -0.00000000
vn 1.00000000 -0.00000000 -0.00000000
vn 1.00000000 -0.00000000 -0.00000000
vn -0.00000000 -1.00000000 -0.00000000
vn -0.00000000 -1.00000000 -0.00000000
vn -0.00000000 -1.00000000 -0.00000000
vn -0.00000000 -1.00000000 -0.00000000
vn -0.00000000 -1.00000000 -0.00000000
vn -0.00000000 -1.00000000 -0.00000000
vn -0.00000000 -1.00000000 -0.00000000
vn -0.00000000 -1.00000000 -0.00000000
vn -0.00000000 -1.00000000 -0.00000000
vt 0.62494700 0.24993900
vt 0.62494700 0.24993900
vt 0.50003800 0.24993900
vt 0.50003800 0.24993900
vt 0.62494700 0.24993900
vt 0.50003800 0.24993900
vt 0.50003800 0.24993900
vt 0.37500800 0.24993900
vt 0.37500800 0.24993900
vt 0.37500800 0.24993900
vt 0.62494700 0.00000000
vt 0.62494700 0.00000000
vt 0.62494700 0.12503100
vt 0.62494700 0.12503100
vt 0.62494700 0.00000000
vt 0.62494700 0.12503100
vt 0.62494700 0.24993900
vt 0.62494700 0.24993900
vt 0.62494700 0.24993900
vt 0.62494700 0.12503100
vt 0.37500800 0.24993900
vt 0.37500800 0.24993900
vt 0.37500800 0.12503100
vt 0.37500800 0.12503100
vt 0.37500800 0.24993900
vt 0.37500800 0.12503100
vt 0.37500800 0.12503100
vt 0.37500800 0.00000000
vt 0.37500800 0.00000000
vt 0.37500800 0.00000000
vt 0.37500800 0.00000000
vt 0.37500800 0.00000000
vt 0.50003800 0.00000000
vt 0.50003800 0.00000000
vt 0.37500800 0.00000000
vt 0.50003800 0.00000000
vt 0.62494700 0.00000000
vt 0.62494700 0.00000000
vt 0.62494700 0.00000000
vt 0.50003800 0.00000000
vt 0.37500800 0.00000000
vt 0.50003800 0.12503100
vt 0.37500800 0.12503100
vt 0.37500800 0.24993900
vt 0.50003800 0.24993900
vt 0.62494700 0.24993900
vt 0.62494700 0.12503100
vt 0.62494700 0.00000000
vt 0.50003800 0.00000000
vt 0.54826800 0.30488400
vt 0.45168700 0.30488400
vt 0.54826800 0.30488400
vt 0.45168700 0.30488400
vt 0.45168700 0.30488400
vt 0.54826800 0.30488400
vt 0.45168700 0.30488400
vt 0.54826800 0.30488400
vt 0.54826800 0.30488400
vt 0.54826800 0.30488400
vt 0.54826800 0.30488400
vt 0.54826800 0.30488400
vt 0.45168700 0.30488400
vt 0.45168700 0.30488400
vt 0.45168700 0.30488400
vt 0.45168700 0.30488400
vt 0.45168700 0.30488400
vt 0.37354200 0.24810700
vt 0.37354200 0.24810700
vt 0.34375000 0.15628800
vt 0.34375000 0.15628800
vt 0.37354200 0.24810700
vt 0.45168700 0.30488400
vt 0.45168700 0.30488400
vt 0.54826800 0.30488400
vt 0.54826800 0.30488400
vt 0.62641200 0.24810700
vt 0.62641200 0.24810700
vt 0.54826800 0.30488400
vt 0.62641200 0.24810700
vt 0.65620400 0.15628800
vt 0.65620400 0.15628800
vt 0.65620400 0.15628800
vt 0.65620400 0.15628800
vt 0.62641200 0.24810700
vt 0.54826800 0.30488400
vt 0.45168700 0.30488400
vt 0.37354200 0.24810700
vt 0.34375000 0.15628800
vt 0.34375000 0.15628800
vt 0.54826800 0.30488400
vt 0.54826800 0.30488400
vt 0.54826800 0.30488400
vt 0.54826800 0.30488400
vt 0.45168700 0.30488400
vt 0.45168700 0.30488400
vt 0.54826800 0.30488400
vt 0.54826800 0.30488400
vt 0.54826800 0.30488400
vt 0.54826800 0.30488400
vt 0.45168700 0.30488400
vt 0.45168700 0.30488400
vt 0.54826800 0.30488400
vt 0.54826800 0.30488400
vt 0.54826800 0.30488400
vt 0.54826800 0.30488400
vt 0.45168700 0.30488400
vt 0.45168700 0.30488400
vt 0.45168700 0.30488400
vt 0.45168700 0.30488400
vt 0.37354200 0.24810700
vt 0.45168700 0.30488400
vt 0.37354200 0.24810700
vt 0.34375000 0.15628800
vt 0.34375000 0.15628800
vt 0.37354200 0.24810700
vt 0.45168700 0.30488400
vt 0.54826800 0.30488400
vt 0.54826800 0.30488400
vt 0.62641200 0.24810700
vt 0.62641200 0.24810700
vt 0.65620400 0.15628800
vt 0.65620400 0.15628800
vt 0.62641200 0.24810700
vt 0.65620400 0.15628800
vt 0.65620400 0.15628800
vt 0.62641200 0.24810700
vt 0.54826800 0.30488400
vt 0.54826800 0.30488400
vt 0.45168700 0.30488400
vt 0.45168700 0.30488400
vt 0.37354200 0.24810700
vt 0.34375000 0.15628800
vt 0.34375000 0.15628800
vt 0.37354200 0.24810700
vt 0.37354200 0.24810700
vt 0.45168700 0.30488400
vt 0.62641200 0.24810700
vt 0.54826800 0.30488400
vt 0.62641200 0.24810700
vt 0.54826800 0.30488400
vt 0.45168700 0.30488400
vt 0.37354200 0.24810700
vt 0.34375000 0.15628800
vt 0.37354200 0.24810700
vt 0.34375000 0.15628800
vt 0.34375000 0.15628800
vt 0.34375000 0.15628800
vt 0.34375000 0.15628800
vt 0.37354200 0.24810700
vt 0.45168700 0.30488400
vt 0.45168700 0.30488400
vt 0.54826800 0.30488400
vt 0.62641200 0.24810700
vt 0.54826800 0.30488400
vt 0.62641200 0.24810700
vt 0.65620400 0.15628800
vt 0.65620400 0.15628800
vt 0.65620400 0.15628800
vt 0.65620400 0.15628800
vt 0.65620400 0.15628800
vt 0.62641200 0.24810700
vt 0.54826800 0.30488400
vt 0.45168700 0.30488400
vt 0.62641200 0.24810700
vt 0.62641200 0.24810700
vt 0.54826800 0.30488400
vt 0.54826800 0.30488400
vt 0.45168700 0.30488400
vt 0.45168700 0.30488400
vt 0.37354200 0.24810700
vt 0.37354200 0.24810700
vt 0.37354200 0.24810700
vt 0.37354200 0.24810700
vt 0.45168700 0.30488400
vt 0.54826800 0.30488400
vt 0.62641200 0.24810700
vt 0.65620400 0.15628800
vt 0.65620400 0.15628800
vt 0.65620400 0.15628800
vt 0.62641200 0.24810700
vt 0.65620400 0.15628800
vt 0.65620400 0.15628800
vt 0.62641200 0.24810700
vt 0.54826800 0.30488400
vt 0.54826800 0.30488400
vt 0.45168700 0.30488400
vt 0.45168700 0.30488400
vt 0.37354200 0.24810700
vt 0.34375000 0.15628800
vt 0.34375000 0.15628800
vt 0.34375000 0.15628800
vt 0.34375000 0.15628800
vt 0.34375000 0.15628800
vt 0.62494700 0.50000000
vt 0.50003800 0.50000000
vt 0.62494700 0.50000000
vt 0.62494700 0.50000000
vt 0.50003800 0.50000000
vt 0.62494700 0.50000000
vt 0.62494700 0.50000000
vt 0.62494700 0.50000000
vt 0.50003800 0.50000000
vt 0.62494700 0.24993900
vt 0.50003800 0.24993900
vt 0.62494700 0.24993900
vt 0.50003800 0.24993900
vt 0.62494700 0.24993900
vt 0.50003800 0.24993900
vt 0.62494700 0.24993900
vt 0.62494700 0.24993900
vt 0.62494700 0.24993900
vt 0.62494700 0.24993900
vt 0.50003800 0.24993900
vt 0.62494700 0.37496900
vt 0.50003800 0.37496900
vt 0.62494700 0.50000000
vt 0.50003800 0.50000000
vt 0.62494700 0.50000000
vt 0.62494700 0.37496900
vt 0.62494700 0.24993900
f 1/1/1 2/2/2 3/3/3
f 3/3/3 2/2/2 4/4/4
f 2/2/2 5/5/5 4/4/4
f 5/5/5 6/6/6 4/4/4
f 7/7/7 4/4/4 8/8/8
f 8/8/8 4/4/4 9/9/9
f 4/4/4 6/6/6 9/9/9
f 6/6/6 10/10/10 9/9/9
f 11/11/11 12/12/12 13/13/13
f 13/13/13 12/12/12 14/14/14
f 12/12/12 15/15/15 14/14/14
f 16/16/16 14/14/14 17/17/17
f 17/17/17 14/14/14 18/18/18
f 19/19/19 18/18/18 20/20/20
f 18/18/18 14/14/14 20/20/20
f 14/14/14 15/15/15 20/20/20
f 21/21/21 22/22/22 23/23/23
f 23/23/23 22/22/22 24/24/24
f 22/22/22 25/25/25 24/24/24
f 25/25/25 26/26/26 24/24/24
f 27/27/27 24/24/24 28/28/28
f 28/28/28 24/24/24 29/29/29
f 24/24/24 26/26/26 29/29/29
f 26/26/26 30/30/30 29/29/29
f 31/31/31 32/32/32 33/33/33
f 33/33/33 32/32/32 34/34/34
f 32/32/32 35/35/35 34/34/34
f 36/36/36 34/34/34 37/37/37
f 37/37/37 34/34/34 38/38/38
f 39/39/39 38/38/38 40/40/40
f 38/38/38 34/34/34 40/40/40
f 34/34/34 35/35/35 40/40/40
f 41/41/41 42/42/42 43/43/43
f 44/44/44 43/43/43 45/45/45
f 43/43/43 42/42/42 45/45/45
f 45/45/45 42/42/42 46/46/46
f 46/46/46 42/42/42 47/47/47
f 48/48/48 47/47/47 49/49/49
f 47/47/47 42/42/42 49/49/49
f 42/42/42 41/41/41 49/49/49
f 50/50/50 51/51/51 52/52/52
f 51/51/51 53/53/53 52/52/52
f 54/54/54 55/55/55 56/56/56
f 55/55/55 57/57/57 56/56/56
f 58/58/58 59/59/59 60/60/60
f 59/59/59 61/61/61 60/60/60
f 62/62/62 63/63/63 64/64/64
f 63/63/63 65/65/65 64/64/64
f 66/66/66 67/67/67 68/68/68
f 68/68/68 67/67/67 69/69/69
f 69/69/69 67/67/67 70/70/70
f 70/70/70 67/67/67 71/71/71
f 72/72/72 71/71/71 73/73/73
f 71/71/71 67/67/67 73/73/73
f 67/67/67 66/66/66 73/73/73
f 66/66/66 74/74/74 73/73/73
f 73/73/73 74/74/74 75/75/75
f 74/74/74 76/76/76 75/75/75
f 76/76/76 77/77/77 75/75/75
f 75/75/75 77/77/77 78/78/78
f 78/78/78 77/77/77 79/79/79
f 80/80/80 79/79/79 81/81/81
f 79/79/79 77/77/77 81/81/81
f 81/81/81 77/77/77 82/82/82
f 77/77/77 76/76/76 82/82/82
f 83/83/83 82/82/82 84/84/84
f 82/82/82 76/76/76 84/84/84
f 84/84/84 76/76/76 85/85/85
f 76/76/76 74/74/74 85/85/85
f 85/85/85 74/74/74 86/86/86
f 74/74/74 66/66/66 86/86/86
f 86/86/86 66/66/66 87/87/87
f 66/66/66 68/68/68 87/87/87
f 87/87/87 68/68/68 88/88/88
f 88/88/88 68/68/68 89/89/89
f 68/68/68 69/69/69 89/89/89
f 90/90/90 91/91/91 92/92/92
f 91/91/91 93/93/93 92/92/92
f 94/94/94 95/95/95 96/96/96
f 95/95/95 97/97/97 96/96/96
f 98/98/98 99/99/99 100/100/100
f 99/99/99 101/101/101 100/100/100
f 102/102/102 103/103/103 104/104/104
f 103/103/103 105/105/105 104/104/104
f 106/106/106 107/107/107 108/108/108
f 107/107/107 109/109/109 108/108/108
f 110/110/110 111/111/111 112/112/112
f 113/113/113 114/114/114 115/115/115
f 114/114/114 112/112/112 115/115/115
f 115/115/115 112/112/112 116/116/116
f 112/112/112 111/111/111 116/116/116
f 116/116/116 111/111/111 117/117/117
f 111/111/111 118/118/118 117/117/117
f 117/117/117 118/118/118 119/119/119
f 118/118/118 120/120/120 119/119/119
f 119/119/119 120/120/120 121/121/121
f 121/121/121 120/120/120 122/122/122
f 120/120/120 123/123/123 122/122/122
f 122/122/122 123/123/123 124/124/124
f 125/125/125 124/124/124 126/126/126
f 124/124/124 123/123/123 126/126/126
f 126/126/126 123/123/123 127/127/127
f 127/127/127 123/123/123 128/128/128
f 123/123/123 120/120/120 128/128/128
f 120/120/120 118/118/118 128/128/128
f 128/128/128 118/118/118 129/129/129
f 118/118/118 111/111/111 129/129/129
f 111/111/111 110/110/110 129/129/129
f 130/130/130 129/129/129 131/131/131
f 129/129/129 110/110/110 131/131/131
f 131/131/131 110/110/110 132/132/132
f 132/132/132 110/110/110 133/133/133
f 110/110/110 112/112/112 133/133/133
f 112/112/112 114/114/114 133/133/133
f 134/134/134 135/135/135 136/136/136
f 137/137/137 138/138/138 139/139/139
f 139/139/139 138/138/138 140/140/140
f 138/138/138 136/136/136 140/140/140
f 140/140/140 136/136/136 141/141/141
f 136/136/136 135/135/135 141/141/141
f 141/141/141 135/135/135 142/142/142
f 143/143/143 144/144/144 145/145/145
f 144/144/144 142/142/142 145/145/145
f 145/145/145 142/142/142 146/146/146
f 142/142/142 135/135/135 146/146/146
f 146/146/146 135/135/135 147/147/147
f 135/135/135 134/134/134 147/147/147
f 147/147/147 134/134/134 148/148/148
f 148/148/148 134/134/134 149/149/149
f 150/150/150 149/149/149 151/151/151
f 149/149/149 134/134/134 151/151/151
f 134/134/134 136/136/136 151/151/151
f 136/136/136 138/138/138 151/151/151
f 151/151/151 138/138/138 152/152/152
f 138/138/138 137/137/137 152/152/152
f 137/137/137 153/153/153 152/152/152
f 152/152/152 153/153/153 154/154/154
f 154/154/154 153/153/153 155/155/155
f 156/156/156 155/155/155 157/157/157
f 155/155/155 153/153/153 157/157/157
f 157/157/157 153/153/153 158/158/158
f 153/153/153 137/137/137 158/158/158
f 158/158/158 137/137/137 159/159/159
f 137/137/137 139/139/139 159/159/159
f 159/159/159 139/139/139 160/160/160
f 160/160/160 139/139/139 161/161/161
f 139/139/139 140/140/140 161/161/161
f 161/161/161 140/140/140 162/162/162
f 140/140/140 141/141/141 162/162/162
f 162/162/162 141/141/141 163/163/163
f 141/141/141 142/142/142 163/163/163
f 142/142/142 144/144/144 163/163/163
f 164/164/164 165/165/165 166/166/166
f 165/165/165 167/167/167 166/166/166
f 166/166/166 167/167/167 168/168/168
f 167/167/167 169/169/169 168/168/168
f 170/170/170 168/168/168 171/171/171
f 168/168/168 169/169/169 171/171/171
f 171/171/171 169/169/169 172/172/172
f 173/173/173 172/172/172 174/174/174
f 172/172/172 169/169/169 174/174/174
f 174/174/174 169/169/169 175/175/175
f 169/169/169 167/167/167 175/175/175
f 175/175/175 167/167/167 176/176/176
f 167/167/167 165/165/165 176/176/176
f 176/176/176 165/165/165 177/177/177
f 177/177/177 165/165/165 178/178/178
f 165/165/165 164/164/164 178/178/178
f 178/178/178 164/164/164 179/179/179
f 164/164/164 180/180/180 179/179/179
f 179/179/179 180/180/180 181/181/181
f 182/182/182 181/181/181 183/183/183
f 181/181/181 180/180/180 183/183/183
f 183/183/183 180/180/180 184/184/184
f 184/184/184 180/180/180 185/185/185
f 180/180/180 164/164/164 185/185/185
f 164/164/164 166/166/166 185/185/185
f 185/185/185 166/166/166 186/186/186
f 166/166/166 168/168/168 186/186/186
f 168/168/168 170/170/170 186/186/186
f 187/187/187 186/186/186 188/188/188
f 186/186/186 170/170/170 188/188/188
f 188/188/188 170/170/170 189/189/189
f 189/189/189 170/170/170 190/190/190
f 170/170/170 171/171/171 190/190/190
f 190/190/190 171/171/171 191/191/191
f 171/171/171 172/172/172 191/191/191
f 191/191/191 172/172/172 192/192/192
f 172/172/172 173/173/173 192/192/192
f 173/173/173 193/193/193 192/192/192
f 194/194/194 195/195/195 196/196/196
f 197/197/197 196/196/196 198/198/198
f 196/196/196 195/195/195 198/198/198
f 199/199/199 198/198/198 200/200/200
f 198/198/198 195/195/195 200/200/200
f 200/200/200 195/195/195 201/201/201
f 201/201/201 195/195/195 202/202/202
f 195/195/195 194/194/194 202/202/202
f 203/203/203 204/204/204 205/205/205
f 204/204/204 206/206/206 205/205/205
f 205/205/205 206/206/206 207/207/207
f 207/207/207 206/206/206 208/208/208
f 208/208/208 206/206/206 209/209/209
f 209/209/209 206/206/206 210/210/210
f 206/206/206 204/204/204 210/210/210
f 204/204/204 211/211/211 210/210/210
f 212/212/212 213/213/213 214/214/214
f 213/213/213 215/215/215 214/214/214
f 214/214/214 215/215/215 216/216/216
f 216/216/216 215/215/215 217/217/217
f 217/217/217 215/215/215 218/218/218
f 218/218/218 215/215/215 219/219/219
f 215/215/215 213/213/213 219/219/219
f 213/213/213 220/220/220 219/219/219

