mtllib material.mtl
usemtl Brown
v -35.94699900 -1.51204200 -0.00005100
v -35.94699900 -1.22318000 -0.89903800
v -35.12530100 -3.18588500 -0.00005000
v -35.12530100 -2.57732200 -1.91240000
v -35.94699900 -0.46706200 -1.44826800
v -35.12530100 -0.98428300 -3.06980300
v -35.94699900 0.46705800 -1.44826800
v -35.12530100 0.98466800 -3.06980300
v -35.94699900 1.22317600 -0.89903900
v -35.12530100 2.57731700 -1.91240000
v -35.12530100 3.18588100 -0.00005100
v -35.94699900 1.51164800 -0.00005100
v -30.19043400 -1.97227100 -1.82847300
v -30.19043400 -2.43796400 -0.00005000
v -31.20613700 -2.58708000 -1.91357100
v -35.12530100 -3.18588500 -0.00005000
v -35.12530100 -2.57732200 -1.91240000
v -31.20613700 -3.19759500 -0.00005000
v -30.19043400 -0.75319200 -2.71379900
v -30.19043400 -1.97227100 -1.82847300
v -31.20613700 -0.98818600 -3.07526800
v -35.12530100 -2.57732200 -1.91240000
v -35.12530100 -0.98428300 -3.06980300
v -31.20613700 -2.58708000 -1.91357100
v -30.19043400 0.75318800 -2.71379900
v -30.19043400 -0.75319200 -2.71379900
v -31.20613700 0.98818200 -3.07526800
v -35.12530100 -0.98428300 -3.06980300
v -35.12530100 0.98466800 -3.06980300
v -31.20613700 -0.98818600 -3.07526800
v -30.19043400 1.97226700 -1.82847400
v -30.19043400 0.75318800 -2.71379900
v -31.20613700 2.58707600 -1.91357100
v -35.12530100 0.98466800 -3.06980300
v -35.12530100 2.57731700 -1.91240000
v -31.20613700 0.98818200 -3.07526800
v -30.19043400 2.43796100 -0.00005100
v -30.19043400 1.97226700 -1.82847400
v -31.20613700 3.19759100 -0.00005100
v -35.12530100 2.57731700 -1.91240000
v -35.12530100 3.18588100 -0.00005100
v -31.20613700 2.58707600 -1.91357100
v -35.12530100 2.57731700 1.91229900
v -31.20613700 2.58707600 1.91386000
v -35.12530100 3.18588100 -0.00005100
v -31.20613700 3.19759100 -0.00005100
v -35.94699900 -1.51204200 -0.00005100
v -35.12530100 -3.18588500 -0.00005000
v -35.94699900 -1.22318000 0.89893700
v -35.12530100 -2.57732100 1.91229900
v -35.94699900 -0.46706200 1.44816700
v -35.12530100 -0.98428200 3.06970200
v -35.94699900 0.46705800 1.44816700
v -35.12530100 0.98466900 3.06970200
v -35.94699900 1.22317600 0.89893700
v -35.12530100 2.57731700 1.91229900
v -35.94699900 1.51164800 -0.00005100
v -35.12530100 3.18588100 -0.00005100
v -35.12530100 -3.18588500 -0.00005000
v -31.20613700 -3.19759500 -0.00005000
v -35.12530100 -2.57732100 1.91229900
v -31.20613700 -2.58708000 1.91347000
v -30.19043400 -2.43796400 -0.00005000
v -30.19043400 -1.97227100 1.82837300
v -35.12530100 -2.57732100 1.91229900
v -31.20613700 -2.58708000 1.91347000
v -35.12530100 -0.98428200 3.06970200
v -31.20613700 -0.98818500 3.07516700
v -30.19043400 -1.97227100 1.82837300
v -30.19043400 -0.75319200 2.71408800
v -35.12530100 -0.98428200 3.06970200
v -31.20613700 -0.98818500 3.07516700
v -35.12530100 0.98466900 3.06970200
v -31.20613700 0.98818200 3.07516700
v -30.19043400 -0.75319200 2.71408800
v -30.19043400 0.75318800 2.71408800
v -35.12530100 0.98466900 3.06970200
v -31.20613700 0.98818200 3.07516700
v -35.12530100 2.57731700 1.91229900
v -31.20613700 2.58707600 1.91386000
v -30.19043400 0.75318800 2.71408800
v -30.19043400 1.97226700 1.82837200
vn -0.70690000 -0.67890000 -0.19840000
vn -0.71460000 -0.56900000 -0.40690000
vn -0.88900000 -0.43590000 -0.14050000
vn -0.89860000 -0.35770000 -0.25420000
vn -0.69250000 -0.22250000 -0.68620000
vn -0.90070000 -0.13310000 -0.41350000
vn -0.69250000 0.22250000 -0.68620000
vn -0.90070000 0.13320000 -0.41350000
vn -0.71460000 0.56900000 -0.40690000
vn -0.89860000 0.35770000 -0.25420000
vn -0.88900000 0.43590000 -0.14060000
vn -0.70690000 0.67890000 -0.19840000
vn 0.29470000 -0.91870000 -0.26290000
vn 0.29470000 -0.91870000 -0.26290000
vn 0.28710000 -0.91650000 -0.27840000
vn -0.00250000 -0.95300000 -0.30290000
vn -0.00250000 -0.95300000 -0.30300000
vn 0.28710000 -0.91650000 -0.27840000
vn 0.23360000 -0.56990000 -0.78780000
vn 0.23360000 -0.56990000 -0.78780000
vn 0.19940000 -0.57360000 -0.79450000
vn -0.00280000 -0.58590000 -0.81040000
vn -0.00270000 -0.58590000 -0.81040000
vn 0.19940000 -0.57360000 -0.79450000
vn 0.13720000 0.10830000 -0.98460000
vn 0.13720000 -0.10830000 -0.98460000
vn 0.16950000 -0.00000000 -0.98550000
vn -0.00190000 -0.00000000 -1.00000000
vn -0.00200000 -0.00000000 -1.00000000
vn 0.16950000 -0.00000000 -0.98550000
vn 0.23360000 0.56990000 -0.78780000
vn 0.23360000 0.56880000 -0.78860000
vn 0.19940000 0.57360000 -0.79450000
vn -0.00270000 0.58590000 -0.81040000
vn -0.00270000 0.58590000 -0.81040000
vn 0.19940000 0.57360000 -0.79450000
vn 0.29470000 0.91870000 -0.26290000
vn 0.29470000 0.91870000 -0.26290000
vn 0.28710000 0.91650000 -0.27840000
vn -0.00250000 0.95300000 -0.30290000
vn -0.00250000 0.95300000 -0.30300000
vn 0.28710000 0.91650000 -0.27850000
vn -0.00250000 0.95310000 0.30280000
vn 0.28710000 0.91650000 0.27840000
vn -0.00250000 0.95300000 0.30290000
vn 0.28710000 0.91650000 0.27850000
vn -0.70690000 -0.67890000 0.19840000
vn -0.88900000 -0.43590000 0.14050000
vn -0.71460000 -0.56900000 0.40690000
vn -0.89860000 -0.35770000 0.25420000
vn -0.69250000 -0.22250000 0.68620000
vn -0.90070000 -0.13310000 0.41350000
vn -0.69250000 0.22250000 0.68620000
vn -0.90070000 0.13320000 0.41350000
vn -0.71460000 0.56900000 0.40690000
vn -0.89860000 0.35770000 0.25420000
vn -0.70690000 0.67890000 0.19840000
vn -0.88900000 0.43590000 0.14050000
vn -0.00250000 -0.95300000 0.30290000
vn 0.28710000 -0.91650000 0.27840000
vn -0.00250000 -0.95300000 0.30300000
vn 0.28710000 -0.91650000 0.27840000
vn 0.29470000 -0.91870000 0.26290000
vn 0.29470000 -0.91870000 0.26290000
vn -0.00280000 -0.58590000 0.81040000
vn 0.19940000 -0.57360000 0.79450000
vn -0.00270000 -0.58590000 0.81040000
vn 0.19940000 -0.57360000 0.79450000
vn 0.23360000 -0.56990000 0.78780000
vn 0.23360000 -0.56890000 0.78860000
vn -0.00190000 -0.00000000 1.00000000
vn 0.16950000 -0.00000000 0.98550000
vn -0.00200000 -0.00000000 1.00000000
vn 0.16950000 -0.00000000 0.98550000
vn 0.13730000 -0.10830000 0.98460000
vn 0.13730000 0.10830000 0.98460000
vn -0.00280000 0.58590000 0.81040000
vn 0.19940000 0.57360000 0.79450000
vn -0.00280000 0.58590000 0.81040000
vn 0.19940000 0.57360000 0.79450000
vn 0.23360000 0.56990000 0.78780000
vn 0.23360000 0.56990000 0.78780000
vt 0.65625000 0.15627200
vt 0.62641200 0.24807600
vt 0.65625000 0.15627200
vt 0.62641200 0.24807600
vt 0.54826800 0.30485300
vt 0.54826800 0.30485300
vt 0.45173200 0.30485300
vt 0.45173200 0.30485300
vt 0.37358800 0.24807600
vt 0.37358800 0.24807600
vt 0.34375000 0.15627200
vt 0.34375000 0.15627200
vt 0.62641200 0.24807600
vt 0.65625000 0.15627200
vt 0.62641200 0.24807600
vt 0.65625000 0.15627200
vt 0.62641200 0.24807600
vt 0.65625000 0.15627200
vt 0.54826800 0.30485300
vt 0.62641200 0.24807600
vt 0.54826800 0.30485300
vt 0.62641200 0.24807600
vt 0.54826800 0.30485300
vt 0.62641200 0.24807600
vt 0.45173200 0.30485300
vt 0.54826800 0.30485300
vt 0.45173200 0.30485300
vt 0.54826800 0.30485300
vt 0.45173200 0.30485300
vt 0.54826800 0.30485300
vt 0.37358800 0.24807600
vt 0.45173200 0.30485300
vt 0.37358800 0.24807600
vt 0.45173200 0.30485300
vt 0.37358800 0.24807600
vt 0.45173200 0.30485300
vt 0.34375000 0.15627200
vt 0.37358800 0.24807600
vt 0.34375000 0.15627200
vt 0.37358800 0.24807600
vt 0.34375000 0.15627200
vt 0.37358800 0.24807600
vt 0.37358800 0.24807600
vt 0.37358800 0.24807600
vt 0.34375000 0.15627200
vt 0.34375000 0.15627200
vt 0.65625000 0.15627200
vt 0.65625000 0.15627200
vt 0.62641200 0.24807600
vt 0.62641200 0.24807600
vt 0.54826800 0.30485300
vt 0.54826800 0.30485300
vt 0.45173200 0.30485300
vt 0.45173200 0.30485300
vt 0.37358800 0.24807600
vt 0.37358800 0.24807600
vt 0.34375000 0.15627200
vt 0.34375000 0.15627200
vt 0.65625000 0.15627200
vt 0.65625000 0.15627200
vt 0.62641200 0.24807600
vt 0.62641200 0.24807600
vt 0.65625000 0.15627200
vt 0.62641200 0.24807600
vt 0.62641200 0.24807600
vt 0.62641200 0.24807600
vt 0.54826800 0.30485300
vt 0.54826800 0.30485300
vt 0.62641200 0.24807600
vt 0.54826800 0.30485300
vt 0.54826800 0.30485300
vt 0.54826800 0.30485300
vt 0.45173200 0.30485300
vt 0.45173200 0.30485300
vt 0.54826800 0.30485300
vt 0.45173200 0.30485300
vt 0.45173200 0.30485300
vt 0.45173200 0.30485300
vt 0.37358800 0.24807600
vt 0.37358800 0.24807600
vt 0.45173200 0.30485300
vt 0.37358800 0.24807600
f 1/1/1 2/2/2 3/3/3
f 3/3/3 2/2/2 4/4/4
f 2/2/2 5/5/5 4/4/4
f 4/4/4 5/5/5 6/6/6
f 5/5/5 7/7/7 6/6/6
f 6/6/6 7/7/7 8/8/8
f 7/7/7 9/9/9 8/8/8
f 8/8/8 9/9/9 10/10/10
f 11/11/11 10/10/10 12/12/12
f 10/10/10 9/9/9 12/12/12
f 13/13/13 14/14/14 15/15/15
f 16/16/16 17/17/17 18/18/18
f 17/17/17 15/15/15 18/18/18
f 15/15/15 14/14/14 18/18/18
f 19/19/19 20/20/20 21/21/21
f 22/22/22 23/23/23 24/24/24
f 23/23/23 21/21/21 24/24/24
f 21/21/21 20/20/20 24/24/24
f 25/25/25 26/26/26 27/27/27
f 28/28/28 29/29/29 30/30/30
f 29/29/29 27/27/27 30/30/30
f 27/27/27 26/26/26 30/30/30
f 31/31/31 32/32/32 33/33/33
f 34/34/34 35/35/35 36/36/36
f 35/35/35 33/33/33 36/36/36
f 33/33/33 32/32/32 36/36/36
f 37/37/37 38/38/38 39/39/39
f 40/40/40 41/41/41 42/42/42
f 41/41/41 39/39/39 42/42/42
f 39/39/39 38/38/38 42/42/42
f 43/43/43 44/44/44 45/45/45
f 44/44/44 46/46/46 45/45/45
f 47/47/47 48/48/48 49/49/49
f 48/48/48 50/50/50 49/49/49
f 49/49/49 50/50/50 51/51/51
f 50/50/50 52/52/52 51/51/51
f 51/51/51 52/52/52 53/53/53
f 52/52/52 54/54/54 53/53/53
f 53/53/53 54/54/54 55/55/55
f 54/54/54 56/56/56 55/55/55
f 55/55/55 56/56/56 57/57/57
f 56/56/56 58/58/58 57/57/57
f 59/59/59 60/60/60 61/61/61
f 61/61/61 60/60/60 62/62/62
f 60/60/60 63/63/63 62/62/62
f 63/63/63 64/64/64 62/62/62
f 65/65/65 66/66/66 67/67/67
f 67/67/67 66/66/66 68/68/68
f 66/66/66 69/69/69 68/68/68
f 69/69/69 70/70/70 68/68/68
f 71/71/71 72/72/72 73/73/73
f 73/73/73 72/72/72 74/74/74
f 72/72/72 75/75/75 74/74/74
f 75/75/75 76/76/76 74/74/74
f 77/77/77 78/78/78 79/79/79
f 79/79/79 78/78/78 80/80/80
f 78/78/78 81/81/81 80/80/80
f 81/81/81 82/82/82 80/80/80

