mtllib material.mtl
usemtl anisotropic1SG
v 5.25976000 -0.73579200 0.04551500
v 5.25877600 -0.73654700 0.03810800
v 5.25887300 -0.73645800 0.05294300
v 5.25703500 -0.74737400 0.04581400
v 5.25667800 -0.74847000 0.03839200
v 5.25676600 -0.74854100 0.05322800
v 5.25601500 -0.73864700 0.03144600
v 5.25572700 -0.75172300 0.03169100
v 5.25620100 -0.73847800 0.05966500
v 5.25589500 -0.75186000 0.05990900
v 5.25427800 -0.75681600 0.02636300
v 5.25450800 -0.75700300 0.06520300
v 5.25247000 -0.76324800 0.02293300
v 5.25274000 -0.76346800 0.06859200
v 5.25174900 -0.74188600 0.02618300
v 5.25200400 -0.74165500 0.06502200
v 5.25048200 -0.77039100 0.02173600
v 5.25062400 -0.77050600 0.04574000
v 5.25076600 -0.77062100 0.06974500
v 5.24850700 -0.77754400 0.02288900
v 5.24877800 -0.77776400 0.06854700
v 5.24673800 -0.78401000 0.02627700
v 5.24639400 -0.74595000 0.02283300
v 5.24696900 -0.78419700 0.06511700
v 5.24669500 -0.74567800 0.06849100
v 5.24535200 -0.78915300 0.03157100
v 5.24552000 -0.78928900 0.05979000
v 5.24448200 -0.79247100 0.03825300
v 5.24456900 -0.79254200 0.05308800
v 5.24421100 -0.79363900 0.04566700
v 5.24047600 -0.75043900 0.02172400
v 5.24079100 -0.75015300 0.06973200
v 5.23457200 -0.75491300 0.02296400
v 5.23487300 -0.75464200 0.06862200
v 5.22926300 -0.75893600 0.02643300
v 5.22951900 -0.75870500 0.06527200
v 5.22506700 -0.76211300 0.03179000
v 5.22525200 -0.76194500 0.06000900
v 5.22239400 -0.76413200 0.03851200
v 5.22249200 -0.76404500 0.05334700
v 5.22150700 -0.76479900 0.04593900
v 4.93941600 -0.31332400 0.04510800
v 4.93843100 -0.31407700 0.03770000
v 4.93852900 -0.31399000 0.05253500
v 4.93567100 -0.31617700 0.03103800
v 4.93585600 -0.31601000 0.05925700
v 4.93140500 -0.31941800 0.02577500
v 4.93166000 -0.31918600 0.06461400
v 4.92605000 -0.32348200 0.02242500
v 4.92635000 -0.32321000 0.06808300
v 4.92013100 -0.32797100 0.02131600
v 4.92028900 -0.32782600 0.04532000
v 4.92044700 -0.32768400 0.06932400
v 4.91422800 -0.33244500 0.02255600
v 4.91452900 -0.33217200 0.06821400
v 4.90891800 -0.33646800 0.02602500
v 4.90917500 -0.33623600 0.06486500
v 4.90472100 -0.33964400 0.03138200
v 4.90490800 -0.33947700 0.05960000
v 4.90204900 -0.34166400 0.03810400
v 4.90214700 -0.34157700 0.05293900
v 4.90116200 -0.34233000 0.04553200
v -0.72042100 -1.12003000 0.15280600
v -0.72042100 1.61381000 0.15280600
v -0.72080800 -1.12032400 0.15621100
v -0.72093300 -1.12032400 0.14941800
v -0.72080800 1.61410300 0.15621100
v -0.72093300 1.61410300 0.14941800
v -0.72206000 -1.12117800 0.15930000
v -0.72229900 -1.12117800 0.14637900
v -0.72206000 1.61495700 0.15930000
v -0.72229900 1.61495700 0.14637900
v -0.72405100 -1.12250700 0.16176900
v -0.72437900 -1.12250700 0.14398500
v -0.72405100 1.61628600 0.16176900
v -0.72437900 1.61628600 0.14398500
v -0.72658800 -1.12418200 0.16337700
v -0.72697400 -1.12418200 0.14247200
v -0.72658800 1.61796100 0.16337700
v -0.72697400 1.61796100 0.14247200
v -0.72942200 -1.12603900 0.16396700
v -0.72962500 -1.12603900 0.15297600
v -0.72982800 -1.12603900 0.14198600
v -0.72942200 1.61981800 0.16396700
v -0.72962500 1.61981800 0.15297600
v -0.72982800 1.61981800 0.14198600
v -0.73227600 -1.12789500 0.16348200
v -0.73266300 -1.12789500 0.14257700
v -0.73227600 1.62167500 0.16348200
v -0.73266300 1.62167500 0.14257700
v -0.73487000 -1.12957000 0.16196900
v -0.73519800 -1.12957000 0.14418500
v -0.73487000 1.62334900 0.16196900
v -0.73519800 1.62334900 0.14418500
v -0.73695200 -1.13089900 0.15957500
v -0.73719100 -1.13089900 0.14665400
v -0.73695200 1.62467900 0.15957500
v -0.73719100 1.62467900 0.14665400
v -0.73831600 -1.13175300 0.15653400
v -0.73844100 -1.13175300 0.14974200
v -0.73831600 1.62553200 0.15653400
v -0.73844100 1.62553200 0.14974200
v -0.73882900 -1.13204700 0.15314600
v -0.73882900 1.62582600 0.15314600
v -0.78139900 -0.95939800 0.15393300
v -0.78139900 1.45317700 0.15393300
v -0.78178600 -0.95910500 0.15733800
v -0.78191200 -0.95910500 0.15054500
v -0.78178600 1.45288400 0.15733800
v -0.78191200 1.45288400 0.15054500
v -0.78303700 -0.95825100 0.16042600
v -0.78327600 -0.95825100 0.14750600
v -0.78303700 1.45203000 0.16042600
v -0.78327600 1.45203000 0.14750600
v -0.78502800 -0.95692200 0.16289600
v -0.78535700 -0.95692200 0.14511200
v -0.78502800 1.45070100 0.16289600
v -0.78535700 1.45070100 0.14511200
v -0.78756600 -0.95524700 0.16450400
v -0.78795200 -0.95524700 0.14359800
v -0.78756600 1.44902600 0.16450400
v -0.78795200 1.44902600 0.14359800
v -0.79039900 -0.95339000 0.16509400
v -0.79060200 -0.95339000 0.15410300
v -0.79080500 -0.95339000 0.14311300
v -0.79039900 1.44716900 0.16509400
v -0.79060200 1.44716900 0.15410300
v -0.79080500 1.44716900 0.14311300
v -0.79325300 -0.95153400 0.16460900
v -0.79364000 -0.95153400 0.14370300
v -0.79325300 1.44531300 0.16460900
v -0.79364000 1.44531300 0.14370300
v -0.79584800 -0.94985900 0.16309500
v -0.79617600 -0.94985900 0.14531100
v -0.79584800 1.44363800 0.16309500
v -0.79617600 1.44363800 0.14531100
v -0.79793000 -0.94853000 0.16070100
v -0.79816900 -0.94853000 0.14778100
v -0.79793000 1.44230900 0.16070100
v -0.79816900 1.44230900 0.14778100
v -0.79929400 -0.94767700 0.15766100
v -0.79941900 -0.94767700 0.15086800
v -0.79929400 1.44145600 0.15766100
v -0.79941900 1.44145600 0.15086800
v -0.79980700 -0.94738200 0.15427300
v -0.79980700 1.44116100 0.15427300
v -0.83308500 -0.94738300 0.15488800
v -0.83308500 1.44116200 0.15488800
v -0.83347200 -0.94767700 0.15829300
v -0.83359800 -0.94767700 0.15150000
v -0.83347200 1.44145600 0.15829300
v -0.83359800 1.44145600 0.15150000
v -0.83472300 -0.94853000 0.16138100
v -0.83496200 -0.94853000 0.14846100
v -0.83472300 1.44230900 0.16138100
v -0.83496200 1.44230900 0.14846100
v -0.83671500 -0.94986000 0.16385100
v -0.83704300 -0.94986000 0.14606700
v -0.83671500 1.44363900 0.16385100
v -0.83704300 1.44363900 0.14606700
v -0.83925100 -0.95153400 0.16545900
v -0.83963700 -0.95153400 0.14455300
v -0.83925100 1.44531300 0.16545900
v -0.83963700 1.44531300 0.14455300
v -0.84208500 -0.95339100 0.16604900
v -0.84228800 -0.95339100 0.15505800
v -0.84249200 -0.95339100 0.14406800
v -0.84208500 1.44717000 0.16604900
v -0.84228800 1.44717000 0.15505800
v -0.84249200 1.44717000 0.14406800
v -0.84494000 -0.95524800 0.16556400
v -0.84532600 -0.95524800 0.14465800
v -0.84494000 1.44902700 0.16556400
v -0.84532600 1.44902700 0.14465800
v -0.84753400 -0.95692300 0.16405100
v -0.84786300 -0.95692300 0.14626600
v -0.84753400 1.45070200 0.16405100
v -0.84786300 1.45070200 0.14626600
v -0.84985400 -0.95825200 0.14873600
v -0.84961500 1.45203100 0.16165600
v -0.84961600 -0.95825200 0.16165600
v -0.84985400 1.45203100 0.14873600
v -0.85098000 -0.95910500 0.15861600
v -0.85110500 -0.95910500 0.15182300
v -0.85098000 1.45288500 0.15861600
v -0.85110500 1.45288500 0.15182300
v -0.85149300 -0.95939900 0.15522800
v -0.85149300 1.45317800 0.15522800
v -0.89406100 -1.13204800 0.15601500
v -0.89406100 1.62582700 0.15601500
v -0.89444800 -1.13175300 0.15941900
v -0.89457400 -1.13175300 0.15262600
v -0.89444800 1.62553200 0.15941900
v -0.89457400 1.62553200 0.15262600
v -0.89569900 -1.13089900 0.16250800
v -0.89593800 -1.13089900 0.14958700
v -0.89569900 1.62467900 0.16250800
v -0.89593800 1.62467900 0.14958700
v -0.89769100 -1.12957100 0.16497700
v -0.89801900 -1.12957100 0.14719300
v -0.89769100 1.62335000 0.16497700
v -0.89801900 1.62335000 0.14719300
v -0.90022800 -1.12789500 0.16658500
v -0.90061400 -1.12789500 0.14568000
v -0.90022800 1.62167500 0.16658500
v -0.90061400 1.62167500 0.14568000
v -0.90306200 -1.12604000 0.16717600
v -0.90326500 -1.12604000 0.15618500
v -0.90346900 -1.12604000 0.14519500
v -0.90306200 1.61981900 0.16717600
v -0.90326500 1.61981900 0.15618500
v -0.90346900 1.61981900 0.14519500
v -0.90591600 -1.12418300 0.16669000
v -0.90630200 -1.12418300 0.14578500
v -0.90591600 1.61796200 0.16669000
v -0.90630200 1.61796200 0.14578500
v -0.90851000 -1.12250800 0.16517700
v -0.90883900 -1.12250800 0.14739300
v -0.90851000 1.61628700 0.16517700
v -0.90883900 1.61628700 0.14739300
v -0.91059200 -1.12117900 0.16278300
v -0.91083000 -1.12117900 0.14986200
v -0.91059200 1.61495800 0.16278300
v -0.91083000 1.61495800 0.14986200
v -0.91195600 -1.12032500 0.15974300
v -0.91208100 -1.12032500 0.15295000
v -0.91195600 1.61410400 0.15974300
v -0.91208100 1.61410400 0.15295000
v -0.91246900 -1.12003100 0.15635500
v -0.91246900 1.61381100 0.15635500
v -1.54101100 -1.12003000 0.16796800
v -1.54101100 1.61381000 0.16796800
v -1.54139900 -1.12032400 0.17137300
v -1.54152400 -1.12032400 0.16458000
v -1.54139900 1.61410300 0.17137300
v -1.54152400 1.61410300 0.16458000
v -1.54265000 -1.12117800 0.17446200
v -1.54288900 -1.12117800 0.16154100
v -1.54265000 1.61495700 0.17446200
v -1.54288900 1.61495700 0.16154100
v -1.54464100 -1.12250700 0.17693100
v -1.54497000 -1.12250700 0.15914700
v -1.54464100 1.61628600 0.17693100
v -1.54497000 1.61628600 0.15914700
v -1.54717800 -1.12418200 0.17853900
v -1.54756500 -1.12418200 0.15763400
v -1.54717800 1.61796100 0.17853900
v -1.54756500 1.61796100 0.15763400
v -1.55001200 -1.12603900 0.17913000
v -1.55021500 -1.12603900 0.16813900
v -1.55041800 -1.12603900 0.15714800
v -1.55001200 1.61981800 0.17913000
v -1.55021500 1.61981800 0.16813900
v -1.55041800 1.61981800 0.15714800
v -1.55286700 -1.12789500 0.17864400
v -1.55325300 -1.12789500 0.15773900
v -1.55286700 1.62167500 0.17864400
v -1.55325300 1.62167500 0.15773900
v -1.55546000 -1.12957000 0.17713100
v -1.55578900 -1.12957000 0.15934700
v -1.55546000 1.62334900 0.17713100
v -1.55578900 1.62334900 0.15934700
v -1.55754200 -1.13089900 0.17473700
v -1.55778000 -1.13089900 0.16181600
v -1.55754200 1.62467900 0.17473700
v -1.55778000 1.62467900 0.16181600
v -1.55890800 -1.13175300 0.17169700
v -1.55903200 -1.13175300 0.16490400
v -1.55890800 1.62553200 0.17169700
v -1.55903200 1.62553200 0.16490400
v -1.55941900 -1.13204700 0.16830900
v -1.55941900 1.62582600 0.16830900
v -1.59412500 -0.95939800 0.16895000
v -1.59412500 1.45317700 0.16895000
v -1.59451300 -0.95910500 0.17235500
v -1.59463800 -0.95910500 0.16556200
v -1.59451300 1.45288400 0.17235500
v -1.59463800 1.45288400 0.16556200
v -1.59576300 -0.95825100 0.17544300
v -1.59600200 -0.95825100 0.16252300
v -1.59576300 1.45203000 0.17544300
v -1.59600200 1.45203000 0.16252300
v -1.59775500 -0.95692200 0.17791300
v -1.59808400 -0.95692200 0.16012800
v -1.59775500 1.45070100 0.17791300
v -1.59808400 1.45070100 0.16012800
v -1.60029200 -0.95524700 0.17952100
v -1.60067800 -0.95524700 0.15861500
v -1.60029200 1.44902600 0.17952100
v -1.60067800 1.44902600 0.15861500
v -1.60312600 -0.95339000 0.18011100
v -1.60332900 -0.95339000 0.16912000
v -1.60353200 -0.95339000 0.15813000
v -1.60312600 1.44716900 0.18011100
v -1.60332900 1.44716900 0.16912000
v -1.60353200 1.44716900 0.15813000
v -1.60598000 -0.95153400 0.17962600
v -1.60636600 -0.95153400 0.15872000
v -1.60598000 1.44531300 0.17962600
v -1.60636600 1.44531300 0.15872000
v -1.60857500 -0.94985900 0.17811200
v -1.60890400 -0.94985900 0.16032800
v -1.60857500 1.44363800 0.17811200
v -1.60890400 1.44363800 0.16032800
v -1.61065700 -0.94853000 0.17571800
v -1.61089500 -0.94853000 0.16279800
v -1.61065700 1.44230900 0.17571800
v -1.61089500 1.44230900 0.16279800
v -1.61202000 -0.94767700 0.17267800
v -1.61214500 -0.94767700 0.16588500
v -1.61202000 1.44145600 0.17267800
v -1.61214500 1.44145600 0.16588500
v -1.61253300 -0.94738200 0.16929000
v -1.61253300 1.44116100 0.16929000
v -1.65367500 -0.94738300 0.17005000
v -1.65367500 1.44116200 0.17005000
v -1.65406300 -0.94767700 0.17345500
v -1.65418800 -0.94767700 0.16666200
v -1.65406300 1.44145600 0.17345500
v -1.65418800 1.44145600 0.16666200
v -1.65531300 -0.94853000 0.17654400
v -1.65555100 -0.94853000 0.16362300
v -1.65531300 1.44230900 0.17654400
v -1.65555100 1.44230900 0.16362300
v -1.65730500 -0.94986000 0.17901300
v -1.65763400 -0.94986000 0.16122900
v -1.65730500 1.44363900 0.17901300
v -1.65763400 1.44363900 0.16122900
v -1.65984200 -0.95153400 0.18062100
v -1.66022800 -0.95153400 0.15971600
v -1.65984200 1.44531300 0.18062100
v -1.66022800 1.44531300 0.15971600
v -1.66267500 -0.95339100 0.18121100
v -1.66287800 -0.95339100 0.17022000
v -1.66308100 -0.95339100 0.15923000
v -1.66267500 1.44717000 0.18121100
v -1.66287800 1.44717000 0.17022000
v -1.66308100 1.44717000 0.15923000
v -1.66553000 -0.95524800 0.18072600
v -1.66591600 -0.95524800 0.15982100
v -1.66553000 1.44902700 0.18072600
v -1.66591600 1.44902700 0.15982100
v -1.66812400 -0.95692300 0.17921300
v -1.66845300 -0.95692300 0.16142900
v -1.66812400 1.45070200 0.17921300
v -1.66845300 1.45070200 0.16142900
v -1.67044400 -0.95825200 0.16389800
v -1.67020500 1.45203100 0.17681900
v -1.67020600 -0.95825200 0.17681900
v -1.67044400 1.45203100 0.16389800
v -1.67157000 -0.95910500 0.17377800
v -1.67169500 -0.95910500 0.16698600
v -1.67157000 1.45288500 0.17377800
v -1.67169500 1.45288500 0.16698600
v -1.67208200 -0.95939900 0.17039000
v -1.67208200 1.45317800 0.17039000
v -1.70678700 -1.13204800 0.17103200
v -1.70678700 1.62582700 0.17103200
v -1.70717500 -1.13175300 0.17443600
v -1.70730000 -1.13175300 0.16764300
v -1.70717500 1.62553200 0.17443600
v -1.70730000 1.62553200 0.16764300
v -1.70842600 -1.13089900 0.17752500
v -1.70866400 -1.13089900 0.16460400
v -1.70842600 1.62467900 0.17752500
v -1.70866400 1.62467900 0.16460400
v -1.71041900 -1.12957100 0.17999400
v -1.71074800 -1.12957100 0.16221000
v -1.71041900 1.62335000 0.17999400
v -1.71074800 1.62335000 0.16221000
v -1.71295500 -1.12789500 0.18160200
v -1.71334100 -1.12789500 0.16069700
v -1.71295500 1.62167500 0.18160200
v -1.71334100 1.62167500 0.16069700
v -1.71578900 -1.12604000 0.18219300
v -1.71599200 -1.12604000 0.17120200
v -1.71619500 -1.12604000 0.16021200
v -1.71578900 1.61981900 0.18219300
v -1.71599200 1.61981900 0.17120200
v -1.71619500 1.61981900 0.16021200
v -1.71864300 -1.12418300 0.18170700
v -1.71902900 -1.12418300 0.16080200
v -1.71864300 1.61796200 0.18170700
v -1.71902900 1.61796200 0.16080200
v -1.72123700 -1.12250800 0.18019400
v -1.72156600 -1.12250800 0.16241000
v -1.72123700 1.61628700 0.18019400
v -1.72156600 1.61628700 0.16241000
v -1.72331800 -1.12117900 0.17780000
v -1.72355700 -1.12117900 0.16487900
v -1.72331800 1.61495800 0.17780000
v -1.72355700 1.61495800 0.16487900
v -1.72468300 -1.12032500 0.17476000
v -1.72480800 -1.12032500 0.16796700
v -1.72468300 1.61410400 0.17476000
v -1.72480800 1.61410400 0.16796700
v -1.72519600 -1.12003100 0.17137200
v -1.72519600 1.61381100 0.17137200
vn 0.97250000 0.23220000 -0.01610000
vn 0.93490000 0.22090000 -0.27770000
vn 0.93220000 0.25510000 0.25660000
vn 0.97140000 -0.23670000 -0.01710000
vn 0.98040000 -0.18390000 -0.07060000
vn 0.97480000 -0.22240000 0.01950000
vn 0.81640000 0.21870000 -0.53440000
vn 0.97550000 -0.08930000 -0.20110000
vn 0.79920000 0.27550000 0.53430000
vn 0.98200000 -0.14860000 0.11700000
vn 0.90970000 -0.02670000 -0.41440000
vn 0.93740000 -0.06690000 0.34180000
vn 0.77180000 -0.07310000 -0.63170000
vn 0.78420000 -0.08740000 0.61440000
vn 0.60080000 0.20270000 -0.77330000
vn 0.57320000 0.25450000 0.77890000
vn 0.60610000 -0.22760000 -0.76210000
vn 0.96360000 -0.26710000 -0.00700000
vn 0.59730000 -0.23820000 0.76580000
vn 0.45310000 -0.43680000 -0.77710000
vn 0.44050000 -0.44710000 0.77850000
vn 0.32790000 -0.64950000 -0.68610000
vn 0.30940000 0.13220000 -0.94170000
vn 0.31890000 -0.65730000 0.68290000
vn 0.29680000 0.16020000 0.94140000
vn 0.23600000 -0.82770000 -0.50910000
vn 0.23110000 -0.83250000 0.50360000
vn 0.17960000 -0.94540000 -0.27180000
vn 0.17760000 -0.94760000 0.26560000
vn 0.16010000 -0.98710000 -0.00310000
vn 0.00830000 -0.00400000 -1.00000000
vn 0.01580000 0.00590000 0.99990000
vn -0.26210000 -0.17520000 -0.94900000
vn -0.24450000 -0.17380000 0.95390000
vn -0.48710000 -0.34530000 -0.80220000
vn -0.46800000 -0.34660000 0.81290000
vn -0.65600000 -0.48610000 -0.57740000
vn -0.64070000 -0.48770000 0.59300000
vn -0.75960000 -0.57830000 -0.29770000
vn -0.75120000 -0.57920000 0.31650000
vn -0.79190000 -0.61060000 0.01000000
vn 0.18200000 0.98330000 -0.00700000
vn 0.15170000 0.96010000 -0.23510000
vn 0.15470000 0.96280000 0.22170000
vn 0.06670000 0.89540000 -0.44030000
vn 0.07240000 0.90060000 0.42860000
vn -0.06470000 0.79560000 -0.60240000
vn -0.05680000 0.80270000 0.59360000
vn -0.22960000 0.67050000 -0.70550000
vn -0.22030000 0.67890000 0.70040000
vn -0.41180000 0.53230000 -0.73970000
vn -0.60420000 0.79680000 -0.00080000
vn -0.40200000 0.54110000 0.73860000
vn -0.59360000 0.39450000 -0.70150000
vn -0.58430000 0.40290000 0.70440000
vn -0.75710000 0.27060000 -0.59470000
vn -0.74920000 0.27770000 0.60130000
vn -0.88630000 0.17280000 -0.42970000
vn -0.88060000 0.17800000 0.43920000
vn -0.96860000 0.11060000 -0.22260000
vn -0.96560000 0.11330000 0.23410000
vn -0.99590000 0.09010000 0.00610000
vn 0.98690000 -0.16010000 -0.01820000
vn 0.98690000 0.16010000 -0.01820000
vn 0.96090000 -0.17980000 0.21070000
vn 0.95240000 -0.17980000 -0.24600000
vn 0.96090000 0.17980000 0.21060000
vn 0.95240000 0.17980000 -0.24610000
vn 0.87680000 -0.23720000 0.41840000
vn 0.86070000 -0.23720000 -0.45040000
vn 0.87680000 0.23720000 0.41830000
vn 0.86070000 0.23720000 -0.45050000
vn 0.74290000 -0.32660000 0.58440000
vn 0.72080000 -0.32660000 -0.61140000
vn 0.74290000 0.32660000 0.58440000
vn 0.72080000 0.32660000 -0.61140000
vn 0.57220000 -0.43920000 0.69250000
vn 0.54630000 -0.43920000 -0.71320000
vn 0.57220000 0.43920000 0.69250000
vn 0.54650000 0.43900000 -0.71310000
vn 0.38170000 -0.56400000 0.73220000
vn 0.54650000 -0.83740000 -0.01010000
vn 0.35440000 -0.56400000 -0.74580000
vn 0.38180000 0.56400000 0.73220000
vn 0.54650000 0.83740000 -0.01010000
vn 0.35450000 0.56400000 -0.74580000
vn 0.18980000 -0.68890000 0.69960000
vn 0.16390000 -0.68890000 -0.70610000
vn 0.18990000 0.68890000 0.69950000
vn 0.16390000 0.68890000 -0.70610000
vn 0.01540000 -0.80150000 0.59780000
vn -0.00670000 -0.80150000 -0.59800000
vn 0.01530000 0.80150000 0.59780000
vn -0.00670000 0.80150000 -0.59800000
vn -0.12450000 -0.89080000 0.43700000
vn -0.14060000 -0.89090000 -0.43200000
vn -0.12460000 0.89090000 0.43680000
vn -0.14050000 0.89080000 -0.43210000
vn -0.21630000 -0.94830000 0.23240000
vn -0.22480000 -0.94830000 -0.22430000
vn -0.21630000 0.94830000 0.23240000
vn -0.22470000 0.94820000 -0.22460000
vn -0.25080000 -0.96800000 0.00450000
vn -0.25080000 0.96800000 0.00420000
vn 0.98690000 0.16010000 -0.01840000
vn 0.98690000 -0.16010000 -0.01810000
vn 0.96090000 0.17980000 0.21050000
vn 0.95240000 0.17980000 -0.24600000
vn 0.96090000 -0.17980000 0.21060000
vn 0.95250000 -0.17970000 -0.24590000
vn 0.87680000 0.23720000 0.41840000
vn 0.86070000 0.23720000 -0.45040000
vn 0.87680000 -0.23720000 0.41830000
vn 0.86070000 -0.23720000 -0.45050000
vn 0.74280000 0.32660000 0.58450000
vn 0.72080000 0.32660000 -0.61140000
vn 0.74290000 -0.32660000 0.58440000
vn 0.72070000 -0.32660000 -0.61150000
vn 0.57230000 0.43920000 0.69260000
vn 0.54630000 0.43910000 -0.71320000
vn 0.57230000 -0.43910000 0.69250000
vn 0.54630000 -0.43920000 -0.71320000
vn 0.38170000 0.56410000 0.73220000
vn 0.54640000 0.83740000 -0.01010000
vn 0.35440000 0.56410000 -0.74580000
vn 0.38170000 -0.56410000 0.73220000
vn 0.54640000 -0.83740000 -0.01010000
vn 0.35440000 -0.56410000 -0.74580000
vn 0.18980000 0.68880000 0.69960000
vn 0.16380000 0.68880000 -0.70620000
vn 0.18980000 -0.68880000 0.69970000
vn 0.16380000 -0.68880000 -0.70620000
vn 0.01540000 0.80150000 0.59780000
vn -0.00670000 0.80150000 -0.59800000
vn 0.01540000 -0.80150000 0.59780000
vn -0.00670000 -0.80150000 -0.59800000
vn -0.12480000 0.89090000 0.43660000
vn -0.14080000 0.89090000 -0.43180000
vn -0.12480000 -0.89090000 0.43670000
vn -0.14080000 -0.89090000 -0.43180000
vn -0.21640000 0.94830000 0.23230000
vn -0.22480000 0.94820000 -0.22430000
vn -0.21640000 -0.94820000 0.23240000
vn -0.22480000 -0.94820000 -0.22430000
vn -0.25070000 0.96800000 0.00450000
vn -0.25070000 -0.96800000 0.00460000
vn 0.25080000 0.96800000 -0.00460000
vn 0.25070000 -0.96800000 -0.00460000
vn 0.22480000 0.94830000 0.22420000
vn 0.21630000 0.94820000 -0.23250000
vn 0.22470000 -0.94830000 0.22430000
vn 0.21630000 -0.94830000 -0.23240000
vn 0.14070000 0.89090000 0.43190000
vn 0.12450000 0.89080000 -0.43690000
vn 0.14060000 -0.89080000 0.43200000
vn 0.12460000 -0.89090000 -0.43690000
vn 0.00670000 0.80150000 0.59800000
vn -0.01540000 0.80150000 -0.59780000
vn 0.00670000 -0.80150000 0.59800000
vn -0.01540000 -0.80150000 -0.59780000
vn -0.16390000 0.68890000 0.70610000
vn -0.18980000 0.68890000 -0.69960000
vn -0.16390000 -0.68890000 0.70610000
vn -0.18980000 -0.68890000 -0.69960000
vn -0.35440000 0.56400000 0.74580000
vn -0.54650000 0.83740000 0.01010000
vn -0.38180000 0.56400000 -0.73220000
vn -0.35440000 -0.56400000 0.74580000
vn -0.54650000 -0.83740000 0.01010000
vn -0.38170000 -0.56400000 -0.73220000
vn -0.54630000 0.43920000 0.71320000
vn -0.57220000 0.43920000 -0.69260000
vn -0.54630000 -0.43920000 0.71320000
vn -0.57220000 -0.43920000 -0.69260000
vn -0.72070000 0.32660000 0.61140000
vn -0.74290000 0.32660000 -0.58440000
vn -0.72080000 -0.32660000 0.61140000
vn -0.74280000 -0.32660000 -0.58440000
vn -0.87670000 0.23720000 -0.41840000
vn -0.86070000 -0.23720000 0.45050000
vn -0.86080000 0.23720000 0.45030000
vn -0.87680000 -0.23720000 -0.41830000
vn -0.95250000 0.17980000 0.24600000
vn -0.96090000 0.17980000 -0.21070000
vn -0.95240000 -0.17980000 0.24600000
vn -0.96090000 -0.17980000 -0.21070000
vn -0.98690000 0.16010000 0.01840000
vn -0.98690000 -0.16010000 0.01810000
vn 0.25080000 -0.96800000 -0.00450000
vn 0.25080000 0.96800000 -0.00480000
vn 0.22480000 -0.94820000 0.22440000
vn 0.21640000 -0.94820000 -0.23250000
vn 0.22480000 0.94820000 0.22430000
vn 0.21630000 0.94820000 -0.23260000
vn 0.14080000 -0.89090000 0.43180000
vn 0.12470000 -0.89090000 -0.43680000
vn 0.14070000 0.89090000 0.43190000
vn 0.12470000 0.89090000 -0.43680000
vn 0.00680000 -0.80150000 0.59790000
vn -0.01540000 -0.80150000 -0.59790000
vn 0.00670000 0.80150000 0.59800000
vn -0.01530000 0.80160000 -0.59770000
vn -0.16380000 -0.68880000 0.70620000
vn -0.18980000 -0.68880000 -0.69970000
vn -0.16390000 0.68880000 0.70610000
vn -0.18980000 0.68890000 -0.69960000
vn -0.35440000 -0.56410000 0.74580000
vn -0.54640000 -0.83740000 0.01010000
vn -0.38170000 -0.56410000 -0.73220000
vn -0.35450000 0.56400000 0.74580000
vn -0.54650000 0.83740000 0.01010000
vn -0.38180000 0.56400000 -0.73220000
vn -0.54630000 -0.43920000 0.71320000
vn -0.57230000 -0.43920000 -0.69250000
vn -0.54630000 0.43920000 0.71320000
vn -0.57230000 0.43920000 -0.69250000
vn -0.72070000 -0.32660000 0.61150000
vn -0.74280000 -0.32660000 -0.58450000
vn -0.72070000 0.32660000 0.61150000
vn -0.74280000 0.32660000 -0.58440000
vn -0.86070000 -0.23720000 0.45050000
vn -0.87670000 -0.23720000 -0.41850000
vn -0.86070000 0.23720000 0.45050000
vn -0.87670000 0.23720000 -0.41840000
vn -0.95240000 -0.17980000 0.24610000
vn -0.96090000 -0.17980000 -0.21070000
vn -0.95250000 0.17970000 0.24600000
vn -0.96090000 0.17970000 -0.21070000
vn -0.98690000 -0.16010000 0.01840000
vn -0.98690000 0.16020000 0.01820000
vn 0.98690000 -0.16010000 -0.01820000
vn 0.98690000 0.16010000 -0.01820000
vn 0.96090000 -0.17980000 0.21080000
vn 0.95240000 -0.17980000 -0.24610000
vn 0.96090000 0.17980000 0.21070000
vn 0.95240000 0.17980000 -0.24620000
vn 0.87670000 -0.23720000 0.41840000
vn 0.86070000 -0.23720000 -0.45050000
vn 0.87680000 0.23720000 0.41830000
vn 0.86070000 0.23720000 -0.45050000
vn 0.74290000 -0.32660000 0.58430000
vn 0.72090000 -0.32650000 -0.61130000
vn 0.74300000 0.32650000 0.58430000
vn 0.72080000 0.32660000 -0.61130000
vn 0.57230000 -0.43920000 0.69250000
vn 0.54630000 -0.43920000 -0.71320000
vn 0.57230000 0.43920000 0.69250000
vn 0.54630000 0.43920000 -0.71320000
vn 0.38180000 -0.56400000 0.73220000
vn 0.54650000 -0.83740000 -0.01010000
vn 0.35440000 -0.56400000 -0.74580000
vn 0.38180000 0.56400000 0.73220000
vn 0.54650000 0.83740000 -0.01010000
vn 0.35450000 0.56390000 -0.74580000
vn 0.18980000 -0.68890000 0.69960000
vn 0.16390000 -0.68880000 -0.70620000
vn 0.18990000 0.68880000 0.69960000
vn 0.16390000 0.68890000 -0.70610000
vn 0.01540000 -0.80150000 0.59780000
vn -0.00670000 -0.80150000 -0.59800000
vn 0.01530000 0.80150000 0.59780000
vn -0.00680000 0.80150000 -0.59800000
vn -0.12450000 -0.89090000 0.43690000
vn -0.14060000 -0.89090000 -0.43200000
vn -0.12460000 0.89090000 0.43680000
vn -0.14050000 0.89080000 -0.43200000
vn -0.21640000 -0.94830000 0.23230000
vn -0.22490000 -0.94820000 -0.22420000
vn -0.21640000 0.94830000 0.23230000
vn -0.22490000 0.94820000 -0.22420000
vn -0.25070000 -0.96810000 0.00460000
vn -0.25070000 0.96810000 0.00460000
vn 0.98690000 0.16010000 -0.01840000
vn 0.98690000 -0.16010000 -0.01810000
vn 0.96090000 0.17980000 0.21050000
vn 0.95240000 0.17980000 -0.24610000
vn 0.96090000 -0.17980000 0.21070000
vn 0.95250000 -0.17970000 -0.24590000
vn 0.87680000 0.23720000 0.41830000
vn 0.86070000 0.23730000 -0.45050000
vn 0.87670000 -0.23720000 0.41840000
vn 0.86070000 -0.23720000 -0.45040000
vn 0.74280000 0.32660000 0.58450000
vn 0.72070000 0.32660000 -0.61150000
vn 0.74280000 -0.32660000 0.58450000
vn 0.72070000 -0.32660000 -0.61150000
vn 0.57230000 0.43910000 0.69260000
vn 0.54630000 0.43920000 -0.71320000
vn 0.57220000 -0.43920000 0.69260000
vn 0.54630000 -0.43910000 -0.71320000
vn 0.38170000 0.56410000 0.73220000
vn 0.54640000 0.83740000 -0.01010000
vn 0.35440000 0.56410000 -0.74580000
vn 0.38170000 -0.56410000 0.73220000
vn 0.54640000 -0.83740000 -0.01010000
vn 0.35440000 -0.56410000 -0.74580000
vn 0.18980000 0.68880000 0.69960000
vn 0.16380000 0.68880000 -0.70620000
vn 0.18980000 -0.68880000 0.69970000
vn 0.16380000 -0.68880000 -0.70620000
vn 0.01540000 0.80150000 0.59780000
vn -0.00660000 0.80150000 -0.59800000
vn 0.01550000 -0.80150000 0.59780000
vn -0.00670000 -0.80150000 -0.59800000
vn -0.12480000 0.89080000 0.43690000
vn -0.14090000 0.89080000 -0.43190000
vn -0.12480000 -0.89080000 0.43680000
vn -0.14080000 -0.89080000 -0.43210000
vn -0.21630000 0.94830000 0.23240000
vn -0.22480000 0.94830000 -0.22420000
vn -0.21630000 -0.94820000 0.23260000
vn -0.22470000 -0.94830000 -0.22430000
vn -0.25080000 0.96800000 0.00460000
vn -0.25080000 -0.96800000 0.00460000
vn 0.25080000 0.96800000 -0.00460000
vn 0.25080000 -0.96800000 -0.00460000
vn 0.22480000 0.94830000 0.22390000
vn 0.21620000 0.94820000 -0.23280000
vn 0.22480000 -0.94830000 0.22400000
vn 0.21640000 -0.94830000 -0.23210000
vn 0.14070000 0.89090000 0.43180000
vn 0.12460000 0.89090000 -0.43690000
vn 0.14070000 -0.89090000 0.43190000
vn 0.12460000 -0.89090000 -0.43670000
vn 0.00670000 0.80150000 0.59800000
vn -0.01550000 0.80140000 -0.59790000
vn 0.00660000 -0.80140000 0.59810000
vn -0.01540000 -0.80150000 -0.59780000
vn -0.16390000 0.68880000 0.70620000
vn -0.18950000 0.68910000 -0.69940000
vn -0.16390000 -0.68880000 0.70620000
vn -0.18990000 -0.68880000 -0.69960000
vn -0.35440000 0.56400000 0.74580000
vn -0.54650000 0.83740000 0.01010000
vn -0.38170000 0.56400000 -0.73220000
vn -0.35440000 -0.56410000 0.74580000
vn -0.54650000 -0.83740000 0.01010000
vn -0.38170000 -0.56400000 -0.73220000
vn -0.54620000 0.43920000 0.71320000
vn -0.57230000 0.43920000 -0.69250000
vn -0.54630000 -0.43920000 0.71320000
vn -0.57220000 -0.43930000 -0.69260000
vn -0.72100000 0.32630000 0.61130000
vn -0.74290000 0.32660000 -0.58430000
vn -0.72090000 -0.32660000 0.61130000
vn -0.74280000 -0.32670000 -0.58440000
vn -0.87680000 0.23720000 -0.41840000
vn -0.86070000 -0.23720000 0.45040000
vn -0.86080000 0.23720000 0.45030000
vn -0.87680000 -0.23720000 -0.41820000
vn -0.95250000 0.17980000 0.24580000
vn -0.96090000 0.17980000 -0.21070000
vn -0.95240000 -0.17980000 0.24600000
vn -0.96090000 -0.17970000 -0.21050000
vn -0.98690000 0.16010000 0.01820000
vn -0.98690000 -0.16010000 0.01820000
vn 0.25080000 -0.96800000 -0.00450000
vn 0.25070000 0.96800000 -0.00480000
vn 0.22470000 -0.94820000 0.22450000
vn 0.21630000 -0.94820000 -0.23250000
vn 0.22480000 0.94830000 0.22420000
vn 0.21630000 0.94820000 -0.23270000
vn 0.14080000 -0.89080000 0.43200000
vn 0.12470000 -0.89080000 -0.43680000
vn 0.14080000 0.89090000 0.43190000
vn 0.12470000 0.89080000 -0.43690000
vn 0.00670000 -0.80160000 0.59790000
vn -0.01540000 -0.80160000 -0.59770000
vn 0.00680000 0.80160000 0.59780000
vn -0.01530000 0.80160000 -0.59770000
vn -0.16380000 -0.68880000 0.70620000
vn -0.18980000 -0.68890000 -0.69960000
vn -0.16380000 0.68890000 0.70610000
vn -0.18980000 0.68890000 -0.69960000
vn -0.35440000 -0.56410000 0.74580000
vn -0.54640000 -0.83740000 0.01010000
vn -0.38170000 -0.56410000 -0.73220000
vn -0.35390000 0.56420000 0.74590000
vn -0.54650000 0.83740000 0.01010000
vn -0.38180000 0.56400000 -0.73220000
vn -0.54640000 -0.43920000 0.71320000
vn -0.57230000 -0.43910000 -0.69250000
vn -0.54640000 0.43910000 0.71320000
vn -0.57230000 0.43910000 -0.69250000
vn -0.72080000 -0.32650000 0.61150000
vn -0.74290000 -0.32650000 -0.58440000
vn -0.72080000 0.32650000 0.61140000
vn -0.74290000 0.32650000 -0.58440000
vn -0.86080000 -0.23720000 0.45040000
vn -0.87680000 -0.23720000 -0.41840000
vn -0.86070000 0.23720000 0.45040000
vn -0.87680000 0.23720000 -0.41830000
vn -0.95240000 -0.17980000 0.24600000
vn -0.96080000 -0.17980000 -0.21080000
vn -0.95240000 0.17970000 0.24610000
vn -0.96090000 0.17970000 -0.21070000
vn -0.98690000 -0.16010000 0.01820000
vn -0.98690000 0.16020000 0.01820000
vt 0.00000000 0.00000000
vt 0.00000000 0.00000000
vt 0.00000000 0.00000000
vt 0.00000000 0.00000000
vt 0.00000000 0.00000000
vt 0.00000000 0.00000000
vt 0.00000000 0.00000000
vt 0.00000000 0.00000000
vt 0.00000000 0.00000000
vt 0.00000000 0.00000000
vt 0.00000000 0.00000000
vt 0.00000000 0.00000000
vt 0.00000000 0.00000000
vt 0.00000000 0.00000000
vt 0.00000000 0.00000000
vt 0.00000000 0.00000000
vt 0.00000000 0.00000000
vt 0.00000000 0.00000000
vt 0.00000000 0.00000000
vt 0.00000000 0.00000000
vt 0.00000000 0.00000000
vt 0.00000000 0.00000000
vt 0.00000000 0.00000000
vt 0.00000000 0.00000000
vt 0.00000000 0.00000000
vt 0.00000000 0.00000000
vt 0.00000000 0.00000000
vt 0.00000000 0.00000000
vt 0.00000000 0.00000000
vt 0.00000000 0.00000000
vt 0.00000000 0.00000000
vt 0.00000000 0.00000000
vt 0.00000000 0.00000000
vt 0.00000000 0.00000000
vt 0.00000000 0.00000000
vt 0.00000000 0.00000000
vt 0.00000000 0.00000000
vt 0.00000000 0.00000000
vt 0.00000000 0.00000000
vt 0.00000000 0.00000000
vt 0.00000000 0.00000000
vt 0.00000000 0.00000000
vt 0.00000000 0.00000000
vt 0.00000000 0.00000000
vt 0.00000000 0.00000000
vt 0.00000000 0.00000000
vt 0.00000000 0.00000000
vt 0.00000000 0.00000000
vt 0.00000000 0.00000000
vt 0.00000000 0.00000000
vt 0.00000000 0.00000000
vt 0.00000000 0.00000000
vt 0.00000000 0.00000000
vt 0.00000000 0.00000000
vt 0.00000000 0.00000000
vt 0.00000000 0.00000000
vt 0.00000000 0.00000000
vt 0.00000000 0.00000000
vt 0.00000000 0.00000000
vt 0.00000000 0.00000000
vt 0.00000000 0.00000000
vt 0.00000000 0.00000000
vt 0.00000000 0.00000000
vt 0.00000000 0.00000000
vt 0.00000000 0.00000000
vt 0.00000000 0.00000000
vt 0.00000000 0.00000000
vt 0.00000000 0.00000000
vt 0.00000000 0.00000000
vt 0.00000000 0.00000000
vt 0.00000000 0.00000000
vt 0.00000000 0.00000000
vt 0.00000000 0.00000000
vt 0.00000000 0.00000000
vt 0.00000000 0.00000000
vt 0.00000000 0.00000000
vt 0.00000000 0.00000000
vt 0.00000000 0.00000000
vt 0.00000000 0.00000000
vt 0.00000000 0.00000000
vt 0.00000000 0.00000000
vt 0.00000000 0.00000000
vt 0.00000000 0.00000000
vt 0.00000000 0.00000000
vt 0.00000000 0.00000000
vt 0.00000000 0.00000000
vt 0.00000000 0.00000000
vt 0.00000000 0.00000000
vt 0.00000000 0.00000000
vt 0.00000000 0.00000000
vt 0.00000000 0.00000000
vt 0.00000000 0.00000000
vt 0.00000000 0.00000000
vt 0.00000000 0.00000000
vt 0.00000000 0.00000000
vt 0.00000000 0.00000000
vt 0.00000000 0.00000000
vt 0.00000000 0.00000000
vt 0.00000000 0.00000000
vt 0.00000000 0.00000000
vt 0.00000000 0.00000000
vt 0.00000000 0.00000000
vt 0.00000000 0.00000000
vt 0.00000000 0.00000000
vt 0.00000000 0.00000000
vt 0.00000000 0.00000000
vt 0.00000000 0.00000000
vt 0.00000000 0.00000000
vt 0.00000000 0.00000000
vt 0.00000000 0.00000000
vt 0.00000000 0.00000000
vt 0.00000000 0.00000000
vt 0.00000000 0.00000000
vt 0.00000000 0.00000000
vt 0.00000000 0.00000000
vt 0.00000000 0.00000000
vt 0.00000000 0.00000000
vt 0.00000000 0.00000000
vt 0.00000000 0.00000000
vt 0.00000000 0.00000000
vt 0.00000000 0.00000000
vt 0.00000000 0.00000000
vt 0.00000000 0.00000000
vt 0.00000000 0.00000000
vt 0.00000000 0.00000000
vt 0.00000000 0.00000000
vt 0.00000000 0.00000000
vt 0.00000000 0.00000000
vt 0.00000000 0.00000000
vt 0.00000000 0.00000000
vt 0.00000000 0.00000000
vt 0.00000000 0.00000000
vt 0.00000000 0.00000000
vt 0.00000000 0.00000000
vt 0.00000000 0.00000000
vt 0.00000000 0.00000000
vt 0.00000000 0.00000000
vt 0.00000000 0.00000000
vt 0.00000000 0.00000000
vt 0.00000000 0.00000000
vt 0.00000000 0.00000000
vt 0.00000000 0.00000000
vt 0.00000000 0.00000000
vt 0.00000000 0.00000000
vt 0.00000000 0.00000000
vt 0.00000000 0.00000000
vt 0.00000000 0.00000000
vt 0.00000000 0.00000000
vt 0.00000000 0.00000000
vt 0.00000000 0.00000000
vt 0.00000000 0.00000000
vt 0.00000000 0.00000000
vt 0.00000000 0.00000000
vt 0.00000000 0.00000000
vt 0.00000000 0.00000000
vt 0.00000000 0.00000000
vt 0.00000000 0.00000000
vt 0.00000000 0.00000000
vt 0.00000000 0.00000000
vt 0.00000000 0.00000000
vt 0.00000000 0.00000000
vt 0.00000000 0.00000000
vt 0.00000000 0.00000000
vt 0.00000000 0.00000000
vt 0.00000000 0.00000000
vt 0.00000000 0.00000000
vt 0.00000000 0.00000000
vt 0.00000000 0.00000000
vt 0.00000000 0.00000000
vt 0.00000000 0.00000000
vt 0.00000000 0.00000000
vt 0.00000000 0.00000000
vt 0.00000000 0.00000000
vt 0.00000000 0.00000000
vt 0.00000000 0.00000000
vt 0.00000000 0.00000000
vt 0.00000000 0.00000000
vt 0.00000000 0.00000000
vt 0.00000000 0.00000000
vt 0.00000000 0.00000000
vt 0.00000000 0.00000000
vt 0.00000000 0.00000000
vt 0.00000000 0.00000000
vt 0.00000000 0.00000000
vt 0.00000000 0.00000000
vt 0.00000000 0.00000000
vt 0.00000000 0.00000000
vt 0.00000000 0.00000000
vt 0.00000000 0.00000000
vt 0.00000000 0.00000000
vt 0.00000000 0.00000000
vt 0.00000000 0.00000000
vt 0.00000000 0.00000000
vt 0.00000000 0.00000000
vt 0.00000000 0.00000000
vt 0.00000000 0.00000000
vt 0.00000000 0.00000000
vt 0.00000000 0.00000000
vt 0.00000000 0.00000000
vt 0.00000000 0.00000000
vt 0.00000000 0.00000000
vt 0.00000000 0.00000000
vt 0.00000000 0.00000000
vt 0.00000000 0.00000000
vt 0.00000000 0.00000000
vt 0.00000000 0.00000000
vt 0.00000000 0.00000000
vt 0.00000000 0.00000000
vt 0.00000000 0.00000000
vt 0.00000000 0.00000000
vt 0.00000000 0.00000000
vt 0.00000000 0.00000000
vt 0.00000000 0.00000000
vt 0.00000000 0.00000000
vt 0.00000000 0.00000000
vt 0.00000000 0.00000000
vt 0.00000000 0.00000000
vt 0.00000000 0.00000000
vt 0.00000000 0.00000000
vt 0.00000000 0.00000000
vt 0.00000000 0.00000000
vt 0.00000000 0.00000000
vt 0.00000000 0.00000000
vt 0.00000000 0.00000000
vt 0.00000000 0.00000000
vt 0.00000000 0.00000000
vt 0.00000000 0.00000000
vt 0.00000000 0.00000000
vt 0.00000000 0.00000000
vt 0.00000000 0.00000000
vt 0.00000000 0.00000000
vt 0.00000000 0.00000000
vt 0.00000000 0.00000000
vt 0.00000000 0.00000000
vt 0.00000000 0.00000000
vt 0.00000000 0.00000000
vt 0.00000000 0.00000000
vt 0.00000000 0.00000000
vt 0.00000000 0.00000000
vt 0.00000000 0.00000000
vt 0.00000000 0.00000000
vt 0.00000000 0.00000000
vt 0.00000000 0.00000000
vt 0.00000000 0.00000000
vt 0.00000000 0.00000000
vt 0.00000000 0.00000000
vt 0.00000000 0.00000000
vt 0.00000000 0.00000000
vt 0.00000000 0.00000000
vt 0.00000000 0.00000000
vt 0.00000000 0.00000000
vt 0.00000000 0.00000000
vt 0.00000000 0.00000000
vt 0.00000000 0.00000000
vt 0.00000000 0.00000000
vt 0.00000000 0.00000000
vt 0.00000000 0.00000000
vt 0.00000000 0.00000000
vt 0.00000000 0.00000000
vt 0.00000000 0.00000000
vt 0.00000000 0.00000000
vt 0.00000000 0.00000000
vt 0.00000000 0.00000000
vt 0.00000000 0.00000000
vt 0.00000000 0.00000000
vt 0.00000000 0.00000000
vt 0.00000000 0.00000000
vt 0.00000000 0.00000000
vt 0.00000000 0.00000000
vt 0.00000000 0.00000000
vt 0.00000000 0.00000000
vt 0.00000000 0.00000000
vt 0.00000000 0.00000000
vt 0.00000000 0.00000000
vt 0.00000000 0.00000000
vt 0.00000000 0.00000000
vt 0.00000000 0.00000000
vt 0.00000000 0.00000000
vt 0.00000000 0.00000000
vt 0.00000000 0.00000000
vt 0.00000000 0.00000000
vt 0.00000000 0.00000000
vt 0.00000000 0.00000000
vt 0.00000000 0.00000000
vt 0.00000000 0.00000000
vt 0.00000000 0.00000000
vt 0.00000000 0.00000000
vt 0.00000000 0.00000000
vt 0.00000000 0.00000000
vt 0.00000000 0.00000000
vt 0.00000000 0.00000000
vt 0.00000000 0.00000000
vt 0.00000000 0.00000000
vt 0.00000000 0.00000000
vt 0.00000000 0.00000000
vt 0.00000000 0.00000000
vt 0.00000000 0.00000000
vt 0.00000000 0.00000000
vt 0.00000000 0.00000000
vt 0.00000000 0.00000000
vt 0.00000000 0.00000000
vt 0.00000000 0.00000000
vt 0.00000000 0.00000000
vt 0.00000000 0.00000000
vt 0.00000000 0.00000000
vt 0.00000000 0.00000000
vt 0.00000000 0.00000000
vt 0.00000000 0.00000000
vt 0.00000000 0.00000000
vt 0.00000000 0.00000000
vt 0.00000000 0.00000000
vt 0.00000000 0.00000000
vt 0.00000000 0.00000000
vt 0.00000000 0.00000000
vt 0.00000000 0.00000000
vt 0.00000000 0.00000000
vt 0.00000000 0.00000000
vt 0.00000000 0.00000000
vt 0.00000000 0.00000000
vt 0.00000000 0.00000000
vt 0.00000000 0.00000000
vt 0.00000000 0.00000000
vt 0.00000000 0.00000000
vt 0.00000000 0.00000000
vt 0.00000000 0.00000000
vt 0.00000000 0.00000000
vt 0.00000000 0.00000000
vt 0.00000000 0.00000000
vt 0.00000000 0.00000000
vt 0.00000000 0.00000000
vt 0.00000000 0.00000000
vt 0.00000000 0.00000000
vt 0.00000000 0.00000000
vt 0.00000000 0.00000000
vt 0.00000000 0.00000000
vt 0.00000000 0.00000000
vt 0.00000000 0.00000000
vt 0.00000000 0.00000000
vt 0.00000000 0.00000000
vt 0.00000000 0.00000000
vt 0.00000000 0.00000000
vt 0.00000000 0.00000000
vt 0.00000000 0.00000000
vt 0.00000000 0.00000000
vt 0.00000000 0.00000000
vt 0.00000000 0.00000000
vt 0.00000000 0.00000000
vt 0.00000000 0.00000000
vt 0.00000000 0.00000000
vt 0.00000000 0.00000000
vt 0.00000000 0.00000000
vt 0.00000000 0.00000000
vt 0.00000000 0.00000000
vt 0.00000000 0.00000000
vt 0.00000000 0.00000000
vt 0.00000000 0.00000000
vt 0.00000000 0.00000000
vt 0.00000000 0.00000000
vt 0.00000000 0.00000000
vt 0.00000000 0.00000000
vt 0.00000000 0.00000000
vt 0.00000000 0.00000000
vt 0.00000000 0.00000000
vt 0.00000000 0.00000000
vt 0.00000000 0.00000000
vt 0.00000000 0.00000000
vt 0.00000000 0.00000000
vt 0.00000000 0.00000000
vt 0.00000000 0.00000000
vt 0.00000000 0.00000000
vt 0.00000000 0.00000000
vt 0.00000000 0.00000000
vt 0.00000000 0.00000000
vt 0.00000000 0.00000000
vt 0.00000000 0.00000000
vt 0.00000000 0.00000000
vt 0.00000000 0.00000000
vt 0.00000000 0.00000000
vt 0.00000000 0.00000000
vt 0.00000000 0.00000000
vt 0.00000000 0.00000000
vt 0.00000000 0.00000000
vt 0.00000000 0.00000000
vt 0.00000000 0.00000000
vt 0.00000000 0.00000000
vt 0.00000000 0.00000000
vt 0.00000000 0.00000000
vt 0.00000000 0.00000000
vt 0.00000000 0.00000000
vt 0.00000000 0.00000000
vt 0.00000000 0.00000000
vt 0.00000000 0.00000000
vt 0.00000000 0.00000000
vt 0.00000000 0.00000000
vt 0.00000000 0.00000000
vt 0.00000000 0.00000000
vt 0.00000000 0.00000000
vt 0.00000000 0.00000000
f 107/107/107 111/111/111 195/195/195
f 107/107/107 195/195/195 191/191/191
f 111/111/111 115/115/115 199/199/199
f 111/111/111 199/199/199 195/195/195
f 115/115/115 119/119/119 203/203/203
f 115/115/115 203/203/203 199/199/199
f 119/119/119 123/123/123 207/207/207
f 119/119/119 207/207/207 203/203/203
f 123/123/123 129/129/129 213/213/213
f 123/123/123 213/213/213 207/207/207
f 129/129/129 133/133/133 217/217/217
f 129/129/129 217/217/217 213/213/213
f 133/133/133 137/137/137 221/221/221
f 133/133/133 221/221/221 217/217/217
f 137/137/137 141/141/141 225/225/225
f 137/137/137 225/225/225 221/221/221
f 141/141/141 145/145/145 229/229/229
f 141/141/141 229/229/229 225/225/225
f 145/145/145 142/142/142 226/226/226
f 145/145/145 226/226/226 229/229/229
f 142/142/142 138/138/138 222/222/222
f 142/142/142 222/222/222 226/226/226
f 138/138/138 134/134/134 218/218/218
f 138/138/138 218/218/218 222/222/222
f 134/134/134 130/130/130 214/214/214
f 134/134/134 214/214/214 218/218/218
f 130/130/130 125/125/125 209/209/209
f 130/130/130 209/209/209 214/214/214
f 125/125/125 120/120/120 204/204/204
f 125/125/125 204/204/204 209/209/209
f 120/120/120 116/116/116 200/200/200
f 120/120/120 200/200/200 204/204/204
f 116/116/116 112/112/112 196/196/196
f 116/116/116 196/196/196 200/200/200
f 112/112/112 108/108/108 192/192/192
f 112/112/112 192/192/192 196/196/196
f 108/108/108 105/105/105 189/189/189
f 108/108/108 189/189/189 192/192/192
f 105/105/105 107/107/107 191/191/191
f 105/105/105 191/191/191 189/189/189
f 111/111/111 107/107/107 124/124/124
f 115/115/115 111/111/111 124/124/124
f 119/119/119 115/115/115 124/124/124
f 123/123/123 119/119/119 124/124/124
f 129/129/129 123/123/123 124/124/124
f 133/133/133 129/129/129 124/124/124
f 137/137/137 133/133/133 124/124/124
f 141/141/141 137/137/137 124/124/124
f 145/145/145 141/141/141 124/124/124
f 142/142/142 145/145/145 124/124/124
f 138/138/138 142/142/142 124/124/124
f 134/134/134 138/138/138 124/124/124
f 130/130/130 134/134/134 124/124/124
f 125/125/125 130/130/130 124/124/124
f 120/120/120 125/125/125 124/124/124
f 116/116/116 120/120/120 124/124/124
f 112/112/112 116/116/116 124/124/124
f 108/108/108 112/112/112 124/124/124
f 105/105/105 108/108/108 124/124/124
f 107/107/107 105/105/105 124/124/124
f 191/191/191 195/195/195 208/208/208
f 195/195/195 199/199/199 208/208/208
f 199/199/199 203/203/203 208/208/208
f 203/203/203 207/207/207 208/208/208
f 207/207/207 213/213/213 208/208/208
f 213/213/213 217/217/217 208/208/208
f 217/217/217 221/221/221 208/208/208
f 221/221/221 225/225/225 208/208/208
f 225/225/225 229/229/229 208/208/208
f 229/229/229 226/226/226 208/208/208
f 226/226/226 222/222/222 208/208/208
f 222/222/222 218/218/218 208/208/208
f 218/218/218 214/214/214 208/208/208
f 214/214/214 209/209/209 208/208/208
f 209/209/209 204/204/204 208/208/208
f 204/204/204 200/200/200 208/208/208
f 200/200/200 196/196/196 208/208/208
f 196/196/196 192/192/192 208/208/208
f 192/192/192 189/189/189 208/208/208
f 189/189/189 191/191/191 208/208/208
f 99/99/99 95/95/95 181/181/181
f 99/99/99 181/181/181 183/183/183
f 95/95/95 91/91/91 175/175/175
f 95/95/95 175/175/175 181/181/181
f 91/91/91 87/87/87 171/171/171
f 91/91/91 171/171/171 175/175/175
f 87/87/87 81/81/81 165/165/165
f 87/87/87 165/165/165 171/171/171
f 81/81/81 77/77/77 161/161/161
f 81/81/81 161/161/161 165/165/165
f 77/77/77 73/73/73 157/157/157
f 77/77/77 157/157/157 161/161/161
f 73/73/73 69/69/69 153/153/153
f 73/73/73 153/153/153 157/157/157
f 69/69/69 65/65/65 149/149/149
f 69/69/69 149/149/149 153/153/153
f 65/65/65 63/63/63 147/147/147
f 65/65/65 147/147/147 149/149/149
f 63/63/63 66/66/66 150/150/150
f 63/63/63 150/150/150 147/147/147
f 66/66/66 70/70/70 154/154/154
f 66/66/66 154/154/154 150/150/150
f 70/70/70 74/74/74 158/158/158
f 70/70/70 158/158/158 154/154/154
f 74/74/74 78/78/78 162/162/162
f 74/74/74 162/162/162 158/158/158
f 78/78/78 83/83/83 167/167/167
f 78/78/78 167/167/167 162/162/162
f 83/83/83 88/88/88 172/172/172
f 83/83/83 172/172/172 167/167/167
f 88/88/88 92/92/92 176/176/176
f 88/88/88 176/176/176 172/172/172
f 92/92/92 96/96/96 179/179/179
f 92/92/92 179/179/179 176/176/176
f 96/96/96 100/100/100 184/184/184
f 96/96/96 184/184/184 179/179/179
f 100/100/100 103/103/103 187/187/187
f 100/100/100 187/187/187 184/184/184
f 103/103/103 99/99/99 183/183/183
f 103/103/103 183/183/183 187/187/187
f 95/95/95 99/99/99 82/82/82
f 91/91/91 95/95/95 82/82/82
f 87/87/87 91/91/91 82/82/82
f 81/81/81 87/87/87 82/82/82
f 77/77/77 81/81/81 82/82/82
f 73/73/73 77/77/77 82/82/82
f 69/69/69 73/73/73 82/82/82
f 65/65/65 69/69/69 82/82/82
f 63/63/63 65/65/65 82/82/82
f 66/66/66 63/63/63 82/82/82
f 70/70/70 66/66/66 82/82/82
f 74/74/74 70/70/70 82/82/82
f 78/78/78 74/74/74 82/82/82
f 83/83/83 78/78/78 82/82/82
f 88/88/88 83/83/83 82/82/82
f 92/92/92 88/88/88 82/82/82
f 96/96/96 92/92/92 82/82/82
f 100/100/100 96/96/96 82/82/82
f 103/103/103 100/100/100 82/82/82
f 99/99/99 103/103/103 82/82/82
f 183/183/183 181/181/181 166/166/166
f 181/181/181 175/175/175 166/166/166
f 175/175/175 171/171/171 166/166/166
f 171/171/171 165/165/165 166/166/166
f 165/165/165 161/161/161 166/166/166
f 161/161/161 157/157/157 166/166/166
f 157/157/157 153/153/153 166/166/166
f 153/153/153 149/149/149 166/166/166
f 149/149/149 147/147/147 166/166/166
f 147/147/147 150/150/150 166/166/166
f 150/150/150 154/154/154 166/166/166
f 154/154/154 158/158/158 166/166/166
f 158/158/158 162/162/162 166/166/166
f 162/162/162 167/167/167 166/166/166
f 167/167/167 172/172/172 166/166/166
f 172/172/172 176/176/176 166/166/166
f 176/176/176 179/179/179 166/166/166
f 179/179/179 184/184/184 166/166/166
f 184/184/184 187/187/187 166/166/166
f 187/187/187 183/183/183 166/166/166
f 275/275/275 279/279/279 363/363/363
f 275/275/275 363/363/363 359/359/359
f 279/279/279 283/283/283 367/367/367
f 279/279/279 367/367/367 363/363/363
f 283/283/283 287/287/287 371/371/371
f 283/283/283 371/371/371 367/367/367
f 287/287/287 291/291/291 375/375/375
f 287/287/287 375/375/375 371/371/371
f 291/291/291 297/297/297 381/381/381
f 291/291/291 381/381/381 375/375/375
f 297/297/297 301/301/301 385/385/385
f 297/297/297 385/385/385 381/381/381
f 301/301/301 305/305/305 389/389/389
f 301/301/301 389/389/389 385/385/385
f 305/305/305 309/309/309 393/393/393
f 305/305/305 393/393/393 389/389/389
f 309/309/309 313/313/313 397/397/397
f 309/309/309 397/397/397 393/393/393
f 313/313/313 310/310/310 394/394/394
f 313/313/313 394/394/394 397/397/397
f 310/310/310 306/306/306 390/390/390
f 310/310/310 390/390/390 394/394/394
f 306/306/306 302/302/302 386/386/386
f 306/306/306 386/386/386 390/390/390
f 302/302/302 298/298/298 382/382/382
f 302/302/302 382/382/382 386/386/386
f 298/298/298 293/293/293 377/377/377
f 298/298/298 377/377/377 382/382/382
f 293/293/293 288/288/288 372/372/372
f 293/293/293 372/372/372 377/377/377
f 288/288/288 284/284/284 368/368/368
f 288/288/288 368/368/368 372/372/372
f 284/284/284 280/280/280 364/364/364
f 284/284/284 364/364/364 368/368/368
f 280/280/280 276/276/276 360/360/360
f 280/280/280 360/360/360 364/364/364
f 276/276/276 273/273/273 357/357/357
f 276/276/276 357/357/357 360/360/360
f 273/273/273 275/275/275 359/359/359
f 273/273/273 359/359/359 357/357/357
f 279/279/279 275/275/275 292/292/292
f 283/283/283 279/279/279 292/292/292
f 287/287/287 283/283/283 292/292/292
f 291/291/291 287/287/287 292/292/292
f 297/297/297 291/291/291 292/292/292
f 301/301/301 297/297/297 292/292/292
f 305/305/305 301/301/301 292/292/292
f 309/309/309 305/305/305 292/292/292
f 313/313/313 309/309/309 292/292/292
f 310/310/310 313/313/313 292/292/292
f 306/306/306 310/310/310 292/292/292
f 302/302/302 306/306/306 292/292/292
f 298/298/298 302/302/302 292/292/292
f 293/293/293 298/298/298 292/292/292
f 288/288/288 293/293/293 292/292/292
f 284/284/284 288/288/288 292/292/292
f 280/280/280 284/284/284 292/292/292
f 276/276/276 280/280/280 292/292/292
f 273/273/273 276/276/276 292/292/292
f 275/275/275 273/273/273 292/292/292
f 359/359/359 363/363/363 376/376/376
f 363/363/363 367/367/367 376/376/376
f 367/367/367 371/371/371 376/376/376
f 371/371/371 375/375/375 376/376/376
f 375/375/375 381/381/381 376/376/376
f 381/381/381 385/385/385 376/376/376
f 385/385/385 389/389/389 376/376/376
f 389/389/389 393/393/393 376/376/376
f 393/393/393 397/397/397 376/376/376
f 397/397/397 394/394/394 376/376/376
f 394/394/394 390/390/390 376/376/376
f 390/390/390 386/386/386 376/376/376
f 386/386/386 382/382/382 376/376/376
f 382/382/382 377/377/377 376/376/376
f 377/377/377 372/372/372 376/376/376
f 372/372/372 368/368/368 376/376/376
f 368/368/368 364/364/364 376/376/376
f 364/364/364 360/360/360 376/376/376
f 360/360/360 357/357/357 376/376/376
f 357/357/357 359/359/359 376/376/376
f 267/267/267 263/263/263 349/349/349
f 267/267/267 349/349/349 351/351/351
f 263/263/263 259/259/259 343/343/343
f 263/263/263 343/343/343 349/349/349
f 259/259/259 255/255/255 339/339/339
f 259/259/259 339/339/339 343/343/343
f 255/255/255 249/249/249 333/333/333
f 255/255/255 333/333/333 339/339/339
f 249/249/249 245/245/245 329/329/329
f 249/249/249 329/329/329 333/333/333
f 245/245/245 241/241/241 325/325/325
f 245/245/245 325/325/325 329/329/329
f 241/241/241 237/237/237 321/321/321
f 241/241/241 321/321/321 325/325/325
f 237/237/237 233/233/233 317/317/317
f 237/237/237 317/317/317 321/321/321
f 233/233/233 231/231/231 315/315/315
f 233/233/233 315/315/315 317/317/317
f 231/231/231 234/234/234 318/318/318
f 231/231/231 318/318/318 315/315/315
f 234/234/234 238/238/238 322/322/322
f 234/234/234 322/322/322 318/318/318
f 238/238/238 242/242/242 326/326/326
f 238/238/238 326/326/326 322/322/322
f 242/242/242 246/246/246 330/330/330
f 242/242/242 330/330/330 326/326/326
f 246/246/246 251/251/251 335/335/335
f 246/246/246 335/335/335 330/330/330
f 251/251/251 256/256/256 340/340/340
f 251/251/251 340/340/340 335/335/335
f 256/256/256 260/260/260 344/344/344
f 256/256/256 344/344/344 340/340/340
f 260/260/260 264/264/264 347/347/347
f 260/260/260 347/347/347 344/344/344
f 264/264/264 268/268/268 352/352/352
f 264/264/264 352/352/352 347/347/347
f 268/268/268 271/271/271 355/355/355
f 268/268/268 355/355/355 352/352/352
f 271/271/271 267/267/267 351/351/351
f 271/271/271 351/351/351 355/355/355
f 263/263/263 267/267/267 250/250/250
f 259/259/259 263/263/263 250/250/250
f 255/255/255 259/259/259 250/250/250
f 249/249/249 255/255/255 250/250/250
f 245/245/245 249/249/249 250/250/250
f 241/241/241 245/245/245 250/250/250
f 237/237/237 241/241/241 250/250/250
f 233/233/233 237/237/237 250/250/250
f 231/231/231 233/233/233 250/250/250
f 234/234/234 231/231/231 250/250/250
f 238/238/238 234/234/234 250/250/250
f 242/242/242 238/238/238 250/250/250
f 246/246/246 242/242/242 250/250/250
f 251/251/251 246/246/246 250/250/250
f 256/256/256 251/251/251 250/250/250
f 260/260/260 256/256/256 250/250/250
f 264/264/264 260/260/260 250/250/250
f 268/268/268 264/264/264 250/250/250
f 271/271/271 268/268/268 250/250/250
f 267/267/267 271/271/271 250/250/250
f 351/351/351 349/349/349 334/334/334
f 349/349/349 343/343/343 334/334/334
f 343/343/343 339/339/339 334/334/334
f 339/339/339 333/333/333 334/334/334
f 333/333/333 329/329/329 334/334/334
f 329/329/329 325/325/325 334/334/334
f 325/325/325 321/321/321 334/334/334
f 321/321/321 317/317/317 334/334/334
f 317/317/317 315/315/315 334/334/334
f 315/315/315 318/318/318 334/334/334
f 318/318/318 322/322/322 334/334/334
f 322/322/322 326/326/326 334/334/334
f 326/326/326 330/330/330 334/334/334
f 330/330/330 335/335/335 334/334/334
f 335/335/335 340/340/340 334/334/334
f 340/340/340 344/344/344 334/334/334
f 344/344/344 347/347/347 334/334/334
f 347/347/347 352/352/352 334/334/334
f 352/352/352 355/355/355 334/334/334
f 355/355/355 351/351/351 334/334/334
f 110/110/110 114/114/114 198/198/198
f 110/110/110 198/198/198 194/194/194
f 114/114/114 118/118/118 202/202/202
f 114/114/114 202/202/202 198/198/198
f 118/118/118 122/122/122 206/206/206
f 118/118/118 206/206/206 202/202/202
f 122/122/122 128/128/128 212/212/212
f 122/122/122 212/212/212 206/206/206
f 128/128/128 132/132/132 216/216/216
f 128/128/128 216/216/216 212/212/212
f 132/132/132 136/136/136 220/220/220
f 132/132/132 220/220/220 216/216/216
f 136/136/136 140/140/140 224/224/224
f 136/136/136 224/224/224 220/220/220
f 140/140/140 144/144/144 228/228/228
f 140/140/140 228/228/228 224/224/224
f 144/144/144 146/146/146 230/230/230
f 144/144/144 230/230/230 228/228/228
f 146/146/146 143/143/143 227/227/227
f 146/146/146 227/227/227 230/230/230
f 143/143/143 139/139/139 223/223/223
f 143/143/143 223/223/223 227/227/227
f 139/139/139 135/135/135 219/219/219
f 139/139/139 219/219/219 223/223/223
f 135/135/135 131/131/131 215/215/215
f 135/135/135 215/215/215 219/219/219
f 131/131/131 126/126/126 210/210/210
f 131/131/131 210/210/210 215/215/215
f 126/126/126 121/121/121 205/205/205
f 126/126/126 205/205/205 210/210/210
f 121/121/121 117/117/117 201/201/201
f 121/121/121 201/201/201 205/205/205
f 117/117/117 113/113/113 197/197/197
f 117/117/117 197/197/197 201/201/201
f 113/113/113 109/109/109 193/193/193
f 113/113/113 193/193/193 197/197/197
f 109/109/109 106/106/106 190/190/190
f 109/109/109 190/190/190 193/193/193
f 106/106/106 110/110/110 194/194/194
f 106/106/106 194/194/194 190/190/190
f 114/114/114 110/110/110 127/127/127
f 118/118/118 114/114/114 127/127/127
f 122/122/122 118/118/118 127/127/127
f 128/128/128 122/122/122 127/127/127
f 132/132/132 128/128/128 127/127/127
f 136/136/136 132/132/132 127/127/127
f 140/140/140 136/136/136 127/127/127
f 144/144/144 140/140/140 127/127/127
f 146/146/146 144/144/144 127/127/127
f 143/143/143 146/146/146 127/127/127
f 139/139/139 143/143/143 127/127/127
f 135/135/135 139/139/139 127/127/127
f 131/131/131 135/135/135 127/127/127
f 126/126/126 131/131/131 127/127/127
f 121/121/121 126/126/126 127/127/127
f 117/117/117 121/121/121 127/127/127
f 113/113/113 117/117/117 127/127/127
f 109/109/109 113/113/113 127/127/127
f 106/106/106 109/109/109 127/127/127
f 110/110/110 106/106/106 127/127/127
f 194/194/194 198/198/198 211/211/211
f 198/198/198 202/202/202 211/211/211
f 202/202/202 206/206/206 211/211/211
f 206/206/206 212/212/212 211/211/211
f 212/212/212 216/216/216 211/211/211
f 216/216/216 220/220/220 211/211/211
f 220/220/220 224/224/224 211/211/211
f 224/224/224 228/228/228 211/211/211
f 228/228/228 230/230/230 211/211/211
f 230/230/230 227/227/227 211/211/211
f 227/227/227 223/223/223 211/211/211
f 223/223/223 219/219/219 211/211/211
f 219/219/219 215/215/215 211/211/211
f 215/215/215 210/210/210 211/211/211
f 210/210/210 205/205/205 211/211/211
f 205/205/205 201/201/201 211/211/211
f 201/201/201 197/197/197 211/211/211
f 197/197/197 193/193/193 211/211/211
f 193/193/193 190/190/190 211/211/211
f 190/190/190 194/194/194 211/211/211
f 102/102/102 98/98/98 182/182/182
f 102/102/102 182/182/182 186/186/186
f 98/98/98 94/94/94 178/178/178
f 98/98/98 178/178/178 182/182/182
f 94/94/94 90/90/90 174/174/174
f 94/94/94 174/174/174 178/178/178
f 90/90/90 86/86/86 170/170/170
f 90/90/90 170/170/170 174/174/174
f 86/86/86 80/80/80 164/164/164
f 86/86/86 164/164/164 170/170/170
f 80/80/80 76/76/76 160/160/160
f 80/80/80 160/160/160 164/164/164
f 76/76/76 72/72/72 156/156/156
f 76/76/76 156/156/156 160/160/160
f 72/72/72 68/68/68 152/152/152
f 72/72/72 152/152/152 156/156/156
f 68/68/68 64/64/64 148/148/148
f 68/68/68 148/148/148 152/152/152
f 64/64/64 67/67/67 151/151/151
f 64/64/64 151/151/151 148/148/148
f 67/67/67 71/71/71 155/155/155
f 67/67/67 155/155/155 151/151/151
f 71/71/71 75/75/75 159/159/159
f 71/71/71 159/159/159 155/155/155
f 75/75/75 79/79/79 163/163/163
f 75/75/75 163/163/163 159/159/159
f 79/79/79 84/84/84 168/168/168
f 79/79/79 168/168/168 163/163/163
f 84/84/84 89/89/89 173/173/173
f 84/84/84 173/173/173 168/168/168
f 89/89/89 93/93/93 177/177/177
f 89/89/89 177/177/177 173/173/173
f 93/93/93 97/97/97 180/180/180
f 93/93/93 180/180/180 177/177/177
f 97/97/97 101/101/101 185/185/185
f 97/97/97 185/185/185 180/180/180
f 101/101/101 104/104/104 188/188/188
f 101/101/101 188/188/188 185/185/185
f 104/104/104 102/102/102 186/186/186
f 104/104/104 186/186/186 188/188/188
f 98/98/98 102/102/102 85/85/85
f 94/94/94 98/98/98 85/85/85
f 90/90/90 94/94/94 85/85/85
f 86/86/86 90/90/90 85/85/85
f 80/80/80 86/86/86 85/85/85
f 76/76/76 80/80/80 85/85/85
f 72/72/72 76/76/76 85/85/85
f 68/68/68 72/72/72 85/85/85
f 64/64/64 68/68/68 85/85/85
f 67/67/67 64/64/64 85/85/85
f 71/71/71 67/67/67 85/85/85
f 75/75/75 71/71/71 85/85/85
f 79/79/79 75/75/75 85/85/85
f 84/84/84 79/79/79 85/85/85
f 89/89/89 84/84/84 85/85/85
f 93/93/93 89/89/89 85/85/85
f 97/97/97 93/93/93 85/85/85
f 101/101/101 97/97/97 85/85/85
f 104/104/104 101/101/101 85/85/85
f 102/102/102 104/104/104 85/85/85
f 186/186/186 182/182/182 169/169/169
f 182/182/182 178/178/178 169/169/169
f 178/178/178 174/174/174 169/169/169
f 174/174/174 170/170/170 169/169/169
f 170/170/170 164/164/164 169/169/169
f 164/164/164 160/160/160 169/169/169
f 160/160/160 156/156/156 169/169/169
f 156/156/156 152/152/152 169/169/169
f 152/152/152 148/148/148 169/169/169
f 148/148/148 151/151/151 169/169/169
f 151/151/151 155/155/155 169/169/169
f 155/155/155 159/159/159 169/169/169
f 159/159/159 163/163/163 169/169/169
f 163/163/163 168/168/168 169/169/169
f 168/168/168 173/173/173 169/169/169
f 173/173/173 177/177/177 169/169/169
f 177/177/177 180/180/180 169/169/169
f 180/180/180 185/185/185 169/169/169
f 185/185/185 188/188/188 169/169/169
f 188/188/188 186/186/186 169/169/169
f 278/278/278 282/282/282 366/366/366
f 278/278/278 366/366/366 362/362/362
f 282/282/282 286/286/286 370/370/370
f 282/282/282 370/370/370 366/366/366
f 286/286/286 290/290/290 374/374/374
f 286/286/286 374/374/374 370/370/370
f 290/290/290 296/296/296 380/380/380
f 290/290/290 380/380/380 374/374/374
f 296/296/296 300/300/300 384/384/384
f 296/296/296 384/384/384 380/380/380
f 300/300/300 304/304/304 388/388/388
f 300/300/300 388/388/388 384/384/384
f 304/304/304 308/308/308 392/392/392
f 304/304/304 392/392/392 388/388/388
f 308/308/308 312/312/312 396/396/396
f 308/308/308 396/396/396 392/392/392
f 312/312/312 314/314/314 398/398/398
f 312/312/312 398/398/398 396/396/396
f 314/314/314 311/311/311 395/395/395
f 314/314/314 395/395/395 398/398/398
f 311/311/311 307/307/307 391/391/391
f 311/311/311 391/391/391 395/395/395
f 307/307/307 303/303/303 387/387/387
f 307/307/307 387/387/387 391/391/391
f 303/303/303 299/299/299 383/383/383
f 303/303/303 383/383/383 387/387/387
f 299/299/299 294/294/294 378/378/378
f 299/299/299 378/378/378 383/383/383
f 294/294/294 289/289/289 373/373/373
f 294/294/294 373/373/373 378/378/378
f 289/289/289 285/285/285 369/369/369
f 289/289/289 369/369/369 373/373/373
f 285/285/285 281/281/281 365/365/365
f 285/285/285 365/365/365 369/369/369
f 281/281/281 277/277/277 361/361/361
f 281/281/281 361/361/361 365/365/365
f 277/277/277 274/274/274 358/358/358
f 277/277/277 358/358/358 361/361/361
f 274/274/274 278/278/278 362/362/362
f 274/274/274 362/362/362 358/358/358
f 282/282/282 278/278/278 295/295/295
f 286/286/286 282/282/282 295/295/295
f 290/290/290 286/286/286 295/295/295
f 296/296/296 290/290/290 295/295/295
f 300/300/300 296/296/296 295/295/295
f 304/304/304 300/300/300 295/295/295
f 308/308/308 304/304/304 295/295/295
f 312/312/312 308/308/308 295/295/295
f 314/314/314 312/312/312 295/295/295
f 311/311/311 314/314/314 295/295/295
f 307/307/307 311/311/311 295/295/295
f 303/303/303 307/307/307 295/295/295
f 299/299/299 303/303/303 295/295/295
f 294/294/294 299/299/299 295/295/295
f 289/289/289 294/294/294 295/295/295
f 285/285/285 289/289/289 295/295/295
f 281/281/281 285/285/285 295/295/295
f 277/277/277 281/281/281 295/295/295
f 274/274/274 277/277/277 295/295/295
f 278/278/278 274/274/274 295/295/295
f 362/362/362 366/366/366 379/379/379
f 366/366/366 370/370/370 379/379/379
f 370/370/370 374/374/374 379/379/379
f 374/374/374 380/380/380 379/379/379
f 380/380/380 384/384/384 379/379/379
f 384/384/384 388/388/388 379/379/379
f 388/388/388 392/392/392 379/379/379
f 392/392/392 396/396/396 379/379/379
f 396/396/396 398/398/398 379/379/379
f 398/398/398 395/395/395 379/379/379
f 395/395/395 391/391/391 379/379/379
f 391/391/391 387/387/387 379/379/379
f 387/387/387 383/383/383 379/379/379
f 383/383/383 378/378/378 379/379/379
f 378/378/378 373/373/373 379/379/379
f 373/373/373 369/369/369 379/379/379
f 369/369/369 365/365/365 379/379/379
f 365/365/365 361/361/361 379/379/379
f 361/361/361 358/358/358 379/379/379
f 358/358/358 362/362/362 379/379/379
f 270/270/270 266/266/266 350/350/350
f 270/270/270 350/350/350 354/354/354
f 266/266/266 262/262/262 346/346/346
f 266/266/266 346/346/346 350/350/350
f 262/262/262 258/258/258 342/342/342
f 262/262/262 342/342/342 346/346/346
f 258/258/258 254/254/254 338/338/338
f 258/258/258 338/338/338 342/342/342
f 254/254/254 248/248/248 332/332/332
f 254/254/254 332/332/332 338/338/338
f 248/248/248 244/244/244 328/328/328
f 248/248/248 328/328/328 332/332/332
f 244/244/244 240/240/240 324/324/324
f 244/244/244 324/324/324 328/328/328
f 240/240/240 236/236/236 320/320/320
f 240/240/240 320/320/320 324/324/324
f 236/236/236 232/232/232 316/316/316
f 236/236/236 316/316/316 320/320/320
f 232/232/232 235/235/235 319/319/319
f 232/232/232 319/319/319 316/316/316
f 235/235/235 239/239/239 323/323/323
f 235/235/235 323/323/323 319/319/319
f 239/239/239 243/243/243 327/327/327
f 239/239/239 327/327/327 323/323/323
f 243/243/243 247/247/247 331/331/331
f 243/243/243 331/331/331 327/327/327
f 247/247/247 252/252/252 336/336/336
f 247/247/247 336/336/336 331/331/331
f 252/252/252 257/257/257 341/341/341
f 252/252/252 341/341/341 336/336/336
f 257/257/257 261/261/261 345/345/345
f 257/257/257 345/345/345 341/341/341
f 261/261/261 265/265/265 348/348/348
f 261/261/261 348/348/348 345/345/345
f 265/265/265 269/269/269 353/353/353
f 265/265/265 353/353/353 348/348/348
f 269/269/269 272/272/272 356/356/356
f 269/269/269 356/356/356 353/353/353
f 272/272/272 270/270/270 354/354/354
f 272/272/272 354/354/354 356/356/356
f 266/266/266 270/270/270 253/253/253
f 262/262/262 266/266/266 253/253/253
f 258/258/258 262/262/262 253/253/253
f 254/254/254 258/258/258 253/253/253
f 248/248/248 254/254/254 253/253/253
f 244/244/244 248/248/248 253/253/253
f 240/240/240 244/244/244 253/253/253
f 236/236/236 240/240/240 253/253/253
f 232/232/232 236/236/236 253/253/253
f 235/235/235 232/232/232 253/253/253
f 239/239/239 235/235/235 253/253/253
f 243/243/243 239/239/239 253/253/253
f 247/247/247 243/243/243 253/253/253
f 252/252/252 247/247/247 253/253/253
f 257/257/257 252/252/252 253/253/253
f 261/261/261 257/257/257 253/253/253
f 265/265/265 261/261/261 253/253/253
f 269/269/269 265/265/265 253/253/253
f 272/272/272 269/269/269 253/253/253
f 270/270/270 272/272/272 253/253/253
f 354/354/354 350/350/350 337/337/337
f 350/350/350 346/346/346 337/337/337
f 346/346/346 342/342/342 337/337/337
f 342/342/342 338/338/338 337/337/337
f 338/338/338 332/332/332 337/337/337
f 332/332/332 328/328/328 337/337/337
f 328/328/328 324/324/324 337/337/337
f 324/324/324 320/320/320 337/337/337
f 320/320/320 316/316/316 337/337/337
f 316/316/316 319/319/319 337/337/337
f 319/319/319 323/323/323 337/337/337
f 323/323/323 327/327/327 337/337/337
f 327/327/327 331/331/331 337/337/337
f 331/331/331 336/336/336 337/337/337
f 336/336/336 341/341/341 337/337/337
f 341/341/341 345/345/345 337/337/337
f 345/345/345 348/348/348 337/337/337
f 348/348/348 353/353/353 337/337/337
f 353/353/353 356/356/356 337/337/337
f 356/356/356 354/354/354 337/337/337
f 5/5/5 8/8/8 7/7/7
f 5/5/5 7/7/7 2/2/2
f 8/8/8 11/11/11 15/15/15
f 8/8/8 15/15/15 7/7/7
f 11/11/11 13/13/13 23/23/23
f 11/11/11 23/23/23 15/15/15
f 13/13/13 17/17/17 31/31/31
f 13/13/13 31/31/31 23/23/23
f 17/17/17 20/20/20 33/33/33
f 17/17/17 33/33/33 31/31/31
f 20/20/20 22/22/22 35/35/35
f 20/20/20 35/35/35 33/33/33
f 22/22/22 26/26/26 37/37/37
f 22/22/22 37/37/37 35/35/35
f 26/26/26 28/28/28 39/39/39
f 26/26/26 39/39/39 37/37/37
f 28/28/28 30/30/30 41/41/41
f 28/28/28 41/41/41 39/39/39
f 30/30/30 29/29/29 40/40/40
f 30/30/30 40/40/40 41/41/41
f 29/29/29 27/27/27 38/38/38
f 29/29/29 38/38/38 40/40/40
f 27/27/27 24/24/24 36/36/36
f 27/27/27 36/36/36 38/38/38
f 24/24/24 21/21/21 34/34/34
f 24/24/24 34/34/34 36/36/36
f 21/21/21 19/19/19 32/32/32
f 21/21/21 32/32/32 34/34/34
f 19/19/19 14/14/14 25/25/25
f 19/19/19 25/25/25 32/32/32
f 14/14/14 12/12/12 16/16/16
f 14/14/14 16/16/16 25/25/25
f 12/12/12 10/10/10 9/9/9
f 12/12/12 9/9/9 16/16/16
f 10/10/10 6/6/6 3/3/3
f 10/10/10 3/3/3 9/9/9
f 6/6/6 4/4/4 1/1/1
f 6/6/6 1/1/1 3/3/3
f 4/4/4 5/5/5 2/2/2
f 4/4/4 2/2/2 1/1/1
f 8/8/8 5/5/5 18/18/18
f 11/11/11 8/8/8 18/18/18
f 13/13/13 11/11/11 18/18/18
f 17/17/17 13/13/13 18/18/18
f 20/20/20 17/17/17 18/18/18
f 22/22/22 20/20/20 18/18/18
f 26/26/26 22/22/22 18/18/18
f 28/28/28 26/26/26 18/18/18
f 30/30/30 28/28/28 18/18/18
f 29/29/29 30/30/30 18/18/18
f 27/27/27 29/29/29 18/18/18
f 24/24/24 27/27/27 18/18/18
f 21/21/21 24/24/24 18/18/18
f 19/19/19 21/21/21 18/18/18
f 14/14/14 19/19/19 18/18/18
f 12/12/12 14/14/14 18/18/18
f 10/10/10 12/12/12 18/18/18
f 6/6/6 10/10/10 18/18/18
f 4/4/4 6/6/6 18/18/18
f 5/5/5 4/4/4 18/18/18
f 43/43/43 45/45/45 52/52/52
f 45/45/45 47/47/47 52/52/52
f 47/47/47 49/49/49 52/52/52
f 49/49/49 51/51/51 52/52/52
f 51/51/51 54/54/54 52/52/52
f 54/54/54 56/56/56 52/52/52
f 56/56/56 58/58/58 52/52/52
f 58/58/58 60/60/60 52/52/52
f 60/60/60 62/62/62 52/52/52
f 62/62/62 61/61/61 52/52/52
f 61/61/61 59/59/59 52/52/52
f 59/59/59 57/57/57 52/52/52
f 57/57/57 55/55/55 52/52/52
f 55/55/55 53/53/53 52/52/52
f 53/53/53 50/50/50 52/52/52
f 50/50/50 48/48/48 52/52/52
f 48/48/48 46/46/46 52/52/52
f 46/46/46 44/44/44 52/52/52
f 44/44/44 42/42/42 52/52/52
f 42/42/42 43/43/43 52/52/52
f 35/35/35 37/37/37 58/58/58
f 35/35/35 58/58/58 56/56/56
f 33/33/33 35/35/35 56/56/56
f 33/33/33 56/56/56 54/54/54
f 31/31/31 33/33/33 54/54/54
f 31/31/31 54/54/54 51/51/51
f 23/23/23 31/31/31 51/51/51
f 23/23/23 51/51/51 49/49/49
f 15/15/15 23/23/23 49/49/49
f 15/15/15 49/49/49 47/47/47
f 7/7/7 15/15/15 47/47/47
f 7/7/7 47/47/47 45/45/45
f 2/2/2 7/7/7 45/45/45
f 2/2/2 45/45/45 43/43/43
f 1/1/1 2/2/2 43/43/43
f 1/1/1 43/43/43 42/42/42
f 3/3/3 1/1/1 42/42/42
f 3/3/3 42/42/42 44/44/44
f 9/9/9 3/3/3 44/44/44
f 9/9/9 44/44/44 46/46/46
f 16/16/16 9/9/9 46/46/46
f 16/16/16 46/46/46 48/48/48
f 25/25/25 16/16/16 48/48/48
f 25/25/25 48/48/48 50/50/50
f 32/32/32 25/25/25 50/50/50
f 32/32/32 50/50/50 53/53/53
f 34/34/34 32/32/32 53/53/53
f 34/34/34 53/53/53 55/55/55
f 36/36/36 34/34/34 55/55/55
f 36/36/36 55/55/55 57/57/57
f 38/38/38 36/36/36 57/57/57
f 38/38/38 57/57/57 59/59/59
f 40/40/40 38/38/38 59/59/59
f 40/40/40 59/59/59 61/61/61
f 41/41/41 40/40/40 61/61/61
f 41/41/41 61/61/61 62/62/62
f 39/39/39 41/41/41 62/62/62
f 39/39/39 62/62/62 60/60/60
f 37/37/37 39/39/39 60/60/60
f 37/37/37 60/60/60 58/58/58

