mtllib material.mtl
usemtl lambert4SG
v -0.51135500 -4.47785200 0.19318700
v -0.51135500 -3.48432200 0.19318700
v -0.51135500 -3.33559200 0.19318700
v -0.51135500 -2.32182600 0.19318700
v -0.51135500 -2.17042900 0.19318700
v -0.51135500 -1.17823200 0.19318700
v -0.51135600 1.66417300 0.19318700
v -0.51135600 2.65770200 0.19318700
v -0.51135600 2.80643300 0.19318700
v -0.51135600 3.82019900 0.19318700
v -0.51135600 3.91120300 0.19318700
v -0.51135600 3.97159600 0.19318700
v -0.51135600 3.97159600 0.19318700
v -0.51135600 4.40920400 0.19318700
v -0.51135600 4.40920400 0.19318700
v -0.51135600 4.96379300 0.19318800
v -0.51135600 4.96379300 0.19318800
v -0.51135600 5.04032900 0.19318800
v -0.51262400 -4.47785200 0.12512000
v -0.51262400 -3.48432200 0.12512000
v -0.51262400 -3.33559200 0.12512000
v -0.51262400 -2.32182600 0.12512000
v -0.51262400 -2.17042900 0.12512000
v -0.51262400 -1.17823200 0.12512000
v -0.51262500 1.66417300 0.12512000
v -0.51262500 2.65770100 0.12512000
v -0.51262500 2.80643300 0.12512000
v -0.51262500 3.82019900 0.12512000
v -0.51262500 3.97159600 0.12512000
v -0.51262500 4.96379300 0.12512000
v -1.86747700 1.58763600 0.21844800
v -1.86747700 1.66417300 0.21844700
v -1.86747700 1.66417300 0.21844700
v -1.86747700 2.65770200 0.21844700
v -1.86747700 2.65770200 0.21844700
v -1.86747700 2.71703100 0.21844800
v -1.86747700 2.80643300 0.21844800
v -1.86747700 3.82019900 0.21844800
v -1.86747700 3.97159600 0.21844800
v -1.86747700 4.96379300 0.21844800
v -1.86747800 -4.47785200 0.21844700
v -1.86747800 -3.48432200 0.21844700
v -1.86747800 -3.33559200 0.21844700
v -1.86747800 -2.32182600 0.21844700
v -1.86747800 -2.17042900 0.21844700
v -1.86747800 -1.17823200 0.21844700
v -1.86874700 -4.47785200 0.15038000
v -1.86874700 -3.48432200 0.15038000
v -1.86874700 -3.33559200 0.15038000
v -1.86874700 -2.32182600 0.15038000
v -1.86874700 -2.17042900 0.15038000
v -1.86874700 -1.17823200 0.15038000
v -1.86874700 1.66417300 0.15038000
v -1.86874700 2.65770100 0.15038000
v -1.86874700 2.74710400 0.15038000
v -1.86874700 2.80643300 0.15038000
v -1.86874700 2.80643300 0.15038000
v -1.86874700 3.30881300 0.15038100
v -1.86874700 3.30881300 0.15038100
v -1.86874700 3.82019900 0.15038100
v -1.86874700 3.82019900 0.15038100
v -1.86874700 3.88059100 0.15038100
v -1.86874700 3.97159600 0.15038100
v -1.86874700 4.96379300 0.15038100
vn 0.01860000 -0.00000000 0.99980000
vn 0.01860000 -0.00000000 0.99980000
vn 0.01860000 -0.00000000 0.99980000
vn 0.01860000 -0.00000000 0.99980000
vn 0.01860000 -0.00000000 0.99980000
vn 0.01860000 -0.00000000 0.99980000
vn 0.01860000 -0.00000000 0.99980000
vn 0.01860000 -0.00000000 0.99980000
vn 0.01860000 -0.00000000 0.99980000
vn 0.01860000 -0.00000000 0.99980000
vn -0.00000000 1.00000000 -0.00000000
vn 0.06190000 -0.00000000 -0.99810000
vn 0.01860000 -0.00000000 0.99980000
vn -0.00010000 1.00000000 -0.00000000
vn -0.00000000 1.00000000 -0.00000000
vn 0.99980000 -0.00000000 -0.01850000
vn 0.01860000 -0.00000000 0.99980000
vn -0.00000000 1.00000000 0.00010000
vn -0.01860000 -0.00000000 -0.99980000
vn -0.01860000 -0.00000000 -0.99980000
vn -0.01860000 -0.00000000 -0.99980000
vn -0.01860000 -0.00000000 -0.99980000
vn -0.01860000 -0.00000000 -0.99980000
vn -0.01860000 -0.00000000 -0.99980000
vn -0.01860000 -0.00000000 -0.99980000
vn -0.01860000 -0.00000000 -0.99980000
vn -0.01860000 -0.00000000 -0.99980000
vn -0.01860000 -0.00000000 -0.99980000
vn -0.01860000 -0.00000000 -0.99980000
vn -0.01860000 -0.00000000 -0.99980000
vn -0.00000000 1.00000000 -0.00000000
vn 0.72060000 -0.00000000 0.69340000
vn 0.01860000 -0.00000000 0.99980000
vn 0.99980000 -0.00000000 -0.01850000
vn 0.01860000 -0.00000000 0.99980000
vn -0.00000000 1.00000000 -0.00000000
vn 0.01860000 -0.00000000 0.99980000
vn 0.01860000 -0.00000000 0.99980000
vn 0.01860000 -0.00000000 0.99980000
vn 0.01860000 -0.00000000 0.99980000
vn 0.01860000 -0.00000000 0.99980000
vn 0.01860000 -0.00000000 0.99980000
vn 0.01860000 -0.00000000 0.99980000
vn 0.01860000 -0.00000000 0.99980000
vn 0.01860000 -0.00000000 0.99980000
vn 0.01860000 -0.00000000 0.99980000
vn -0.01860000 -0.00000000 -0.99980000
vn -0.01860000 -0.00000000 -0.99980000
vn -0.01860000 -0.00000000 -0.99980000
vn -0.01860000 -0.00000000 -0.99980000
vn -0.01860000 -0.00000000 -0.99980000
vn -0.01860000 -0.00000000 -0.99980000
vn -0.01860000 -0.00000000 -0.99980000
vn -0.01860000 -0.00000000 -0.99980000
vn -0.00000000 1.00000000 -0.00000000
vn 0.05800000 -0.00000000 0.99830000
vn -0.01860000 -0.00000000 -0.99980000
vn -0.00000000 1.00000000 -0.00000000
vn -0.00010000 1.00000000 -0.00000000
vn 0.99980000 -0.00000000 -0.01850000
vn -0.01860000 -0.00000000 -0.99980000
vn -0.00000000 1.00000000 0.00010000
vn -0.01860000 -0.00000000 -0.99980000
vn -0.01860000 -0.00000000 -0.99980000
vt -2.25414400 0.90746900
vt -1.69558300 0.90746900
vt -1.61196700 0.90746900
vt -1.04202900 0.90746900
vt -0.95691400 0.90746900
vt -0.39910200 0.90746900
vt 1.19889400 0.90746900
vt 1.75745500 0.90746900
vt 1.84107200 0.90746900
vt 2.41100900 0.90746900
vt 0.62500000 0.41666700
vt 0.62500000 0.41666700
vt 2.49612400 0.90746900
vt 0.62500000 0.45342100
vt 0.62500000 0.45342100
vt 0.62500000 0.50000000
vt 3.05393600 0.90746900
vt 0.62500000 0.50000000
vt -2.25414400 0.90702000
vt -1.69558300 0.90702000
vt -1.61196700 0.90702000
vt -1.04202900 0.90702000
vt -0.95691400 0.90702000
vt -0.39910200 0.90702000
vt 1.19889400 0.90702000
vt 1.75745500 0.90702000
vt 1.84107200 0.90701900
vt 2.41100900 0.90702000
vt 2.49612400 0.90702000
vt 3.05393600 0.90702000
vt 0.37500000 0.25000000
vt 0.37500000 0.25000000
vt 1.19889400 0.13032700
vt 0.37500000 0.33333300
vt 1.75745500 0.13032700
vt 0.37500000 0.33333300
vt 1.84107200 0.13032700
vt 2.41100900 0.13032700
vt 2.49612400 0.13032700
vt 3.05393600 0.13032700
vt -2.25414400 0.13032600
vt -1.69558300 0.13032600
vt -1.61196700 0.13032600
vt -1.04202900 0.13032600
vt -0.95691400 0.13032600
vt -0.39910200 0.13032600
vt -2.25414400 0.12987800
vt -1.69558300 0.12987800
vt -1.61196700 0.12987800
vt -1.04202900 0.12987800
vt -0.95691400 0.12987800
vt -0.39910200 0.12987800
vt 1.19889400 0.12987800
vt 1.75745500 0.12987800
vt 0.37500000 0.91666700
vt 0.37500000 0.91666700
vt 1.84107200 0.12987800
vt 0.37500000 0.87537000
vt 0.37500000 0.87537000
vt 0.37500000 0.83333300
vt 2.41100900 0.12987800
vt 0.37500000 0.83333300
vt 2.49612400 0.12987800
vt 3.05393600 0.12987800
f 41/41/41 1/1/1 2/2/2
f 41/41/41 2/2/2 42/42/42
f 43/43/43 3/3/3 4/4/4
f 43/43/43 4/4/4 44/44/44
f 45/45/45 5/5/5 6/6/6
f 45/45/45 6/6/6 46/46/46
f 52/52/52 24/24/24 23/23/23
f 52/52/52 23/23/23 51/51/51
f 50/50/50 22/22/22 21/21/21
f 50/50/50 21/21/21 49/49/49
f 48/48/48 20/20/20 19/19/19
f 48/48/48 19/19/19 47/47/47
f 33/33/33 7/7/7 8/8/8
f 33/33/33 8/8/8 35/35/35
f 37/37/37 9/9/9 10/10/10
f 37/37/37 10/10/10 38/38/38
f 39/39/39 13/13/13 17/17/17
f 39/39/39 17/17/17 40/40/40
f 64/64/64 30/30/30 29/29/29
f 64/64/64 29/29/29 63/63/63
f 61/61/61 28/28/28 27/27/27
f 61/61/61 27/27/27 57/57/57
f 54/54/54 26/26/26 25/25/25
f 54/54/54 25/25/25 53/53/53
f 36/36/36 31/31/31 32/32/32
f 36/36/36 32/32/32 34/34/34
f 18/18/18 16/16/16 15/15/15
f 14/14/14 11/11/11 12/12/12
f 62/62/62 60/60/60 58/58/58
f 59/59/59 55/55/55 56/56/56

