mtllib material.mtl
usemtl blinn7SG
v 5.38154600 -0.57658800 0.11235900
v 5.38075400 -0.56822600 0.08062500
v 5.38132300 -0.58972200 0.14244300
v 5.37896300 -0.56484200 0.04802100
v 5.38008800 -0.60730600 0.17013600
v 5.37622100 -0.56652200 0.01535200
v 5.37787200 -0.62890500 0.19475600
v 5.37259300 -0.57322000 -0.01657900
v 5.37473300 -0.65399000 0.21569700
v 5.36816900 -0.58477500 -0.04698500
v 5.37074300 -0.68194100 0.23244300
v 5.36305800 -0.60090100 -0.07511700
v 5.36600300 -0.71207000 0.24458300
v 5.35738700 -0.62120100 -0.10028400
v 5.36063000 -0.74363700 0.25181500
v 5.35129400 -0.64517500 -0.12186500
v 5.35475400 -0.77586200 0.25396400
v 5.34492800 -0.67223300 -0.13932900
v 5.34852400 -0.80795300 0.25097700
v 5.33845000 -0.70170700 -0.15224500
v 5.34209000 -0.83912000 0.24292500
v 5.33201600 -0.73287400 -0.16029700
v 5.33560900 -0.86859500 0.23000900
v 5.32578300 -0.76496600 -0.16328500
v 5.32924400 -0.89565300 0.21254400
v 5.31990900 -0.79719200 -0.16113600
v 5.32315100 -0.91962600 0.19096300
v 5.31453600 -0.82875700 -0.15390300
v 5.31747900 -0.93992700 0.16579700
v 5.30979600 -0.85888700 -0.14176400
v 5.31236900 -0.95605300 0.13766400
v 5.30580600 -0.88683800 -0.12501700
v 5.30794400 -0.96760700 0.10725900
v 5.30266500 -0.91192200 -0.10407700
v 5.30431700 -0.97430500 0.07532700
v 5.30045000 -0.93352100 -0.07945700
v 5.30157600 -0.97598500 0.04265800
v 5.29921600 -0.95110500 -0.05176300
v 5.29978500 -0.97260200 0.01005500
v 5.29899300 -0.96424000 -0.02167900
v 5.22788500 -0.74850500 0.05399400
v 5.22788300 -0.74846900 0.05385700
v 5.22788500 -0.74856100 0.05412200
v 5.22787500 -0.74845400 0.05371800
v 5.22788000 -0.74863600 0.05424100
v 5.22786400 -0.74846200 0.05357700
v 5.22787000 -0.74873000 0.05434600
v 5.22784700 -0.74849100 0.05344000
v 5.22785700 -0.74883800 0.05443600
v 5.22782900 -0.74854000 0.05331000
v 5.22784000 -0.74895700 0.05450800
v 5.22780700 -0.74861000 0.05318900
v 5.22783200 -0.74905800 0.05465900
v 5.22779100 -0.74862200 0.05300800
v 5.22779700 -0.74922200 0.05459100
v 5.22776100 -0.74873700 0.05290500
v 5.22777200 -0.74936000 0.05460000
v 5.22773000 -0.74886600 0.05282200
v 5.22774400 -0.74949600 0.05458700
v 5.22770000 -0.74900700 0.05276000
v 5.22771800 -0.74966400 0.05465100
v 5.22767400 -0.74917500 0.05282500
v 5.22768900 -0.74975700 0.05449600
v 5.22764700 -0.74931200 0.05281100
v 5.22766200 -0.74987200 0.05442200
v 5.22762200 -0.74945200 0.05282100
v 5.22763500 -0.74997600 0.05432900
v 5.22759800 -0.74958600 0.05285100
v 5.22761100 -0.75006300 0.05422200
v 5.22757900 -0.74971600 0.05290300
v 5.22759000 -0.75013200 0.05410200
v 5.22756100 -0.74983500 0.05297600
v 5.22757100 -0.75018100 0.05397200
v 5.22754700 -0.74994300 0.05306500
v 5.22755500 -0.75021000 0.05383500
v 5.22753800 -0.75003500 0.05317100
v 5.22754300 -0.75021700 0.05369400
v 5.22753300 -0.75011100 0.05328900
v 5.22753500 -0.75020200 0.05355400
v 5.22753300 -0.75016700 0.05341800
vn 0.90490000 -0.39940000 -0.14720000
vn 0.90580000 -0.40890000 -0.11100000
vn 0.90520000 -0.38440000 -0.18150000
vn 0.90780000 -0.41280000 -0.07380000
vn 0.90650000 -0.36440000 -0.21310000
vn 0.91090000 -0.41090000 -0.03650000
vn 0.90910000 -0.33970000 -0.24120000
vn 0.91510000 -0.40330000 -0.00010000
vn 0.91260000 -0.31110000 -0.26510000
vn 0.92010000 -0.39010000 0.03450000
vn 0.91720000 -0.27930000 -0.28420000
vn 0.92590000 -0.37170000 0.06670000
vn 0.92260000 -0.24480000 -0.29810000
vn 0.93240000 -0.34860000 0.09540000
vn 0.92870000 -0.20880000 -0.30630000
vn 0.93930000 -0.32130000 0.12020000
vn 0.93540000 -0.17200000 -0.30880000
vn 0.94660000 -0.29030000 0.14000000
vn 0.94250000 -0.13540000 -0.30540000
vn 0.95400000 -0.25660000 0.15470000
vn 0.94990000 -0.09990000 -0.29620000
vn 0.96140000 -0.22100000 0.16400000
vn 0.95730000 -0.06630000 -0.28150000
vn 0.96850000 -0.18450000 0.16730000
vn 0.96460000 -0.03530000 -0.26150000
vn 0.97520000 -0.14770000 0.16480000
vn 0.97150000 -0.00800000 -0.23690000
vn 0.98130000 -0.11170000 0.15650000
vn 0.97800000 0.01510000 -0.20820000
vn 0.98670000 -0.07730000 0.14270000
vn 0.98380000 0.03350000 -0.17610000
vn 0.99130000 -0.04540000 0.12360000
vn 0.98880000 0.04670000 -0.14140000
vn 0.99490000 -0.01680000 0.09970000
vn 0.99300000 0.05440000 -0.10490000
vn 0.99740000 0.00780000 0.07160000
vn 0.99610000 0.05620000 -0.06770000
vn 0.99880000 0.02790000 0.04000000
vn 0.99820000 0.05240000 -0.03050000
vn 0.99910000 0.04280000 0.00570000
vn 0.17230000 -0.92960000 -0.32590000
vn -0.44150000 -0.88570000 -0.14350000
vn 0.17290000 -0.87110000 -0.45960000
vn -0.43670000 -0.89950000 0.01230000
vn 0.16990000 -0.79480000 -0.58270000
vn -0.41830000 -0.89350000 0.16300000
vn 0.17970000 -0.69320000 -0.69800000
vn 0.20510000 -0.94790000 0.24380000
vn 0.19740000 -0.58510000 -0.78660000
vn 0.21920000 -0.89640000 0.38520000
vn 0.30340000 -0.65510000 -0.69200000
vn 0.31160000 -0.90630000 0.28550000
vn -0.00780000 -0.04460000 -0.99900000
vn -0.57690000 -0.74400000 -0.33690000
vn -0.27860000 0.15360000 -0.94800000
vn -0.52430000 -0.45130000 0.72210000
vn -0.32310000 0.06020000 -0.94440000
vn -0.50860000 -0.36800000 0.77840000
vn -0.32610000 -0.04260000 -0.94440000
vn -0.20220000 0.76450000 0.61210000
vn -0.68960000 -0.39370000 -0.60780000
vn -0.12920000 0.12290000 0.98400000
vn -0.38440000 0.57510000 -0.72210000
vn -0.19610000 0.01650000 0.98040000
vn -0.42700000 0.60460000 -0.67240000
vn -0.16410000 0.16740000 0.97210000
vn -0.12190000 0.99250000 0.00050000
vn 0.60720000 0.17730000 0.77450000
vn 0.45960000 0.68830000 -0.56120000
vn 0.71120000 0.23360000 0.66300000
vn 0.46930000 0.76510000 -0.44090000
vn 0.50460000 0.44730000 0.73850000
vn 0.49220000 0.81760000 -0.29860000
vn 0.51790000 0.56090000 0.64590000
vn -0.08620000 0.98880000 -0.12160000
vn 0.52630000 0.66430000 0.53070000
vn -0.08230000 0.99600000 0.03460000
vn 0.53170000 0.74190000 0.40860000
vn -0.07520000 0.97970000 0.18560000
vn 0.53100000 0.80310000 0.27020000
vt 0.00000000 0.00000000
vt 0.00000000 0.00000000
vt 0.00000000 0.00000000
vt 0.00000000 0.00000000
vt 0.00000000 0.00000000
vt 0.00000000 0.00000000
vt 0.00000000 0.00000000
vt 0.00000000 0.00000000
vt 0.00000000 0.00000000
vt 0.00000000 0.00000000
vt 0.00000000 0.00000000
vt 0.00000000 0.00000000
vt 0.00000000 0.00000000
vt 0.00000000 0.00000000
vt 0.00000000 0.00000000
vt 0.00000000 0.00000000
vt 0.00000000 0.00000000
vt 0.00000000 0.00000000
vt 0.00000000 0.00000000
vt 0.00000000 0.00000000
vt 0.00000000 0.00000000
vt 0.00000000 0.00000000
vt 0.00000000 0.00000000
vt 0.00000000 0.00000000
vt 0.00000000 0.00000000
vt 0.00000000 0.00000000
vt 0.00000000 0.00000000
vt 0.00000000 0.00000000
vt 0.00000000 0.00000000
vt 0.00000000 0.00000000
vt 0.00000000 0.00000000
vt 0.00000000 0.00000000
vt 0.00000000 0.00000000
vt 0.00000000 0.00000000
vt 0.00000000 0.00000000
vt 0.00000000 0.00000000
vt 0.00000000 0.00000000
vt 0.00000000 0.00000000
vt 0.00000000 0.00000000
vt 0.00000000 0.00000000
vt 0.00000000 0.00000000
vt 0.00000000 0.00000000
vt 0.00000000 0.00000000
vt 0.00000000 0.00000000
vt 0.00000000 0.00000000
vt 0.00000000 0.00000000
vt 0.00000000 0.00000000
vt 0.00000000 0.00000000
vt 0.00000000 0.00000000
vt 0.00000000 0.00000000
vt 0.00000000 0.00000000
vt 0.00000000 0.00000000
vt 0.00000000 0.00000000
vt 0.00000000 0.00000000
vt 0.00000000 0.00000000
vt 0.00000000 0.00000000
vt 0.00000000 0.00000000
vt 0.00000000 0.00000000
vt 0.00000000 0.00000000
vt 0.00000000 0.00000000
vt 0.00000000 0.00000000
vt 0.00000000 0.00000000
vt 0.00000000 0.00000000
vt 0.00000000 0.00000000
vt 0.00000000 0.00000000
vt 0.00000000 0.00000000
vt 0.00000000 0.00000000
vt 0.00000000 0.00000000
vt 0.00000000 0.00000000
vt 0.00000000 0.00000000
vt 0.00000000 0.00000000
vt 0.00000000 0.00000000
vt 0.00000000 0.00000000
vt 0.00000000 0.00000000
vt 0.00000000 0.00000000
vt 0.00000000 0.00000000
vt 0.00000000 0.00000000
vt 0.00000000 0.00000000
vt 0.00000000 0.00000000
vt 0.00000000 0.00000000
f 51/51/51 49/49/49 9/9/9
f 51/51/51 9/9/9 11/11/11
f 53/53/53 51/51/51 11/11/11
f 53/53/53 11/11/11 13/13/13
f 55/55/55 53/53/53 13/13/13
f 55/55/55 13/13/13 15/15/15
f 57/57/57 55/55/55 15/15/15
f 57/57/57 15/15/15 17/17/17
f 59/59/59 57/57/57 17/17/17
f 59/59/59 17/17/17 19/19/19
f 61/61/61 59/59/59 19/19/19
f 61/61/61 19/19/19 21/21/21
f 63/63/63 61/61/61 21/21/21
f 63/63/63 21/21/21 23/23/23
f 65/65/65 63/63/63 23/23/23
f 65/65/65 23/23/23 25/25/25
f 67/67/67 65/65/65 25/25/25
f 67/67/67 25/25/25 27/27/27
f 69/69/69 67/67/67 27/27/27
f 69/69/69 27/27/27 29/29/29
f 71/71/71 69/69/69 29/29/29
f 71/71/71 29/29/29 31/31/31
f 73/73/73 71/71/71 31/31/31
f 73/73/73 31/31/31 33/33/33
f 75/75/75 73/73/73 33/33/33
f 75/75/75 33/33/33 35/35/35
f 77/77/77 75/75/75 35/35/35
f 77/77/77 35/35/35 37/37/37
f 79/79/79 77/77/77 37/37/37
f 79/79/79 37/37/37 39/39/39
f 80/80/80 79/79/79 39/39/39
f 80/80/80 39/39/39 40/40/40
f 78/78/78 80/80/80 40/40/40
f 78/78/78 40/40/40 38/38/38
f 76/76/76 78/78/78 38/38/38
f 76/76/76 38/38/38 36/36/36
f 74/74/74 76/76/76 36/36/36
f 74/74/74 36/36/36 34/34/34
f 72/72/72 74/74/74 34/34/34
f 72/72/72 34/34/34 32/32/32
f 70/70/70 72/72/72 32/32/32
f 70/70/70 32/32/32 30/30/30
f 68/68/68 70/70/70 30/30/30
f 68/68/68 30/30/30 28/28/28
f 66/66/66 68/68/68 28/28/28
f 66/66/66 28/28/28 26/26/26
f 64/64/64 66/66/66 26/26/26
f 64/64/64 26/26/26 24/24/24
f 62/62/62 64/64/64 24/24/24
f 62/62/62 24/24/24 22/22/22
f 60/60/60 62/62/62 22/22/22
f 60/60/60 22/22/22 20/20/20
f 58/58/58 60/60/60 20/20/20
f 58/58/58 20/20/20 18/18/18
f 56/56/56 58/58/58 18/18/18
f 56/56/56 18/18/18 16/16/16
f 54/54/54 56/56/56 16/16/16
f 54/54/54 16/16/16 14/14/14
f 52/52/52 54/54/54 14/14/14
f 52/52/52 14/14/14 12/12/12
f 50/50/50 52/52/52 12/12/12
f 50/50/50 12/12/12 10/10/10
f 48/48/48 50/50/50 10/10/10
f 48/48/48 10/10/10 8/8/8
f 46/46/46 48/48/48 8/8/8
f 46/46/46 8/8/8 6/6/6
f 44/44/44 46/46/46 6/6/6
f 44/44/44 6/6/6 4/4/4
f 42/42/42 44/44/44 4/4/4
f 42/42/42 4/4/4 2/2/2
f 41/41/41 42/42/42 2/2/2
f 41/41/41 2/2/2 1/1/1
f 43/43/43 41/41/41 1/1/1
f 43/43/43 1/1/1 3/3/3
f 45/45/45 43/43/43 3/3/3
f 45/45/45 3/3/3 5/5/5
f 47/47/47 45/45/45 5/5/5
f 47/47/47 5/5/5 7/7/7
f 49/49/49 47/47/47 7/7/7
f 49/49/49 7/7/7 9/9/9

