mtllib material.mtl
usemtl lambert5SG
v 1.83994300 -0.28179400 -0.79071400
v 1.83827500 -0.07891800 -0.88102500
v 1.83742200 0.13830500 -0.92718900
v 1.83742200 0.36038000 -0.92718900
v 1.83827500 0.57760300 -0.88102500
v 1.83994300 0.78047900 -0.79071400
v 1.68541600 -0.29336000 -0.80789500
v 1.68371100 -0.08606600 -0.90017300
v 1.68284000 0.13588700 -0.94734300
v 1.68284000 0.36279900 -0.94734300
v 1.68371100 0.58475200 -0.90017300
v 1.68541600 0.79204600 -0.80789500
v 1.53098200 -0.30203400 -0.82006900
v 1.52925000 -0.09142700 -0.91382100
v 1.52836500 0.13407300 -0.96174500
v 1.52836500 0.36461200 -0.96174500
v 1.52925000 0.59011300 -0.91382100
v 1.53098200 0.80072000 -0.82006900
v 1.37668800 -0.30637200 -0.82473200
v 1.37494300 -0.09410800 -0.91922200
v 1.37405000 0.13316600 -0.96752200
v 1.37405000 0.36551900 -0.96752200
v 1.37494300 0.59279300 -0.91922200
v 1.37668800 0.80505700 -0.82473200
v 1.22229900 -0.31360100 -0.83440200
v 1.22053000 -0.09857600 -0.93012200
v 1.21962600 0.13165600 -0.97905100
v 1.21962600 0.36703000 -0.97905100
v 1.22053000 0.59726100 -0.93012200
v 1.22229900 0.81228600 -0.83440200
v 1.06781900 -0.32372100 -0.84908000
v 1.06601800 -0.10483100 -0.94652000
v 1.06509800 0.12953900 -0.99632900
v 1.06509800 0.36914500 -0.99632900
v 1.06601800 0.60351600 -0.94651900
v 1.06781900 0.82240700 -0.84908000
v 0.91333800 -0.33384200 -0.86375700
v 0.91150500 -0.11108500 -0.96291900
v 0.91056900 0.12742400 -1.01360700
v 0.91056900 0.37126200 -1.01360700
v 0.91150500 0.60977100 -0.96291900
v 0.91333800 0.83252700 -0.86375700
v 0.75890400 -0.34251700 -0.87593100
v 0.75704400 -0.11644600 -0.97656700
v 0.75609400 0.12561000 -1.02801000
v 0.75609400 0.37307400 -1.02801000
v 0.79959100 0.37307500 1.32605800
v 0.79864000 0.61513200 1.27461500
v 0.75704400 0.61513200 -0.97656700
v 0.75890400 0.84120200 -0.87593100
v 0.64290100 -0.35119200 1.19185000
v 0.60446900 -0.35119200 -0.88810600
v 0.64478800 -0.12180700 1.29396100
v 0.60258200 -0.12180700 -0.99021600
v 0.64575200 0.12379700 1.34615700
v 0.64575200 0.12379700 1.34615700
v 0.60161800 0.12379700 -1.04241200
v 0.60161800 0.37488800 -1.04241200
v 0.64575200 0.37488900 1.34615700
v 0.60258200 0.62049300 -0.99021600
v 0.64478800 0.62049400 1.29396100
v 0.60446900 0.84987600 -0.88810600
v 0.64290100 0.84987700 1.19185000
v 0.47924200 -0.47437500 0.68044300
v 0.45981500 -0.47437500 -0.37100100
v 0.48181000 -0.34923700 0.81939800
v 0.45724700 -0.34923700 -0.50995600
v 0.48384000 -0.19793900 0.92930400
v 0.45521600 -0.19793900 -0.61986200
v 0.48524600 -0.02709300 1.00535700
v 0.45381100 -0.02709300 -0.69591500
v 0.48596400 0.15583500 1.04423200
v 0.48596400 0.15583500 1.04423200
v 0.45309300 0.15583500 -0.73479100
v 0.45309300 0.34285000 -0.73479100
v 0.48596400 0.34285100 1.04423200
v 0.45381100 0.52577800 -0.69591500
v 0.48524600 0.52577900 1.00535700
v 0.48384000 0.69662500 0.92930400
v 0.45521600 0.69662500 -0.61986200
v 0.45724700 0.84792200 -0.50995600
v 0.48181000 0.84792300 0.81939800
v 0.45981500 0.97306000 -0.37100100
v 0.47924200 0.97306100 0.68044300
v 0.46280600 1.06656600 -0.20907000
v 0.47625000 1.06656700 0.51851000
v 0.47296400 1.12435800 0.34067900
v 0.46609200 1.12435800 -0.03123800
v 0.31537200 -0.07847800 0.15756900
v 0.31663100 -0.07131400 0.22571500
v 0.31411300 -0.07131400 0.08942300
v 0.31783500 -0.05013600 0.29088300
v 0.31290900 -0.05013600 0.02425500
v 0.31893200 -0.01586900 0.35022400
v 0.31181200 -0.01586900 -0.03508500
v 0.31987300 0.02998800 0.40114500
v 0.31087200 0.02998800 -0.08600800
v 0.32061700 0.08543300 0.44142000
v 0.31012700 0.08543300 -0.12628300
v 0.32113200 0.14804100 0.46929000
v 0.30961200 0.14804100 -0.15415200
v 0.32139500 0.21507600 0.48353700
v 0.32139500 0.21507600 0.48353700
v 0.30934900 0.21507600 -0.16839900
v 0.31537200 0.24934300 0.15756900
v 0.31537200 0.24934300 0.15756900
v 0.32139500 0.28360900 0.48353700
v 0.30934900 0.28360900 -0.16839900
v 0.32113200 0.35064500 0.46929000
v 0.30961200 0.35064500 -0.15415200
v 0.32061700 0.41325300 0.44142000
v 0.31012700 0.41325300 -0.12628300
v 0.31987300 0.46869700 0.40114500
v 0.31087200 0.46869700 -0.08600800
v 0.31893200 0.51455500 0.35022400
v 0.31181200 0.51455500 -0.03508500
v 0.31290900 0.54882000 0.02425500
v 0.31783500 0.54882100 0.29088200
v 0.31411300 0.56999900 0.08942300
v 0.31663100 0.57000000 0.22571500
v 0.31537200 0.57716300 0.15756900
vn 0.13090000 -0.40230000 -0.90610000
vn 0.13100000 -0.30560000 -0.94310000
vn 0.13020000 -0.10340000 -0.98610000
vn 0.13020000 0.10340000 -0.98610000
vn 0.13100000 0.30560000 -0.94310000
vn 0.13090000 0.40230000 -0.90610000
vn 0.11250000 -0.40330000 -0.90810000
vn 0.11250000 -0.30640000 -0.94520000
vn 0.11170000 -0.10360000 -0.98830000
vn 0.11170000 0.10360000 -0.98830000
vn 0.11250000 0.30640000 -0.94520000
vn 0.11250000 0.40330000 -0.90810000
vn 0.06660000 -0.40530000 -0.91170000
vn 0.06640000 -0.30790000 -0.94910000
vn 0.06560000 -0.10420000 -0.99240000
vn 0.06560000 0.10420000 -0.99240000
vn 0.06640000 0.30790000 -0.94910000
vn 0.06660000 0.40530000 -0.91170000
vn 0.05760000 -0.40560000 -0.91220000
vn 0.05730000 -0.30820000 -0.94960000
vn 0.05650000 -0.10420000 -0.99290000
vn 0.05650000 0.10420000 -0.99290000
vn 0.05730000 0.30810000 -0.94960000
vn 0.05760000 0.40560000 -0.91220000
vn 0.09450000 -0.40420000 -0.90980000
vn 0.09440000 -0.30710000 -0.94700000
vn 0.09360000 -0.10390000 -0.99020000
vn 0.09360000 0.10390000 -0.99020000
vn 0.09440000 0.30710000 -0.94700000
vn 0.09450000 0.40420000 -0.90980000
vn 0.11270000 -0.40330000 -0.90810000
vn 0.11270000 -0.30640000 -0.94520000
vn 0.11190000 -0.10360000 -0.98830000
vn 0.11190000 0.10360000 -0.98830000
vn 0.11270000 0.30640000 -0.94520000
vn 0.11270000 0.40330000 -0.90810000
vn 0.11270000 -0.40330000 -0.90810000
vn 0.11270000 -0.30640000 -0.94520000
vn 0.11190000 -0.10360000 -0.98830000
vn 0.11190000 0.10360000 -0.98830000
vn 0.11270000 0.30640000 -0.94520000
vn 0.11270000 0.40330000 -0.90810000
vn 0.09440000 -0.40420000 -0.90980000
vn 0.09430000 -0.30710000 -0.94700000
vn 0.09350000 -0.10390000 -0.99020000
vn 0.09350000 0.10390000 -0.99020000
vn 0.12920000 0.20660000 0.96990000
vn 0.12920000 0.20660000 0.96990000
vn 0.09430000 0.30710000 -0.94700000
vn 0.09440000 0.40420000 -0.90980000
vn -0.88460000 -0.18360000 0.42870000
vn -0.47390000 -0.36140000 -0.80300000
vn -0.88530000 -0.13890000 0.44380000
vn -0.47650000 -0.27420000 -0.83530000
vn -0.88400000 -0.09380000 0.45790000
vn -0.88390000 -0.00000000 0.46780000
vn -0.47720000 -0.09280000 -0.87390000
vn -0.47720000 0.09280000 -0.87390000
vn -0.63710000 0.12180000 0.76110000
vn -0.47650000 0.27420000 -0.83530000
vn -0.63740000 0.19350000 0.74590000
vn -0.47390000 0.36140000 -0.80300000
vn -0.88460000 0.18360000 0.42870000
vn -0.96110000 -0.19610000 0.19430000
vn -0.96770000 -0.19610000 -0.15870000
vn -0.96120000 -0.17570000 0.21290000
vn -0.96840000 -0.17570000 -0.17720000
vn -0.93770000 -0.15090000 0.31300000
vn -0.94860000 -0.15090000 -0.27820000
vn -0.92500000 -0.11230000 0.36290000
vn -0.93780000 -0.11230000 -0.32850000
vn -0.92410000 -0.07590000 0.37440000
vn -0.92400000 -0.00000000 0.38240000
vn -0.93810000 -0.03800000 -0.34430000
vn -0.93810000 0.03800000 -0.34430000
vn -0.92470000 0.03800000 0.37870000
vn -0.93780000 0.11230000 -0.32850000
vn -0.92500000 0.11230000 0.36290000
vn -0.93770000 0.15090000 0.31310000
vn -0.94860000 0.15090000 -0.27820000
vn -0.96840000 0.17570000 -0.17720000
vn -0.96120000 0.17570000 0.21290000
vn -0.96760000 0.21240000 -0.13640000
vn -0.96190000 0.21240000 0.17210000
vn -0.96670000 0.23980000 -0.08890000
vn -0.96280000 0.23980000 0.12460000
vn -0.96290000 0.25090000 0.09930000
vn -0.96590000 0.25090000 -0.06370000
vn -0.99980000 -0.00000000 0.01850000
vn -0.99980000 -0.00000000 0.01850000
vn -0.99980000 -0.00000000 0.01850000
vn -0.99980000 -0.00000000 0.01850000
vn -0.99980000 -0.00000000 0.01850000
vn -0.99400000 -0.07180000 0.08300000
vn -0.99630000 -0.07180000 -0.04620000
vn -0.98790000 -0.09440000 0.12310000
vn -0.99180000 -0.09440000 -0.08650000
vn -0.98760000 -0.07050000 0.14040000
vn -0.99210000 -0.07050000 -0.10390000
vn -0.98740000 -0.04360000 0.15240000
vn -0.99230000 -0.04360000 -0.11580000
vn -0.98720000 -0.02950000 0.15700000
vn -0.98710000 -0.00000000 0.16010000
vn -0.99240000 -0.01470000 -0.12200000
vn -0.99980000 -0.00000000 0.01850000
vn -0.99980000 -0.00000000 0.01850000
vn -0.98720000 0.01470000 0.15860000
vn -0.99240000 0.01470000 -0.12200000
vn -0.98740000 0.04360000 0.15240000
vn -0.99230000 0.04360000 -0.11590000
vn -0.98760000 0.07050000 0.14040000
vn -0.99210000 0.07050000 -0.10390000
vn -0.98790000 0.09440000 0.12310000
vn -0.99180000 0.09440000 -0.08650000
vn -0.98830000 0.11410000 0.10120000
vn -0.99140000 0.11410000 -0.06460000
vn -0.99090000 0.12890000 -0.03910000
vn -0.98880000 0.12890000 0.07570000
vn -0.99570000 0.09190000 -0.01150000
vn -0.99460000 0.09190000 0.04820000
vn -0.99980000 -0.00000000 0.01850000
vt 0.09777300 0.84888800
vt 0.26463700 0.84888800
vt 0.43150200 0.84888800
vt 0.59836600 0.84888800
vt 0.76523100 0.84888800
vt 0.93209600 0.84888800
vt 0.09777300 0.70466700
vt 0.26463700 0.70466700
vt 0.43150200 0.70466700
vt 0.59836600 0.70466700
vt 0.76523100 0.70466700
vt 0.93209600 0.70466700
vt 0.09777300 0.56044500
vt 0.26463700 0.56044500
vt 0.43150200 0.56044500
vt 0.59836600 0.56044500
vt 0.76523100 0.56044500
vt 0.93209600 0.56044500
vt 0.09777300 0.41622600
vt 0.26463700 0.41622600
vt 0.43150200 0.41622600
vt 0.59836600 0.41622600
vt 0.76523100 0.41622600
vt 0.93209600 0.41622600
vt 0.09777300 0.27200300
vt 0.26463700 0.27200300
vt 0.43150200 0.27200300
vt 0.59836700 0.27200300
vt 0.76523100 0.27200300
vt 0.93209600 0.27200300
vt 0.09777300 0.12778100
vt 0.26463700 0.12778100
vt 0.43150200 0.12778100
vt 0.59836700 0.12778100
vt 0.76523100 0.12778100
vt 0.93209600 0.12778100
vt 0.09777300 -0.01644000
vt 0.26463700 -0.01644000
vt 0.43150200 -0.01644000
vt 0.59836700 -0.01644000
vt 0.76523100 -0.01644000
vt 0.93209600 -0.01644000
vt 0.09777300 -0.16066100
vt 0.26463700 -0.16066100
vt 0.43150200 -0.16066100
vt 0.59836600 -0.16066100
vt 2.93447100 -0.16066100
vt 2.76760600 -0.16066100
vt 0.76523100 -0.16066100
vt 0.93209600 -0.16066100
vt -1.57087400 -0.30488200
vt 0.09777300 -0.30488200
vt -1.73773800 -0.30488200
vt 0.26463700 -0.30488200
vt -1.90460300 -0.30488200
vt 3.10133600 -0.30488200
vt 0.43150200 -0.30488200
vt 0.59836700 -0.30488200
vt 2.93447100 -0.30488200
vt 0.76523100 -0.30488200
vt 2.76760600 -0.30488200
vt 0.93209600 -0.30488200
vt 2.60074100 -0.30488200
vt -1.23714400 -0.44910300
vt -0.23595600 -0.44910300
vt -1.40400900 -0.44910300
vt -0.06909200 -0.44910300
vt -1.57087400 -0.44910300
vt 0.09777300 -0.44910300
vt -1.73773800 -0.44910300
vt 0.26463700 -0.44910300
vt -1.90460300 -0.44910300
vt 3.10133600 -0.44910300
vt 0.43150200 -0.44910300
vt 0.59836600 -0.44910300
vt 2.93447100 -0.44910300
vt 0.76523100 -0.44910300
vt 2.76760600 -0.44910300
vt 2.60074200 -0.44910300
vt 0.93209600 -0.44910300
vt 1.09896000 -0.44910300
vt 2.43387700 -0.44910300
vt 1.26582500 -0.44910300
vt 2.26701200 -0.44910300
vt 1.43268900 -0.44910300
vt 2.10014700 -0.44910300
vt 1.93328300 -0.44910300
vt 1.59955400 -0.44910300
vt -0.73655000 -0.59332500
vt -0.90341500 -0.59332500
vt -0.56968600 -0.59332500
vt -1.07028000 -0.59332500
vt -0.40282100 -0.59332500
vt -1.23714300 -0.59332500
vt -0.23595700 -0.59332500
vt -1.40400900 -0.59332500
vt -0.06909100 -0.59332500
vt -1.57087300 -0.59332500
vt 0.09777200 -0.59332500
vt -1.73773800 -0.59332500
vt 0.26463700 -0.59332500
vt -1.90460300 -0.59332500
vt 3.10133600 -0.59332500
vt 0.43150200 -0.59332500
vt -0.73655000 -0.59332500
vt 4.26938800 -0.59332500
vt 2.93447100 -0.59332500
vt 0.59836600 -0.59332500
vt 2.76760600 -0.59332500
vt 0.76523100 -0.59332500
vt 2.60074100 -0.59332500
vt 0.93209600 -0.59332500
vt 2.43387700 -0.59332500
vt 1.09895900 -0.59332500
vt 2.26701100 -0.59332500
vt 1.26582500 -0.59332500
vt 1.43268900 -0.59332500
vt 2.10014700 -0.59332500
vt 1.59955400 -0.59332500
vt 1.93328300 -0.59332500
vt 1.76641900 -0.59332500
f 120/120/120 118/118/118 86/86/86
f 120/120/120 86/86/86 87/87/87
f 118/118/118 115/115/115 84/84/84
f 118/118/118 84/84/84 86/86/86
f 115/115/115 113/113/113 82/82/82
f 115/115/115 82/82/82 84/84/84
f 113/113/113 111/111/111 79/79/79
f 113/113/113 79/79/79 82/82/82
f 111/111/111 109/109/109 78/78/78
f 111/111/111 78/78/78 79/79/79
f 109/109/109 107/107/107 76/76/76
f 109/109/109 76/76/76 78/78/78
f 107/107/107 103/103/103 73/73/73
f 107/107/107 73/73/73 76/76/76
f 102/102/102 100/100/100 70/70/70
f 102/102/102 70/70/70 72/72/72
f 100/100/100 98/98/98 68/68/68
f 100/100/100 68/68/68 70/70/70
f 98/98/98 96/96/96 66/66/66
f 98/98/98 66/66/66 68/68/68
f 96/96/96 94/94/94 64/64/64
f 96/96/96 64/64/64 66/66/66
f 95/95/95 97/97/97 67/67/67
f 95/95/95 67/67/67 65/65/65
f 97/97/97 99/99/99 69/69/69
f 97/97/97 69/69/69 67/67/67
f 99/99/99 101/101/101 71/71/71
f 99/99/99 71/71/71 69/69/69
f 101/101/101 104/104/104 74/74/74
f 101/101/101 74/74/74 71/71/71
f 104/104/104 108/108/108 75/75/75
f 104/104/104 75/75/75 74/74/74
f 108/108/108 110/110/110 77/77/77
f 108/108/108 77/77/77 75/75/75
f 110/110/110 112/112/112 80/80/80
f 110/110/110 80/80/80 77/77/77
f 112/112/112 114/114/114 81/81/81
f 112/112/112 81/81/81 80/80/80
f 114/114/114 116/116/116 83/83/83
f 114/114/114 83/83/83 81/81/81
f 116/116/116 117/117/117 85/85/85
f 116/116/116 85/85/85 83/83/83
f 117/117/117 119/119/119 88/88/88
f 117/117/117 88/88/88 85/85/85
f 79/79/79 78/78/78 61/61/61
f 79/79/79 61/61/61 63/63/63
f 78/78/78 76/76/76 59/59/59
f 78/78/78 59/59/59 61/61/61
f 76/76/76 73/73/73 56/56/56
f 76/76/76 56/56/56 59/59/59
f 72/72/72 70/70/70 53/53/53
f 72/72/72 53/53/53 55/55/55
f 70/70/70 68/68/68 51/51/51
f 70/70/70 51/51/51 53/53/53
f 69/69/69 71/71/71 54/54/54
f 69/69/69 54/54/54 52/52/52
f 71/71/71 74/74/74 57/57/57
f 71/71/71 57/57/57 54/54/54
f 74/74/74 75/75/75 58/58/58
f 74/74/74 58/58/58 57/57/57
f 75/75/75 77/77/77 60/60/60
f 75/75/75 60/60/60 58/58/58
f 77/77/77 80/80/80 62/62/62
f 77/77/77 62/62/62 60/60/60
f 61/61/61 59/59/59 47/47/47
f 61/61/61 47/47/47 48/48/48
f 52/52/52 54/54/54 44/44/44
f 52/52/52 44/44/44 43/43/43
f 54/54/54 57/57/57 45/45/45
f 54/54/54 45/45/45 44/44/44
f 57/57/57 58/58/58 46/46/46
f 57/57/57 46/46/46 45/45/45
f 58/58/58 60/60/60 49/49/49
f 58/58/58 49/49/49 46/46/46
f 60/60/60 62/62/62 50/50/50
f 60/60/60 50/50/50 49/49/49
f 37/37/37 38/38/38 32/32/32
f 37/37/37 32/32/32 31/31/31
f 38/38/38 39/39/39 33/33/33
f 38/38/38 33/33/33 32/32/32
f 39/39/39 40/40/40 34/34/34
f 39/39/39 34/34/34 33/33/33
f 40/40/40 41/41/41 35/35/35
f 40/40/40 35/35/35 34/34/34
f 41/41/41 42/42/42 36/36/36
f 41/41/41 36/36/36 35/35/35
f 31/31/31 32/32/32 26/26/26
f 31/31/31 26/26/26 25/25/25
f 32/32/32 33/33/33 27/27/27
f 32/32/32 27/27/27 26/26/26
f 33/33/33 34/34/34 28/28/28
f 33/33/33 28/28/28 27/27/27
f 34/34/34 35/35/35 29/29/29
f 34/34/34 29/29/29 28/28/28
f 35/35/35 36/36/36 30/30/30
f 35/35/35 30/30/30 29/29/29
f 25/25/25 26/26/26 20/20/20
f 25/25/25 20/20/20 19/19/19
f 26/26/26 27/27/27 21/21/21
f 26/26/26 21/21/21 20/20/20
f 27/27/27 28/28/28 22/22/22
f 27/27/27 22/22/22 21/21/21
f 28/28/28 29/29/29 23/23/23
f 28/28/28 23/23/23 22/22/22
f 29/29/29 30/30/30 24/24/24
f 29/29/29 24/24/24 23/23/23
f 19/19/19 20/20/20 14/14/14
f 19/19/19 14/14/14 13/13/13
f 20/20/20 21/21/21 15/15/15
f 20/20/20 15/15/15 14/14/14
f 21/21/21 22/22/22 16/16/16
f 21/21/21 16/16/16 15/15/15
f 22/22/22 23/23/23 17/17/17
f 22/22/22 17/17/17 16/16/16
f 23/23/23 24/24/24 18/18/18
f 23/23/23 18/18/18 17/17/17
f 13/13/13 14/14/14 8/8/8
f 13/13/13 8/8/8 7/7/7
f 14/14/14 15/15/15 9/9/9
f 14/14/14 9/9/9 8/8/8
f 15/15/15 16/16/16 10/10/10
f 15/15/15 10/10/10 9/9/9
f 16/16/16 17/17/17 11/11/11
f 16/16/16 11/11/11 10/10/10
f 17/17/17 18/18/18 12/12/12
f 17/17/17 12/12/12 11/11/11
f 7/7/7 8/8/8 2/2/2
f 7/7/7 2/2/2 1/1/1
f 8/8/8 9/9/9 3/3/3
f 8/8/8 3/3/3 2/2/2
f 9/9/9 10/10/10 4/4/4
f 9/9/9 4/4/4 3/3/3
f 10/10/10 11/11/11 5/5/5
f 10/10/10 5/5/5 4/4/4
f 11/11/11 12/12/12 6/6/6
f 11/11/11 6/6/6 5/5/5
f 118/118/118 120/120/120 106/106/106
f 115/115/115 118/118/118 106/106/106
f 113/113/113 115/115/115 106/106/106
f 111/111/111 113/113/113 106/106/106
f 109/109/109 111/111/111 106/106/106
f 107/107/107 109/109/109 106/106/106
f 103/103/103 107/107/107 106/106/106
f 100/100/100 102/102/102 105/105/105
f 98/98/98 100/100/100 105/105/105
f 96/96/96 98/98/98 105/105/105
f 94/94/94 96/96/96 105/105/105
f 92/92/92 94/94/94 105/105/105
f 90/90/90 92/92/92 105/105/105
f 89/89/89 90/90/90 105/105/105
f 91/91/91 89/89/89 105/105/105
f 93/93/93 91/91/91 105/105/105
f 95/95/95 93/93/93 105/105/105
f 97/97/97 95/95/95 105/105/105
f 99/99/99 97/97/97 105/105/105
f 101/101/101 99/99/99 105/105/105
f 104/104/104 101/101/101 105/105/105
f 108/108/108 104/104/104 105/105/105
f 110/110/110 108/108/108 105/105/105
f 112/112/112 110/110/110 105/105/105
f 114/114/114 112/112/112 105/105/105
f 116/116/116 114/114/114 105/105/105
f 117/117/117 116/116/116 105/105/105
f 119/119/119 117/117/117 105/105/105
f 121/121/121 119/119/119 105/105/105
f 120/120/120 121/121/121 106/106/106

