mtllib material.mtl
usemtl blinn6SG
v 5.42439400 -0.75959100 0.06283500
v 5.42393900 -0.75752100 0.05148900
v 5.42413800 -0.76500800 0.07302300
v 5.42281600 -0.75899800 0.04009800
v 5.42319400 -0.77324100 0.08105900
v 5.42113500 -0.76388000 0.02977600
v 5.42165400 -0.78348300 0.08615200
v 5.41906000 -0.77168800 0.02153100
v 5.41967200 -0.79473200 0.08780600
v 5.41679500 -0.78165600 0.01617300
v 5.41713500 -0.79374800 0.05101500
v 5.41743700 -0.80588800 0.08585900
v 5.41456100 -0.79281100 0.01422700
v 5.41517100 -0.81585700 0.08050200
v 5.41257800 -0.80406100 0.01588100
v 5.41309700 -0.82366500 0.07225800
v 5.41103900 -0.81430100 0.02097600
v 5.41141700 -0.82854700 0.06193600
v 5.41009500 -0.82253500 0.02901000
v 5.41029300 -0.83002300 0.05054300
v 5.40983700 -0.82795100 0.03919900
v 5.26222700 0.23600400 -0.47592100
v 5.26156700 0.23600400 -0.51163600
v 5.26235000 0.32079000 -0.46924900
v 5.26169800 0.32637800 -0.50452400
v 5.27223900 -0.34170900 0.06598000
v 5.27056900 -0.33459700 -0.02437900
v 5.27223900 -0.30598900 0.06598000
v 5.27067200 -0.29931600 -0.01879200
v 5.26360400 -0.10356800 -0.40132100
v 5.26413800 -0.08257200 -0.37242700
v 5.26272900 -0.02627300 -0.44868000
v 5.26234900 0.15121700 -0.46925000
v 5.26271600 0.40348900 -0.44940000
v 5.26208800 0.41452700 -0.48336500
v 5.26413800 0.55458000 -0.37242800
v 5.27931900 0.61925100 0.44916100
v 5.27812400 0.67448600 0.38450100
v 5.27380500 0.77132400 0.15075200
v 5.27223900 0.77799700 0.06598000
v 5.27223800 -0.35551900 0.06598000
v 5.27394700 -0.34823700 0.15849900
v 5.27052800 -0.34823700 -0.02654000
v 5.27390700 -0.33459700 0.15633900
v 5.27561400 -0.32656900 0.24873900
v 5.26886100 -0.32656900 -0.11677900
v 5.27553600 -0.31343500 0.24447200
v 5.26893900 -0.31343500 -0.11251300
v 5.27380400 -0.29931700 0.15075200
v 5.27719900 -0.29104700 0.33448000
v 5.26727600 -0.29104700 -0.20252100
v 5.27533100 -0.27946300 0.23343600
v 5.26914300 -0.27946300 -0.10147700
v 5.27708300 -0.27874300 0.32821200
v 5.26739200 -0.27874300 -0.19625200
v 5.27678300 -0.24691600 0.31199800
v 5.27866100 -0.24254900 0.41360900
v 5.26581400 -0.24254900 -0.28165000
v 5.27851100 -0.23137700 0.40549300
v 5.26596500 -0.23137700 -0.27353400
v 5.27812300 -0.20247800 0.38450100
v 5.27996400 -0.18226600 0.48417900
v 5.26451000 -0.18226600 -0.35221900
v 5.27978400 -0.17250200 0.47441500
v 5.26469100 -0.17250200 -0.34245600
v 5.27931800 -0.14724300 0.44916200
v 5.26515700 -0.14724300 -0.31720200
v 5.28107800 -0.11168500 0.54445100
v 5.26339700 -0.11168500 -0.41249100
v 5.28087200 -0.10356800 0.53328100
v 5.28033800 -0.08257200 0.50438800
v 5.28197400 -0.03254200 0.59294200
v 5.26250100 -0.03254200 -0.46098200
v 5.28174700 -0.02627300 0.58063900
v 5.28115900 -0.01005600 0.54881700
v 5.26331600 -0.01005600 -0.41685800
v 5.28263000 0.05321300 0.62845600
v 5.26184500 0.05321300 -0.49649700
v 5.28238800 0.05748100 0.61532500
v 5.28176000 0.06851900 0.58135800
v 5.26144400 0.14346900 -0.51816200
v 5.28303100 0.14347000 0.65012100
v 5.26169600 0.14562900 -0.50452400
v 5.28277900 0.14563000 0.63648300
v 5.28212700 0.15121700 0.60120900
v 5.28316500 0.23600400 0.65740300
v 5.28291000 0.23600400 0.64359500
v 5.28225000 0.23600400 0.60788100
v 5.26131000 0.23600400 -0.52544300
v 5.28212700 0.32079000 0.60120900
v 5.28277900 0.32637800 0.63648300
v 5.28303100 0.32853900 0.65012100
v 5.26144400 0.32853900 -0.51816200
v 5.28176000 0.40348900 0.58135800
v 5.28238800 0.41452700 0.61532500
v 5.28263000 0.41879500 0.62845600
v 5.26184500 0.41879500 -0.49649700
v 5.26331600 0.48206300 -0.41685800
v 5.28115900 0.48206400 0.54881700
v 5.28174700 0.49828000 0.58063900
v 5.28197400 0.50455000 0.59294100
v 5.26250100 0.50455000 -0.46098200
v 5.28033800 0.55458000 0.50438700
v 5.28087200 0.57557600 0.53328000
v 5.28107800 0.58369400 0.54445100
v 5.26339700 0.58369400 -0.41249100
v 5.26515700 0.61925100 -0.31720200
v 5.27978400 0.64450900 0.47441500
v 5.26469100 0.64450900 -0.34245600
v 5.27996400 0.65427400 0.48417900
v 5.26451000 0.65427400 -0.35221900
v 5.26596500 0.70338300 -0.27353400
v 5.27851100 0.70338400 0.40549300
v 5.26581400 0.71455600 -0.28165000
v 5.27866100 0.71455700 0.41360900
v 5.27678300 0.71892400 0.31199800
v 5.26769200 0.71892400 -0.18003900
v 5.27708300 0.75075100 0.32821100
v 5.26739200 0.75075100 -0.19625200
v 5.26914300 0.75147000 -0.10147700
v 5.27533100 0.75147100 0.23343600
v 5.27719900 0.76305500 0.33448000
v 5.26727600 0.76305500 -0.20252100
v 5.27067100 0.77132400 -0.01879200
v 5.27553600 0.78544200 0.24447200
v 5.26893900 0.78544200 -0.11251300
v 5.27561400 0.79857600 0.24873900
v 5.26886100 0.79857600 -0.11677900
v 5.27056800 0.80660400 -0.02437900
v 5.27390700 0.80660500 0.15633900
v 5.27223800 0.81371700 0.06598000
v 5.27394700 0.82024500 0.15849900
v 5.27052800 0.82024500 -0.02654000
v 5.27223800 0.82752700 0.06597900
v 5.26769100 -0.24691600 -0.18003800
v 5.26635100 -0.20247800 -0.25254100
v 5.26208600 0.05748100 -0.48336500
v 5.26271300 0.06851900 -0.44940000
v 5.26272700 0.49828000 -0.44868000
v 5.26360200 0.57557500 -0.40132100
v 5.26635100 0.67448600 -0.25254100
v 5.21742900 -0.35551900 0.06699300
v 5.21913800 -0.34823700 0.15951100
v 5.21571900 -0.34823700 -0.02552700
v 5.22080600 -0.32656900 0.24975200
v 5.21405200 -0.32656900 -0.11576700
v 5.22239000 -0.29104700 0.33549200
v 5.21246800 -0.29104700 -0.20150800
v 5.22385200 -0.24254900 0.41462200
v 5.21100600 -0.24254900 -0.28063700
v 5.22515600 -0.18226600 0.48519200
v 5.20970200 -0.18226600 -0.35120600
v 5.22627000 -0.11168500 0.54546300
v 5.20858800 -0.11168500 -0.41147800
v 5.22716600 -0.03254200 0.59395400
v 5.20769200 -0.03254200 -0.45996900
v 5.22782200 0.05321300 0.62946900
v 5.20703600 0.05321300 -0.49548400
v 5.20663500 0.14346900 -0.51714900
v 5.22822200 0.14347000 0.65113300
v 5.22835600 0.23600400 0.65841500
v 5.21742900 0.23600400 0.06699200
v 5.20650100 0.23600400 -0.52443100
v 5.22822200 0.32853900 0.65113300
v 5.20663500 0.32853900 -0.51714900
v 5.22782200 0.41879500 0.62946900
v 5.20703600 0.41879500 -0.49548400
v 5.22716600 0.50455000 0.59395300
v 5.20769200 0.50455000 -0.45996900
v 5.22627000 0.58369400 0.54546300
v 5.20858800 0.58369400 -0.41147800
v 5.22515600 0.65427400 0.48519200
v 5.20970200 0.65427400 -0.35120600
v 5.21100600 0.71455600 -0.28063700
v 5.22385200 0.71455700 0.41462200
v 5.22239000 0.76305500 0.33549200
v 5.21246800 0.76305500 -0.20150800
v 5.22080600 0.79857600 0.24975200
v 5.21405200 0.79857600 -0.11576700
v 5.21913800 0.82024500 0.15951100
v 5.21571900 0.82024500 -0.02552700
v 5.21742900 0.82752700 0.06699200
vn 0.80850000 0.55810000 0.18660000
vn 0.79940000 0.59950000 -0.03990000
vn 0.80340000 0.45000000 0.39000000
vn 0.77700000 0.57000000 -0.26720000
vn 0.78450000 0.28560000 0.55040000
vn 0.74350000 0.47250000 -0.47330000
vn 0.75380000 0.08120000 0.65210000
vn 0.70200000 0.31670000 -0.63790000
vn 0.71420000 -0.14340000 0.68510000
vn 0.65680000 0.11770000 -0.74480000
vn 0.98030000 -0.18360000 -0.07290000
vn 0.66960000 -0.36610000 0.64620000
vn 0.61220000 -0.10500000 -0.78370000
vn 0.62440000 -0.56500000 0.53930000
vn 0.57270000 -0.32950000 -0.75060000
vn 0.58300000 -0.72090000 0.37470000
vn 0.54190000 -0.53400000 -0.64900000
vn 0.54950000 -0.81830000 0.16870000
vn 0.52310000 -0.69830000 -0.48860000
vn 0.52700000 -0.84780000 -0.05890000
vn 0.51780000 -0.80650000 -0.28530000
vn 0.71230000 -0.00000000 -0.70190000
vn 0.99980000 -0.00000000 -0.01850000
vn 0.71250000 0.10770000 -0.69340000
vn 0.99980000 -0.00000000 -0.01850000
vn 0.99980000 -0.00000000 -0.01850000
vn 0.99980000 -0.00000000 -0.01850000
vn 0.72500000 -0.68860000 -0.01330000
vn 0.72300000 -0.68010000 -0.12110000
vn 0.99980000 -0.00000000 -0.01850000
vn 0.71470000 -0.40480000 -0.57040000
vn 0.99980000 -0.00000000 -0.01850000
vn 0.71250000 -0.10780000 -0.69340000
vn 0.71290000 0.21270000 -0.66820000
vn 0.99980000 -0.00000000 -0.01850000
vn 0.71470000 0.40470000 -0.57040000
vn 0.73400000 0.48690000 0.47340000
vn 0.73250000 0.55710000 0.39120000
vn 0.72700000 0.68010000 0.09430000
vn 0.72500000 0.68860000 -0.01340000
vn 0.68970000 -0.72400000 -0.01270000
vn 0.69180000 -0.71500000 0.10050000
vn 0.68760000 -0.71500000 -0.12600000
vn 0.99980000 -0.00000000 -0.01850000
vn 0.69390000 -0.68850000 0.21090000
vn 0.68560000 -0.68850000 -0.23640000
vn 0.99980000 -0.00000000 -0.01850000
vn 0.99980000 -0.00000000 -0.01850000
vn 0.72700000 -0.68010000 0.09440000
vn 0.69580000 -0.64500000 0.31590000
vn 0.68370000 -0.64500000 -0.34130000
vn 0.72900000 -0.65490000 0.19940000
vn 0.72110000 -0.65490000 -0.22610000
vn 0.99980000 -0.00000000 -0.01850000
vn 0.99980000 -0.00000000 -0.01850000
vn 0.73080000 -0.61350000 0.29920000
vn 0.69760000 -0.58570000 0.41270000
vn 0.68190000 -0.58570000 -0.43820000
vn 0.99980000 -0.00000000 -0.01850000
vn 0.99980000 -0.00000000 -0.01850000
vn 0.73250000 -0.55700000 0.39130000
vn 0.69920000 -0.51190000 0.49910000
vn 0.68030000 -0.51190000 -0.52460000
vn 0.99980000 -0.00000000 -0.01850000
vn 0.99980000 -0.00000000 -0.01850000
vn 0.73400000 -0.48690000 0.47350000
vn 0.71600000 -0.48690000 -0.50020000
vn 0.70060000 -0.42550000 0.57280000
vn 0.67890000 -0.42550000 -0.59830000
vn 0.99980000 -0.00000000 -0.01850000
vn 0.73530000 -0.40470000 0.54360000
vn 0.70170000 -0.32870000 0.63220000
vn 0.67780000 -0.32870000 -0.65770000
vn 0.99980000 -0.00000000 -0.01850000
vn 0.73640000 -0.31260000 0.60010000
vn 0.71370000 -0.31260000 -0.62680000
vn 0.70250000 -0.22370000 0.67560000
vn 0.67710000 -0.22370000 -0.70110000
vn 0.99980000 -0.00000000 -0.01850000
vn 0.73710000 -0.21270000 0.64140000
vn 0.67650000 -0.11330000 -0.72760000
vn 0.70300000 -0.11320000 0.70220000
vn 0.99980000 -0.00000000 -0.01850000
vn 0.99980000 -0.00000000 -0.01850000
vn 0.73760000 -0.10770000 0.66660000
vn 0.70310000 -0.00000000 0.71110000
vn 0.99980000 -0.00000000 -0.01850000
vn 0.73780000 -0.00000000 0.67510000
vn 0.67630000 -0.00000000 -0.73660000
vn 0.73760000 0.10780000 0.66660000
vn 0.99980000 -0.00000000 -0.01850000
vn 0.70300000 0.11320000 0.70220000
vn 0.67650000 0.11330000 -0.72770000
vn 0.73710000 0.21280000 0.64140000
vn 0.99980000 -0.00000000 -0.01850000
vn 0.70250000 0.22370000 0.67560000
vn 0.67700000 0.22370000 -0.70110000
vn 0.71370000 0.31260000 -0.62680000
vn 0.73640000 0.31270000 0.60000000
vn 0.99980000 -0.00000000 -0.01850000
vn 0.70170000 0.32870000 0.63220000
vn 0.67790000 0.32860000 -0.65760000
vn 0.73530000 0.40480000 0.54360000
vn 0.99980000 -0.00000000 -0.01850000
vn 0.70060000 0.42550000 0.57280000
vn 0.67900000 0.42550000 -0.59830000
vn 0.71600000 0.48690000 -0.50030000
vn 0.99980000 -0.00000000 -0.01850000
vn 0.99980000 -0.00000000 -0.01850000
vn 0.69920000 0.51190000 0.49910000
vn 0.68030000 0.51190000 -0.52460000
vn 0.99980000 -0.00000000 -0.01850000
vn 0.99980000 -0.00000000 -0.01850000
vn 0.68190000 0.58570000 -0.43820000
vn 0.69760000 0.58570000 0.41270000
vn 0.73080000 0.61360000 0.29910000
vn 0.71930000 0.61350000 -0.32600000
vn 0.99980000 -0.00000000 -0.01850000
vn 0.99980000 -0.00000000 -0.01850000
vn 0.72110000 0.65490000 -0.22620000
vn 0.72900000 0.65490000 0.19930000
vn 0.69580000 0.64500000 0.31590000
vn 0.68370000 0.64500000 -0.34140000
vn 0.72300000 0.68010000 -0.12110000
vn 0.99980000 -0.00000000 -0.01850000
vn 0.99980000 -0.00000000 -0.01850000
vn 0.69390000 0.68850000 0.21090000
vn 0.68560000 0.68850000 -0.23640000
vn 0.99980000 -0.00000000 -0.01850000
vn 0.99980000 -0.00000000 -0.01850000
vn 0.99980000 -0.00000000 -0.01850000
vn 0.69180000 0.71500000 0.10050000
vn 0.68770000 0.71500000 -0.12600000
vn 0.68980000 0.72390000 -0.01270000
vn 0.71930000 -0.61350000 -0.32590000
vn 0.71760000 -0.55710000 -0.41800000
vn 0.99980000 -0.00000000 -0.01840000
vn 0.71290000 -0.21280000 -0.66810000
vn 0.99980000 -0.00000000 -0.01850000
vn 0.99980000 -0.00000000 -0.01850000
vn 0.71760000 0.55700000 -0.41810000
vn -0.68980000 -0.72390000 0.01270000
vn -0.68770000 -0.71500000 0.12600000
vn -0.69190000 -0.71500000 -0.10050000
vn -0.68560000 -0.68850000 0.23640000
vn -0.69390000 -0.68850000 -0.21090000
vn -0.68370000 -0.64500000 0.34130000
vn -0.69580000 -0.64500000 -0.31590000
vn -0.68190000 -0.58570000 0.43820000
vn -0.69760000 -0.58570000 -0.41270000
vn -0.68030000 -0.51190000 0.52460000
vn -0.69920000 -0.51190000 -0.49910000
vn -0.67890000 -0.42550000 0.59830000
vn -0.70060000 -0.42550000 -0.57280000
vn -0.67780000 -0.32870000 0.65770000
vn -0.70170000 -0.32870000 -0.63220000
vn -0.67700000 -0.22370000 0.70110000
vn -0.70250000 -0.22370000 -0.67560000
vn -0.70300000 -0.11320000 -0.70210000
vn -0.67660000 -0.11320000 0.72760000
vn -0.67640000 -0.00000000 0.73650000
vn -0.99980000 -0.00000000 0.01850000
vn -0.70310000 -0.00000000 -0.71110000
vn -0.67660000 0.11320000 0.72760000
vn -0.70300000 0.11320000 -0.70210000
vn -0.67700000 0.22370000 0.70110000
vn -0.70250000 0.22370000 -0.67560000
vn -0.67780000 0.32870000 0.65770000
vn -0.70170000 0.32870000 -0.63220000
vn -0.67890000 0.42550000 0.59830000
vn -0.70060000 0.42550000 -0.57280000
vn -0.68030000 0.51190000 0.52450000
vn -0.69920000 0.51190000 -0.49910000
vn -0.69760000 0.58570000 -0.41270000
vn -0.68190000 0.58570000 0.43820000
vn -0.68370000 0.64500000 0.34130000
vn -0.69580000 0.64500000 -0.31590000
vn -0.68560000 0.68850000 0.23640000
vn -0.69390000 0.68850000 -0.21090000
vn -0.68770000 0.71500000 0.12600000
vn -0.69190000 0.71500000 -0.10050000
vn -0.68980000 0.72390000 0.01270000
vt 0.00000000 0.00000000
vt 0.00000000 0.00000000
vt 0.00000000 0.00000000
vt 0.00000000 0.00000000
vt 0.00000000 0.00000000
vt 0.00000000 0.00000000
vt 0.00000000 0.00000000
vt 0.00000000 0.00000000
vt 0.00000000 0.00000000
vt 0.00000000 0.00000000
vt 0.00000000 0.00000000
vt 0.00000000 0.00000000
vt 0.00000000 0.00000000
vt 0.00000000 0.00000000
vt 0.00000000 0.00000000
vt 0.00000000 0.00000000
vt 0.00000000 0.00000000
vt 0.00000000 0.00000000
vt 0.00000000 0.00000000
vt 0.00000000 0.00000000
vt 0.00000000 0.00000000
vt 0.00000000 0.00000000
vt 0.00000000 0.00000000
vt 0.00000000 0.00000000
vt 0.00000000 0.00000000
vt 0.00000000 0.00000000
vt 0.00000000 0.00000000
vt 0.00000000 0.00000000
vt 0.00000000 0.00000000
vt 0.00000000 0.00000000
vt 0.00000000 0.00000000
vt 0.00000000 0.00000000
vt 0.00000000 0.00000000
vt 0.00000000 0.00000000
vt 0.00000000 0.00000000
vt 0.00000000 0.00000000
vt 0.00000000 0.00000000
vt 0.00000000 0.00000000
vt 0.00000000 0.00000000
vt 0.00000000 0.00000000
vt 0.00000000 0.00000000
vt 0.00000000 0.00000000
vt 0.00000000 0.00000000
vt 0.00000000 0.00000000
vt 0.00000000 0.00000000
vt 0.00000000 0.00000000
vt 0.00000000 0.00000000
vt 0.00000000 0.00000000
vt 0.00000000 0.00000000
vt 0.00000000 0.00000000
vt 0.00000000 0.00000000
vt 0.00000000 0.00000000
vt 0.00000000 0.00000000
vt 0.00000000 0.00000000
vt 0.00000000 0.00000000
vt 0.00000000 0.00000000
vt 0.00000000 0.00000000
vt 0.00000000 0.00000000
vt 0.00000000 0.00000000
vt 0.00000000 0.00000000
vt 0.00000000 0.00000000
vt 0.00000000 0.00000000
vt 0.00000000 0.00000000
vt 0.00000000 0.00000000
vt 0.00000000 0.00000000
vt 0.00000000 0.00000000
vt 0.00000000 0.00000000
vt 0.00000000 0.00000000
vt 0.00000000 0.00000000
vt 0.00000000 0.00000000
vt 0.00000000 0.00000000
vt 0.00000000 0.00000000
vt 0.00000000 0.00000000
vt 0.00000000 0.00000000
vt 0.00000000 0.00000000
vt 0.00000000 0.00000000
vt 0.00000000 0.00000000
vt 0.00000000 0.00000000
vt 0.00000000 0.00000000
vt 0.00000000 0.00000000
vt 0.00000000 0.00000000
vt 0.00000000 0.00000000
vt 0.00000000 0.00000000
vt 0.00000000 0.00000000
vt 0.00000000 0.00000000
vt 0.00000000 0.00000000
vt 0.00000000 0.00000000
vt 0.00000000 0.00000000
vt 0.00000000 0.00000000
vt 0.00000000 0.00000000
vt 0.00000000 0.00000000
vt 0.00000000 0.00000000
vt 0.00000000 0.00000000
vt 0.00000000 0.00000000
vt 0.00000000 0.00000000
vt 0.00000000 0.00000000
vt 0.00000000 0.00000000
vt 0.00000000 0.00000000
vt 0.00000000 0.00000000
vt 0.00000000 0.00000000
vt 0.00000000 0.00000000
vt 0.00000000 0.00000000
vt 0.00000000 0.00000000
vt 0.00000000 0.00000000
vt 0.00000000 0.00000000
vt 0.00000000 0.00000000
vt 0.00000000 0.00000000
vt 0.00000000 0.00000000
vt 0.00000000 0.00000000
vt 0.00000000 0.00000000
vt 0.00000000 0.00000000
vt 0.00000000 0.00000000
vt 0.00000000 0.00000000
vt 0.00000000 0.00000000
vt 0.00000000 0.00000000
vt 0.00000000 0.00000000
vt 0.00000000 0.00000000
vt 0.00000000 0.00000000
vt 0.00000000 0.00000000
vt 0.00000000 0.00000000
vt 0.00000000 0.00000000
vt 0.00000000 0.00000000
vt 0.00000000 0.00000000
vt 0.00000000 0.00000000
vt 0.00000000 0.00000000
vt 0.00000000 0.00000000
vt 0.00000000 0.00000000
vt 0.00000000 0.00000000
vt 0.00000000 0.00000000
vt 0.00000000 0.00000000
vt 0.00000000 0.00000000
vt 0.00000000 0.00000000
vt 0.00000000 0.00000000
vt 0.00000000 0.00000000
vt 0.00000000 0.00000000
vt 0.00000000 0.00000000
vt 0.00000000 0.00000000
vt 0.00000000 0.00000000
vt 0.00000000 0.00000000
vt 0.00000000 0.00000000
vt 0.00000000 0.00000000
vt 0.00000000 0.00000000
vt 0.00000000 0.00000000
vt 0.00000000 0.00000000
vt 0.00000000 0.00000000
vt 0.00000000 0.00000000
vt 0.00000000 0.00000000
vt 0.00000000 0.00000000
vt 0.00000000 0.00000000
vt 0.00000000 0.00000000
vt 0.00000000 0.00000000
vt 0.00000000 0.00000000
vt 0.00000000 0.00000000
vt 0.00000000 0.00000000
vt 0.00000000 0.00000000
vt 0.00000000 0.00000000
vt 0.00000000 0.00000000
vt 0.00000000 0.00000000
vt 0.00000000 0.00000000
vt 0.00000000 0.00000000
vt 0.00000000 0.00000000
vt 0.00000000 0.00000000
vt 0.00000000 0.00000000
vt 0.00000000 0.00000000
vt 0.00000000 0.00000000
vt 0.00000000 0.00000000
vt 0.00000000 0.00000000
vt 0.00000000 0.00000000
vt 0.00000000 0.00000000
vt 0.00000000 0.00000000
vt 0.00000000 0.00000000
vt 0.00000000 0.00000000
vt 0.00000000 0.00000000
vt 0.00000000 0.00000000
vt 0.00000000 0.00000000
vt 0.00000000 0.00000000
vt 0.00000000 0.00000000
vt 0.00000000 0.00000000
vt 0.00000000 0.00000000
vt 0.00000000 0.00000000
vt 0.00000000 0.00000000
vt 0.00000000 0.00000000
f 7/7/7 9/9/9 11/11/11
f 11/11/11 9/9/9 12/12/12
f 11/11/11 12/12/12 14/14/14
f 14/14/14 16/16/16 11/11/11
f 11/11/11 16/16/16 18/18/18
f 11/11/11 18/18/18 20/20/20
f 11/11/11 20/20/20 21/21/21
f 21/21/21 19/19/19 11/11/11
f 11/11/11 19/19/19 17/17/17
f 11/11/11 17/17/17 15/15/15
f 15/15/15 13/13/13 11/11/11
f 10/10/10 11/11/11 13/13/13
f 8/8/8 11/11/11 10/10/10
f 8/8/8 6/6/6 11/11/11
f 4/4/4 11/11/11 6/6/6
f 2/2/2 11/11/11 4/4/4
f 1/1/1 11/11/11 2/2/2
f 1/1/1 3/3/3 11/11/11
f 3/3/3 5/5/5 11/11/11
f 5/5/5 7/7/7 11/11/11
f 180/180/180 178/178/178 127/127/127
f 180/180/180 127/127/127 132/132/132
f 178/178/178 176/176/176 122/122/122
f 178/178/178 122/122/122 127/127/127
f 176/176/176 175/175/175 115/115/115
f 176/176/176 115/115/115 122/122/122
f 175/175/175 172/172/172 110/110/110
f 175/175/175 110/110/110 115/115/115
f 172/172/172 170/170/170 105/105/105
f 172/172/172 105/105/105 110/110/110
f 170/170/170 168/168/168 101/101/101
f 170/170/170 101/101/101 105/105/105
f 168/168/168 166/166/166 96/96/96
f 168/168/168 96/96/96 101/101/101
f 166/166/166 164/164/164 92/92/92
f 166/166/166 92/92/92 96/96/96
f 164/164/164 161/161/161 86/86/86
f 164/164/164 86/86/86 92/92/92
f 161/161/161 160/160/160 82/82/82
f 161/161/161 82/82/82 86/86/86
f 160/160/160 157/157/157 77/77/77
f 160/160/160 77/77/77 82/82/82
f 157/157/157 155/155/155 72/72/72
f 157/157/157 72/72/72 77/77/77
f 155/155/155 153/153/153 68/68/68
f 155/155/155 68/68/68 72/72/72
f 153/153/153 151/151/151 62/62/62
f 153/153/153 62/62/62 68/68/68
f 151/151/151 149/149/149 57/57/57
f 151/151/151 57/57/57 62/62/62
f 149/149/149 147/147/147 50/50/50
f 149/149/149 50/50/50 57/57/57
f 147/147/147 145/145/145 45/45/45
f 147/147/147 45/45/45 50/50/50
f 145/145/145 143/143/143 42/42/42
f 145/145/145 42/42/42 45/45/45
f 143/143/143 142/142/142 41/41/41
f 143/143/143 41/41/41 42/42/42
f 142/142/142 144/144/144 43/43/43
f 142/142/142 43/43/43 41/41/41
f 144/144/144 146/146/146 46/46/46
f 144/144/144 46/46/46 43/43/43
f 146/146/146 148/148/148 51/51/51
f 146/146/146 51/51/51 46/46/46
f 148/148/148 150/150/150 58/58/58
f 148/148/148 58/58/58 51/51/51
f 150/150/150 152/152/152 63/63/63
f 150/150/150 63/63/63 58/58/58
f 152/152/152 154/154/154 69/69/69
f 152/152/152 69/69/69 63/63/63
f 154/154/154 156/156/156 73/73/73
f 154/154/154 73/73/73 69/69/69
f 156/156/156 158/158/158 78/78/78
f 156/156/156 78/78/78 73/73/73
f 158/158/158 159/159/159 81/81/81
f 158/158/158 81/81/81 78/78/78
f 159/159/159 163/163/163 89/89/89
f 159/159/159 89/89/89 81/81/81
f 163/163/163 165/165/165 93/93/93
f 163/163/163 93/93/93 89/89/89
f 165/165/165 167/167/167 97/97/97
f 165/165/165 97/97/97 93/93/93
f 167/167/167 169/169/169 102/102/102
f 167/167/167 102/102/102 97/97/97
f 169/169/169 171/171/171 106/106/106
f 169/169/169 106/106/106 102/102/102
f 171/171/171 173/173/173 111/111/111
f 171/171/171 111/111/111 106/106/106
f 173/173/173 174/174/174 114/114/114
f 173/173/173 114/114/114 111/111/111
f 174/174/174 177/177/177 123/123/123
f 174/174/174 123/123/123 114/114/114
f 177/177/177 179/179/179 128/128/128
f 177/177/177 128/128/128 123/123/123
f 179/179/179 181/181/181 133/133/133
f 179/179/179 133/133/133 128/128/128
f 181/181/181 182/182/182 134/134/134
f 181/181/181 134/134/134 133/133/133
f 182/182/182 180/180/180 132/132/132
f 182/182/182 132/132/132 134/134/134
f 178/178/178 180/180/180 162/162/162
f 176/176/176 178/178/178 162/162/162
f 175/175/175 176/176/176 162/162/162
f 172/172/172 175/175/175 162/162/162
f 170/170/170 172/172/172 162/162/162
f 168/168/168 170/170/170 162/162/162
f 166/166/166 168/168/168 162/162/162
f 164/164/164 166/166/166 162/162/162
f 161/161/161 164/164/164 162/162/162
f 160/160/160 161/161/161 162/162/162
f 157/157/157 160/160/160 162/162/162
f 155/155/155 157/157/157 162/162/162
f 153/153/153 155/155/155 162/162/162
f 151/151/151 153/153/153 162/162/162
f 149/149/149 151/151/151 162/162/162
f 147/147/147 149/149/149 162/162/162
f 145/145/145 147/147/147 162/162/162
f 143/143/143 145/145/145 162/162/162
f 142/142/142 143/143/143 162/162/162
f 144/144/144 142/142/142 162/162/162
f 146/146/146 144/144/144 162/162/162
f 148/148/148 146/146/146 162/162/162
f 150/150/150 148/148/148 162/162/162
f 152/152/152 150/150/150 162/162/162
f 154/154/154 152/152/152 162/162/162
f 156/156/156 154/154/154 162/162/162
f 158/158/158 156/156/156 162/162/162
f 159/159/159 158/158/158 162/162/162
f 163/163/163 159/159/159 162/162/162
f 165/165/165 163/163/163 162/162/162
f 167/167/167 165/165/165 162/162/162
f 169/169/169 167/167/167 162/162/162
f 171/171/171 169/169/169 162/162/162
f 173/173/173 171/171/171 162/162/162
f 174/174/174 173/173/173 162/162/162
f 177/177/177 174/174/174 162/162/162
f 179/179/179 177/177/177 162/162/162
f 181/181/181 179/179/179 162/162/162
f 182/182/182 181/181/181 162/162/162
f 180/180/180 182/182/182 162/162/162
f 132/132/132 127/127/127 125/125/125
f 132/132/132 125/125/125 130/130/130
f 127/127/127 122/122/122 118/118/118
f 127/127/127 118/118/118 125/125/125
f 122/122/122 115/115/115 113/113/113
f 122/122/122 113/113/113 118/118/118
f 115/115/115 110/110/110 108/108/108
f 115/115/115 108/108/108 113/113/113
f 110/110/110 105/105/105 104/104/104
f 110/110/110 104/104/104 108/108/108
f 105/105/105 101/101/101 100/100/100
f 105/105/105 100/100/100 104/104/104
f 101/101/101 96/96/96 95/95/95
f 101/101/101 95/95/95 100/100/100
f 96/96/96 92/92/92 91/91/91
f 96/96/96 91/91/91 95/95/95
f 92/92/92 86/86/86 87/87/87
f 92/92/92 87/87/87 91/91/91
f 86/86/86 82/82/82 84/84/84
f 86/86/86 84/84/84 87/87/87
f 82/82/82 77/77/77 79/79/79
f 82/82/82 79/79/79 84/84/84
f 77/77/77 72/72/72 74/74/74
f 77/77/77 74/74/74 79/79/79
f 72/72/72 68/68/68 70/70/70
f 72/72/72 70/70/70 74/74/74
f 68/68/68 62/62/62 64/64/64
f 68/68/68 64/64/64 70/70/70
f 62/62/62 57/57/57 59/59/59
f 62/62/62 59/59/59 64/64/64
f 57/57/57 50/50/50 54/54/54
f 57/57/57 54/54/54 59/59/59
f 50/50/50 45/45/45 47/47/47
f 50/50/50 47/47/47 54/54/54
f 45/45/45 42/42/42 44/44/44
f 45/45/45 44/44/44 47/47/47
f 42/42/42 41/41/41 26/26/26
f 42/42/42 26/26/26 44/44/44
f 41/41/41 43/43/43 27/27/27
f 41/41/41 27/27/27 26/26/26
f 43/43/43 46/46/46 48/48/48
f 43/43/43 48/48/48 27/27/27
f 46/46/46 51/51/51 55/55/55
f 46/46/46 55/55/55 48/48/48
f 51/51/51 58/58/58 60/60/60
f 51/51/51 60/60/60 55/55/55
f 58/58/58 63/63/63 65/65/65
f 58/58/58 65/65/65 60/60/60
f 63/63/63 69/69/69 30/30/30
f 63/63/63 30/30/30 65/65/65
f 69/69/69 73/73/73 32/32/32
f 69/69/69 32/32/32 30/30/30
f 73/73/73 78/78/78 137/137/137
f 73/73/73 137/137/137 32/32/32
f 78/78/78 81/81/81 83/83/83
f 78/78/78 83/83/83 137/137/137
f 81/81/81 89/89/89 23/23/23
f 81/81/81 23/23/23 83/83/83
f 89/89/89 93/93/93 25/25/25
f 89/89/89 25/25/25 23/23/23
f 93/93/93 97/97/97 35/35/35
f 93/93/93 35/35/35 25/25/25
f 97/97/97 102/102/102 139/139/139
f 97/97/97 139/139/139 35/35/35
f 102/102/102 106/106/106 140/140/140
f 102/102/102 140/140/140 139/139/139
f 106/106/106 111/111/111 109/109/109
f 106/106/106 109/109/109 140/140/140
f 111/111/111 114/114/114 112/112/112
f 111/111/111 112/112/112 109/109/109
f 114/114/114 123/123/123 119/119/119
f 114/114/114 119/119/119 112/112/112
f 123/123/123 128/128/128 126/126/126
f 123/123/123 126/126/126 119/119/119
f 128/128/128 133/133/133 129/129/129
f 128/128/128 129/129/129 126/126/126
f 133/133/133 134/134/134 131/131/131
f 133/133/133 131/131/131 129/129/129
f 134/134/134 132/132/132 130/130/130
f 134/134/134 130/130/130 131/131/131
f 130/130/130 125/125/125 121/121/121
f 130/130/130 121/121/121 39/39/39
f 125/125/125 118/118/118 116/116/116
f 125/125/125 116/116/116 121/121/121
f 118/118/118 113/113/113 38/38/38
f 118/118/118 38/38/38 116/116/116
f 113/113/113 108/108/108 37/37/37
f 113/113/113 37/37/37 38/38/38
f 108/108/108 104/104/104 103/103/103
f 108/108/108 103/103/103 37/37/37
f 104/104/104 100/100/100 99/99/99
f 104/104/104 99/99/99 103/103/103
f 100/100/100 95/95/95 94/94/94
f 100/100/100 94/94/94 99/99/99
f 95/95/95 91/91/91 90/90/90
f 95/95/95 90/90/90 94/94/94
f 91/91/91 87/87/87 88/88/88
f 91/91/91 88/88/88 90/90/90
f 87/87/87 84/84/84 85/85/85
f 87/87/87 85/85/85 88/88/88
f 84/84/84 79/79/79 80/80/80
f 84/84/84 80/80/80 85/85/85
f 79/79/79 74/74/74 75/75/75
f 79/79/79 75/75/75 80/80/80
f 74/74/74 70/70/70 71/71/71
f 74/74/74 71/71/71 75/75/75
f 70/70/70 64/64/64 66/66/66
f 70/70/70 66/66/66 71/71/71
f 64/64/64 59/59/59 61/61/61
f 64/64/64 61/61/61 66/66/66
f 59/59/59 54/54/54 56/56/56
f 59/59/59 56/56/56 61/61/61
f 54/54/54 47/47/47 52/52/52
f 54/54/54 52/52/52 56/56/56
f 47/47/47 44/44/44 49/49/49
f 47/47/47 49/49/49 52/52/52
f 44/44/44 26/26/26 28/28/28
f 44/44/44 28/28/28 49/49/49
f 26/26/26 27/27/27 29/29/29
f 26/26/26 29/29/29 28/28/28
f 27/27/27 48/48/48 53/53/53
f 27/27/27 53/53/53 29/29/29
f 48/48/48 55/55/55 135/135/135
f 48/48/48 135/135/135 53/53/53
f 55/55/55 60/60/60 136/136/136
f 55/55/55 136/136/136 135/135/135
f 60/60/60 65/65/65 67/67/67
f 60/60/60 67/67/67 136/136/136
f 65/65/65 30/30/30 31/31/31
f 65/65/65 31/31/31 67/67/67
f 30/30/30 32/32/32 76/76/76
f 30/30/30 76/76/76 31/31/31
f 32/32/32 137/137/137 138/138/138
f 32/32/32 138/138/138 76/76/76
f 137/137/137 83/83/83 33/33/33
f 137/137/137 33/33/33 138/138/138
f 83/83/83 23/23/23 22/22/22
f 83/83/83 22/22/22 33/33/33
f 23/23/23 25/25/25 24/24/24
f 23/23/23 24/24/24 22/22/22
f 25/25/25 35/35/35 34/34/34
f 25/25/25 34/34/34 24/24/24
f 35/35/35 139/139/139 98/98/98
f 35/35/35 98/98/98 34/34/34
f 139/139/139 140/140/140 36/36/36
f 139/139/139 36/36/36 98/98/98
f 140/140/140 109/109/109 107/107/107
f 140/140/140 107/107/107 36/36/36
f 109/109/109 112/112/112 141/141/141
f 109/109/109 141/141/141 107/107/107
f 112/112/112 119/119/119 117/117/117
f 112/112/112 117/117/117 141/141/141
f 119/119/119 126/126/126 120/120/120
f 119/119/119 120/120/120 117/117/117
f 126/126/126 129/129/129 124/124/124
f 126/126/126 124/124/124 120/120/120
f 129/129/129 131/131/131 40/40/40
f 129/129/129 40/40/40 124/124/124
f 131/131/131 130/130/130 39/39/39
f 131/131/131 39/39/39 40/40/40

