mtllib material.mtl
usemtl lambert6SG
v 0.76006100 -0.96872800 0.14935200
v 0.76358100 -0.95373500 0.33981500
v 0.75654200 -0.95373500 -0.04111000
v 0.76701300 -0.90912800 0.52558800
v 0.75310900 -0.90912800 -0.22688400
v 0.77027500 -0.83600300 0.70209600
v 0.74984800 -0.83600300 -0.40339200
v 0.77328400 -0.73616200 0.86499500
v 0.74683800 -0.73616200 -0.56629100
v 0.77596900 -0.61206200 1.01027100
v 0.74415400 -0.61206200 -0.71156700
v 0.76006100 -0.49549100 0.14935200
v 0.76221300 -0.48632500 0.26579600
v 0.75791000 -0.48632500 0.03290700
v 0.77826100 -0.46676200 1.13434900
v 0.74186100 -0.46676100 -0.83564600
v 0.76431100 -0.45905300 0.37937400
v 0.75581100 -0.45905300 -0.08067000
v 0.76630500 -0.41434600 0.48728700
v 0.75381700 -0.41434600 -0.18858300
v 0.76814600 -0.35330500 0.58688000
v 0.75197700 -0.35330500 -0.28817600
v 0.78010600 -0.30383500 1.23417300
v 0.74001700 -0.30383500 -0.93547000
v 0.76978700 -0.27743300 0.67569900
v 0.75033600 -0.27743300 -0.37699500
v 0.77118800 -0.18860000 0.75155700
v 0.74893400 -0.18859900 -0.45285400
v 0.78145700 -0.12729500 1.30728500
v 0.73866600 -0.12729500 -1.00858200
v 0.77231600 -0.08899000 0.81258800
v 0.74780700 -0.08898900 -0.51388400
v 0.77314200 0.01894200 0.85728700
v 0.74698100 0.01894200 -0.55858300
v 0.78228100 0.05850800 1.35188600
v 0.73784200 0.05850900 -1.05318300
v 0.77364600 0.13253900 0.88455500
v 0.74647700 0.13253900 -0.58585000
v 0.78255800 0.24900300 1.36687500
v 0.78255800 0.24900300 1.36687500
v 0.77381500 0.24900300 0.89371900
v 0.77381500 0.24900300 0.89371900
v 0.74630700 0.24900300 -0.59501500
v 0.73756500 0.24900300 -1.06817200
v 0.77364600 0.36546800 0.88455500
v 0.74647700 0.36546800 -0.58585000
v 0.78228100 0.43949900 1.35188600
v 0.73784200 0.43949900 -1.05318300
v 0.77314200 0.47906500 0.85728700
v 0.74698100 0.47906500 -0.55858300
v 0.77231600 0.58699600 0.81258800
v 0.74780700 0.58699700 -0.51388400
v 0.78145700 0.62530300 1.30728500
v 0.73866600 0.62530300 -1.00858200
v 0.77118800 0.68660600 0.75155700
v 0.74893400 0.68660600 -0.45285300
v 0.76978700 0.77544000 0.67569900
v 0.75033600 0.77544000 -0.37699500
v 0.78010600 0.80184200 1.23417300
v 0.74001700 0.80184300 -0.93547000
v 0.76814600 0.85131200 0.58688000
v 0.75197700 0.85131200 -0.28817500
v 0.76630500 0.91235300 0.48728700
v 0.75381700 0.91235300 -0.18858300
v 0.76431100 0.95705900 0.37937400
v 0.75581100 0.95706000 -0.08067000
v 0.77826100 0.96476700 1.13434900
v 0.74186100 0.96476800 -0.83564500
v 0.76221300 0.98433100 0.26579700
v 0.75791000 0.98433200 0.03290800
v 0.76006100 0.99349800 0.14935200
v 0.77596900 1.11006900 1.01027100
v 0.74415400 1.11007000 -0.71156700
v 0.77328400 1.23416900 0.86499500
v 0.74683800 1.23416900 -0.56629100
v 0.77027500 1.33401000 0.70209600
v 0.74984800 1.33401100 -0.40339100
v 0.76701300 1.40713400 0.52558800
v 0.75310900 1.40713600 -0.22688300
v 0.76358100 1.45174200 0.33981500
v 0.75654200 1.45174300 -0.04111000
v 0.76006100 1.46673500 0.14935200
v 0.70213000 -0.96872800 0.15042200
v 0.70565000 -0.95373500 0.34088500
v 0.69861100 -0.95373500 -0.04004000
v 0.70908200 -0.90912800 0.52665800
v 0.69517900 -0.90912800 -0.22581300
v 0.71234400 -0.83600300 0.70316600
v 0.69191700 -0.83600300 -0.40232200
v 0.71535300 -0.73616200 0.86606500
v 0.68890700 -0.73616200 -0.56522000
v 0.71803800 -0.61206200 1.01134100
v 0.68622300 -0.61206200 -0.71049600
v 0.72033000 -0.46676200 1.13541900
v 0.68393000 -0.46676100 -0.83457500
v 0.72217500 -0.30383500 1.23524300
v 0.68208600 -0.30383500 -0.93439900
v 0.72352600 -0.12729500 1.30835600
v 0.68073500 -0.12729500 -1.00751200
v 0.72435000 0.05850800 1.35295600
v 0.67991100 0.05850900 -1.05211200
v 0.72462700 0.24900300 1.36794600
v 0.72462700 0.24900300 1.36794600
v 0.67963400 0.24900300 -1.06710200
v 0.72435000 0.43949900 1.35295600
v 0.67991100 0.43949900 -1.05211200
v 0.72352600 0.62530300 1.30835600
v 0.68073500 0.62530300 -1.00751200
v 0.72217500 0.80184200 1.23524300
v 0.68208600 0.80184300 -0.93439900
v 0.72033000 0.96476700 1.13541900
v 0.68393000 0.96476800 -0.83457400
v 0.71803800 1.11006900 1.01134100
v 0.68622300 1.11007000 -0.71049600
v 0.71535300 1.23416900 0.86606500
v 0.68890700 1.23416900 -0.56522000
v 0.71234400 1.33401000 0.70316600
v 0.69191700 1.33401100 -0.40232100
v 0.70908200 1.40713400 0.52665800
v 0.69517900 1.40713600 -0.22581200
v 0.70565000 1.45174200 0.34088500
v 0.69861100 1.45174300 -0.04004000
v 0.70213000 1.46673500 0.15042200
v -0.74133900 -1.00592000 0.17552100
v -0.73770300 -0.99043400 0.37225700
v -0.74497400 -0.99043400 -0.02121600
v -0.73415800 -0.94435700 0.56414900
v -0.74851900 -0.94435700 -0.21310800
v -0.75188800 -0.86882400 -0.39543100
v -0.73078900 -0.86882300 0.74647200
v -0.72768000 -0.76569400 0.91473600
v -0.75499700 -0.76569400 -0.56369500
v -0.72490700 -0.63750700 1.06479900
v -0.75777000 -0.63750700 -0.71375800
v -0.72253900 -0.48741800 1.19296400
v -0.76013800 -0.48741800 -0.84192300
v -0.72063400 -0.31912500 1.29607600
v -0.76204300 -0.31912500 -0.94503600
v -0.71923800 -0.13677100 1.37159600
v -0.76343900 -0.13677100 -1.02055500
v -0.71838700 0.05515400 1.41766600
v -0.71838700 0.05515400 1.41766600
v -0.76429000 0.05515400 -1.06662300
v -0.71810100 0.25192400 1.43315000
v -0.76457600 0.25192400 -1.08210900
v -0.76429000 0.44869300 -1.06662300
v -0.71838700 0.44869400 1.41766600
v -0.76343900 0.64061800 -1.02055500
v -0.71923800 0.64061900 1.37159600
v -0.76204300 0.82297200 -0.94503600
v -0.72063400 0.82297300 1.29607600
v -0.76013800 0.99126500 -0.84192300
v -0.72253900 0.99126600 1.19296400
v -0.72490700 1.14135400 1.06479900
v -0.75777000 1.14135400 -0.71375800
v -0.75499700 1.26954000 -0.56369500
v -0.72768000 1.26954100 0.91473600
v -0.75188800 1.37267000 -0.39543100
v -0.73078900 1.37267100 0.74647200
v -0.73415800 1.44820400 0.56414900
v -0.74851900 1.44820400 -0.21310800
v -0.74497400 1.49428100 -0.02121600
v -0.73770300 1.49428200 0.37225700
v -0.74133900 1.50976700 0.17552100
v -0.93644700 -0.86882300 0.75027200
v -0.93333800 -0.76569400 0.91853600
v -0.93056500 -0.63750700 1.06859900
v -0.92819700 -0.48741800 1.19676400
v -0.92629200 -0.31912500 1.29987600
v -0.92489600 -0.13677100 1.37539600
v -0.92404500 0.05515400 1.42146600
v -0.92404500 0.05515400 1.42146600
v -0.92375900 0.25192400 1.43695000
v -0.92404500 0.44869400 1.42146600
v -0.92489600 0.64061900 1.37539600
v -0.92629200 0.82297300 1.29987600
v -0.92819700 0.99126600 1.19676400
v -0.93056500 1.14135400 1.06859900
v -0.93333800 1.26954100 0.91853600
v -0.93644700 1.37267100 0.75027200
v -0.94699800 -1.00592000 0.17932100
v -0.94336200 -0.99043400 0.37605700
v -0.95063300 -0.99043400 -0.01741600
v -0.93981700 -0.94435700 0.56794900
v -0.95417800 -0.94435700 -0.20930800
v -0.95754700 -0.86882400 -0.39163100
v -0.96065600 -0.76569400 -0.55989500
v -0.96342900 -0.63750700 -0.70995800
v -0.96579700 -0.48741800 -0.83812300
v -0.96770200 -0.31912600 -0.94123600
v -0.96909800 -0.13677200 -1.01675500
v -0.96994900 0.05515300 -1.06282300
v -0.97023500 0.25192400 -1.07830900
v -0.96994900 0.44869300 -1.06282300
v -0.96909800 0.64061800 -1.01675500
v -0.96770200 0.82297200 -0.94123600
v -0.96579700 0.99126500 -0.83812300
v -0.96342900 1.14135400 -0.70995800
v -0.96065600 1.26954000 -0.55989500
v -0.95754700 1.37267000 -0.39163100
v -0.93981700 1.44820400 0.56794900
v -0.95417800 1.44820400 -0.20930800
v -0.95063300 1.49428100 -0.01741600
v -0.94336200 1.49428200 0.37605700
v -0.94699800 1.50976700 0.17932100
v -1.15265600 -1.00592000 0.18312100
v -1.14902000 -0.99043400 0.37985700
v -1.15629100 -0.99043400 -0.01361600
v -1.14547400 -0.94435700 0.57174900
v -1.15983600 -0.94435700 -0.20550800
v -1.16320500 -0.86882400 -0.38783100
v -1.14210600 -0.86882300 0.75407200
v -1.13899700 -0.76569400 0.92233600
v -1.16631400 -0.76569400 -0.55609500
v -1.13622400 -0.63750700 1.07239900
v -1.16908600 -0.63750700 -0.70615800
v -1.13385600 -0.48741800 1.20056400
v -1.17145500 -0.48741800 -0.83432300
v -1.17336000 -0.31912600 -0.93743600
v -1.13195000 -0.31912500 1.30367600
v -1.17475600 -0.13677200 -1.01295500
v -1.13055500 -0.13677100 1.37919600
v -1.17560700 0.05515300 -1.05902300
v -1.12970400 0.05515400 1.42526700
v -1.12970400 0.05515400 1.42526700
v -1.12941800 0.25192400 1.44075000
v -1.17589300 0.25192400 -1.07450900
v -1.17560700 0.44869300 -1.05902300
v -1.12970400 0.44869400 1.42526700
v -1.17475600 0.64061800 -1.01295500
v -1.13055500 0.64061900 1.37919600
v -1.17336000 0.82297200 -0.93743600
v -1.13195000 0.82297300 1.30367600
v -1.17145500 0.99126500 -0.83432300
v -1.13385600 0.99126600 1.20056400
v -1.13622400 1.14135400 1.07239900
v -1.16908600 1.14135400 -0.70615800
v -1.16631400 1.26954000 -0.55609500
v -1.13899700 1.26954100 0.92233600
v -1.16320500 1.37267000 -0.38783100
v -1.14210600 1.37267100 0.75407200
v -1.14547400 1.44820400 0.57174900
v -1.15983600 1.44820400 -0.20550800
v -1.15629100 1.49428100 -0.01361600
v -1.14902000 1.49428200 0.37985700
v -1.15265600 1.50976700 0.18312100
v -1.35831400 -1.00592000 0.18692100
v -1.35467800 -0.99043400 0.38365700
v -1.36194900 -0.99043400 -0.00981600
v -1.35113200 -0.94435700 0.57554900
v -1.36549400 -0.94435700 -0.20170800
v -1.36886300 -0.86882400 -0.38403100
v -1.34776400 -0.86882300 0.75787200
v -1.34465500 -0.76569400 0.92613600
v -1.37197200 -0.76569400 -0.55229500
v -1.34188200 -0.63750700 1.07619900
v -1.37474400 -0.63750700 -0.70235800
v -1.33951400 -0.48741800 1.20436400
v -1.37711300 -0.48741800 -0.83052300
v -1.37901800 -0.31912600 -0.93363600
v -1.33760800 -0.31912500 1.30747600
v -1.38041400 -0.13677200 -1.00915500
v -1.33621300 -0.13677100 1.38299600
v -1.38126500 0.05515300 -1.05522300
v -1.33536200 0.05515400 1.42906600
v -1.33536200 0.05515400 1.42906600
v -1.33507600 0.25192400 1.44455000
v -1.38155100 0.25192400 -1.07070900
v -1.38126500 0.44869300 -1.05522300
v -1.33536200 0.44869400 1.42906600
v -1.38041400 0.64061800 -1.00915500
v -1.33621300 0.64061900 1.38299600
v -1.37901800 0.82297200 -0.93363600
v -1.33760800 0.82297300 1.30747600
v -1.37711300 0.99126500 -0.83052300
v -1.33951400 0.99126600 1.20436400
v -1.34188200 1.14135400 1.07619900
v -1.37474400 1.14135400 -0.70235800
v -1.37197200 1.26954000 -0.55229500
v -1.34465500 1.26954100 0.92613600
v -1.36886300 1.37267000 -0.38403100
v -1.34776400 1.37267100 0.75787200
v -1.35113200 1.44820400 0.57554900
v -1.36549400 1.44820400 -0.20170800
v -1.36194900 1.49428100 -0.00981600
v -1.35467800 1.49428200 0.38365700
v -1.35831400 1.50976700 0.18692100
v -1.45527000 -0.52391500 0.18871200
v -1.45304500 -0.51438400 0.30910100
v -1.45749400 -0.51438400 0.06832300
v -1.45087500 -0.48602100 0.42654600
v -1.45966400 -0.48602100 -0.04912200
v -1.44881200 -0.43951100 0.53816800
v -1.46172700 -0.43951100 -0.16074300
v -1.44690900 -0.37598300 0.64122400
v -1.46363100 -0.37598300 -0.26379900
v -1.44521000 -0.29698100 0.73317800
v -1.46533000 -0.29698100 -0.35575300
v -1.44375800 -0.20443300 0.81175600
v -1.46678200 -0.20443300 -0.43433100
v -1.44258900 -0.10061000 0.87500300
v -1.46795100 -0.10061000 -0.49757900
v -1.46880600 0.01193500 -0.54392100
v -1.44173200 0.01193600 0.92134600
v -1.44121000 0.13042400 0.94962500
v -1.46932900 0.13042400 -0.57220200
v -1.44103400 0.25192400 0.95913100
v -1.45527000 0.25192400 0.18871200
v -1.46950500 0.25192400 -0.58170700
v -1.46932900 0.37342300 -0.57220200
v -1.44121000 0.37342400 0.94962400
v -1.44173200 0.49191200 0.92134600
v -1.46880700 0.49191200 -0.54392200
v -1.46795100 0.60445700 -0.49757900
v -1.44258900 0.60445800 0.87500400
v -1.44375800 0.70828100 0.81175600
v -1.46678200 0.70828100 -0.43433200
v -1.46533000 0.80082800 -0.35575400
v -1.44521000 0.80082900 0.73317800
v -1.46363100 0.87983000 -0.26380100
v -1.44690900 0.87983100 0.64122300
v -1.46172600 0.94335800 -0.16074200
v -1.44881200 0.94335900 0.53816600
v -1.45087500 0.98986800 0.42654600
v -1.45966400 0.98986800 -0.04912100
v -1.45304500 1.01823100 0.30910100
v -1.45749400 1.01823100 0.06832200
v -1.45527000 1.02776200 0.18871100
v -1.56397200 -1.00592000 0.19072100
v -1.56033700 -0.99043400 0.38745700
v -1.56760800 -0.99043400 -0.00601600
v -1.55679100 -0.94435700 0.57934900
v -1.57115300 -0.94435700 -0.19790800
v -1.57452200 -0.86882400 -0.38023100
v -1.55342300 -0.86882300 0.76167200
v -1.55031400 -0.76569400 0.92993600
v -1.57763100 -0.76569400 -0.54849500
v -1.54754100 -0.63750700 1.07999900
v -1.58040300 -0.63750700 -0.69855800
v -1.54517300 -0.48741800 1.20816400
v -1.58277200 -0.48741800 -0.82672300
v -1.58467700 -0.31912600 -0.92983600
v -1.54326700 -0.31912500 1.31127600
v -1.58607300 -0.13677200 -1.00535500
v -1.54187200 -0.13677100 1.38679600
v -1.58692400 0.05515300 -1.05142300
v -1.54102100 0.05515400 1.43286600
v -1.54102100 0.05515400 1.43286600
v -1.54073500 0.25192400 1.44835000
v -1.58721000 0.25192400 -1.06690900
v -1.58692400 0.44869300 -1.05142300
v -1.54102100 0.44869400 1.43286600
v -1.58607300 0.64061800 -1.00535500
v -1.54187200 0.64061900 1.38679600
v -1.58467700 0.82297200 -0.92983600
v -1.54326700 0.82297300 1.31127600
v -1.58277200 0.99126500 -0.82672300
v -1.54517300 0.99126600 1.20816400
v -1.54754100 1.14135400 1.07999900
v -1.58040300 1.14135400 -0.69855800
v -1.57763100 1.26954000 -0.54849500
v -1.55031400 1.26954100 0.92993600
v -1.57452200 1.37267000 -0.38023100
v -1.55342300 1.37267100 0.76167200
v -1.55679100 1.44820400 0.57934900
v -1.57115300 1.44820400 -0.19790800
v -1.56760800 1.49428100 -0.00601600
v -1.56033700 1.49428200 0.38745700
v -1.56397200 1.50976700 0.19072100
v -1.76963000 -1.00592000 0.19452100
v -1.76599500 -0.99043400 0.39125700
v -1.77326600 -0.99043400 -0.00221600
v -1.76244900 -0.94435700 0.58314900
v -1.77681100 -0.94435700 -0.19410800
v -1.78018000 -0.86882400 -0.37643100
v -1.75908100 -0.86882300 0.76547200
v -1.75597200 -0.76569400 0.93373600
v -1.78328900 -0.76569400 -0.54469500
v -1.75319900 -0.63750700 1.08379900
v -1.78606100 -0.63750700 -0.69475800
v -1.75083100 -0.48741800 1.21196400
v -1.78843000 -0.48741800 -0.82292300
v -1.79033500 -0.31912600 -0.92603600
v -1.74892500 -0.31912500 1.31507600
v -1.79173100 -0.13677200 -1.00155500
v -1.74753000 -0.13677100 1.39059600
v -1.79258200 0.05515300 -1.04762300
v -1.74667900 0.05515400 1.43666600
v -1.74667900 0.05515400 1.43666600
v -1.74639300 0.25192400 1.45215000
v -1.79286800 0.25192400 -1.06310900
v -1.79258200 0.44869300 -1.04762300
v -1.74667900 0.44869400 1.43666600
v -1.79173100 0.64061800 -1.00155500
v -1.74753000 0.64061900 1.39059600
v -1.79033500 0.82297200 -0.92603600
v -1.74892500 0.82297300 1.31507600
v -1.78843000 0.99126500 -0.82292300
v -1.75083100 0.99126600 1.21196400
v -1.75319900 1.14135400 1.08379900
v -1.78606100 1.14135400 -0.69475800
v -1.78328900 1.26954000 -0.54469500
v -1.75597200 1.26954100 0.93373600
v -1.78018000 1.37267000 -0.37643100
v -1.75908100 1.37267100 0.76547200
v -1.76244900 1.44820400 0.58314900
v -1.77681100 1.44820400 -0.19410800
v -1.77326600 1.49428100 -0.00221600
v -1.76599500 1.49428200 0.39125700
v -1.76963000 1.50976700 0.19452100
v -1.97528800 -1.10713900 0.19832100
v -1.97136000 -1.09040600 0.41088800
v -1.97921600 -1.09040600 -0.01424700
v -1.96752900 -1.04062200 0.61822200
v -1.98304700 -1.04062200 -0.22158200
v -1.96389000 -0.95901000 0.81521600
v -1.98668700 -0.95901000 -0.41857500
v -1.96053000 -0.84758100 0.99702100
v -1.99004700 -0.84758100 -0.60038000
v -1.95753500 -0.70907900 1.15915800
v -1.99304200 -0.70907900 -0.76251800
v -1.95497600 -0.54691300 1.29763700
v -1.99560100 -0.54691300 -0.90099500
v -1.95291700 -0.36507800 1.40904700
v -1.99765900 -0.36507800 -1.01240600
v -1.95140900 -0.16805000 1.49064500
v -1.99916600 -0.16805000 -1.09400300
v -2.00008700 0.03931900 -1.14378000
v -1.95049000 0.03932000 1.54042100
v -1.95049000 0.03932000 1.54042100
v -1.95018100 0.25192400 1.55715000
v -2.00039600 0.25192400 -1.16051100
v -1.95049000 0.46452800 1.54042100
v -2.00008700 0.46452800 -1.14378000
v -1.95140900 0.67189700 1.49064500
v -1.99916600 0.67189700 -1.09400300
v -1.95291700 0.86892500 1.40904700
v -1.99765900 0.86892500 -1.01240600
v -1.99560100 1.05076000 -0.90099500
v -1.95497600 1.05076100 1.29763700
v -1.95753500 1.21292600 1.15915800
v -1.99304200 1.21292600 -0.76251800
v -1.99004700 1.35142800 -0.60038000
v -1.96053000 1.35142900 0.99702100
v -1.98668700 1.46285600 -0.41857500
v -1.96389000 1.46285700 0.81521600
v -1.98304700 1.54446800 -0.22158200
v -1.96752900 1.54446900 0.61822200
v -1.97136000 1.59425400 0.41088700
v -1.97921600 1.59425400 -0.01424800
vn 0.68980000 -0.72390000 -0.01270000
vn 0.69180000 -0.71500000 0.10050000
vn 0.68770000 -0.71500000 -0.12600000
vn 0.69390000 -0.68850000 0.21090000
vn 0.68560000 -0.68850000 -0.23640000
vn 0.69580000 -0.64500000 0.31590000
vn 0.68370000 -0.64500000 -0.34130000
vn 0.69760000 -0.58570000 0.41270000
vn 0.68190000 -0.58570000 -0.43820000
vn 0.69920000 -0.51190000 0.49910000
vn 0.68030000 -0.51190000 -0.52460000
vn 0.99980000 -0.00000000 -0.01850000
vn 0.99980000 -0.00000000 -0.01850000
vn 0.99980000 -0.00000000 -0.01850000
vn 0.70060000 -0.42550000 0.57280000
vn 0.67890000 -0.42550000 -0.59830000
vn 0.99980000 -0.00000000 -0.01850000
vn 0.99980000 -0.00000000 -0.01850000
vn 0.99980000 -0.00000000 -0.01850000
vn 0.99980000 -0.00000000 -0.01850000
vn 0.99980000 -0.00000000 -0.01850000
vn 0.99980000 -0.00000000 -0.01850000
vn 0.70170000 -0.32870000 0.63220000
vn 0.67780000 -0.32870000 -0.65770000
vn 0.99980000 -0.00000000 -0.01850000
vn 0.99980000 -0.00000000 -0.01850000
vn 0.99980000 -0.00000000 -0.01850000
vn 0.99980000 -0.00000000 -0.01850000
vn 0.70250000 -0.22370000 0.67560000
vn 0.67700000 -0.22370000 -0.70110000
vn 0.99980000 -0.00000000 -0.01850000
vn 0.99980000 -0.00000000 -0.01850000
vn 0.99980000 -0.00000000 -0.01850000
vn 0.99980000 -0.00000000 -0.01850000
vn 0.70300000 -0.11320000 0.70220000
vn 0.67650000 -0.11320000 -0.72760000
vn 0.99980000 -0.00000000 -0.01850000
vn 0.99980000 -0.00000000 -0.01850000
vn 0.70200000 -0.05690000 0.70990000
vn 0.70200000 0.05690000 0.70990000
vn 0.99980000 -0.00000000 -0.01850000
vn 0.99980000 -0.00000000 -0.01850000
vn 0.99980000 -0.00000000 -0.01850000
vn 0.67640000 -0.00000000 -0.73660000
vn 0.99980000 -0.00000000 -0.01850000
vn 0.99980000 -0.00000000 -0.01850000
vn 0.70300000 0.11320000 0.70220000
vn 0.67650000 0.11320000 -0.72760000
vn 0.99980000 -0.00000000 -0.01850000
vn 0.99980000 -0.00000000 -0.01850000
vn 0.99980000 -0.00000000 -0.01850000
vn 0.99980000 -0.00000000 -0.01850000
vn 0.70250000 0.22370000 0.67560000
vn 0.67700000 0.22370000 -0.70110000
vn 0.99980000 -0.00000000 -0.01850000
vn 0.99980000 -0.00000000 -0.01850000
vn 0.99980000 -0.00000000 -0.01850000
vn 0.99980000 -0.00000000 -0.01850000
vn 0.70170000 0.32870000 0.63220000
vn 0.67780000 0.32870000 -0.65770000
vn 0.99980000 -0.00000000 -0.01850000
vn 0.99980000 -0.00000000 -0.01850000
vn 0.99980000 -0.00000000 -0.01850000
vn 0.99980000 -0.00000000 -0.01850000
vn 0.99980000 -0.00000000 -0.01850000
vn 0.99980000 -0.00000000 -0.01850000
vn 0.70060000 0.42550000 0.57280000
vn 0.67890000 0.42550000 -0.59830000
vn 0.99980000 -0.00000000 -0.01850000
vn 0.99980000 -0.00000000 -0.01850000
vn 0.99980000 -0.00000000 -0.01850000
vn 0.69920000 0.51190000 0.49910000
vn 0.68030000 0.51190000 -0.52460000
vn 0.69760000 0.58570000 0.41270000
vn 0.68190000 0.58570000 -0.43820000
vn 0.69580000 0.64500000 0.31590000
vn 0.68370000 0.64500000 -0.34130000
vn 0.69390000 0.68850000 0.21090000
vn 0.68560000 0.68850000 -0.23640000
vn 0.69180000 0.71500000 0.10050000
vn 0.68770000 0.71500000 -0.12600000
vn 0.68980000 0.72390000 -0.01270000
vn -0.00000000 -1.00000000 -0.00000000
vn 0.00290000 -0.98770000 0.15640000
vn -0.00290000 -0.98770000 -0.15640000
vn 0.00570000 -0.95110000 0.30900000
vn -0.00570000 -0.95110000 -0.30900000
vn 0.00840000 -0.89100000 0.45390000
vn -0.00840000 -0.89100000 -0.45390000
vn 0.01090000 -0.80900000 0.58770000
vn -0.01090000 -0.80900000 -0.58770000
vn 0.01310000 -0.70710000 0.70700000
vn -0.01310000 -0.70710000 -0.70700000
vn 0.01490000 -0.58780000 0.80890000
vn -0.01490000 -0.58780000 -0.80890000
vn 0.01650000 -0.45400000 0.89090000
vn -0.01650000 -0.45400000 -0.89090000
vn 0.01760000 -0.30900000 0.95090000
vn -0.01760000 -0.30900000 -0.95090000
vn 0.01820000 -0.15640000 0.98750000
vn -0.01820000 -0.15640000 -0.98750000
vn 0.01840000 -0.07850000 0.99670000
vn 0.01840000 0.07850000 0.99670000
vn -0.01850000 -0.00000000 -0.99980000
vn 0.01820000 0.15640000 0.98750000
vn -0.01820000 0.15640000 -0.98750000
vn 0.01760000 0.30900000 0.95090000
vn -0.01760000 0.30900000 -0.95090000
vn 0.01650000 0.45400000 0.89090000
vn -0.01650000 0.45400000 -0.89090000
vn 0.01490000 0.58780000 0.80890000
vn -0.01490000 0.58780000 -0.80890000
vn 0.01310000 0.70710000 0.70700000
vn -0.01310000 0.70710000 -0.70700000
vn 0.01090000 0.80900000 0.58770000
vn -0.01090000 0.80900000 -0.58770000
vn 0.00840000 0.89100000 0.45390000
vn -0.00840000 0.89100000 -0.45390000
vn 0.00570000 0.95110000 0.30900000
vn -0.00570000 0.95110000 -0.30900000
vn 0.00290000 0.98770000 0.15640000
vn -0.00290000 0.98770000 -0.15640000
vn -0.00000000 1.00000000 -0.00000000
vn -0.00000000 -1.00000000 -0.00000000
vn 0.00290000 -0.98770000 0.15640000
vn -0.00290000 -0.98770000 -0.15640000
vn 0.00570000 -0.95110000 0.30900000
vn -0.00570000 -0.95110000 -0.30900000
vn -0.00840000 -0.89100000 -0.45390000
vn 0.00840000 -0.89100000 0.45390000
vn 0.01090000 -0.80900000 0.58770000
vn -0.01090000 -0.80900000 -0.58770000
vn 0.01310000 -0.70710000 0.70700000
vn -0.01310000 -0.70710000 -0.70700000
vn 0.01490000 -0.58780000 0.80890000
vn -0.01490000 -0.58780000 -0.80890000
vn 0.01650000 -0.45400000 0.89090000
vn -0.01650000 -0.45400000 -0.89090000
vn 0.01760000 -0.30900000 0.95090000
vn -0.01760000 -0.30900000 -0.95090000
vn 0.01800000 -0.23340000 0.97220000
vn 0.01840000 -0.07850000 0.99670000
vn -0.01820000 -0.15640000 -0.98750000
vn 0.01850000 -0.00000000 0.99980000
vn -0.01850000 -0.00000000 -0.99980000
vn -0.01820000 0.15640000 -0.98750000
vn 0.01820000 0.15640000 0.98750000
vn -0.01760000 0.30900000 -0.95090000
vn 0.01760000 0.30900000 0.95090000
vn -0.01650000 0.45400000 -0.89090000
vn 0.01650000 0.45400000 0.89090000
vn -0.01490000 0.58780000 -0.80890000
vn 0.01490000 0.58780000 0.80890000
vn 0.01310000 0.70710000 0.70700000
vn -0.01310000 0.70710000 -0.70700000
vn -0.01090000 0.80900000 -0.58770000
vn 0.01090000 0.80900000 0.58770000
vn -0.00840000 0.89100000 -0.45390000
vn 0.00840000 0.89100000 0.45390000
vn 0.00570000 0.95110000 0.30900000
vn -0.00570000 0.95110000 -0.30900000
vn -0.00290000 0.98770000 -0.15640000
vn 0.00290000 0.98770000 0.15640000
vn -0.00000000 1.00000000 -0.00000000
vn 0.00840000 -0.89100000 0.45390000
vn 0.01090000 -0.80900000 0.58770000
vn 0.01310000 -0.70710000 0.70700000
vn 0.01490000 -0.58780000 0.80890000
vn 0.01650000 -0.45400000 0.89090000
vn 0.01760000 -0.30900000 0.95090000
vn 0.01800000 -0.23340000 0.97220000
vn 0.01840000 -0.07850000 0.99670000
vn 0.01850000 -0.00000000 0.99980000
vn 0.01820000 0.15640000 0.98750000
vn 0.01760000 0.30900000 0.95090000
vn 0.01650000 0.45400000 0.89090000
vn 0.01490000 0.58780000 0.80890000
vn 0.01310000 0.70710000 0.70700000
vn 0.01090000 0.80900000 0.58770000
vn 0.00840000 0.89100000 0.45390000
vn -0.00000000 -1.00000000 -0.00000000
vn 0.00290000 -0.98770000 0.15640000
vn -0.00290000 -0.98770000 -0.15640000
vn 0.00570000 -0.95110000 0.30900000
vn -0.00570000 -0.95110000 -0.30900000
vn -0.00840000 -0.89100000 -0.45390000
vn -0.01090000 -0.80900000 -0.58770000
vn -0.01310000 -0.70710000 -0.70700000
vn -0.01490000 -0.58780000 -0.80890000
vn -0.01650000 -0.45400000 -0.89090000
vn -0.01760000 -0.30900000 -0.95090000
vn -0.01820000 -0.15640000 -0.98750000
vn -0.01850000 -0.00000000 -0.99980000
vn -0.01820000 0.15640000 -0.98750000
vn -0.01760000 0.30900000 -0.95090000
vn -0.01650000 0.45400000 -0.89090000
vn -0.01490000 0.58780000 -0.80890000
vn -0.01310000 0.70710000 -0.70700000
vn -0.01090000 0.80900000 -0.58770000
vn -0.00840000 0.89100000 -0.45390000
vn 0.00570000 0.95110000 0.30900000
vn -0.00570000 0.95110000 -0.30900000
vn -0.00290000 0.98770000 -0.15640000
vn 0.00290000 0.98770000 0.15640000
vn -0.00000000 1.00000000 -0.00000000
vn -0.00000000 -1.00000000 -0.00000000
vn 0.00290000 -0.98770000 0.15640000
vn -0.00290000 -0.98770000 -0.15640000
vn 0.00570000 -0.95110000 0.30900000
vn -0.00570000 -0.95110000 -0.30900000
vn -0.00840000 -0.89100000 -0.45390000
vn 0.00840000 -0.89100000 0.45390000
vn 0.01090000 -0.80900000 0.58770000
vn -0.01090000 -0.80900000 -0.58770000
vn 0.01310000 -0.70710000 0.70700000
vn -0.01310000 -0.70710000 -0.70700000
vn 0.01490000 -0.58780000 0.80890000
vn -0.01490000 -0.58780000 -0.80890000
vn -0.01650000 -0.45400000 -0.89090000
vn 0.01650000 -0.45400000 0.89090000
vn -0.01760000 -0.30900000 -0.95090000
vn 0.01760000 -0.30900000 0.95090000
vn -0.01820000 -0.15640000 -0.98750000
vn 0.01800000 -0.23350000 0.97220000
vn 0.01840000 -0.07850000 0.99670000
vn 0.01850000 -0.00000000 0.99980000
vn -0.01850000 -0.00000000 -0.99980000
vn -0.01820000 0.15640000 -0.98750000
vn 0.01820000 0.15640000 0.98750000
vn -0.01760000 0.30900000 -0.95090000
vn 0.01760000 0.30900000 0.95090000
vn -0.01650000 0.45400000 -0.89090000
vn 0.01650000 0.45400000 0.89090000
vn -0.01490000 0.58780000 -0.80890000
vn 0.01490000 0.58780000 0.80890000
vn 0.01310000 0.70710000 0.70700000
vn -0.01310000 0.70710000 -0.70700000
vn -0.01090000 0.80900000 -0.58770000
vn 0.01090000 0.80900000 0.58770000
vn -0.00840000 0.89100000 -0.45390000
vn 0.00840000 0.89100000 0.45390000
vn 0.00570000 0.95110000 0.30900000
vn -0.00570000 0.95110000 -0.30900000
vn -0.00290000 0.98770000 -0.15640000
vn 0.00290000 0.98770000 0.15640000
vn -0.00000000 1.00000000 -0.00000000
vn -0.00000000 -1.00000000 -0.00000000
vn 0.00290000 -0.98770000 0.15640000
vn -0.00290000 -0.98770000 -0.15640000
vn 0.00570000 -0.95110000 0.30900000
vn -0.00570000 -0.95110000 -0.30900000
vn -0.00840000 -0.89100000 -0.45390000
vn 0.00840000 -0.89100000 0.45390000
vn 0.01090000 -0.80900000 0.58770000
vn -0.01090000 -0.80900000 -0.58770000
vn 0.01310000 -0.70710000 0.70700000
vn -0.01310000 -0.70710000 -0.70700000
vn 0.01490000 -0.58780000 0.80890000
vn -0.01490000 -0.58780000 -0.80890000
vn -0.01650000 -0.45400000 -0.89090000
vn 0.01650000 -0.45400000 0.89090000
vn -0.01760000 -0.30900000 -0.95090000
vn 0.01760000 -0.30900000 0.95090000
vn -0.01820000 -0.15640000 -0.98750000
vn 0.01800000 -0.23340000 0.97220000
vn 0.01840000 -0.07850000 0.99670000
vn 0.01850000 -0.00000000 0.99980000
vn -0.01850000 -0.00000000 -0.99980000
vn -0.01820000 0.15640000 -0.98750000
vn 0.01820000 0.15640000 0.98750000
vn -0.01760000 0.30900000 -0.95090000
vn 0.01760000 0.30900000 0.95090000
vn -0.01650000 0.45400000 -0.89090000
vn 0.01650000 0.45400000 0.89090000
vn -0.01490000 0.58780000 -0.80890000
vn 0.01490000 0.58780000 0.80890000
vn 0.01310000 0.70710000 0.70700000
vn -0.01310000 0.70710000 -0.70700000
vn -0.01090000 0.80900000 -0.58770000
vn 0.01090000 0.80900000 0.58770000
vn -0.00840000 0.89100000 -0.45390000
vn 0.00840000 0.89100000 0.45390000
vn 0.00570000 0.95110000 0.30900000
vn -0.00570000 0.95110000 -0.30900000
vn -0.00290000 0.98770000 -0.15640000
vn 0.00290000 0.98770000 0.15640000
vn -0.00000000 1.00000000 -0.00000000
vn -0.99980000 -0.00000000 0.01850000
vn -0.99980000 -0.00000000 0.01850000
vn -0.99980000 -0.00000000 0.01850000
vn -0.99980000 -0.00000000 0.01850000
vn -0.99980000 -0.00000000 0.01850000
vn -0.99980000 -0.00000000 0.01850000
vn -0.99980000 -0.00000000 0.01850000
vn -0.99980000 -0.00000000 0.01850000
vn -0.99980000 -0.00000000 0.01850000
vn -0.99980000 -0.00000000 0.01850000
vn -0.99980000 -0.00000000 0.01850000
vn -0.99980000 -0.00000000 0.01850000
vn -0.99980000 -0.00000000 0.01850000
vn -0.99980000 -0.00000000 0.01850000
vn -0.99980000 -0.00000000 0.01850000
vn -0.99980000 -0.00000000 0.01850000
vn -0.99980000 -0.00000000 0.01850000
vn -0.99980000 -0.00000000 0.01850000
vn -0.99980000 -0.00000000 0.01850000
vn -0.99980000 -0.00000000 0.01850000
vn -0.99980000 -0.00000000 0.01850000
vn -0.99980000 -0.00000000 0.01850000
vn -0.99980000 -0.00000000 0.01850000
vn -0.99980000 -0.00000000 0.01850000
vn -0.99980000 -0.00000000 0.01850000
vn -0.99980000 -0.00000000 0.01850000
vn -0.99980000 -0.00000000 0.01850000
vn -0.99980000 -0.00000000 0.01850000
vn -0.99980000 -0.00000000 0.01850000
vn -0.99980000 -0.00000000 0.01850000
vn -0.99980000 -0.00000000 0.01850000
vn -0.99980000 -0.00000000 0.01850000
vn -0.99980000 -0.00000000 0.01850000
vn -0.99980000 -0.00000000 0.01850000
vn -0.99980000 -0.00000000 0.01850000
vn -0.99980000 -0.00000000 0.01850000
vn -0.99980000 -0.00000000 0.01850000
vn -0.99980000 -0.00000000 0.01850000
vn -0.99980000 -0.00000000 0.01850000
vn -0.99980000 -0.00000000 0.01850000
vn -0.99980000 -0.00000000 0.01850000
vn -0.00000000 -1.00000000 -0.00000000
vn 0.00290000 -0.98770000 0.15640000
vn -0.00290000 -0.98770000 -0.15640000
vn 0.00570000 -0.95110000 0.30900000
vn -0.00570000 -0.95110000 -0.30900000
vn -0.00840000 -0.89100000 -0.45390000
vn 0.00840000 -0.89100000 0.45390000
vn 0.01090000 -0.80900000 0.58770000
vn -0.01090000 -0.80900000 -0.58770000
vn 0.01310000 -0.70710000 0.70700000
vn -0.01310000 -0.70710000 -0.70700000
vn 0.01490000 -0.58780000 0.80890000
vn -0.01490000 -0.58780000 -0.80890000
vn -0.01650000 -0.45400000 -0.89090000
vn 0.01650000 -0.45400000 0.89090000
vn -0.01760000 -0.30900000 -0.95090000
vn 0.01760000 -0.30900000 0.95090000
vn -0.01820000 -0.15640000 -0.98750000
vn 0.01800000 -0.23340000 0.97220000
vn 0.01840000 -0.07850000 0.99670000
vn 0.01850000 -0.00000000 0.99980000
vn -0.01850000 -0.00000000 -0.99980000
vn -0.01820000 0.15640000 -0.98750000
vn 0.01820000 0.15640000 0.98750000
vn -0.01760000 0.30900000 -0.95090000
vn 0.01760000 0.30900000 0.95090000
vn -0.01650000 0.45400000 -0.89090000
vn 0.01650000 0.45400000 0.89090000
vn -0.01490000 0.58780000 -0.80890000
vn 0.01490000 0.58780000 0.80890000
vn 0.01310000 0.70710000 0.70700000
vn -0.01310000 0.70710000 -0.70700000
vn -0.01090000 0.80900000 -0.58770000
vn 0.01090000 0.80900000 0.58770000
vn -0.00840000 0.89100000 -0.45390000
vn 0.00840000 0.89100000 0.45390000
vn 0.00570000 0.95110000 0.30900000
vn -0.00570000 0.95110000 -0.30900000
vn -0.00290000 0.98770000 -0.15640000
vn 0.00290000 0.98770000 0.15640000
vn -0.00000000 1.00000000 -0.00000000
vn 0.22920000 -0.97340000 -0.00420000
vn 0.23200000 -0.96140000 0.14800000
vn 0.22630000 -0.96140000 -0.15650000
vn 0.23470000 -0.92570000 0.29650000
vn 0.22360000 -0.92570000 -0.30500000
vn 0.22100000 -0.86730000 -0.44610000
vn 0.23730000 -0.86730000 0.43760000
vn 0.23970000 -0.78750000 0.56780000
vn 0.21860000 -0.78750000 -0.57630000
vn 0.24190000 -0.68830000 0.68390000
vn 0.21640000 -0.68830000 -0.69240000
vn 0.24370000 -0.57210000 0.78310000
vn 0.21460000 -0.57210000 -0.79160000
vn 0.21310000 -0.44190000 -0.87140000
vn 0.24520000 -0.44190000 0.86290000
vn 0.21210000 -0.30080000 -0.92980000
vn 0.24630000 -0.30080000 0.92130000
vn 0.21140000 -0.15230000 -0.96550000
vn 0.24600000 -0.22730000 0.94230000
vn 0.24640000 -0.07640000 0.96610000
vn 0.24710000 -0.00000000 0.96900000
vn 0.21120000 -0.00000000 -0.97740000
vn 0.21140000 0.15230000 -0.96550000
vn 0.24690000 0.15230000 0.95700000
vn 0.21210000 0.30080000 -0.92980000
vn 0.24630000 0.30080000 0.92130000
vn 0.21310000 0.44190000 -0.87140000
vn 0.24520000 0.44190000 0.86290000
vn 0.21460000 0.57210000 -0.79160000
vn 0.24370000 0.57210000 0.78310000
vn 0.24190000 0.68830000 0.68390000
vn 0.21640000 0.68830000 -0.69240000
vn 0.21860000 0.78750000 -0.57630000
vn 0.23970000 0.78750000 0.56780000
vn 0.22100000 0.86730000 -0.44610000
vn 0.23730000 0.86730000 0.43760000
vn 0.23470000 0.92570000 0.29650000
vn 0.22360000 0.92570000 -0.30500000
vn 0.14960000 0.97200000 -0.18150000
vn 0.15620000 0.97200000 0.17580000
vn -0.00000000 1.00000000 -0.00000000
vn 0.44140000 -0.89730000 -0.00820000
vn 0.44400000 -0.88620000 0.13220000
vn 0.43890000 -0.88620000 -0.14850000
vn 0.44660000 -0.85330000 0.26910000
vn 0.43630000 -0.85330000 -0.28540000
vn 0.44900000 -0.79950000 0.39910000
vn 0.43390000 -0.79950000 -0.41540000
vn 0.45120000 -0.72590000 0.51910000
vn 0.43170000 -0.72590000 -0.53550000
vn 0.45320000 -0.63450000 0.62620000
vn 0.42970000 -0.63440000 -0.64250000
vn 0.45490000 -0.52740000 0.71760000
vn 0.42800000 -0.52740000 -0.73390000
vn 0.45620000 -0.40730000 0.79120000
vn 0.42670000 -0.40730000 -0.80750000
vn 0.45720000 -0.27730000 0.84500000
vn 0.42570000 -0.27730000 -0.86130000
vn 0.42510000 -0.14040000 -0.89420000
vn 0.45650000 -0.20960000 0.86470000
vn 0.45690000 -0.07040000 0.88670000
vn 0.45800000 -0.00000000 0.88890000
vn 0.42490000 -0.00000000 -0.90530000
vn 0.45780000 0.14040000 0.87790000
vn 0.42510000 0.14040000 -0.89420000
vn 0.45720000 0.27730000 0.84500000
vn 0.42570000 0.27730000 -0.86130000
vn 0.45620000 0.40730000 0.79120000
vn 0.42670000 0.40730000 -0.80750000
vn 0.42800000 0.52740000 -0.73390000
vn 0.45490000 0.52740000 0.71760000
vn 0.45320000 0.63450000 0.62620000
vn 0.42970000 0.63440000 -0.64250000
vn 0.43170000 0.72590000 -0.53550000
vn 0.45120000 0.72590000 0.51910000
vn 0.43390000 0.79950000 -0.41540000
vn 0.44900000 0.79950000 0.39910000
vn 0.43630000 0.85330000 -0.28540000
vn 0.44660000 0.85330000 0.26910000
vn 0.44420000 0.87300000 0.20140000
vn 0.43650000 0.87300000 -0.21770000
vt 0.00003200 1.00000000
vt -0.04996800 1.00000000
vt 0.05003200 1.00000000
vt -0.09996800 1.00000000
vt 0.10003200 1.00000000
vt -0.14996800 1.00000000
vt 0.15003200 1.00000000
vt -0.19996800 1.00000000
vt 0.20003200 1.00000000
vt -0.24996800 1.00000000
vt 0.25003200 1.00000000
vt 0.00003200 1.00000000
vt -0.04996800 1.00000000
vt 0.05003200 1.00000000
vt -0.29996800 1.00000000
vt 0.30003200 1.00000000
vt -0.09996800 1.00000000
vt 0.10003200 1.00000000
vt -0.14996800 1.00000000
vt 0.15003200 1.00000000
vt -0.19996800 1.00000000
vt 0.20003200 1.00000000
vt -0.34996800 1.00000000
vt 0.35003200 1.00000000
vt -0.24996800 1.00000000
vt 0.25003200 1.00000000
vt -0.29996800 1.00000000
vt 0.30003200 1.00000000
vt -0.39996800 1.00000000
vt 0.40003200 1.00000000
vt -0.34996800 1.00000000
vt 0.35003200 1.00000000
vt -0.39996800 1.00000000
vt 0.40003200 1.00000000
vt -0.44996800 1.00000000
vt 0.45003200 1.00000000
vt -0.44996800 1.00000000
vt 0.45003200 1.00000000
vt -0.49996800 1.00000000
vt 1.50003200 1.00000000
vt -0.49996800 1.00000000
vt 1.50003200 1.00000000
vt 0.50003200 1.00000000
vt 0.50003200 1.00000000
vt 1.45003200 1.00000000
vt 0.55003200 1.00000000
vt 1.45003200 1.00000000
vt 0.55003200 1.00000000
vt 1.40003200 1.00000000
vt 0.60003200 1.00000000
vt 1.35003200 1.00000000
vt 0.65003200 1.00000000
vt 1.40003200 1.00000000
vt 0.60003200 1.00000000
vt 1.30003200 1.00000000
vt 0.70003200 1.00000000
vt 1.25003200 1.00000000
vt 0.75003200 1.00000000
vt 1.35003200 1.00000000
vt 0.65003200 1.00000000
vt 1.20003200 1.00000000
vt 0.80003200 1.00000000
vt 1.15003200 1.00000000
vt 0.85003200 1.00000000
vt 1.10003200 1.00000000
vt 0.90003200 1.00000000
vt 1.30003200 1.00000000
vt 0.70003200 1.00000000
vt 1.05003200 1.00000000
vt 0.95003200 1.00000000
vt 1.00003200 1.00000000
vt 1.25003200 1.00000000
vt 0.75003200 1.00000000
vt 1.20003200 1.00000000
vt 0.80003200 1.00000000
vt 1.15003200 1.00000000
vt 0.85003200 1.00000000
vt 1.10003200 1.00000000
vt 0.90003200 1.00000000
vt 1.05003200 1.00000000
vt 0.95003200 1.00000000
vt 1.00003200 1.00000000
vt 0.00003200 0.00000000
vt -0.04996800 0.00000000
vt 0.05003200 0.00000000
vt -0.09996800 0.00000000
vt 0.10003200 0.00000000
vt -0.14996800 0.00000000
vt 0.15003200 0.00000000
vt -0.19996800 0.00000000
vt 0.20003200 0.00000000
vt -0.24996800 0.00000000
vt 0.25003200 0.00000000
vt -0.29996800 0.00000000
vt 0.30003200 0.00000000
vt -0.34996800 0.00000000
vt 0.35003200 0.00000000
vt -0.39996800 0.00000000
vt 0.40003200 0.00000000
vt -0.44996800 0.00000000
vt 0.45003200 0.00000000
vt -0.49996800 0.00000000
vt 1.50003200 0.00000000
vt 0.50003200 0.00000000
vt 1.45003200 0.00000000
vt 0.55003200 0.00000000
vt 1.40003200 0.00000000
vt 0.60003200 0.00000000
vt 1.35003200 0.00000000
vt 0.65003200 0.00000000
vt 1.30003200 0.00000000
vt 0.70003200 0.00000000
vt 1.25003200 0.00000000
vt 0.75003200 0.00000000
vt 1.20003200 0.00000000
vt 0.80003200 0.00000000
vt 1.15003200 0.00000000
vt 0.85003200 0.00000000
vt 1.10003200 0.00000000
vt 0.90003200 0.00000000
vt 1.05003200 0.00000000
vt 0.95003200 0.00000000
vt 1.00003200 0.00000000
vt 0.00003200 1.00000000
vt -0.05030100 1.00000000
vt 0.05036500 1.00000000
vt -0.10062600 1.00000000
vt 0.10069000 1.00000000
vt 0.15099900 1.00000000
vt -0.15093500 1.00000000
vt -0.20121900 1.00000000
vt 0.20128300 1.00000000
vt -0.25147200 1.00000000
vt 0.25153600 1.00000000
vt -0.30168800 1.00000000
vt 0.30175100 1.00000000
vt -0.35186000 1.00000000
vt 0.35192400 1.00000000
vt -0.40198600 1.00000000
vt 0.40204900 1.00000000
vt -0.45206100 1.00000000
vt 1.54793900 1.00000000
vt 0.45212500 1.00000000
vt 1.49791500 1.00000000
vt 0.50214900 1.00000000
vt 0.55212100 1.00000000
vt 1.44794300 1.00000000
vt 0.60204100 1.00000000
vt 1.39802200 1.00000000
vt 0.65191200 1.00000000
vt 1.34815100 1.00000000
vt 0.70173800 1.00000000
vt 1.29832600 1.00000000
vt 1.24854200 1.00000000
vt 0.75152200 1.00000000
vt 0.80126900 1.00000000
vt 1.19879400 1.00000000
vt 0.85098700 1.00000000
vt 1.14907600 1.00000000
vt 1.09938100 1.00000000
vt 0.90068200 1.00000000
vt 0.95036100 1.00000000
vt 1.04970300 1.00000000
vt 1.00003200 1.00000000
vt -0.15093500 0.83333300
vt -0.20121900 0.83333300
vt -0.25147200 0.83333300
vt -0.30168800 0.83333300
vt -0.35186000 0.83333300
vt -0.40198600 0.83333300
vt -0.45206100 0.83333300
vt 1.54793900 0.83333300
vt 1.49791500 0.83333300
vt 1.44794300 0.83333300
vt 1.39802200 0.83333300
vt 1.34815100 0.83333300
vt 1.29832600 0.83333300
vt 1.24854200 0.83333300
vt 1.19879400 0.83333300
vt 1.14907600 0.83333300
vt 0.00003200 0.83333300
vt -0.05030100 0.83333300
vt 0.05036500 0.83333300
vt -0.10062600 0.83333300
vt 0.10069000 0.83333300
vt 0.15099900 0.83333300
vt 0.20128300 0.83333300
vt 0.25153600 0.83333300
vt 0.30175100 0.83333300
vt 0.35192400 0.83333300
vt 0.40204900 0.83333300
vt 0.45212500 0.83333300
vt 0.50214900 0.83333300
vt 0.55212100 0.83333300
vt 0.60204100 0.83333300
vt 0.65191200 0.83333300
vt 0.70173800 0.83333300
vt 0.75152200 0.83333300
vt 0.80126900 0.83333300
vt 0.85098700 0.83333300
vt 1.09938100 0.83333300
vt 0.90068200 0.83333300
vt 0.95036100 0.83333300
vt 1.04970300 0.83333300
vt 1.00003200 0.83333300
vt 0.00003200 0.66666700
vt -0.05030100 0.66666700
vt 0.05036500 0.66666700
vt -0.10062600 0.66666700
vt 0.10069000 0.66666700
vt 0.15099900 0.66666700
vt -0.15093500 0.66666700
vt -0.20121900 0.66666700
vt 0.20128300 0.66666700
vt -0.25147200 0.66666700
vt 0.25153600 0.66666700
vt -0.30168800 0.66666700
vt 0.30175100 0.66666700
vt 0.35192400 0.66666700
vt -0.35186000 0.66666700
vt 0.40204900 0.66666700
vt -0.40198600 0.66666700
vt 0.45212500 0.66666700
vt -0.45206100 0.66666700
vt 1.54793900 0.66666700
vt 1.49791500 0.66666700
vt 0.50214900 0.66666700
vt 0.55212100 0.66666700
vt 1.44794300 0.66666700
vt 0.60204100 0.66666700
vt 1.39802200 0.66666700
vt 0.65191200 0.66666700
vt 1.34815100 0.66666700
vt 0.70173800 0.66666700
vt 1.29832600 0.66666700
vt 1.24854200 0.66666700
vt 0.75152200 0.66666700
vt 0.80126900 0.66666700
vt 1.19879400 0.66666700
vt 0.85098700 0.66666700
vt 1.14907600 0.66666700
vt 1.09938100 0.66666700
vt 0.90068200 0.66666700
vt 0.95036100 0.66666700
vt 1.04970300 0.66666700
vt 1.00003200 0.66666700
vt 0.00003200 0.50000000
vt -0.05030100 0.50000000
vt 0.05036500 0.50000000
vt -0.10062600 0.50000000
vt 0.10069000 0.50000000
vt 0.15099900 0.50000000
vt -0.15093500 0.50000000
vt -0.20121900 0.50000000
vt 0.20128300 0.50000000
vt -0.25147200 0.50000000
vt 0.25153600 0.50000000
vt -0.30168800 0.50000000
vt 0.30175100 0.50000000
vt 0.35192400 0.50000000
vt -0.35186000 0.50000000
vt 0.40204900 0.50000000
vt -0.40198600 0.50000000
vt 0.45212500 0.50000000
vt -0.45206100 0.50000000
vt 1.54793900 0.50000000
vt 1.49791500 0.50000000
vt 0.50214900 0.50000000
vt 0.55212100 0.50000000
vt 1.44794300 0.50000000
vt 0.60204100 0.50000000
vt 1.39802200 0.50000000
vt 0.65191200 0.50000000
vt 1.34815100 0.50000000
vt 0.70173800 0.50000000
vt 1.29832600 0.50000000
vt 1.24854200 0.50000000
vt 0.75152200 0.50000000
vt 0.80126900 0.50000000
vt 1.19879400 0.50000000
vt 0.85098700 0.50000000
vt 1.14907600 0.50000000
vt 1.09938100 0.50000000
vt 0.90068200 0.50000000
vt 0.95036100 0.50000000
vt 1.04970300 0.50000000
vt 1.00003200 0.50000000
vt 0.00003200 0.42142600
vt 1.94988300 0.42142600
vt 0.05018100 0.42142600
vt 1.89970900 0.42142600
vt 0.10035600 0.42142600
vt 1.84948700 0.42142600
vt 0.15057700 0.42142600
vt 1.79920400 0.42142600
vt 0.20086000 0.42142600
vt 1.74885200 0.42142600
vt 0.25121100 0.42142600
vt 1.69843700 0.42142600
vt 0.30162700 0.42142600
vt 1.64797300 0.42142600
vt 0.35209100 0.42142600
vt 0.40257900 0.42142600
vt 1.59748500 0.42142600
vt 1.54700600 0.42142600
vt 0.45305700 0.42142600
vt 1.49657600 0.42142600
vt 1.00000900 0.42142600
vt 0.50348700 0.42142600
vt 0.55383000 0.42142600
vt 1.44623300 0.42142600
vt 1.39601500 0.42142600
vt 0.60404900 0.42142600
vt 0.65411200 0.42142600
vt 1.34595100 0.42142600
vt 1.29606300 0.42142600
vt 0.70400000 0.42142600
vt 0.75370400 0.42142600
vt 1.24636000 0.42142600
vt 0.80322700 0.42142600
vt 1.19683600 0.42142600
vt 0.85258900 0.42142600
vt 1.14747500 0.42142600
vt 1.09824800 0.42142600
vt 0.90181600 0.42142600
vt 1.04911500 0.42142600
vt 0.95094800 0.42142600
vt 1.00000900 0.42142600
vt 0.00003200 0.33333300
vt -0.05030100 0.33333300
vt 0.05036500 0.33333300
vt -0.10062600 0.33333300
vt 0.10069000 0.33333300
vt 0.15099900 0.33333300
vt -0.15093500 0.33333300
vt -0.20121900 0.33333300
vt 0.20128300 0.33333300
vt -0.25147200 0.33333300
vt 0.25153600 0.33333300
vt -0.30168800 0.33333300
vt 0.30175100 0.33333300
vt 0.35192400 0.33333300
vt -0.35186000 0.33333300
vt 0.40204900 0.33333300
vt -0.40198600 0.33333300
vt 0.45212500 0.33333300
vt -0.45206100 0.33333300
vt 1.54793900 0.33333300
vt 1.49791500 0.33333300
vt 0.50214900 0.33333300
vt 0.55212100 0.33333300
vt 1.44794300 0.33333300
vt 0.60204100 0.33333300
vt 1.39802200 0.33333300
vt 0.65191200 0.33333300
vt 1.34815100 0.33333300
vt 0.70173800 0.33333300
vt 1.29832600 0.33333300
vt 1.24854200 0.33333300
vt 0.75152200 0.33333300
vt 0.80126900 0.33333300
vt 1.19879400 0.33333300
vt 0.85098700 0.33333300
vt 1.14907600 0.33333300
vt 1.09938100 0.33333300
vt 0.90068200 0.33333300
vt 0.95036100 0.33333300
vt 1.04970300 0.33333300
vt 1.00003200 0.33333300
vt 0.00003200 0.16666700
vt -0.05030100 0.16666700
vt 0.05036500 0.16666700
vt -0.10062600 0.16666700
vt 0.10069000 0.16666700
vt 0.15099900 0.16666700
vt -0.15093500 0.16666700
vt -0.20121900 0.16666700
vt 0.20128300 0.16666700
vt -0.25147200 0.16666700
vt 0.25153600 0.16666700
vt -0.30168800 0.16666700
vt 0.30175100 0.16666700
vt 0.35192400 0.16666700
vt -0.35186000 0.16666700
vt 0.40204900 0.16666700
vt -0.40198600 0.16666700
vt 0.45212500 0.16666700
vt -0.45206100 0.16666700
vt 1.54793900 0.16666700
vt 1.49791500 0.16666700
vt 0.50214900 0.16666700
vt 0.55212100 0.16666700
vt 1.44794300 0.16666700
vt 0.60204100 0.16666700
vt 1.39802200 0.16666700
vt 0.65191200 0.16666700
vt 1.34815100 0.16666700
vt 0.70173800 0.16666700
vt 1.29832600 0.16666700
vt 1.24854200 0.16666700
vt 0.75152200 0.16666700
vt 0.80126900 0.16666700
vt 1.19879400 0.16666700
vt 0.85098700 0.16666700
vt 1.14907600 0.16666700
vt 1.09938100 0.16666700
vt 0.90068200 0.16666700
vt 0.95036100 0.16666700
vt 1.04970300 0.16666700
vt 1.00003200 0.16666700
vt 0.00003200 0.00000000
vt -0.05027600 0.00000000
vt 0.05034000 0.00000000
vt -0.10057700 0.00000000
vt 0.10064100 0.00000000
vt -0.15086300 0.00000000
vt 0.15092600 0.00000000
vt -0.20112600 0.00000000
vt 0.20118900 0.00000000
vt -0.25136000 0.00000000
vt 0.25142300 0.00000000
vt -0.30155900 0.00000000
vt 0.30162300 0.00000000
vt -0.35171900 0.00000000
vt 0.35178200 0.00000000
vt -0.40183500 0.00000000
vt 0.40189900 0.00000000
vt 0.45196900 0.00000000
vt -0.45190500 0.00000000
vt 1.54809500 0.00000000
vt 1.49807200 0.00000000
vt 0.50199100 0.00000000
vt 1.44809800 0.00000000
vt 0.55196500 0.00000000
vt 1.39817200 0.00000000
vt 0.60189200 0.00000000
vt 1.34829100 0.00000000
vt 0.65177300 0.00000000
vt 0.70161100 0.00000000
vt 1.29845200 0.00000000
vt 1.24865200 0.00000000
vt 0.75141100 0.00000000
vt 0.80117800 0.00000000
vt 1.19888600 0.00000000
vt 0.85091700 0.00000000
vt 1.14914700 0.00000000
vt 0.90063400 0.00000000
vt 1.09943000 0.00000000
vt 1.04972700 0.00000000
vt 0.95033600 0.00000000
f 449/449/449 448/448/448 406/406/406
f 449/449/449 406/406/406 409/409/409
f 448/448/448 446/446/446 405/405/405
f 448/448/448 405/405/405 406/406/406
f 446/446/446 444/444/444 403/403/403
f 446/446/446 403/403/403 405/405/405
f 444/444/444 441/441/441 400/400/400
f 444/444/444 400/400/400 403/403/403
f 441/441/441 440/440/440 399/399/399
f 441/441/441 399/399/399 400/400/400
f 440/440/440 437/437/437 397/397/397
f 440/440/440 397/397/397 399/399/399
f 437/437/437 435/435/435 395/395/395
f 437/437/437 395/395/395 397/397/397
f 435/435/435 433/433/433 393/393/393
f 435/435/435 393/393/393 395/395/395
f 433/433/433 431/431/431 390/390/390
f 433/433/433 390/390/390 393/393/393
f 431/431/431 430/430/430 389/389/389
f 431/431/431 389/389/389 390/390/390
f 429/429/429 426/426/426 386/386/386
f 429/429/429 386/386/386 388/388/388
f 426/426/426 424/424/424 384/384/384
f 426/426/426 384/384/384 386/386/386
f 424/424/424 422/422/422 381/381/381
f 424/424/424 381/381/381 384/384/384
f 422/422/422 420/420/420 379/379/379
f 422/422/422 379/379/379 381/381/381
f 420/420/420 418/418/418 377/377/377
f 420/420/420 377/377/377 379/379/379
f 418/418/418 416/416/416 376/376/376
f 418/418/418 376/376/376 377/377/377
f 416/416/416 414/414/414 373/373/373
f 416/416/416 373/373/373 376/376/376
f 414/414/414 412/412/412 371/371/371
f 414/414/414 371/371/371 373/373/373
f 412/412/412 411/411/411 370/370/370
f 412/412/412 370/370/370 371/371/371
f 411/411/411 413/413/413 372/372/372
f 411/411/411 372/372/372 370/370/370
f 413/413/413 415/415/415 374/374/374
f 413/413/413 374/374/374 372/372/372
f 415/415/415 417/417/417 375/375/375
f 415/415/415 375/375/375 374/374/374
f 417/417/417 419/419/419 378/378/378
f 417/417/417 378/378/378 375/375/375
f 419/419/419 421/421/421 380/380/380
f 419/419/419 380/380/380 378/378/378
f 421/421/421 423/423/423 382/382/382
f 421/421/421 382/382/382 380/380/380
f 423/423/423 425/425/425 383/383/383
f 423/423/423 383/383/383 382/382/382
f 425/425/425 427/427/427 385/385/385
f 425/425/425 385/385/385 383/383/383
f 427/427/427 428/428/428 387/387/387
f 427/427/427 387/387/387 385/385/385
f 428/428/428 432/432/432 391/391/391
f 428/428/428 391/391/391 387/387/387
f 432/432/432 434/434/434 392/392/392
f 432/432/432 392/392/392 391/391/391
f 434/434/434 436/436/436 394/394/394
f 434/434/434 394/394/394 392/392/392
f 436/436/436 438/438/438 396/396/396
f 436/436/436 396/396/396 394/394/394
f 438/438/438 439/439/439 398/398/398
f 438/438/438 398/398/398 396/396/396
f 439/439/439 442/442/442 401/401/401
f 439/439/439 401/401/401 398/398/398
f 442/442/442 443/443/443 402/402/402
f 442/442/442 402/402/402 401/401/401
f 443/443/443 445/445/445 404/404/404
f 443/443/443 404/404/404 402/402/402
f 445/445/445 447/447/447 407/407/407
f 445/445/445 407/407/407 404/404/404
f 447/447/447 450/450/450 408/408/408
f 447/447/447 408/408/408 407/407/407
f 409/409/409 406/406/406 365/365/365
f 409/409/409 365/365/365 368/368/368
f 406/406/406 405/405/405 364/364/364
f 406/406/406 364/364/364 365/365/365
f 405/405/405 403/403/403 362/362/362
f 405/405/405 362/362/362 364/364/364
f 403/403/403 400/400/400 359/359/359
f 403/403/403 359/359/359 362/362/362
f 400/400/400 399/399/399 358/358/358
f 400/400/400 358/358/358 359/359/359
f 399/399/399 397/397/397 356/356/356
f 399/399/399 356/356/356 358/358/358
f 397/397/397 395/395/395 354/354/354
f 397/397/397 354/354/354 356/356/356
f 395/395/395 393/393/393 352/352/352
f 395/395/395 352/352/352 354/354/354
f 393/393/393 390/390/390 349/349/349
f 393/393/393 349/349/349 352/352/352
f 390/390/390 389/389/389 348/348/348
f 390/390/390 348/348/348 349/349/349
f 388/388/388 386/386/386 345/345/345
f 388/388/388 345/345/345 347/347/347
f 386/386/386 384/384/384 343/343/343
f 386/386/386 343/343/343 345/345/345
f 384/384/384 381/381/381 340/340/340
f 384/384/384 340/340/340 343/343/343
f 381/381/381 379/379/379 338/338/338
f 381/381/381 338/338/338 340/340/340
f 379/379/379 377/377/377 336/336/336
f 379/379/379 336/336/336 338/338/338
f 377/377/377 376/376/376 335/335/335
f 377/377/377 335/335/335 336/336/336
f 376/376/376 373/373/373 332/332/332
f 376/376/376 332/332/332 335/335/335
f 373/373/373 371/371/371 330/330/330
f 373/373/373 330/330/330 332/332/332
f 371/371/371 370/370/370 329/329/329
f 371/371/371 329/329/329 330/330/330
f 370/370/370 372/372/372 331/331/331
f 370/370/370 331/331/331 329/329/329
f 372/372/372 374/374/374 333/333/333
f 372/372/372 333/333/333 331/331/331
f 374/374/374 375/375/375 334/334/334
f 374/374/374 334/334/334 333/333/333
f 375/375/375 378/378/378 337/337/337
f 375/375/375 337/337/337 334/334/334
f 378/378/378 380/380/380 339/339/339
f 378/378/378 339/339/339 337/337/337
f 380/380/380 382/382/382 341/341/341
f 380/380/380 341/341/341 339/339/339
f 382/382/382 383/383/383 342/342/342
f 382/382/382 342/342/342 341/341/341
f 383/383/383 385/385/385 344/344/344
f 383/383/383 344/344/344 342/342/342
f 385/385/385 387/387/387 346/346/346
f 385/385/385 346/346/346 344/344/344
f 387/387/387 391/391/391 350/350/350
f 387/387/387 350/350/350 346/346/346
f 391/391/391 392/392/392 351/351/351
f 391/391/391 351/351/351 350/350/350
f 392/392/392 394/394/394 353/353/353
f 392/392/392 353/353/353 351/351/351
f 394/394/394 396/396/396 355/355/355
f 394/394/394 355/355/355 353/353/353
f 396/396/396 398/398/398 357/357/357
f 396/396/396 357/357/357 355/355/355
f 398/398/398 401/401/401 360/360/360
f 398/398/398 360/360/360 357/357/357
f 401/401/401 402/402/402 361/361/361
f 401/401/401 361/361/361 360/360/360
f 402/402/402 404/404/404 363/363/363
f 402/402/402 363/363/363 361/361/361
f 404/404/404 407/407/407 366/366/366
f 404/404/404 366/366/366 363/363/363
f 407/407/407 408/408/408 367/367/367
f 407/407/407 367/367/367 366/366/366
f 408/408/408 410/410/410 369/369/369
f 408/408/408 369/369/369 367/367/367
f 410/410/410 409/409/409 368/368/368
f 410/410/410 368/368/368 369/369/369
f 368/368/368 365/365/365 283/283/283
f 368/368/368 283/283/283 286/286/286
f 365/365/365 364/364/364 282/282/282
f 365/365/365 282/282/282 283/283/283
f 364/364/364 362/362/362 280/280/280
f 364/364/364 280/280/280 282/282/282
f 362/362/362 359/359/359 277/277/277
f 362/362/362 277/277/277 280/280/280
f 359/359/359 358/358/358 276/276/276
f 359/359/359 276/276/276 277/277/277
f 358/358/358 356/356/356 274/274/274
f 358/358/358 274/274/274 276/276/276
f 356/356/356 354/354/354 272/272/272
f 356/356/356 272/272/272 274/274/274
f 354/354/354 352/352/352 270/270/270
f 354/354/354 270/270/270 272/272/272
f 352/352/352 349/349/349 267/267/267
f 352/352/352 267/267/267 270/270/270
f 349/349/349 348/348/348 266/266/266
f 349/349/349 266/266/266 267/267/267
f 347/347/347 345/345/345 263/263/263
f 347/347/347 263/263/263 265/265/265
f 345/345/345 343/343/343 261/261/261
f 345/345/345 261/261/261 263/263/263
f 343/343/343 340/340/340 258/258/258
f 343/343/343 258/258/258 261/261/261
f 340/340/340 338/338/338 256/256/256
f 340/340/340 256/256/256 258/258/258
f 338/338/338 336/336/336 254/254/254
f 338/338/338 254/254/254 256/256/256
f 336/336/336 335/335/335 253/253/253
f 336/336/336 253/253/253 254/254/254
f 335/335/335 332/332/332 250/250/250
f 335/335/335 250/250/250 253/253/253
f 332/332/332 330/330/330 248/248/248
f 332/332/332 248/248/248 250/250/250
f 330/330/330 329/329/329 247/247/247
f 330/330/330 247/247/247 248/248/248
f 329/329/329 331/331/331 249/249/249
f 329/329/329 249/249/249 247/247/247
f 331/331/331 333/333/333 251/251/251
f 331/331/331 251/251/251 249/249/249
f 333/333/333 334/334/334 252/252/252
f 333/333/333 252/252/252 251/251/251
f 334/334/334 337/337/337 255/255/255
f 334/334/334 255/255/255 252/252/252
f 337/337/337 339/339/339 257/257/257
f 337/337/337 257/257/257 255/255/255
f 339/339/339 341/341/341 259/259/259
f 339/339/339 259/259/259 257/257/257
f 341/341/341 342/342/342 260/260/260
f 341/341/341 260/260/260 259/259/259
f 342/342/342 344/344/344 262/262/262
f 342/342/342 262/262/262 260/260/260
f 344/344/344 346/346/346 264/264/264
f 344/344/344 264/264/264 262/262/262
f 346/346/346 350/350/350 268/268/268
f 346/346/346 268/268/268 264/264/264
f 350/350/350 351/351/351 269/269/269
f 350/350/350 269/269/269 268/268/268
f 351/351/351 353/353/353 271/271/271
f 351/351/351 271/271/271 269/269/269
f 353/353/353 355/355/355 273/273/273
f 353/353/353 273/273/273 271/271/271
f 355/355/355 357/357/357 275/275/275
f 355/355/355 275/275/275 273/273/273
f 357/357/357 360/360/360 278/278/278
f 357/357/357 278/278/278 275/275/275
f 360/360/360 361/361/361 279/279/279
f 360/360/360 279/279/279 278/278/278
f 361/361/361 363/363/363 281/281/281
f 361/361/361 281/281/281 279/279/279
f 363/363/363 366/366/366 284/284/284
f 363/363/363 284/284/284 281/281/281
f 366/366/366 367/367/367 285/285/285
f 366/366/366 285/285/285 284/284/284
f 367/367/367 369/369/369 287/287/287
f 367/367/367 287/287/287 285/285/285
f 369/369/369 368/368/368 286/286/286
f 369/369/369 286/286/286 287/287/287
f 286/286/286 283/283/283 242/242/242
f 286/286/286 242/242/242 245/245/245
f 283/283/283 282/282/282 241/241/241
f 283/283/283 241/241/241 242/242/242
f 282/282/282 280/280/280 239/239/239
f 282/282/282 239/239/239 241/241/241
f 280/280/280 277/277/277 236/236/236
f 280/280/280 236/236/236 239/239/239
f 277/277/277 276/276/276 235/235/235
f 277/277/277 235/235/235 236/236/236
f 276/276/276 274/274/274 233/233/233
f 276/276/276 233/233/233 235/235/235
f 274/274/274 272/272/272 231/231/231
f 274/274/274 231/231/231 233/233/233
f 272/272/272 270/270/270 229/229/229
f 272/272/272 229/229/229 231/231/231
f 270/270/270 267/267/267 226/226/226
f 270/270/270 226/226/226 229/229/229
f 267/267/267 266/266/266 225/225/225
f 267/267/267 225/225/225 226/226/226
f 265/265/265 263/263/263 222/222/222
f 265/265/265 222/222/222 224/224/224
f 263/263/263 261/261/261 220/220/220
f 263/263/263 220/220/220 222/222/222
f 261/261/261 258/258/258 217/217/217
f 261/261/261 217/217/217 220/220/220
f 258/258/258 256/256/256 215/215/215
f 258/258/258 215/215/215 217/217/217
f 256/256/256 254/254/254 213/213/213
f 256/256/256 213/213/213 215/215/215
f 254/254/254 253/253/253 212/212/212
f 254/254/254 212/212/212 213/213/213
f 253/253/253 250/250/250 209/209/209
f 253/253/253 209/209/209 212/212/212
f 250/250/250 248/248/248 207/207/207
f 250/250/250 207/207/207 209/209/209
f 248/248/248 247/247/247 206/206/206
f 248/248/248 206/206/206 207/207/207
f 247/247/247 249/249/249 208/208/208
f 247/247/247 208/208/208 206/206/206
f 249/249/249 251/251/251 210/210/210
f 249/249/249 210/210/210 208/208/208
f 251/251/251 252/252/252 211/211/211
f 251/251/251 211/211/211 210/210/210
f 252/252/252 255/255/255 214/214/214
f 252/252/252 214/214/214 211/211/211
f 255/255/255 257/257/257 216/216/216
f 255/255/255 216/216/216 214/214/214
f 257/257/257 259/259/259 218/218/218
f 257/257/257 218/218/218 216/216/216
f 259/259/259 260/260/260 219/219/219
f 259/259/259 219/219/219 218/218/218
f 260/260/260 262/262/262 221/221/221
f 260/260/260 221/221/221 219/219/219
f 262/262/262 264/264/264 223/223/223
f 262/262/262 223/223/223 221/221/221
f 264/264/264 268/268/268 227/227/227
f 264/264/264 227/227/227 223/223/223
f 268/268/268 269/269/269 228/228/228
f 268/268/268 228/228/228 227/227/227
f 269/269/269 271/271/271 230/230/230
f 269/269/269 230/230/230 228/228/228
f 271/271/271 273/273/273 232/232/232
f 271/271/271 232/232/232 230/230/230
f 273/273/273 275/275/275 234/234/234
f 273/273/273 234/234/234 232/232/232
f 275/275/275 278/278/278 237/237/237
f 275/275/275 237/237/237 234/234/234
f 278/278/278 279/279/279 238/238/238
f 278/278/278 238/238/238 237/237/237
f 279/279/279 281/281/281 240/240/240
f 279/279/279 240/240/240 238/238/238
f 281/281/281 284/284/284 243/243/243
f 281/281/281 243/243/243 240/240/240
f 284/284/284 285/285/285 244/244/244
f 284/284/284 244/244/244 243/243/243
f 285/285/285 287/287/287 246/246/246
f 285/285/285 246/246/246 244/244/244
f 287/287/287 286/286/286 245/245/245
f 287/287/287 245/245/245 246/246/246
f 245/245/245 242/242/242 201/201/201
f 245/245/245 201/201/201 204/204/204
f 242/242/242 241/241/241 180/180/180
f 242/242/242 180/180/180 201/201/201
f 241/241/241 239/239/239 179/179/179
f 241/241/241 179/179/179 180/180/180
f 239/239/239 236/236/236 178/178/178
f 239/239/239 178/178/178 179/179/179
f 236/236/236 235/235/235 177/177/177
f 236/236/236 177/177/177 178/178/178
f 235/235/235 233/233/233 176/176/176
f 235/235/235 176/176/176 177/177/177
f 233/233/233 231/231/231 175/175/175
f 233/233/233 175/175/175 176/176/176
f 231/231/231 229/229/229 174/174/174
f 231/231/231 174/174/174 175/175/175
f 229/229/229 226/226/226 173/173/173
f 229/229/229 173/173/173 174/174/174
f 226/226/226 225/225/225 172/172/172
f 226/226/226 172/172/172 173/173/173
f 224/224/224 222/222/222 170/170/170
f 224/224/224 170/170/170 171/171/171
f 222/222/222 220/220/220 169/169/169
f 222/222/222 169/169/169 170/170/170
f 220/220/220 217/217/217 168/168/168
f 220/220/220 168/168/168 169/169/169
f 217/217/217 215/215/215 167/167/167
f 217/217/217 167/167/167 168/168/168
f 215/215/215 213/213/213 166/166/166
f 215/215/215 166/166/166 167/167/167
f 213/213/213 212/212/212 165/165/165
f 213/213/213 165/165/165 166/166/166
f 212/212/212 209/209/209 184/184/184
f 212/212/212 184/184/184 165/165/165
f 209/209/209 207/207/207 182/182/182
f 209/209/209 182/182/182 184/184/184
f 207/207/207 206/206/206 181/181/181
f 207/207/207 181/181/181 182/182/182
f 206/206/206 208/208/208 183/183/183
f 206/206/206 183/183/183 181/181/181
f 208/208/208 210/210/210 185/185/185
f 208/208/208 185/185/185 183/183/183
f 210/210/210 211/211/211 186/186/186
f 210/210/210 186/186/186 185/185/185
f 211/211/211 214/214/214 187/187/187
f 211/211/211 187/187/187 186/186/186
f 214/214/214 216/216/216 188/188/188
f 214/214/214 188/188/188 187/187/187
f 216/216/216 218/218/218 189/189/189
f 216/216/216 189/189/189 188/188/188
f 218/218/218 219/219/219 190/190/190
f 218/218/218 190/190/190 189/189/189
f 219/219/219 221/221/221 191/191/191
f 219/219/219 191/191/191 190/190/190
f 221/221/221 223/223/223 192/192/192
f 221/221/221 192/192/192 191/191/191
f 223/223/223 227/227/227 193/193/193
f 223/223/223 193/193/193 192/192/192
f 227/227/227 228/228/228 194/194/194
f 227/227/227 194/194/194 193/193/193
f 228/228/228 230/230/230 195/195/195
f 228/228/228 195/195/195 194/194/194
f 230/230/230 232/232/232 196/196/196
f 230/230/230 196/196/196 195/195/195
f 232/232/232 234/234/234 197/197/197
f 232/232/232 197/197/197 196/196/196
f 234/234/234 237/237/237 198/198/198
f 234/234/234 198/198/198 197/197/197
f 237/237/237 238/238/238 199/199/199
f 237/237/237 199/199/199 198/198/198
f 238/238/238 240/240/240 200/200/200
f 238/238/238 200/200/200 199/199/199
f 240/240/240 243/243/243 202/202/202
f 240/240/240 202/202/202 200/200/200
f 243/243/243 244/244/244 203/203/203
f 243/243/243 203/203/203 202/202/202
f 244/244/244 246/246/246 205/205/205
f 244/244/244 205/205/205 203/203/203
f 246/246/246 245/245/245 204/204/204
f 246/246/246 204/204/204 205/205/205
f 204/204/204 201/201/201 160/160/160
f 204/204/204 160/160/160 163/163/163
f 201/201/201 180/180/180 159/159/159
f 201/201/201 159/159/159 160/160/160
f 180/180/180 179/179/179 157/157/157
f 180/180/180 157/157/157 159/159/159
f 179/179/179 178/178/178 154/154/154
f 179/179/179 154/154/154 157/157/157
f 178/178/178 177/177/177 153/153/153
f 178/178/178 153/153/153 154/154/154
f 177/177/177 176/176/176 151/151/151
f 177/177/177 151/151/151 153/153/153
f 176/176/176 175/175/175 149/149/149
f 176/176/176 149/149/149 151/151/151
f 175/175/175 174/174/174 147/147/147
f 175/175/175 147/147/147 149/149/149
f 174/174/174 173/173/173 144/144/144
f 174/174/174 144/144/144 147/147/147
f 173/173/173 172/172/172 142/142/142
f 173/173/173 142/142/142 144/144/144
f 171/171/171 170/170/170 139/139/139
f 171/171/171 139/139/139 141/141/141
f 170/170/170 169/169/169 137/137/137
f 170/170/170 137/137/137 139/139/139
f 169/169/169 168/168/168 135/135/135
f 169/169/169 135/135/135 137/137/137
f 168/168/168 167/167/167 133/133/133
f 168/168/168 133/133/133 135/135/135
f 167/167/167 166/166/166 131/131/131
f 167/167/167 131/131/131 133/133/133
f 166/166/166 165/165/165 130/130/130
f 166/166/166 130/130/130 131/131/131
f 165/165/165 184/184/184 127/127/127
f 165/165/165 127/127/127 130/130/130
f 184/184/184 182/182/182 125/125/125
f 184/184/184 125/125/125 127/127/127
f 182/182/182 181/181/181 124/124/124
f 182/182/182 124/124/124 125/125/125
f 181/181/181 183/183/183 126/126/126
f 181/181/181 126/126/126 124/124/124
f 183/183/183 185/185/185 128/128/128
f 183/183/183 128/128/128 126/126/126
f 185/185/185 186/186/186 129/129/129
f 185/185/185 129/129/129 128/128/128
f 186/186/186 187/187/187 132/132/132
f 186/186/186 132/132/132 129/129/129
f 187/187/187 188/188/188 134/134/134
f 187/187/187 134/134/134 132/132/132
f 188/188/188 189/189/189 136/136/136
f 188/188/188 136/136/136 134/134/134
f 189/189/189 190/190/190 138/138/138
f 189/189/189 138/138/138 136/136/136
f 190/190/190 191/191/191 140/140/140
f 190/190/190 140/140/140 138/138/138
f 191/191/191 192/192/192 143/143/143
f 191/191/191 143/143/143 140/140/140
f 192/192/192 193/193/193 145/145/145
f 192/192/192 145/145/145 143/143/143
f 193/193/193 194/194/194 146/146/146
f 193/193/193 146/146/146 145/145/145
f 194/194/194 195/195/195 148/148/148
f 194/194/194 148/148/148 146/146/146
f 195/195/195 196/196/196 150/150/150
f 195/195/195 150/150/150 148/148/148
f 196/196/196 197/197/197 152/152/152
f 196/196/196 152/152/152 150/150/150
f 197/197/197 198/198/198 155/155/155
f 197/197/197 155/155/155 152/152/152
f 198/198/198 199/199/199 156/156/156
f 198/198/198 156/156/156 155/155/155
f 199/199/199 200/200/200 158/158/158
f 199/199/199 158/158/158 156/156/156
f 200/200/200 202/202/202 161/161/161
f 200/200/200 161/161/161 158/158/158
f 202/202/202 203/203/203 162/162/162
f 202/202/202 162/162/162 161/161/161
f 203/203/203 205/205/205 164/164/164
f 203/203/203 164/164/164 162/162/162
f 205/205/205 204/204/204 163/163/163
f 205/205/205 163/163/163 164/164/164
f 324/324/324 326/326/326 308/308/308
f 323/323/323 324/324/324 308/308/308
f 321/321/321 323/323/323 308/308/308
f 319/319/319 321/321/321 308/308/308
f 316/316/316 319/319/319 308/308/308
f 315/315/315 316/316/316 308/308/308
f 312/312/312 315/315/315 308/308/308
f 311/311/311 312/312/312 308/308/308
f 307/307/307 311/311/311 308/308/308
f 305/305/305 307/307/307 308/308/308
f 304/304/304 305/305/305 308/308/308
f 301/301/301 304/304/304 308/308/308
f 299/299/299 301/301/301 308/308/308
f 297/297/297 299/299/299 308/308/308
f 295/295/295 297/297/297 308/308/308
f 293/293/293 295/295/295 308/308/308
f 291/291/291 293/293/293 308/308/308
f 289/289/289 291/291/291 308/308/308
f 288/288/288 289/289/289 308/308/308
f 290/290/290 288/288/288 308/308/308
f 292/292/292 290/290/290 308/308/308
f 294/294/294 292/292/292 308/308/308
f 296/296/296 294/294/294 308/308/308
f 298/298/298 296/296/296 308/308/308
f 300/300/300 298/298/298 308/308/308
f 302/302/302 300/300/300 308/308/308
f 303/303/303 302/302/302 308/308/308
f 306/306/306 303/303/303 308/308/308
f 309/309/309 306/306/306 308/308/308
f 310/310/310 309/309/309 308/308/308
f 313/313/313 310/310/310 308/308/308
f 314/314/314 313/313/313 308/308/308
f 317/317/317 314/314/314 308/308/308
f 318/318/318 317/317/317 308/308/308
f 320/320/320 318/318/318 308/308/308
f 322/322/322 320/320/320 308/308/308
f 325/325/325 322/322/322 308/308/308
f 327/327/327 325/325/325 308/308/308
f 328/328/328 327/327/327 308/308/308
f 326/326/326 328/328/328 308/308/308
f 69/69/69 71/71/71 82/82/82
f 69/69/69 82/82/82 80/80/80
f 65/65/65 69/69/69 80/80/80
f 65/65/65 80/80/80 78/78/78
f 63/63/63 65/65/65 78/78/78
f 63/63/63 78/78/78 76/76/76
f 61/61/61 63/63/63 76/76/76
f 61/61/61 76/76/76 74/74/74
f 57/57/57 61/61/61 74/74/74
f 57/57/57 74/74/74 72/72/72
f 55/55/55 57/57/57 72/72/72
f 55/55/55 72/72/72 67/67/67
f 51/51/51 55/55/55 67/67/67
f 51/51/51 67/67/67 59/59/59
f 49/49/49 51/51/51 59/59/59
f 49/49/49 59/59/59 53/53/53
f 45/45/45 49/49/49 53/53/53
f 45/45/45 53/53/53 47/47/47
f 42/42/42 45/45/45 47/47/47
f 42/42/42 47/47/47 40/40/40
f 37/37/37 41/41/41 39/39/39
f 37/37/37 39/39/39 35/35/35
f 33/33/33 37/37/37 35/35/35
f 33/33/33 35/35/35 29/29/29
f 31/31/31 33/33/33 29/29/29
f 31/31/31 29/29/29 23/23/23
f 27/27/27 31/31/31 23/23/23
f 27/27/27 23/23/23 15/15/15
f 25/25/25 27/27/27 15/15/15
f 25/25/25 15/15/15 10/10/10
f 21/21/21 25/25/25 10/10/10
f 21/21/21 10/10/10 8/8/8
f 19/19/19 21/21/21 8/8/8
f 19/19/19 8/8/8 6/6/6
f 17/17/17 19/19/19 6/6/6
f 17/17/17 6/6/6 4/4/4
f 13/13/13 17/17/17 4/4/4
f 13/13/13 4/4/4 2/2/2
f 12/12/12 13/13/13 2/2/2
f 12/12/12 2/2/2 1/1/1
f 14/14/14 12/12/12 1/1/1
f 14/14/14 1/1/1 3/3/3
f 18/18/18 14/14/14 3/3/3
f 18/18/18 3/3/3 5/5/5
f 20/20/20 18/18/18 5/5/5
f 20/20/20 5/5/5 7/7/7
f 22/22/22 20/20/20 7/7/7
f 22/22/22 7/7/7 9/9/9
f 26/26/26 22/22/22 9/9/9
f 26/26/26 9/9/9 11/11/11
f 28/28/28 26/26/26 11/11/11
f 28/28/28 11/11/11 16/16/16
f 32/32/32 28/28/28 16/16/16
f 32/32/32 16/16/16 24/24/24
f 34/34/34 32/32/32 24/24/24
f 34/34/34 24/24/24 30/30/30
f 38/38/38 34/34/34 30/30/30
f 38/38/38 30/30/30 36/36/36
f 43/43/43 38/38/38 36/36/36
f 43/43/43 36/36/36 44/44/44
f 46/46/46 43/43/43 44/44/44
f 46/46/46 44/44/44 48/48/48
f 50/50/50 46/46/46 48/48/48
f 50/50/50 48/48/48 54/54/54
f 52/52/52 50/50/50 54/54/54
f 52/52/52 54/54/54 60/60/60
f 56/56/56 52/52/52 60/60/60
f 56/56/56 60/60/60 68/68/68
f 58/58/58 56/56/56 68/68/68
f 58/58/58 68/68/68 73/73/73
f 62/62/62 58/58/58 73/73/73
f 62/62/62 73/73/73 75/75/75
f 64/64/64 62/62/62 75/75/75
f 64/64/64 75/75/75 77/77/77
f 66/66/66 64/64/64 77/77/77
f 66/66/66 77/77/77 79/79/79
f 70/70/70 66/66/66 79/79/79
f 70/70/70 79/79/79 81/81/81
f 71/71/71 70/70/70 81/81/81
f 71/71/71 81/81/81 82/82/82
f 80/80/80 82/82/82 123/123/123
f 80/80/80 123/123/123 121/121/121
f 78/78/78 80/80/80 121/121/121
f 78/78/78 121/121/121 119/119/119
f 76/76/76 78/78/78 119/119/119
f 76/76/76 119/119/119 117/117/117
f 74/74/74 76/76/76 117/117/117
f 74/74/74 117/117/117 115/115/115
f 72/72/72 74/74/74 115/115/115
f 72/72/72 115/115/115 113/113/113
f 67/67/67 72/72/72 113/113/113
f 67/67/67 113/113/113 111/111/111
f 59/59/59 67/67/67 111/111/111
f 59/59/59 111/111/111 109/109/109
f 53/53/53 59/59/59 109/109/109
f 53/53/53 109/109/109 107/107/107
f 47/47/47 53/53/53 107/107/107
f 47/47/47 107/107/107 105/105/105
f 40/40/40 47/47/47 105/105/105
f 40/40/40 105/105/105 103/103/103
f 35/35/35 39/39/39 102/102/102
f 35/35/35 102/102/102 100/100/100
f 29/29/29 35/35/35 100/100/100
f 29/29/29 100/100/100 98/98/98
f 23/23/23 29/29/29 98/98/98
f 23/23/23 98/98/98 96/96/96
f 15/15/15 23/23/23 96/96/96
f 15/15/15 96/96/96 94/94/94
f 10/10/10 15/15/15 94/94/94
f 10/10/10 94/94/94 92/92/92
f 8/8/8 10/10/10 92/92/92
f 8/8/8 92/92/92 90/90/90
f 6/6/6 8/8/8 90/90/90
f 6/6/6 90/90/90 88/88/88
f 4/4/4 6/6/6 88/88/88
f 4/4/4 88/88/88 86/86/86
f 2/2/2 4/4/4 86/86/86
f 2/2/2 86/86/86 84/84/84
f 1/1/1 2/2/2 84/84/84
f 1/1/1 84/84/84 83/83/83
f 3/3/3 1/1/1 83/83/83
f 3/3/3 83/83/83 85/85/85
f 5/5/5 3/3/3 85/85/85
f 5/5/5 85/85/85 87/87/87
f 7/7/7 5/5/5 87/87/87
f 7/7/7 87/87/87 89/89/89
f 9/9/9 7/7/7 89/89/89
f 9/9/9 89/89/89 91/91/91
f 11/11/11 9/9/9 91/91/91
f 11/11/11 91/91/91 93/93/93
f 16/16/16 11/11/11 93/93/93
f 16/16/16 93/93/93 95/95/95
f 24/24/24 16/16/16 95/95/95
f 24/24/24 95/95/95 97/97/97
f 30/30/30 24/24/24 97/97/97
f 30/30/30 97/97/97 99/99/99
f 36/36/36 30/30/30 99/99/99
f 36/36/36 99/99/99 101/101/101
f 44/44/44 36/36/36 101/101/101
f 44/44/44 101/101/101 104/104/104
f 48/48/48 44/44/44 104/104/104
f 48/48/48 104/104/104 106/106/106
f 54/54/54 48/48/48 106/106/106
f 54/54/54 106/106/106 108/108/108
f 60/60/60 54/54/54 108/108/108
f 60/60/60 108/108/108 110/110/110
f 68/68/68 60/60/60 110/110/110
f 68/68/68 110/110/110 112/112/112
f 73/73/73 68/68/68 112/112/112
f 73/73/73 112/112/112 114/114/114
f 75/75/75 73/73/73 114/114/114
f 75/75/75 114/114/114 116/116/116
f 77/77/77 75/75/75 116/116/116
f 77/77/77 116/116/116 118/118/118
f 79/79/79 77/77/77 118/118/118
f 79/79/79 118/118/118 120/120/120
f 81/81/81 79/79/79 120/120/120
f 81/81/81 120/120/120 122/122/122
f 82/82/82 81/81/81 122/122/122
f 82/82/82 122/122/122 123/123/123

