mtllib material.mtl
usemtl initialShadingGr
v -0.73677600 -0.96534400 0.17543600
v -0.73325800 -0.95035700 0.36582700
v -0.74029400 -0.95035700 -0.01495400
v -0.72982700 -0.90576700 0.55152900
v -0.74372500 -0.90576700 -0.20065600
v -0.72656700 -0.83267000 0.72797000
v -0.74698500 -0.83267000 -0.37709700
v -0.72355800 -0.73286700 0.89080700
v -0.74999400 -0.73286700 -0.53993400
v -0.72087500 -0.60881500 1.03602800
v -0.75267700 -0.60881500 -0.68515500
v -0.71858300 -0.46356900 1.16005900
v -0.75496900 -0.46356900 -0.80918600
v -0.75681300 -0.30070500 -0.90897300
v -0.71673900 -0.30070400 1.25984500
v -0.75816300 -0.12423300 -0.98205700
v -0.71538900 -0.12423200 1.33293000
v -0.71456500 0.06150200 1.37751300
v -0.75898700 0.06150200 -1.02663900
v -0.71428800 0.25192400 1.39249600
v -0.75926400 0.25192400 -1.04162400
v -0.71456500 0.44234700 1.37751300
v -0.75898700 0.44234700 -1.02663900
v -0.71538900 0.62808000 1.33293000
v -0.75816300 0.62808000 -0.98205700
v -0.71673900 0.80455200 1.25984500
v -0.75681300 0.80455200 -0.90897300
v -0.75496900 0.96741600 -0.80918600
v -0.71858300 0.96741700 1.16005900
v -0.75267700 1.11266100 -0.68515500
v -0.72087500 1.11266200 1.03602800
v -0.74999400 1.23671300 -0.53993400
v -0.72355800 1.23671400 0.89080600
v -0.72656700 1.33651700 0.72797000
v -0.74698500 1.33651700 -0.37709700
v -0.74372500 1.40961400 -0.20065600
v -0.72982700 1.40961500 0.55152800
v -0.73325800 1.45420500 0.36582600
v -0.74029400 1.45420500 -0.01495400
v -0.73677600 1.46919300 0.17543600
v -0.74133900 -1.00592000 0.17552100
v -0.73770300 -0.99043400 0.37225700
v -0.74497400 -0.99043400 -0.02121600
v -0.73415800 -0.94435700 0.56414900
v -0.74851900 -0.94435700 -0.21310800
v -0.75188800 -0.86882400 -0.39543100
v -0.73078900 -0.86882300 0.74647200
v -0.72768000 -0.76569400 0.91473600
v -0.75499700 -0.76569400 -0.56369500
v -0.72490700 -0.63750700 1.06479900
v -0.75777000 -0.63750700 -0.71375800
v -0.72253900 -0.48741800 1.19296400
v -0.76013800 -0.48741800 -0.84192300
v -0.72063400 -0.31912500 1.29607600
v -0.76204300 -0.31912500 -0.94503600
v -0.71923800 -0.13677100 1.37159600
v -0.76343900 -0.13677100 -1.02055500
v -0.71838700 0.05515400 1.41766600
v -0.76429000 0.05515400 -1.06662300
v -0.71810100 0.25192400 1.43315000
v -0.76457600 0.25192400 -1.08210900
v -0.76429000 0.44869300 -1.06662300
v -0.71838700 0.44869400 1.41766600
v -0.76343900 0.64061800 -1.02055500
v -0.71923800 0.64061900 1.37159600
v -0.76204300 0.82297200 -0.94503600
v -0.72063400 0.82297300 1.29607600
v -0.76013800 0.99126500 -0.84192300
v -0.72253900 0.99126600 1.19296400
v -0.72490700 1.14135400 1.06479900
v -0.75777000 1.14135400 -0.71375800
v -0.75499700 1.26954000 -0.56369500
v -0.72768000 1.26954100 0.91473600
v -0.75188800 1.37267000 -0.39543100
v -0.73078900 1.37267100 0.74647200
v -0.73415800 1.44820400 0.56414900
v -0.74851900 1.44820400 -0.21310800
v -0.74497400 1.49428100 -0.02121600
v -0.73770300 1.49428200 0.37225700
v -0.74133900 1.50976700 0.17552100
vn 0.68240000 -0.73090000 -0.01260000
vn 0.68450000 -0.72190000 0.10170000
vn 0.68030000 -0.72190000 -0.12690000
vn 0.68650000 -0.69510000 0.21330000
vn 0.67820000 -0.69510000 -0.23840000
vn 0.68850000 -0.65120000 0.31910000
vn 0.67620000 -0.65130000 -0.34430000
vn 0.69030000 -0.59130000 0.41700000
vn 0.67440000 -0.59130000 -0.44210000
vn 0.69190000 -0.51680000 0.50420000
vn 0.67280000 -0.51680000 -0.52930000
vn 0.69330000 -0.42960000 0.57860000
vn 0.67150000 -0.42960000 -0.60380000
vn 0.67040000 -0.33180000 -0.66370000
vn 0.69440000 -0.33180000 0.63850000
vn 0.66950000 -0.22590000 -0.70760000
vn 0.69520000 -0.22580000 0.68240000
vn 0.69570000 -0.11430000 0.70910000
vn 0.66910000 -0.11440000 -0.73430000
vn 0.69590000 -0.00000000 0.71810000
vn 0.66890000 -0.00000000 -0.74330000
vn 0.69580000 0.11440000 0.70910000
vn 0.66900000 0.11430000 -0.73440000
vn 0.69520000 0.22590000 0.68240000
vn 0.66950000 0.22580000 -0.70760000
vn 0.69440000 0.33180000 0.63850000
vn 0.67030000 0.33180000 -0.66370000
vn 0.67150000 0.42960000 -0.60380000
vn 0.69330000 0.42960000 0.57860000
vn 0.67280000 0.51680000 -0.52940000
vn 0.69200000 0.51680000 0.50410000
vn 0.67440000 0.59130000 -0.44220000
vn 0.69030000 0.59130000 0.41690000
vn 0.68850000 0.65130000 0.31910000
vn 0.67620000 0.65120000 -0.34430000
vn 0.67820000 0.69510000 -0.23850000
vn 0.68650000 0.69510000 0.21320000
vn 0.68450000 0.72190000 0.10170000
vn 0.68030000 0.72190000 -0.12700000
vn 0.68240000 0.73090000 -0.01270000
vn 0.99360000 -0.11180000 -0.01840000
vn 0.99390000 -0.11040000 -0.00090000
vn 0.99320000 -0.11040000 -0.03580000
vn 0.99420000 -0.10630000 0.01620000
vn 0.99290000 -0.10630000 -0.05290000
vn 0.99260000 -0.09960000 -0.06910000
vn 0.99450000 -0.09960000 0.03240000
vn 0.99480000 -0.09040000 0.04730000
vn 0.99240000 -0.09040000 -0.08400000
vn 0.99500000 -0.07900000 0.06070000
vn 0.99210000 -0.07900000 -0.09740000
vn 0.99520000 -0.06570000 0.07200000
vn 0.99190000 -0.06570000 -0.10880000
vn 0.99540000 -0.05070000 0.08120000
vn 0.99170000 -0.05070000 -0.11790000
vn 0.99550000 -0.03450000 0.08790000
vn 0.99160000 -0.03450000 -0.12460000
vn 0.99560000 -0.01750000 0.09200000
vn 0.99150000 -0.01750000 -0.12870000
vn 0.99560000 -0.00000000 0.09340000
vn 0.99150000 -0.00000000 -0.13010000
vn 0.99150000 0.01750000 -0.12870000
vn 0.99560000 0.01750000 0.09200000
vn 0.99160000 0.03450000 -0.12460000
vn 0.99550000 0.03450000 0.08790000
vn 0.99170000 0.05070000 -0.11790000
vn 0.99540000 0.05070000 0.08120000
vn 0.99190000 0.06570000 -0.10880000
vn 0.99520000 0.06570000 0.07200000
vn 0.99500000 0.07900000 0.06070000
vn 0.99210000 0.07900000 -0.09740000
vn 0.99240000 0.09040000 -0.08400000
vn 0.99480000 0.09040000 0.04730000
vn 0.99260000 0.09960000 -0.06910000
vn 0.99450000 0.09960000 0.03240000
vn 0.99420000 0.10630000 0.01620000
vn 0.99290000 0.10630000 -0.05290000
vn 0.99320000 0.11040000 -0.03580000
vn 0.99390000 0.11040000 -0.00090000
vn 0.99360000 0.11180000 -0.01840000
vt 0.00000000 0.00000000
vt 0.00000000 0.00000000
vt 0.00000000 0.00000000
vt 0.00000000 0.00000000
vt 0.00000000 0.00000000
vt 0.00000000 0.00000000
vt 0.00000000 0.00000000
vt 0.00000000 0.00000000
vt 0.00000000 0.00000000
vt 0.00000000 0.00000000
vt 0.00000000 0.00000000
vt 0.00000000 0.00000000
vt 0.00000000 0.00000000
vt 0.00000000 0.00000000
vt 0.00000000 0.00000000
vt 0.00000000 0.00000000
vt 0.00000000 0.00000000
vt 0.00000000 0.00000000
vt 0.00000000 0.00000000
vt 0.00000000 0.00000000
vt 0.00000000 0.00000000
vt 0.00000000 0.00000000
vt 0.00000000 0.00000000
vt 0.00000000 0.00000000
vt 0.00000000 0.00000000
vt 0.00000000 0.00000000
vt 0.00000000 0.00000000
vt 0.00000000 0.00000000
vt 0.00000000 0.00000000
vt 0.00000000 0.00000000
vt 0.00000000 0.00000000
vt 0.00000000 0.00000000
vt 0.00000000 0.00000000
vt 0.00000000 0.00000000
vt 0.00000000 0.00000000
vt 0.00000000 0.00000000
vt 0.00000000 0.00000000
vt 0.00000000 0.00000000
vt 0.00000000 0.00000000
vt 0.00000000 0.00000000
vt 0.00000000 0.00000000
vt 0.00000000 0.00000000
vt 0.00000000 0.00000000
vt 0.00000000 0.00000000
vt 0.00000000 0.00000000
vt 0.00000000 0.00000000
vt 0.00000000 0.00000000
vt 0.00000000 0.00000000
vt 0.00000000 0.00000000
vt 0.00000000 0.00000000
vt 0.00000000 0.00000000
vt 0.00000000 0.00000000
vt 0.00000000 0.00000000
vt 0.00000000 0.00000000
vt 0.00000000 0.00000000
vt 0.00000000 0.00000000
vt 0.00000000 0.00000000
vt 0.00000000 0.00000000
vt 0.00000000 0.00000000
vt 0.00000000 0.00000000
vt 0.00000000 0.00000000
vt 0.00000000 0.00000000
vt 0.00000000 0.00000000
vt 0.00000000 0.00000000
vt 0.00000000 0.00000000
vt 0.00000000 0.00000000
vt 0.00000000 0.00000000
vt 0.00000000 0.00000000
vt 0.00000000 0.00000000
vt 0.00000000 0.00000000
vt 0.00000000 0.00000000
vt 0.00000000 0.00000000
vt 0.00000000 0.00000000
vt 0.00000000 0.00000000
vt 0.00000000 0.00000000
vt 0.00000000 0.00000000
vt 0.00000000 0.00000000
vt 0.00000000 0.00000000
vt 0.00000000 0.00000000
vt 0.00000000 0.00000000
f 37/37/37 38/38/38 79/79/79
f 37/37/37 79/79/79 76/76/76
f 34/34/34 37/37/37 76/76/76
f 34/34/34 76/76/76 75/75/75
f 33/33/33 34/34/34 75/75/75
f 33/33/33 75/75/75 73/73/73
f 31/31/31 33/33/33 73/73/73
f 31/31/31 73/73/73 70/70/70
f 29/29/29 31/31/31 70/70/70
f 29/29/29 70/70/70 69/69/69
f 26/26/26 29/29/29 69/69/69
f 26/26/26 69/69/69 67/67/67
f 24/24/24 26/26/26 67/67/67
f 24/24/24 67/67/67 65/65/65
f 22/22/22 24/24/24 65/65/65
f 22/22/22 65/65/65 63/63/63
f 20/20/20 22/22/22 63/63/63
f 20/20/20 63/63/63 60/60/60
f 18/18/18 20/20/20 60/60/60
f 18/18/18 60/60/60 58/58/58
f 17/17/17 18/18/18 58/58/58
f 17/17/17 58/58/58 56/56/56
f 15/15/15 17/17/17 56/56/56
f 15/15/15 56/56/56 54/54/54
f 12/12/12 15/15/15 54/54/54
f 12/12/12 54/54/54 52/52/52
f 10/10/10 12/12/12 52/52/52
f 10/10/10 52/52/52 50/50/50
f 8/8/8 10/10/10 50/50/50
f 8/8/8 50/50/50 48/48/48
f 6/6/6 8/8/8 48/48/48
f 6/6/6 48/48/48 47/47/47
f 4/4/4 6/6/6 47/47/47
f 4/4/4 47/47/47 44/44/44
f 2/2/2 4/4/4 44/44/44
f 2/2/2 44/44/44 42/42/42
f 1/1/1 2/2/2 42/42/42
f 1/1/1 42/42/42 41/41/41
f 3/3/3 1/1/1 41/41/41
f 3/3/3 41/41/41 43/43/43
f 5/5/5 3/3/3 43/43/43
f 5/5/5 43/43/43 45/45/45
f 7/7/7 5/5/5 45/45/45
f 7/7/7 45/45/45 46/46/46
f 9/9/9 7/7/7 46/46/46
f 9/9/9 46/46/46 49/49/49
f 11/11/11 9/9/9 49/49/49
f 11/11/11 49/49/49 51/51/51
f 13/13/13 11/11/11 51/51/51
f 13/13/13 51/51/51 53/53/53
f 14/14/14 13/13/13 53/53/53
f 14/14/14 53/53/53 55/55/55
f 16/16/16 14/14/14 55/55/55
f 16/16/16 55/55/55 57/57/57
f 19/19/19 16/16/16 57/57/57
f 19/19/19 57/57/57 59/59/59
f 21/21/21 19/19/19 59/59/59
f 21/21/21 59/59/59 61/61/61
f 23/23/23 21/21/21 61/61/61
f 23/23/23 61/61/61 62/62/62
f 25/25/25 23/23/23 62/62/62
f 25/25/25 62/62/62 64/64/64
f 27/27/27 25/25/25 64/64/64
f 27/27/27 64/64/64 66/66/66
f 28/28/28 27/27/27 66/66/66
f 28/28/28 66/66/66 68/68/68
f 30/30/30 28/28/28 68/68/68
f 30/30/30 68/68/68 71/71/71
f 32/32/32 30/30/30 71/71/71
f 32/32/32 71/71/71 72/72/72
f 35/35/35 32/32/32 72/72/72
f 35/35/35 72/72/72 74/74/74
f 36/36/36 35/35/35 74/74/74
f 36/36/36 74/74/74 77/77/77
f 39/39/39 36/36/36 77/77/77
f 39/39/39 77/77/77 78/78/78
f 40/40/40 39/39/39 78/78/78
f 40/40/40 78/78/78 80/80/80
f 38/38/38 40/40/40 80/80/80
f 38/38/38 80/80/80 79/79/79

