mtllib material.mtl
usemtl blinn3SG
v 5.40244000 -0.75524100 0.06455000
v 5.40198000 -0.75315700 0.05312800
v 5.40218100 -0.76069500 0.07480600
v 5.40085000 -0.75464400 0.04165900
v 5.40123000 -0.76898300 0.08289500
v 5.39915800 -0.75955800 0.03126800
v 5.39968100 -0.77929300 0.08802400
v 5.39706800 -0.76741800 0.02296900
v 5.39768300 -0.79061800 0.08968800
v 5.39478900 -0.77745400 0.01757500
v 5.39543400 -0.80184800 0.08772900
v 5.39254000 -0.78868500 0.01561500
v 5.39315500 -0.81188500 0.08233500
v 5.39054300 -0.80000900 0.01728100
v 5.39106600 -0.81974500 0.07403700
v 5.38899200 -0.81032000 0.02240900
v 5.38937200 -0.82465900 0.06364400
v 5.38874300 -0.77935200 0.05674000
v 5.38862900 -0.77883000 0.05388000
v 5.38867900 -0.78071800 0.05930700
v 5.38804200 -0.81860700 0.03049700
v 5.38834600 -0.77920200 0.05100900
v 5.38844000 -0.78279200 0.06133300
v 5.38824200 -0.82614600 0.05217600
v 5.38778400 -0.82406000 0.04075400
v 5.38792100 -0.78043300 0.04840600
v 5.38805300 -0.78537400 0.06261600
v 5.38739900 -0.78240000 0.04632900
v 5.38755100 -0.78820900 0.06303400
v 5.38682700 -0.78491300 0.04497800
v 5.38699000 -0.79102100 0.06254300
v 5.38626500 -0.78772400 0.04448800
v 5.38641900 -0.79353300 0.06119200
v 5.38576400 -0.79056000 0.04490500
v 5.38589500 -0.79550100 0.05911400
v 5.38537700 -0.79314100 0.04618900
v 5.38547200 -0.79673200 0.05651300
v 5.38513900 -0.79521700 0.04821400
v 5.38519000 -0.79710400 0.05364200
v 5.38507400 -0.79658200 0.05078100
v 5.25851200 -0.75400500 0.06675200
v 5.25838700 -0.75342600 0.06358700
v 5.25844200 -0.75551700 0.06959600
v 5.25807200 -0.75383900 0.06040600
v 5.25817800 -0.75781200 0.07183800
v 5.25760300 -0.75520000 0.05752500
v 5.25774900 -0.76067200 0.07325900
v 5.25702400 -0.75738000 0.05522600
v 5.25719500 -0.76381200 0.07372200
v 5.25639200 -0.76016100 0.05373000
v 5.25648200 -0.76354300 0.06345400
v 5.25657200 -0.76692400 0.07317900
v 5.25576900 -0.76327500 0.05318700
v 5.25593900 -0.76970700 0.07168400
v 5.25521600 -0.76641500 0.05364800
v 5.25536100 -0.77188600 0.06938300
v 5.25478600 -0.76927300 0.05507000
v 5.25489200 -0.77324900 0.06650100
v 5.25452200 -0.77157000 0.05731300
v 5.25457700 -0.77366100 0.06332200
v 5.25445100 -0.77308300 0.06015600
v 2.01609800 0.23626300 -0.87525400
v 2.01609800 0.25703000 -0.87525400
v 2.01196100 0.21595000 -0.87648500
v 2.01196100 0.27734500 -0.87648600
v 2.00386400 0.19697800 -0.87889300
v 2.00386400 0.29631600 -0.87889300
v 1.99216400 0.18017700 -0.88237500
v 1.99216400 0.31311700 -0.88237500
v 1.97737300 0.32701300 -0.88677500
v 1.97737200 0.16628100 -0.88677600
v 1.96013400 0.15589600 -0.89190500
v 1.96013400 0.33739700 -0.89190500
v 1.94120400 0.14947900 -0.89753700
v 1.94120400 0.34381500 -0.89753700
v 1.92140600 0.14730800 -0.90342600
v 1.92140600 0.24664700 -0.90342600
v 1.92140600 0.34598500 -0.90342600
v 1.90161000 0.34381500 -0.90931700
v 1.90160900 0.14947900 -0.90931700
v 1.88268000 0.15589600 -0.91494900
v 1.88268000 0.33739700 -0.91494800
v 1.86544100 0.16628100 -0.92007700
v 1.86544100 0.32701300 -0.92007700
v 1.85216700 0.18017700 -0.92958200
v 1.85064900 0.31311700 -0.92447900
v 1.85064800 0.18017700 -0.92447900
v 1.84435900 0.17284200 -0.93190400
v 1.84046800 0.19697800 -0.93306200
v 1.83895000 0.19697800 -0.92796000
v 1.83895000 0.29631600 -0.92796000
v 1.83237200 0.21595000 -0.93547100
v 1.83136800 0.19149700 -0.93576900
v 1.83085300 0.21595000 -0.93036900
v 1.83085300 0.27734400 -0.93036800
v 1.82671500 0.23626300 -0.93160000
v 1.82671500 0.25703000 -0.93160000
vn -0.38810000 0.86950000 0.30570000
vn -0.39900000 0.91550000 0.05140000
vn -0.39330000 0.74820000 0.53430000
vn -0.42480000 0.88200000 -0.20380000
vn -0.41420000 0.56360000 0.71470000
vn -0.46300000 0.77250000 -0.43460000
vn -0.44860000 0.33390000 0.82900000
vn -0.51000000 0.59760000 -0.61870000
vn -0.49330000 0.08150000 0.86600000
vn -0.56110000 0.37450000 -0.73820000
vn -0.54360000 -0.16870000 0.82220000
vn -0.61120000 0.12520000 -0.78150000
vn -0.59480000 -0.39200000 0.70180000
vn -0.65560000 -0.12620000 -0.74440000
vn -0.64180000 -0.56650000 0.51680000
vn -0.69000000 -0.35530000 -0.63060000
vn -0.68000000 -0.67540000 0.28530000
vn -0.45500000 0.83960000 0.29670000
vn -0.46540000 0.88340000 0.05590000
vn -0.45990000 0.72490000 0.51280000
vn -0.71090000 -0.53960000 -0.45110000
vn -0.49000000 0.85170000 -0.18570000
vn -0.47960000 0.55020000 0.68360000
vn -0.70570000 -0.70790000 0.03020000
vn -0.71630000 -0.66110000 -0.22350000
vn -0.52630000 0.74800000 -0.40440000
vn -0.51220000 0.33260000 0.79180000
vn -0.57090000 0.58260000 -0.57850000
vn -0.55430000 0.09380000 0.82700000
vn -0.61930000 0.37120000 -0.69190000
vn -0.60220000 -0.14330000 0.78530000
vn -0.66690000 0.13520000 -0.73280000
vn -0.65080000 -0.35460000 0.67140000
vn -0.70900000 -0.10290000 -0.69770000
vn -0.69510000 -0.51980000 0.49660000
vn -0.74140000 -0.31970000 -0.59000000
vn -0.73170000 -0.62280000 0.27720000
vn -0.76110000 -0.49410000 -0.42010000
vn -0.75600000 -0.65360000 0.03580000
vn -0.76620000 -0.60930000 -0.20430000
vn -0.51150000 0.81010000 0.28660000
vn -0.52020000 0.85200000 0.05850000
vn -0.51640000 0.70150000 0.49120000
vn -0.54300000 0.82220000 -0.17050000
vn -0.53530000 0.53600000 0.65280000
vn -0.57680000 0.72410000 -0.37820000
vn -0.56640000 0.32990000 0.75520000
vn -0.61860000 0.56710000 -0.54390000
vn -0.60620000 0.10390000 0.78850000
vn -0.66400000 0.36670000 -0.65160000
vn -0.98030000 0.18350000 0.07290000
vn -0.65110000 -0.12040000 0.74940000
vn -0.70890000 0.14250000 -0.69080000
vn -0.69670000 -0.32080000 0.64160000
vn -0.74870000 -0.08370000 -0.65760000
vn -0.73840000 -0.47790000 0.47580000
vn -0.77980000 -0.28970000 -0.55500000
vn -0.77210000 -0.57610000 0.26850000
vn -0.79880000 -0.45510000 -0.39350000
vn -0.79480000 -0.60560000 0.03950000
vn -0.80380000 -0.56410000 -0.18890000
vn -0.50100000 0.07630000 -0.86210000
vn -0.50100000 -0.07630000 -0.86210000
vn -0.47070000 0.22560000 -0.85300000
vn -0.47070000 -0.22560000 -0.85300000
vn -0.41100000 0.36510000 -0.83530000
vn -0.41110000 -0.36500000 -0.83530000
vn -0.32510000 0.48850000 -0.80970000
vn -0.32510000 -0.48840000 -0.80980000
vn -0.21650000 -0.59050000 -0.77740000
vn -0.21640000 0.59050000 -0.77750000
vn -0.08970000 0.66690000 -0.73970000
vn -0.08970000 -0.66680000 -0.73980000
vn 0.04950000 0.71410000 -0.69830000
vn 0.04940000 -0.71400000 -0.69840000
vn 0.19490000 0.73000000 -0.65500000
vn 0.28520000 -0.00000000 -0.95850000
vn 0.19480000 -0.73000000 -0.65500000
vn 0.34030000 -0.71410000 -0.61180000
vn 0.34040000 0.71400000 -0.61180000
vn 0.47950000 0.66690000 -0.57040000
vn 0.47950000 -0.66690000 -0.57040000
vn 0.60630000 0.59060000 -0.53260000
vn 0.60610000 -0.59060000 -0.53270000
vn 0.69430000 0.45630000 -0.55650000
vn 0.71490000 -0.48850000 -0.50030000
vn 0.71440000 0.48740000 -0.50200000
vn -0.32510000 -0.48850000 -0.80980000
vn 0.77500000 0.34190000 -0.53140000
vn 0.80040000 0.36460000 -0.47590000
vn 0.80080000 -0.36500000 -0.47480000
vn 0.82970000 0.21030000 -0.51710000
vn -0.41080000 -0.36560000 -0.83520000
vn 0.85950000 0.22530000 -0.45890000
vn 0.86030000 -0.22560000 -0.45710000
vn 0.89080000 0.07630000 -0.44800000
vn 0.89070000 -0.07630000 -0.44810000
vt 0.00000000 0.00000000
vt 0.00000000 0.00000000
vt 0.00000000 0.00000000
vt 0.00000000 0.00000000
vt 0.00000000 0.00000000
vt 0.00000000 0.00000000
vt 0.00000000 0.00000000
vt 0.00000000 0.00000000
vt 0.00000000 0.00000000
vt 0.00000000 0.00000000
vt 0.00000000 0.00000000
vt 0.00000000 0.00000000
vt 0.00000000 0.00000000
vt 0.00000000 0.00000000
vt 0.00000000 0.00000000
vt 0.00000000 0.00000000
vt 0.00000000 0.00000000
vt 0.00000000 0.00000000
vt 0.00000000 0.00000000
vt 0.00000000 0.00000000
vt 0.00000000 0.00000000
vt 0.00000000 0.00000000
vt 0.00000000 0.00000000
vt 0.00000000 0.00000000
vt 0.00000000 0.00000000
vt 0.00000000 0.00000000
vt 0.00000000 0.00000000
vt 0.00000000 0.00000000
vt 0.00000000 0.00000000
vt 0.00000000 0.00000000
vt 0.00000000 0.00000000
vt 0.00000000 0.00000000
vt 0.00000000 0.00000000
vt 0.00000000 0.00000000
vt 0.00000000 0.00000000
vt 0.00000000 0.00000000
vt 0.00000000 0.00000000
vt 0.00000000 0.00000000
vt 0.00000000 0.00000000
vt 0.00000000 0.00000000
vt 0.00000000 0.00000000
vt 0.00000000 0.00000000
vt 0.00000000 0.00000000
vt 0.00000000 0.00000000
vt 0.00000000 0.00000000
vt 0.00000000 0.00000000
vt 0.00000000 0.00000000
vt 0.00000000 0.00000000
vt 0.00000000 0.00000000
vt 0.00000000 0.00000000
vt 0.00000000 0.00000000
vt 0.00000000 0.00000000
vt 0.00000000 0.00000000
vt 0.00000000 0.00000000
vt 0.00000000 0.00000000
vt 0.00000000 0.00000000
vt 0.00000000 0.00000000
vt 0.00000000 0.00000000
vt 0.00000000 0.00000000
vt 0.00000000 0.00000000
vt 0.00000000 0.00000000
vt 0.00000000 0.00000000
vt 0.00000000 0.00000000
vt 0.00000000 0.00000000
vt 0.00000000 0.00000000
vt 0.00000000 0.00000000
vt 0.00000000 0.00000000
vt 0.00000000 0.00000000
vt 0.00000000 0.00000000
vt 0.00000000 0.00000000
vt 0.00000000 0.00000000
vt 0.00000000 0.00000000
vt 0.00000000 0.00000000
vt 0.00000000 0.00000000
vt 0.00000000 0.00000000
vt 0.00000000 0.00000000
vt 0.00000000 0.00000000
vt 0.00000000 0.00000000
vt 0.00000000 0.00000000
vt 0.00000000 0.00000000
vt 0.00000000 0.00000000
vt 0.00000000 0.00000000
vt 0.00000000 0.00000000
vt 0.00000000 0.00000000
vt 0.00000000 0.00000000
vt 0.00000000 0.00000000
vt 0.00000000 0.00000000
vt 0.00000000 0.00000000
vt 0.00000000 0.00000000
vt 0.00000000 0.00000000
vt 0.00000000 0.00000000
vt 0.00000000 0.00000000
vt 0.00000000 0.00000000
vt 0.00000000 0.00000000
vt 0.00000000 0.00000000
vt 0.00000000 0.00000000
vt 0.00000000 0.00000000
f 47/47/47 49/49/49 29/29/29
f 47/47/47 29/29/29 27/27/27
f 49/49/49 52/52/52 31/31/31
f 49/49/49 31/31/31 29/29/29
f 52/52/52 54/54/54 33/33/33
f 52/52/52 33/33/33 31/31/31
f 54/54/54 56/56/56 35/35/35
f 54/54/54 35/35/35 33/33/33
f 56/56/56 58/58/58 37/37/37
f 56/56/56 37/37/37 35/35/35
f 58/58/58 60/60/60 39/39/39
f 58/58/58 39/39/39 37/37/37
f 60/60/60 61/61/61 40/40/40
f 60/60/60 40/40/40 39/39/39
f 61/61/61 59/59/59 38/38/38
f 61/61/61 38/38/38 40/40/40
f 59/59/59 57/57/57 36/36/36
f 59/59/59 36/36/36 38/38/38
f 57/57/57 55/55/55 34/34/34
f 57/57/57 34/34/34 36/36/36
f 55/55/55 53/53/53 32/32/32
f 55/55/55 32/32/32 34/34/34
f 53/53/53 50/50/50 30/30/30
f 53/53/53 30/30/30 32/32/32
f 50/50/50 48/48/48 28/28/28
f 50/50/50 28/28/28 30/30/30
f 48/48/48 46/46/46 26/26/26
f 48/48/48 26/26/26 28/28/28
f 46/46/46 44/44/44 22/22/22
f 46/46/46 22/22/22 26/26/26
f 44/44/44 42/42/42 19/19/19
f 44/44/44 19/19/19 22/22/22
f 42/42/42 41/41/41 18/18/18
f 42/42/42 18/18/18 19/19/19
f 41/41/41 43/43/43 20/20/20
f 41/41/41 20/20/20 18/18/18
f 43/43/43 45/45/45 23/23/23
f 43/43/43 23/23/23 20/20/20
f 45/45/45 47/47/47 27/27/27
f 45/45/45 27/27/27 23/23/23
f 49/49/49 47/47/47 51/51/51
f 52/52/52 49/49/49 51/51/51
f 54/54/54 52/52/52 51/51/51
f 56/56/56 54/54/54 51/51/51
f 58/58/58 56/56/56 51/51/51
f 60/60/60 58/58/58 51/51/51
f 61/61/61 60/60/60 51/51/51
f 59/59/59 61/61/61 51/51/51
f 57/57/57 59/59/59 51/51/51
f 55/55/55 57/57/57 51/51/51
f 53/53/53 55/55/55 51/51/51
f 50/50/50 53/53/53 51/51/51
f 48/48/48 50/50/50 51/51/51
f 46/46/46 48/48/48 51/51/51
f 44/44/44 46/46/46 51/51/51
f 42/42/42 44/44/44 51/51/51
f 41/41/41 42/42/42 51/51/51
f 43/43/43 41/41/41 51/51/51
f 45/45/45 43/43/43 51/51/51
f 47/47/47 45/45/45 51/51/51
f 27/27/27 29/29/29 9/9/9
f 27/27/27 9/9/9 7/7/7
f 29/29/29 31/31/31 11/11/11
f 29/29/29 11/11/11 9/9/9
f 31/31/31 33/33/33 13/13/13
f 31/31/31 13/13/13 11/11/11
f 33/33/33 35/35/35 15/15/15
f 33/33/33 15/15/15 13/13/13
f 35/35/35 37/37/37 17/17/17
f 35/35/35 17/17/17 15/15/15
f 37/37/37 39/39/39 24/24/24
f 37/37/37 24/24/24 17/17/17
f 39/39/39 40/40/40 25/25/25
f 39/39/39 25/25/25 24/24/24
f 40/40/40 38/38/38 21/21/21
f 40/40/40 21/21/21 25/25/25
f 38/38/38 36/36/36 16/16/16
f 38/38/38 16/16/16 21/21/21
f 36/36/36 34/34/34 14/14/14
f 36/36/36 14/14/14 16/16/16
f 34/34/34 32/32/32 12/12/12
f 34/34/34 12/12/12 14/14/14
f 32/32/32 30/30/30 10/10/10
f 32/32/32 10/10/10 12/12/12
f 30/30/30 28/28/28 8/8/8
f 30/30/30 8/8/8 10/10/10
f 28/28/28 26/26/26 6/6/6
f 28/28/28 6/6/6 8/8/8
f 26/26/26 22/22/22 4/4/4
f 26/26/26 4/4/4 6/6/6
f 22/22/22 19/19/19 2/2/2
f 22/22/22 2/2/2 4/4/4
f 19/19/19 18/18/18 1/1/1
f 19/19/19 1/1/1 2/2/2
f 18/18/18 20/20/20 3/3/3
f 18/18/18 3/3/3 1/1/1
f 20/20/20 23/23/23 5/5/5
f 20/20/20 5/5/5 3/3/3
f 23/23/23 27/27/27 7/7/7
f 23/23/23 7/7/7 5/5/5
f 75/75/75 73/73/73 77/77/77
f 73/73/73 70/70/70 77/77/77
f 70/70/70 69/69/69 77/77/77
f 69/69/69 67/67/67 77/77/77
f 67/67/67 65/65/65 77/77/77
f 65/65/65 63/63/63 77/77/77
f 63/63/63 62/62/62 77/77/77
f 62/62/62 64/64/64 77/77/77
f 64/64/64 66/66/66 77/77/77
f 66/66/66 68/68/68 77/77/77
f 68/68/68 71/71/71 77/77/77
f 71/71/71 72/72/72 77/77/77
f 72/72/72 74/74/74 77/77/77
f 74/74/74 76/76/76 77/77/77
f 76/76/76 80/80/80 77/77/77
f 80/80/80 81/81/81 77/77/77
f 81/81/81 83/83/83 77/77/77
f 83/83/83 87/87/87 77/77/77
f 87/87/87 90/90/90 77/77/77
f 90/90/90 94/94/94 77/77/77
f 94/94/94 96/96/96 77/77/77
f 96/96/96 97/97/97 77/77/77
f 97/97/97 95/95/95 77/77/77
f 95/95/95 91/91/91 77/77/77
f 91/91/91 86/86/86 77/77/77
f 86/86/86 84/84/84 77/77/77
f 84/84/84 82/82/82 77/77/77
f 82/82/82 79/79/79 77/77/77
f 79/79/79 78/78/78 77/77/77
f 78/78/78 75/75/75 77/77/77
f 88/88/88 93/93/93 89/89/89
f 88/88/88 89/89/89 85/85/85
f 85/85/85 89/89/89 90/90/90
f 85/85/85 90/90/90 87/87/87
f 89/89/89 92/92/92 94/94/94
f 89/89/89 94/94/94 90/90/90

